<svg xmlns="http://www.w3.org/2000/svg" width="85" height="85" viewBox="0 0 85 85">
  <g id="_24X7_Tech_Support" data-name="24X7 Tech Support" transform="translate(-0.001 0.076)">
    <path id="Path_3775" data-name="Path 3775" d="M42.5,0A42.5,42.5,0,1,1,0,42.5,42.5,42.5,0,0,1,42.5,0Z" transform="translate(0.001 -0.076)" fill="#fff"/>
    <g id="support" transform="translate(20.203 20.203)">
      <g id="Group_7584" data-name="Group 7584" transform="translate(17.098 14.124)">
        <g id="Group_7583" data-name="Group 7583">
          <path id="Path_3562" data-name="Path 3562" d="M41.73,33.5a2.221,2.221,0,0,0-2.23,2.23h1.487a.743.743,0,1,1,1.487,0H43.96A2.253,2.253,0,0,0,41.73,33.5Z" transform="translate(-39.5 -33.5)" fill="#0089ff"/>
        </g>
      </g>
      <g id="Group_7586" data-name="Group 7586" transform="translate(23.045 14.124)">
        <g id="Group_7585" data-name="Group 7585">
          <path id="Path_3563" data-name="Path 3563" d="M53.73,33.5a2.221,2.221,0,0,0-2.23,2.23h1.487a.743.743,0,1,1,1.487,0H55.96A2.253,2.253,0,0,0,53.73,33.5Z" transform="translate(-51.5 -33.5)" fill="#0089ff"/>
        </g>
      </g>
      <g id="Group_7588" data-name="Group 7588" transform="translate(19.328 34.196)">
        <g id="Group_7587" data-name="Group 7587">
          <path id="Path_3564" data-name="Path 3564" d="M46.974,74a2.974,2.974,0,1,0,2.974,2.974A2.982,2.982,0,0,0,46.974,74Zm0,4.46a1.487,1.487,0,1,1,1.487-1.487A1.46,1.46,0,0,1,46.974,78.46Z" transform="translate(-44 -74)" fill="#0089ff"/>
        </g>
      </g>
      <g id="Group_7590" data-name="Group 7590" transform="translate(0 0)">
        <g id="Group_7589" data-name="Group 7589">
          <path id="Path_3565" data-name="Path 3565" d="M45.143,48.117V38.453A11.168,11.168,0,0,0,33.992,27.3H33.2l.743-.743h.793a3.744,3.744,0,0,0,3.717-3.717V21.553a3.334,3.334,0,0,0,0-5.551,11.152,11.152,0,0,0-22.3-.05,3.361,3.361,0,0,0-1.487,2.775,3.321,3.321,0,0,0,3.32,3.32h.5a9.086,9.086,0,0,0,2.874,5.2h-.793A11.168,11.168,0,0,0,9.411,38.4v9.714H5V49.6H49.6V48.117ZM36.966,22.841a2.2,2.2,0,0,1-1.933,2.181A8.6,8.6,0,0,0,36.074,22.1h.5a.735.735,0,0,0,.347-.05v.793Zm1.487-4.064a1.829,1.829,0,0,1-1.834,1.834h-.4V16.894h.347A1.882,1.882,0,0,1,38.453,18.778ZM18.381,20.611h-.347A1.829,1.829,0,0,1,16.2,18.778a1.862,1.862,0,0,1,1.834-1.834h.347Zm-.347-5.2a.968.968,0,0,0-.347.05,9.64,9.64,0,0,1,19.229.05c-.1,0-.2-.05-.347-.05h-.5a8.892,8.892,0,0,0-17.544,0h-.5Zm16.7,1.487c-5.352-.2-8.921-2.379-8.921-4.46a.743.743,0,1,0-1.487,0c0,1.834-1.933,3.37-4.411,3.667a7.43,7.43,0,0,1,14.818.793ZM19.868,20.611V17.588a6.811,6.811,0,0,0,5.253-2.874c1.536,2.032,5.2,3.519,9.615,3.667v2.23a7.315,7.315,0,0,1-1.487,4.46H27.3v1.487h4.46a12.916,12.916,0,0,1-1.388.843,7.434,7.434,0,0,1-10.507-6.79Zm5.154,8.623a8.888,8.888,0,0,0,4.559,0L27.3,33.844Zm1.09,5.5H24.824L21.85,28.789h1.289Zm5.352-5.947h1.289L29.78,34.736H28.491ZM13.177,38.453v9.664h-2.23V38.453a9.646,9.646,0,0,1,9.218-9.615l2.974,5.947H16.894A3.67,3.67,0,0,0,13.177,38.453Zm26.762,9.664H14.664V38.453a2.221,2.221,0,0,1,2.23-2.23H37.709a2.221,2.221,0,0,1,2.23,2.23v9.664Zm3.717,0h-2.23V38.453a3.744,3.744,0,0,0-3.717-3.717H31.465l2.974-5.947A9.68,9.68,0,0,1,43.656,38.4v9.714Z" transform="translate(-5 -5)" fill="#0089ff"/>
        </g>
      </g>
      <g id="Group_7592" data-name="Group 7592" transform="translate(31.966 36.426)">
        <g id="Group_7591" data-name="Group 7591">
          <rect id="Rectangle_1568" data-name="Rectangle 1568" width="1.487" height="5.204" fill="#0089ff"/>
        </g>
      </g>
      <g id="Group_7594" data-name="Group 7594" transform="translate(31.966 33.453)">
        <g id="Group_7593" data-name="Group 7593">
          <rect id="Rectangle_1569" data-name="Rectangle 1569" width="1.487" height="1.487" fill="#0089ff"/>
        </g>
      </g>
    </g>
  </g>
</svg>
