<svg id="app" xmlns="http://www.w3.org/2000/svg" width="105.952" height="118.304" viewBox="0 0 105.952 118.304">
  <path id="Path_251" data-name="Path 251" d="M140.1,39.717a22.372,22.372,0,0,0-6.635-4.567,28.751,28.751,0,0,1-14.426-14.687A34.233,34.233,0,1,0,59.692,53.927a29.527,29.527,0,0,1,3.933,25.807c-3.874,12.444-2.523,24.238,4.846,31.607,12.914,12.914,39.416,7.349,59.195-12.43S153.009,52.631,140.1,39.717Z" transform="translate(-41.106 0)" fill="#f2f2f6"/>
  <path id="Path_252" data-name="Path 252" d="M187.428,153.546H143.116a5.108,5.108,0,0,1-5.108-5.108V61.608a5.108,5.108,0,0,1,5.108-5.108h44.312a5.108,5.108,0,0,1,5.108,5.108v86.831A5.108,5.108,0,0,1,187.428,153.546Z" transform="translate(-106.12 -43.445)" fill="#00c" opacity="0.1"/>
  <path id="Path_253" data-name="Path 253" d="M369.894,93.638h-4.973V78.177h4.973a1.591,1.591,0,0,1,1.591,1.591V92.047A1.591,1.591,0,0,1,369.894,93.638Z" transform="translate(-280.602 -60.113)" fill="#0089ff"/>
  <path id="Path_254" data-name="Path 254" d="M119.535,109.547h5.7V78.177h-5.7c-.879,0-.863.712-.863,1.591v28.188C118.672,108.835,118.656,109.547,119.535,109.547Z" transform="translate(-91.251 -60.113)" fill="#0089ff"/>
  <path id="Path_255" data-name="Path 255" d="M187.428,132.546H143.116a5.108,5.108,0,0,1-5.108-5.108V40.608a5.108,5.108,0,0,1,5.108-5.108h44.312a5.108,5.108,0,0,1,5.108,5.108v86.831A5.108,5.108,0,0,1,187.428,132.546Z" transform="translate(-106.12 -27.297)" fill="#fff"/>
  <path id="Path_256" data-name="Path 256" d="M138.01,87.63h54.526v72.956H138.01Z" transform="translate(-106.121 -67.382)" fill="#e8e5e5"/>
  <g id="Group_571" data-name="Group 571" transform="translate(31.888 43.324)">
    <path id="Path_264" data-name="Path 264" d="M138.007,187.5h54.527v49.88H138.007Z" transform="translate(-138.007 -187.5)" fill="#fff"/>
  </g>
  <path id="Path_265" data-name="Path 265" transform="translate(0 0)" fill="none" stroke="#00c" stroke-linecap="round" stroke-linejoin="round" stroke-miterlimit="10" stroke-width="10"/>
  <path id="Path_266" data-name="Path 266" d="M241.258,58.811H231.9a1.155,1.155,0,1,1,0-2.311h9.363a1.155,1.155,0,0,1,0,2.311Z" transform="translate(-177.425 -43.445)" fill="#0089ff"/>
  <path id="Path_267" data-name="Path 267" d="M235.667,418.655v2.927a1.155,1.155,0,0,0,1.155,1.155h7.086a1.155,1.155,0,0,0,1.155-1.155v-2.927a1.155,1.155,0,0,0-1.155-1.155h-7.086a1.155,1.155,0,0,0-1.155,1.155Z" transform="translate(-181.213 -321.032)"/>
  <path id="Path_268" data-name="Path 268" d="M318.462,426.144h-3.817a1.155,1.155,0,1,1,0-2.311h3.817a1.155,1.155,0,1,1,0,2.311Z" transform="translate(-241.054 -325.901)"/>
  <path id="Path_269" data-name="Path 269" d="M176.962,426.144h-3.817a1.155,1.155,0,0,1,0-2.311h3.817a1.155,1.155,0,0,1,0,2.311Z" transform="translate(-132.25 -325.901)"/>
  <circle id="Ellipse_32" data-name="Ellipse 32" cx="1.292" cy="1.292" r="1.292" transform="translate(37.711 39.026)" fill="#020e51"/>
  <circle id="Ellipse_33" data-name="Ellipse 33" cx="1.292" cy="1.292" r="1.292" transform="translate(41.618 39.026)" fill="#020e51"/>
  <path id="Path_270" data-name="Path 270" d="M190.018,288.088H178.927a1.155,1.155,0,1,1,0-2.311h11.091a1.155,1.155,0,0,1,0,2.311Z" transform="translate(-136.696 -219.745)" fill="#d9d9ff"/>
  <path id="Path_271" data-name="Path 271" d="M190.018,267.861H178.927a1.155,1.155,0,1,1,0-2.311h11.091a1.155,1.155,0,0,1,0,2.311Z" transform="translate(-136.696 -204.191)" fill="#d9d9ff"/>
  <path id="Path_272" data-name="Path 272" d="M192.974,214.346h-6.089a2.019,2.019,0,0,1-2.017-2.017V206.24a2.019,2.019,0,0,1,2.017-2.017h6.089a2.019,2.019,0,0,1,2.017,2.017v6.089A2.019,2.019,0,0,1,192.974,214.346Zm-5.8-2.311h5.5v-5.5h-5.5Z" transform="translate(-142.152 -157.035)" fill="#b3b3ff"/>
  <path id="Path_273" data-name="Path 273" d="M288.474,288.088H277.383a1.155,1.155,0,0,1,0-2.311h11.091a1.155,1.155,0,0,1,0,2.311Z" transform="translate(-212.402 -219.745)" fill="#d9d9ff"/>
  <path id="Path_274" data-name="Path 274" d="M288.474,267.861H277.383a1.155,1.155,0,0,1,0-2.311h11.091a1.155,1.155,0,0,1,0,2.311Z" transform="translate(-212.402 -204.191)" fill="#d9d9ff"/>
  <path id="Path_275" data-name="Path 275" d="M176.7,40.361h-1.722v-3.6a6.27,6.27,0,0,0-6.263-6.263H124.4a6.27,6.27,0,0,0-6.263,6.263v3.6H115.69a1.853,1.853,0,0,0-1.833,1.19,4.154,4.154,0,0,0-.185,1.511V71.34a4.154,4.154,0,0,0,.185,1.511,1.853,1.853,0,0,0,1.833,1.19h2.449v49.552a6.27,6.27,0,0,0,6.263,6.263h44.312a6.27,6.27,0,0,0,6.263-6.263V58.133H176.7a2.749,2.749,0,0,0,2.746-2.746V43.107A2.749,2.749,0,0,0,176.7,40.361Zm-52.3-7.55h44.312a3.957,3.957,0,0,1,3.952,3.952v5.781H120.45V36.763a3.957,3.957,0,0,1,3.952-3.952Zm44.312,94.736H124.4a3.957,3.957,0,0,1-3.952-3.952v-5.781h45.515a1.155,1.155,0,0,0,0-2.311H120.45V51.557a1.155,1.155,0,0,0-2.311,0v4.566a1.15,1.15,0,0,0,0,2.157V71.731h-2.153c0-.129,0-28.93,0-29.06h2.153V43.7a1.155,1.155,0,0,0,1.155,1.155h53.372v78.739A3.957,3.957,0,0,1,168.714,127.546Zm8.42-72.16a.436.436,0,0,1-.436.436h-1.722V42.672H176.7a.436.436,0,0,1,.436.436Z" transform="translate(-87.406 -23.453)"/>
  <path id="Path_276" data-name="Path 276" d="M291.429,204.223H285.34a2.019,2.019,0,0,0-2.017,2.017v6.089a2.019,2.019,0,0,0,2.017,2.017h6.089a2.019,2.019,0,0,0,2.017-2.017V206.24A2.019,2.019,0,0,0,291.429,204.223Zm-.294,7.812h-5.5v-5.5h5.5Z" transform="translate(-217.858 -157.035)" fill="#0089ff"/>
  <path id="Path_277" data-name="Path 277" d="M190.018,381.295H178.927a1.155,1.155,0,1,1,0-2.311h11.091a1.155,1.155,0,1,1,0,2.311Z" transform="translate(-136.696 -291.415)" fill="#d9d9ff"/>
  <path id="Path_278" data-name="Path 278" d="M192.974,327.779h-6.089a2.019,2.019,0,0,1-2.017-2.017v-6.089a2.019,2.019,0,0,1,2.017-2.017h6.089a2.019,2.019,0,0,1,2.017,2.017v6.089A2.019,2.019,0,0,1,192.974,327.779Zm-5.8-2.311h5.5v-5.5h-5.5Z" transform="translate(-142.152 -244.258)" fill="#0089ff"/>
  <path id="Path_279" data-name="Path 279" d="M288.474,381.295H277.383a1.155,1.155,0,1,1,0-2.311h11.091a1.155,1.155,0,1,1,0,2.311Z" transform="translate(-212.402 -291.415)" fill="#d9d9ff"/>
  <path id="Path_280" data-name="Path 280" d="M291.429,327.779H285.34a2.019,2.019,0,0,1-2.017-2.017v-6.089a2.019,2.019,0,0,1,2.017-2.017h6.089a2.019,2.019,0,0,1,2.017,2.017v6.089A2.019,2.019,0,0,1,291.429,327.779Zm-5.8-2.311h5.5v-5.5h-5.5Z" transform="translate(-217.858 -244.258)" fill="#0089ff"/>
  <path id="Path_281" data-name="Path 281" d="M81.881,41.789a1.151,1.151,0,0,1-.817-.338L79.57,39.957l-1.494,1.494a1.155,1.155,0,0,1-1.634-1.634l2.311-2.311a1.155,1.155,0,0,1,1.634,0L82.7,39.817a1.155,1.155,0,0,1-.817,1.972Z" transform="translate(-58.519 -28.58)" fill="#0089ff"/>
  <path id="Path_282" data-name="Path 282" d="M425.548,322.279a1.151,1.151,0,0,1-.817-.338l-1.494-1.494-1.494,1.494a1.155,1.155,0,0,1-1.634-1.634L422.42,318a1.155,1.155,0,0,1,1.634,0l2.311,2.311a1.155,1.155,0,0,1-.817,1.972Z" transform="translate(-322.778 -244.259)" fill="#0089ff"/>
  <path id="Path_283" data-name="Path 283" d="M68.006,254.534a1.151,1.151,0,0,1-.817-.338L65.7,252.7,64.2,254.2a1.155,1.155,0,0,1-1.634-1.634l2.311-2.311a1.155,1.155,0,0,1,1.634,0l2.311,2.311a1.155,1.155,0,0,1-.817,1.972Z" transform="translate(-47.85 -192.168)" fill="#0089ff"/>
  <path id="Path_284" data-name="Path 284" d="M422.927,112.847a1.155,1.155,0,0,1-.817-1.972l2.311-2.311a1.155,1.155,0,0,1,1.634,1.634l-2.311,2.311A1.152,1.152,0,0,1,422.927,112.847Z" transform="translate(-324.316 -83.219)" fill="#0089ff"/>
  <path id="Path_285" data-name="Path 285" d="M85.259,318.279a1.155,1.155,0,0,1-.817-1.972L86.753,314a1.155,1.155,0,0,1,1.634,1.634l-2.311,2.311A1.153,1.153,0,0,1,85.259,318.279Z" transform="translate(-64.671 -241.184)" fill="#0089ff"/>
</svg>
