<svg xmlns="http://www.w3.org/2000/svg" xmlns:xlink="http://www.w3.org/1999/xlink" width="887.054" height="504.507" viewBox="0 0 887.054 504.507">
  <defs>
    <linearGradient id="linear-gradient" x1="8.07" y1="0.084" x2="8.07" y2="0.993" gradientUnits="objectBoundingBox">
      <stop offset="0" stop-color="#e6f7ff"/>
      <stop offset="1" stop-color="#fff"/>
    </linearGradient>
  </defs>
  <g id="banner" transform="translate(-70.601 -95.72)">
    <path id="Path_3252" data-name="Path 3252" d="M697.606,277.191H834.469c5.407,0,9.829-3.662,9.829-8.137s-4.422-8.137-9.829-8.137H652.6c-5.407,0-9.83-3.661-9.83-8.136s4.423-8.137,9.83-8.137h13.531c5.407,0,9.83-3.662,9.83-8.137s4.423-8.137,9.83-8.137h47.348c5.405,0,9.829-3.661,9.829-8.136s-4.423-8.137-9.829-8.137H651.974c-5.407,0-9.83-3.662-9.83-8.137s-4.423-8.137-9.829-8.137h-45.76c-5.406,0-9.829-3.661-9.829-8.137s4.423-8.136,9.829-8.136h119.8c5.407,0,9.83-3.662,9.83-8.137s-4.423-8.137-9.83-8.137H614.575c-5.406,0-9.83-3.661-9.83-8.137S600.323,147,594.916,147H540.76c-5.406,0-9.83-3.662-9.83-8.137s-4.423-8.137-9.829-8.137H330.445c-5.407,0-9.83,3.662-9.83,8.137S316.191,147,310.786,147h-25.4c-5.407,0-9.829,3.661-9.829,8.136s4.422,8.137,9.829,8.137h25.4c5.405,0,9.829,3.662,9.829,8.137s-4.423,8.137-9.829,8.137H233.77c-5.405,0-9.829,3.661-9.829,8.136s4.423,8.137,9.829,8.137H247.3c5.407,0,9.83,3.662,9.83,8.137s-4.423,8.137-9.83,8.137h-53.75c-5.407,0-9.829,3.661-9.829,8.137s4.422,8.136,9.829,8.136h20.559c5.407,0,9.83,3.662,9.83,8.137s4.423,8.137,9.829,8.137h31.961c5.407,0,9.83,3.661,9.83,8.137s-4.423,8.136-9.83,8.136H148.321c-5.407,0-9.829,3.662-9.829,8.137s4.422,8.137,9.829,8.137H265.732c5.407,0,9.83,3.662,9.83,8.137s4.422,8.136,9.829,8.136h25.4c5.405,0,9.829,3.662,9.829,8.137s-4.423,8.137-9.829,8.137H233.77c-5.405,0-9.829,3.662-9.829,8.137s4.423,8.136,9.829,8.136H247.3c5.407,0,9.83,3.662,9.83,8.137s-4.423,8.137-9.83,8.137h-53.75c-5.407,0-9.829,3.662-9.829,8.137s4.422,8.136,9.829,8.136H368.358c5.407,0,9.83,3.662,9.83,8.137s-4.423,8.137-9.83,8.137H330.445c-5.407,0-9.83,3.662-9.83,8.137s4.423,8.137,9.83,8.137H551.49c5.407,0,9.83-3.662,9.83-8.137s4.423-8.137,9.829-8.137h94.984c5.407,0,9.83-3.662,9.83-8.137s-4.423-8.137-9.83-8.137H589.118c-5.407,0-9.829-3.661-9.829-8.136s4.422-8.137,9.829-8.137h77.014c5.407,0,9.83-3.662,9.83-8.137s-4.423-8.137-9.83-8.137H652.6c-5.407,0-9.83-3.661-9.83-8.136s4.423-8.137,9.83-8.137h53.749c5.407,0,9.83-3.662,9.83-8.137s-4.423-8.137-9.83-8.137h-8.744c-5.407,0-9.829-3.661-9.829-8.136S692.2,277.191,697.606,277.191Zm-617.175,0h23.552c5.407,0,9.83-3.662,9.83-8.137s-4.423-8.137-9.83-8.137H80.431c-5.407,0-9.83,3.662-9.83,8.137S75.024,277.191,80.431,277.191Zm98.861,32.548h-1.947c-5.405,0-9.829,3.662-9.829,8.137s4.423,8.136,9.829,8.136h1.947c5.405,0,9.829-3.661,9.829-8.136S184.7,309.74,179.292,309.74Zm690.279-32.548c5.405,0,9.829-3.662,9.829-8.137s-4.423-8.137-9.829-8.137h-1.948c-5.405,0-9.829,3.662-9.829,8.137s4.423,8.137,9.829,8.137ZM742,179.546h1.946c5.407,0,9.83-3.662,9.83-8.137s-4.423-8.137-9.83-8.137H742c-5.407,0-9.83,3.662-9.83,8.137S736.59,179.546,742,179.546Zm7.246,146.468H698.856c-5.407,0-9.83,3.662-9.83,8.137s4.423,8.137,9.83,8.137h50.387c5.406,0,9.83-3.662,9.83-8.137S754.649,326.013,749.242,326.013ZM254.618,114.449H305c5.407,0,9.83-3.662,9.83-8.137s-4.423-8.137-9.83-8.137H254.618c-5.407,0-9.83,3.662-9.83,8.137S249.211,114.449,254.618,114.449ZM768.9,228.368h50.387c5.407,0,9.829-3.661,9.829-8.136s-4.422-8.137-9.829-8.137H768.9c-5.407,0-9.83,3.661-9.83,8.137S763.5,228.368,768.9,228.368ZM340.848,114.449H413.3c5.405,0,9.829-3.662,9.829-8.137s-4.423-8.137-9.829-8.137H340.848c-5.405,0-9.829,3.662-9.829,8.137S335.442,114.449,340.848,114.449ZM700.8,358.562h-1.946c-5.407,0-9.83,3.662-9.83,8.137s4.423,8.137,9.83,8.137H700.8c5.407,0,9.83-3.662,9.83-8.137S706.208,358.562,700.8,358.562ZM212.448,114.449h1.946c5.407,0,9.83-3.662,9.83-8.137s-4.423-8.137-9.83-8.137h-1.946c-5.407,0-9.83,3.662-9.83,8.137S207.041,114.449,212.448,114.449Z" transform="translate(0 0.254)" fill="#e6f7ff" opacity="0.02"/>
    <g id="Group_7566" data-name="Group 7566" transform="translate(367.543 95.72)">
      <g id="Group_7564" data-name="Group 7564">
        <g id="Group_7537" data-name="Group 7537" transform="translate(0 73.017)">
          <g id="Group_7528" data-name="Group 7528" transform="translate(27.467)">
            <g id="Group_7522" data-name="Group 7522">
              <rect id="Rectangle_1519" data-name="Rectangle 1519" width="562.645" height="375.681" rx="12.048" fill="#fff"/>
              <rect id="Rectangle_1520" data-name="Rectangle 1520" width="338.903" height="546.3" rx="4.641" transform="translate(554.472 28.605) rotate(90)" fill="#f0f0f0"/>
              <path id="Path_3256" data-name="Path 3256" d="M882.486,187.821H669.141v338.9H882.486a5.128,5.128,0,0,0,5.122-5.121V192.942A5.128,5.128,0,0,0,882.486,187.821Z" transform="translate(-333.135 -159.216)" fill="#48a5ff"/>
            </g>
            <path id="Path_3257" data-name="Path 3257" d="M762.482,210.042H743.543v4.765h18.939Zm50.91,0H772.013v4.765h41.379Zm-31.848,9.674h-38v4.765h38Zm31.848,0H791.074v4.765h22.318Zm-31.848,9.673h-38v4.764h38Zm9.53,4.764h22.318V229.39H791.074Zm54.162-14.438H822.923v4.765h22.314Zm-82.754,19.348H743.543v4.765h18.939Zm98.564,0H772.013v4.765h89.033Zm-98.564,9.674H743.543V253.5h18.939Zm9.531,4.766h74.736v-4.766H772.013ZM850,229.39H822.923v4.764H850Zm-68.458,29.024h-38v4.764h38Zm31.848,0H791.074v4.764h22.318Zm-84.941-43.607H733.1v-4.765h-4.648Zm0,9.674H733.1v-4.765h-4.648Zm0,9.672H733.1V229.39h-4.648Zm0,9.675H733.1v-4.765h-4.648Zm0,9.674H733.1v-4.766h-4.648Zm0,9.674H733.1v-4.764h-4.648Zm24.622,13.7h18.941v-4.766H753.072Zm28.471,0h41.379v-4.766H781.544Zm-28.471,9.672h18.941v-4.765H753.072Zm28.471,0h31.848v-4.765H781.544Zm-28.471,9.675h18.941v-4.766H753.072Zm107.973-4.766h-79.5v4.766h79.5ZM753.072,305.9h18.941v-4.766H753.072Zm28.471,0h41.379v-4.766H781.544Zm-28.471,9.674h18.941v-4.766H753.072Zm28.471,0h22.318v-4.766H781.544Zm-28.471,9.675h18.941v-4.765H753.072Zm55.555-4.765H781.544v4.765h27.083ZM850,258.414H822.923v4.764H850Zm9.531,42.724H832.454V305.9h27.079Zm-46.141,33.049v4.765h17.549v-4.765Zm50.906,38.7H851.515v4.764H864.3Zm-50.906,14.44h17.549v-4.766H813.392Zm27.08,0h12.783v-4.766H840.472ZM822.923,286.553H850v-4.765H822.923Zm-94.472-9.672H733.1v-4.766h-4.648Zm0,9.672H733.1v-4.765h-4.648Zm0,9.675H733.1v-4.766h-4.648Zm0,9.674H733.1v-4.766h-4.648Zm0,9.674H733.1v-4.766h-4.648Zm0,9.675H733.1v-4.765h-4.648Zm34.153,13.7h18.94v-4.765H762.6Zm28.47-4.765v4.765h12.788v-4.765Zm-9.53,9.675H762.6v4.764h18.94Zm9.53,4.764h50.91v-4.764h-50.91ZM762.6,358.3h18.94v-4.766H762.6Zm98.442-4.766H791.074V358.3h69.972ZM762.6,367.977h18.94v-4.765H762.6Zm28.47-4.765v4.765H865.81v-4.765Zm49.4-153.17H822.923v4.765h17.549ZM762.6,377.651h18.94v-4.764H762.6Zm28.47,0h50.91v-4.764h-50.91Zm22.318-62.074h31.845v-4.766H813.392Zm-31.848,66.984H762.6v4.766h18.94Zm9.53,0v4.766h12.788v-4.766Zm-62.623-43.609H733.1v-4.765h-4.648Zm0,9.674H733.1v-4.764h-4.648Zm0,9.675H733.1v-4.766h-4.648Zm0,9.674H733.1v-4.765h-4.648Zm0,9.674H733.1v-4.764h-4.648Zm0,9.676H733.1v-4.766h-4.648Zm43.562,9.53H753.072v4.766h18.941Zm9.531,4.766h41.379v-4.766H781.544Zm-9.531,4.906H753.072v4.764h18.941Zm9.531,4.764h31.848v-4.764H781.544Zm-9.531,4.91H753.072v4.766h18.941Zm89.033,0h-79.5v4.766h79.5Zm-89.033,9.674H753.072v4.766h18.941Zm50.91,0H781.544v4.766h41.379Zm-69.85,14.44h18.941v-4.764H753.072Zm50.789-4.764H781.544v4.764h22.318Zm-31.849,9.674H753.072v4.766h18.941Zm36.614,0H781.544v4.766h27.083Zm50.905-19.35H832.454v4.766h27.079Zm-28.592,33.049H813.392v4.766h17.549Zm-8.018-47.634H850v-4.764H822.923Zm-94.472-9.67H733.1v-4.766h-4.648Zm0,9.67H733.1v-4.764h-4.648Zm0,9.675H733.1V416.2h-4.648Zm0,9.674H733.1v-4.766h-4.648Zm0,9.674H733.1v-4.764h-4.648Zm0,9.676H733.1v-4.766h-4.648Zm34.153,13.7h18.94v-4.766H762.6Zm28.47-4.766v4.766h12.788v-4.766Zm-28.47,14.44h18.94V468.6H762.6Zm28.47,0h50.91V468.6h-50.91Zm-28.47,9.675h18.94v-4.765H762.6Zm28.47,0h69.972v-4.765H791.074Zm-28.47,9.674h18.94V487.95H762.6Zm28.47,0H865.81V487.95H791.074Zm22.318-52.4h31.845v-4.764H813.392Zm-84.941,23.375H733.1v-4.766h-4.648Zm0,9.674H733.1V468.6h-4.648Zm0,9.675H733.1v-4.765h-4.648Zm0,9.674H733.1V487.95h-4.648ZM685.217,222.1h9.674v-9.674h-9.674Zm15.256-2.454H717v-4.765H700.473Zm-15.256,21.8h9.674v-9.674h-9.674Zm15.256-2.455H717v-4.765H700.473Zm-15.256,21.8h9.674v-9.674h-9.674Zm15.256-2.454H717v-4.764H700.473Zm-15.256,21.8h9.674v-9.674h-9.674Zm15.256-2.455H717v-4.766H700.473Zm-15.256,21.8h9.674v-9.674h-9.674Zm15.256-2.454H717v-4.764H700.473ZM685.217,319.02h9.674v-9.674h-9.674Zm15.256-2.456H717V311.8H700.473Zm-15.256,21.8h9.674v-9.673h-9.674Zm15.256-2.454H717v-4.765H700.473Zm-15.256,21.8h9.674v-9.674h-9.674Zm15.256-2.453H717V350.5H700.473Zm-15.256,21.8h9.674v-9.674h-9.674Zm15.256-2.457H717v-4.765H700.473Z" transform="translate(-331.474 -156.919)" fill="#63b3ff"/>
            <circle id="Ellipse_59" data-name="Ellipse 59" cx="7.355" cy="7.355" r="7.355" transform="translate(490.985 7.422)" fill="#6c74d1"/>
            <circle id="Ellipse_60" data-name="Ellipse 60" cx="7.355" cy="7.355" r="7.355" transform="translate(513.301 7.422)" fill="#6c74d1"/>
            <circle id="Ellipse_61" data-name="Ellipse 61" cx="7.355" cy="7.355" r="7.355" transform="translate(535.617 7.422)" fill="#6c74d1"/>
            <g id="Group_7527" data-name="Group 7527" transform="translate(24.263 41.648)">
              <path id="Path_3258" data-name="Path 3258" d="M406.764,218.483a3.314,3.314,0,1,0-3.313-3.315A3.318,3.318,0,0,0,406.764,218.483Zm3.285,3.77a7.924,7.924,0,0,1-6.569,0c-1.886.857-3.224,2.385-3.224,3.723,0,1.5,2.1,1.77,6.509,1.77s6.51-.266,6.51-1.77C413.273,224.64,411.935,223.112,410.048,222.253Zm-3.285-22.611A20.158,20.158,0,1,0,426.921,219.8,20.158,20.158,0,0,0,406.764,199.642Zm0,10.624a4.9,4.9,0,1,1-4.9,4.9A4.909,4.909,0,0,1,406.764,210.266Zm0,19.067c-3.8,0-8.1,0-8.1-3.358,0-2.068,1.867-4.261,4.543-5.334a.789.789,0,0,1,.665.034,6.218,6.218,0,0,0,5.782,0,.789.789,0,0,1,.665-.034c2.675,1.072,4.543,3.266,4.543,5.334C414.862,229.334,410.559,229.334,406.764,229.334Z" transform="translate(-386.606 -199.642)" fill="#d2ccff"/>
              <g id="Group_7523" data-name="Group 7523" transform="translate(53.168 22.385)">
                <path id="Path_3259" data-name="Path 3259" d="M464.947,222.513H436.321a1.291,1.291,0,0,1,0-2.583h28.626a1.291,1.291,0,1,1,0,2.583Z" transform="translate(-434.768 -219.93)" fill="#d2ccff"/>
                <path id="Path_3260" data-name="Path 3260" d="M476.4,222.513h-9.126a1.291,1.291,0,1,1,0-2.583H476.4a1.291,1.291,0,0,1,0,2.583Z" transform="translate(-431.569 -219.93)" fill="#d2ccff"/>
                <path id="Path_3261" data-name="Path 3261" d="M498.838,222.513H479.963a1.291,1.291,0,1,1,0-2.583h18.875a1.291,1.291,0,1,1,0,2.583Z" transform="translate(-430.257 -219.93)" fill="#d2ccff"/>
                <path id="Path_3262" data-name="Path 3262" d="M445.448,227.842h-9.127a1.292,1.292,0,0,1,0-2.583h9.127a1.292,1.292,0,1,1,0,2.583Z" transform="translate(-434.768 -219.379)" fill="#d2ccff"/>
                <path id="Path_3263" data-name="Path 3263" d="M477.945,227.842H449.32a1.292,1.292,0,1,1,0-2.583h28.625a1.292,1.292,0,1,1,0,2.583Z" transform="translate(-433.425 -219.379)" fill="#d2ccff"/>
                <path id="Path_3264" data-name="Path 3264" d="M502.465,227.842H479.612a1.292,1.292,0,1,1,0-2.583h22.853a1.292,1.292,0,1,1,0,2.583Z" transform="translate(-430.293 -219.379)" fill="#d2ccff"/>
                <path id="Path_3265" data-name="Path 3265" d="M463.046,233.17H436.085a1.291,1.291,0,1,1,0-2.583h26.961a1.291,1.291,0,0,1,0,2.583Z" transform="translate(-434.793 -218.828)" fill="#d2ccff"/>
                <path id="Path_3266" data-name="Path 3266" d="M475.336,233.17H464.963a1.291,1.291,0,0,1,0-2.583h10.373a1.291,1.291,0,0,1,0,2.583Z" transform="translate(-431.808 -218.828)" fill="#d2ccff"/>
                <path id="Path_3267" data-name="Path 3267" d="M498.759,233.17H478.217a1.291,1.291,0,1,1,0-2.583h20.542a1.291,1.291,0,1,1,0,2.583Z" transform="translate(-430.438 -218.828)" fill="#d2ccff"/>
              </g>
              <path id="Path_3268" data-name="Path 3268" d="M506.3,206.638H436.42a2.352,2.352,0,0,1,0-4.7H506.3a2.352,2.352,0,0,1,0,4.7Z" transform="translate(-381.699 -199.405)" fill="#d2ccff"/>
              <path id="Path_3269" data-name="Path 3269" d="M406.764,265.409a3.314,3.314,0,1,0-3.313-3.315A3.318,3.318,0,0,0,406.764,265.409Zm3.285,3.77a7.924,7.924,0,0,1-6.569,0c-1.886.857-3.225,2.385-3.225,3.723,0,1.5,2.1,1.77,6.51,1.77s6.51-.266,6.51-1.77C413.273,271.566,411.935,270.038,410.048,269.18Zm-3.285-22.612a20.158,20.158,0,1,0,20.158,20.159A20.158,20.158,0,0,0,406.764,246.568Zm0,10.624a4.9,4.9,0,1,1-4.9,4.9A4.909,4.909,0,0,1,406.764,257.192Zm0,19.069c-3.8,0-8.1,0-8.1-3.359,0-2.068,1.866-4.261,4.541-5.334a.789.789,0,0,1,.665.034,6.218,6.218,0,0,0,5.782,0,.789.789,0,0,1,.665-.034c2.675,1.072,4.543,3.266,4.543,5.334C414.862,276.261,410.559,276.261,406.764,276.261Z" transform="translate(-386.606 -194.791)" fill="#d2ccff"/>
              <g id="Group_7524" data-name="Group 7524" transform="translate(53.168 74.163)">
                <path id="Path_3270" data-name="Path 3270" d="M464.947,269.439H436.321a1.291,1.291,0,1,1,0-2.582h28.626a1.291,1.291,0,1,1,0,2.582Z" transform="translate(-434.768 -266.857)" fill="#d2ccff"/>
                <path id="Path_3271" data-name="Path 3271" d="M476.4,269.439h-9.126a1.291,1.291,0,1,1,0-2.582H476.4a1.291,1.291,0,0,1,0,2.582Z" transform="translate(-431.569 -266.857)" fill="#d2ccff"/>
                <path id="Path_3272" data-name="Path 3272" d="M498.838,269.439H479.963a1.291,1.291,0,1,1,0-2.582h18.875a1.291,1.291,0,1,1,0,2.582Z" transform="translate(-430.257 -266.857)" fill="#d2ccff"/>
                <path id="Path_3273" data-name="Path 3273" d="M445.448,274.768h-9.127a1.292,1.292,0,0,1,0-2.583h9.127a1.292,1.292,0,1,1,0,2.583Z" transform="translate(-434.768 -266.306)" fill="#d2ccff"/>
                <path id="Path_3274" data-name="Path 3274" d="M477.945,274.768H449.32a1.292,1.292,0,1,1,0-2.583h28.625a1.292,1.292,0,1,1,0,2.583Z" transform="translate(-433.425 -266.306)" fill="#d2ccff"/>
                <path id="Path_3275" data-name="Path 3275" d="M502.465,274.768H479.612a1.292,1.292,0,1,1,0-2.583h22.853a1.292,1.292,0,1,1,0,2.583Z" transform="translate(-430.293 -266.306)" fill="#d2ccff"/>
                <path id="Path_3276" data-name="Path 3276" d="M463.046,280.1H436.085a1.291,1.291,0,1,1,0-2.582h26.961a1.291,1.291,0,1,1,0,2.582Z" transform="translate(-434.793 -265.755)" fill="#d2ccff"/>
                <path id="Path_3277" data-name="Path 3277" d="M475.336,280.1H464.963a1.291,1.291,0,1,1,0-2.582h10.373a1.291,1.291,0,0,1,0,2.582Z" transform="translate(-431.808 -265.755)" fill="#d2ccff"/>
                <path id="Path_3278" data-name="Path 3278" d="M498.759,280.1H478.217a1.291,1.291,0,1,1,0-2.582h20.542a1.291,1.291,0,1,1,0,2.582Z" transform="translate(-430.438 -265.755)" fill="#d2ccff"/>
              </g>
              <path id="Path_3279" data-name="Path 3279" d="M506.3,253.564H436.42a2.352,2.352,0,0,1,0-4.7H506.3a2.352,2.352,0,0,1,0,4.7Z" transform="translate(-381.699 -194.554)" fill="#d2ccff"/>
              <path id="Path_3280" data-name="Path 3280" d="M548.713,222.372a7.928,7.928,0,0,1-6.57,0c-1.887.857-3.224,2.385-3.224,3.723,0,1.5,2.1,1.77,6.509,1.77s6.51-.266,6.51-1.77C551.939,224.759,550.6,223.231,548.713,222.372Zm-3.285-3.77a3.314,3.314,0,1,0-3.313-3.315A3.318,3.318,0,0,0,545.429,218.6Zm0-18.841a20.158,20.158,0,1,0,20.158,20.159A20.158,20.158,0,0,0,545.429,199.761Zm0,10.624a4.9,4.9,0,1,1-4.9,4.9A4.909,4.909,0,0,1,545.429,210.385Zm0,19.067c-3.8,0-8.1,0-8.1-3.358,0-2.068,1.866-4.262,4.542-5.334a.789.789,0,0,1,.665.034,6.219,6.219,0,0,0,5.782,0,.789.789,0,0,1,.665-.034c2.676,1.072,4.543,3.266,4.543,5.334C553.527,229.453,549.224,229.453,545.429,229.453Z" transform="translate(-372.271 -199.63)" fill="#d2ccff"/>
              <g id="Group_7525" data-name="Group 7525" transform="translate(206.168 22.517)">
                <path id="Path_3281" data-name="Path 3281" d="M603.612,222.632H574.986a1.292,1.292,0,0,1,0-2.583h28.626a1.292,1.292,0,1,1,0,2.583Z" transform="translate(-573.434 -220.049)" fill="#d2ccff"/>
                <path id="Path_3282" data-name="Path 3282" d="M615.065,222.632h-9.126a1.292,1.292,0,1,1,0-2.583h9.126a1.292,1.292,0,1,1,0,2.583Z" transform="translate(-570.234 -220.049)" fill="#d2ccff"/>
                <path id="Path_3283" data-name="Path 3283" d="M637.5,222.632H618.628a1.292,1.292,0,1,1,0-2.583H637.5a1.292,1.292,0,1,1,0,2.583Z" transform="translate(-568.922 -220.049)" fill="#d2ccff"/>
                <path id="Path_3284" data-name="Path 3284" d="M584.113,227.961h-9.127a1.291,1.291,0,0,1,0-2.583h9.127a1.291,1.291,0,1,1,0,2.583Z" transform="translate(-573.434 -219.498)" fill="#d2ccff"/>
                <path id="Path_3285" data-name="Path 3285" d="M616.61,227.961H587.985a1.291,1.291,0,1,1,0-2.583H616.61a1.291,1.291,0,0,1,0,2.583Z" transform="translate(-572.09 -219.498)" fill="#d2ccff"/>
                <path id="Path_3286" data-name="Path 3286" d="M641.13,227.961H618.277a1.291,1.291,0,1,1,0-2.583H641.13a1.291,1.291,0,1,1,0,2.583Z" transform="translate(-568.958 -219.498)" fill="#d2ccff"/>
                <path id="Path_3287" data-name="Path 3287" d="M601.711,233.289H574.75a1.291,1.291,0,1,1,0-2.582h26.961a1.291,1.291,0,1,1,0,2.582Z" transform="translate(-573.458 -218.947)" fill="#d2ccff"/>
                <path id="Path_3288" data-name="Path 3288" d="M614,233.289H603.628a1.291,1.291,0,1,1,0-2.582H614a1.291,1.291,0,1,1,0,2.582Z" transform="translate(-570.473 -218.947)" fill="#d2ccff"/>
                <path id="Path_3289" data-name="Path 3289" d="M637.424,233.289H616.882a1.291,1.291,0,1,1,0-2.582h20.542a1.291,1.291,0,1,1,0,2.582Z" transform="translate(-569.103 -218.947)" fill="#d2ccff"/>
              </g>
              <path id="Path_3290" data-name="Path 3290" d="M644.969,206.757H575.085a2.352,2.352,0,0,1,0-4.7h69.883a2.352,2.352,0,1,1,0,4.7Z" transform="translate(-367.365 -199.393)" fill="#d2ccff"/>
              <path id="Path_3291" data-name="Path 3291" d="M548.713,269.18a7.924,7.924,0,0,1-6.57,0c-1.887.857-3.224,2.385-3.224,3.724,0,1.5,2.1,1.769,6.509,1.769s6.51-.266,6.51-1.769C551.939,271.566,550.6,270.038,548.713,269.18Zm-3.285-3.77a3.314,3.314,0,1,0-3.313-3.315A3.318,3.318,0,0,0,545.429,265.409Zm0-18.841a20.158,20.158,0,1,0,20.158,20.159A20.158,20.158,0,0,0,545.429,246.568Zm0,10.624a4.9,4.9,0,1,1-4.9,4.9A4.909,4.909,0,0,1,545.429,257.192Zm0,19.069c-3.8,0-8.1,0-8.1-3.358,0-2.069,1.867-4.262,4.541-5.335a.792.792,0,0,1,.666.034,6.218,6.218,0,0,0,5.782,0,.789.789,0,0,1,.665-.034c2.675,1.072,4.543,3.266,4.543,5.335C553.527,276.261,549.224,276.261,545.429,276.261Z" transform="translate(-372.271 -194.791)" fill="#d2ccff"/>
              <g id="Group_7526" data-name="Group 7526" transform="translate(206.168 74.162)">
                <path id="Path_3292" data-name="Path 3292" d="M603.612,269.439H574.986a1.292,1.292,0,0,1,0-2.583h28.626a1.292,1.292,0,1,1,0,2.583Z" transform="translate(-573.434 -266.856)" fill="#d2ccff"/>
                <path id="Path_3293" data-name="Path 3293" d="M615.065,269.439h-9.126a1.292,1.292,0,1,1,0-2.583h9.126a1.292,1.292,0,1,1,0,2.583Z" transform="translate(-570.234 -266.856)" fill="#d2ccff"/>
                <path id="Path_3294" data-name="Path 3294" d="M637.5,269.439H618.628a1.292,1.292,0,1,1,0-2.583H637.5a1.292,1.292,0,1,1,0,2.583Z" transform="translate(-568.922 -266.856)" fill="#d2ccff"/>
                <path id="Path_3295" data-name="Path 3295" d="M584.113,274.768h-9.127a1.292,1.292,0,0,1,0-2.583h9.127a1.292,1.292,0,1,1,0,2.583Z" transform="translate(-573.434 -266.305)" fill="#d2ccff"/>
                <path id="Path_3296" data-name="Path 3296" d="M616.61,274.768H587.985a1.292,1.292,0,1,1,0-2.583H616.61a1.292,1.292,0,0,1,0,2.583Z" transform="translate(-572.09 -266.305)" fill="#d2ccff"/>
                <path id="Path_3297" data-name="Path 3297" d="M641.13,274.768H618.277a1.292,1.292,0,1,1,0-2.583H641.13a1.292,1.292,0,1,1,0,2.583Z" transform="translate(-568.958 -266.305)" fill="#d2ccff"/>
                <path id="Path_3298" data-name="Path 3298" d="M601.711,280.1H574.75a1.291,1.291,0,1,1,0-2.582h26.961a1.291,1.291,0,1,1,0,2.582Z" transform="translate(-573.458 -265.754)" fill="#d2ccff"/>
                <path id="Path_3299" data-name="Path 3299" d="M614,280.1H603.628a1.291,1.291,0,1,1,0-2.582H614a1.291,1.291,0,1,1,0,2.582Z" transform="translate(-570.473 -265.754)" fill="#d2ccff"/>
                <path id="Path_3300" data-name="Path 3300" d="M637.424,280.1H616.882a1.291,1.291,0,1,1,0-2.582h20.542a1.291,1.291,0,1,1,0,2.582Z" transform="translate(-569.103 -265.754)" fill="#d2ccff"/>
              </g>
              <path id="Path_3301" data-name="Path 3301" d="M644.969,253.564H575.085a2.352,2.352,0,0,1,0-4.7h69.883a2.352,2.352,0,1,1,0,4.7Z" transform="translate(-367.365 -194.554)" fill="#d2ccff"/>
            </g>
            <rect id="Rectangle_1521" data-name="Rectangle 1521" width="123.112" height="103.985" rx="9.175" transform="translate(181.107 161.865)" fill="#a8aeff" opacity="0.3" style="mix-blend-mode: multiply;isolation: isolate"/>
          </g>
          <g id="Group_7532" data-name="Group 7532" transform="translate(0 147.252)">
            <g id="Group_7529" data-name="Group 7529">
              <path id="Path_3528" data-name="Path 3528" d="M13.294,0H283.737A13.294,13.294,0,0,1,297.03,13.294v257.15a13.294,13.294,0,0,1-13.294,13.294H13.294A13.294,13.294,0,0,1,0,270.444V13.294A13.294,13.294,0,0,1,13.294,0Z" fill="#fff"/>
              <path id="Path_3302" data-name="Path 3302" d="M627.815,326.4a5.127,5.127,0,0,0-5.121-5.121H352.251a5.127,5.127,0,0,0-5.121,5.121V520.682H627.815Z" transform="translate(-338.957 -292.672)" fill="#48a5ff"/>
              <path id="Path_3303" data-name="Path 3303" d="M347.13,502v42.434a5.127,5.127,0,0,0,5.121,5.121H622.694a5.127,5.127,0,0,0,5.121-5.121V502Z" transform="translate(-338.957 -273.99)" fill="#020e51"/>
            </g>
            <g id="Group_7530" data-name="Group 7530" transform="translate(17.38 41.394)">
              <path id="Path_3304" data-name="Path 3304" d="M519.5,353.758a6.07,6.07,0,1,1-6.07-6.069A6.069,6.069,0,0,1,519.5,353.758Z" transform="translate(-339.772 -331.336)" fill="#fff"/>
              <path id="Path_3305" data-name="Path 3305" d="M536.549,353.758a6.07,6.07,0,1,1-6.07-6.069A6.069,6.069,0,0,1,536.549,353.758Z" transform="translate(-338.01 -331.336)" fill="#fff"/>
              <path id="Path_3306" data-name="Path 3306" d="M554.453,353.758a6.069,6.069,0,1,1-6.069-6.069A6.069,6.069,0,0,1,554.453,353.758Z" transform="translate(-336.159 -331.336)" fill="#6c74d1"/>
              <path id="Path_3307" data-name="Path 3307" d="M571.5,353.758a6.069,6.069,0,1,1-6.07-6.069A6.069,6.069,0,0,1,571.5,353.758Z" transform="translate(-334.397 -331.336)" fill="#6c74d1"/>
              <path id="Path_3308" data-name="Path 3308" d="M588.543,353.758a6.069,6.069,0,1,1-6.07-6.069A6.069,6.069,0,0,1,588.543,353.758Z" transform="translate(-332.635 -331.336)" fill="#6c74d1"/>
              <path id="Path_3309" data-name="Path 3309" d="M519.5,379.571a6.07,6.07,0,1,1-6.07-6.07A6.07,6.07,0,0,1,519.5,379.571Z" transform="translate(-339.772 -328.668)" fill="#fff"/>
              <path id="Path_3310" data-name="Path 3310" d="M536.549,379.571a6.07,6.07,0,1,1-6.07-6.07A6.07,6.07,0,0,1,536.549,379.571Z" transform="translate(-338.01 -328.668)" fill="#fff"/>
              <path id="Path_3311" data-name="Path 3311" d="M554.453,379.571a6.069,6.069,0,1,1-6.069-6.07A6.07,6.07,0,0,1,554.453,379.571Z" transform="translate(-336.159 -328.668)" fill="#6c74d1"/>
              <circle id="Ellipse_62" data-name="Ellipse 62" cx="6.069" cy="6.069" r="6.069" transform="translate(224.963 44.833)" fill="#6c74d1"/>
              <path id="Path_3312" data-name="Path 3312" d="M588.543,379.571a6.069,6.069,0,1,1-6.07-6.07A6.07,6.07,0,0,1,588.543,379.571Z" transform="translate(-332.635 -328.668)" fill="#6c74d1"/>
              <path id="Path_3313" data-name="Path 3313" d="M519.5,405.383a6.07,6.07,0,1,1-6.07-6.07A6.069,6.069,0,0,1,519.5,405.383Z" transform="translate(-339.772 -325.999)" fill="#fff"/>
              <path id="Path_3314" data-name="Path 3314" d="M536.549,405.383a6.07,6.07,0,1,1-6.07-6.07A6.069,6.069,0,0,1,536.549,405.383Z" transform="translate(-338.01 -325.999)" fill="#fff"/>
              <path id="Path_3315" data-name="Path 3315" d="M554.453,405.383a6.069,6.069,0,1,1-6.069-6.07A6.069,6.069,0,0,1,554.453,405.383Z" transform="translate(-336.159 -325.999)" fill="#6c74d1"/>
              <path id="Path_3316" data-name="Path 3316" d="M571.5,405.383a6.069,6.069,0,1,1-6.07-6.07A6.069,6.069,0,0,1,571.5,405.383Z" transform="translate(-334.397 -325.999)" fill="#6c74d1"/>
              <path id="Path_3317" data-name="Path 3317" d="M588.543,405.383a6.069,6.069,0,1,1-6.07-6.07A6.069,6.069,0,0,1,588.543,405.383Z" transform="translate(-332.635 -325.999)" fill="#6c74d1"/>
              <path id="Path_3318" data-name="Path 3318" d="M519.5,431.2a6.07,6.07,0,1,1-6.07-6.07A6.07,6.07,0,0,1,519.5,431.2Z" transform="translate(-339.772 -323.331)" fill="#fff"/>
              <path id="Path_3319" data-name="Path 3319" d="M536.549,431.2a6.07,6.07,0,1,1-6.07-6.07A6.07,6.07,0,0,1,536.549,431.2Z" transform="translate(-338.01 -323.331)" fill="#fff"/>
              <path id="Path_3320" data-name="Path 3320" d="M554.453,431.2a6.069,6.069,0,1,1-6.069-6.07A6.07,6.07,0,0,1,554.453,431.2Z" transform="translate(-336.159 -323.331)" fill="#6c74d1"/>
              <path id="Path_3321" data-name="Path 3321" d="M571.5,431.2a6.069,6.069,0,1,1-6.07-6.07A6.07,6.07,0,0,1,571.5,431.2Z" transform="translate(-334.397 -323.331)" fill="#6c74d1"/>
              <path id="Path_3322" data-name="Path 3322" d="M588.543,431.2a6.069,6.069,0,1,1-6.07-6.07A6.07,6.07,0,0,1,588.543,431.2Z" transform="translate(-332.635 -323.331)" fill="#6c74d1"/>
              <path id="Path_3323" data-name="Path 3323" d="M384.487,338.369l-4.355-4.355a3.92,3.92,0,0,0-2.769-1.146H360.344a4.884,4.884,0,0,0-4.87,4.869v18.487a4.884,4.884,0,0,0,4.87,4.87h29.2a4.884,4.884,0,0,0,4.87-4.87V343.435a3.917,3.917,0,0,0-3.917-3.918h-3.238A3.917,3.917,0,0,1,384.487,338.369Z" transform="translate(-355.474 -332.868)" fill="#020e51"/>
              <rect id="Rectangle_1523" data-name="Rectangle 1523" width="38.941" height="4.287" transform="translate(0 33.958)" fill="#fff"/>
              <rect id="Rectangle_1524" data-name="Rectangle 1524" width="19.969" height="4.287" transform="translate(0 41.548)" fill="#fff"/>
              <path id="Path_3324" data-name="Path 3324" d="M384.487,388.035l-4.355-4.355a3.917,3.917,0,0,0-2.769-1.147H360.344a4.884,4.884,0,0,0-4.87,4.87v18.487a4.885,4.885,0,0,0,4.87,4.87h29.2a4.885,4.885,0,0,0,4.87-4.87V393.1a3.916,3.916,0,0,0-3.917-3.917h-3.238A3.917,3.917,0,0,1,384.487,388.035Z" transform="translate(-355.474 -327.734)" fill="#6c74d1"/>
              <rect id="Rectangle_1525" data-name="Rectangle 1525" width="38.941" height="4.287" transform="translate(0 88.757)" fill="#fff"/>
              <rect id="Rectangle_1526" data-name="Rectangle 1526" width="19.969" height="4.287" transform="translate(0 96.343)" fill="#fff"/>
              <path id="Path_3325" data-name="Path 3325" d="M384.487,437.7l-4.355-4.355a3.917,3.917,0,0,0-2.769-1.147H360.344a4.885,4.885,0,0,0-4.87,4.87v18.487a4.884,4.884,0,0,0,4.87,4.87h29.2a4.884,4.884,0,0,0,4.87-4.87V442.764a3.917,3.917,0,0,0-3.917-3.918h-3.238A3.918,3.918,0,0,1,384.487,437.7Z" transform="translate(-355.474 -322.6)" fill="#020e51"/>
              <rect id="Rectangle_1527" data-name="Rectangle 1527" width="38.941" height="4.287" transform="translate(0 143.556)" fill="#fff"/>
              <rect id="Rectangle_1528" data-name="Rectangle 1528" width="19.969" height="4.287" transform="translate(0 151.142)" fill="#fff"/>
              <path id="Path_3326" data-name="Path 3326" d="M430.731,338.369l-4.355-4.355a3.92,3.92,0,0,0-2.769-1.146H406.588a4.884,4.884,0,0,0-4.87,4.869v18.487a4.884,4.884,0,0,0,4.87,4.87h29.2a4.884,4.884,0,0,0,4.87-4.87V343.435a3.917,3.917,0,0,0-3.917-3.918H433.5A3.918,3.918,0,0,1,430.731,338.369Z" transform="translate(-350.693 -332.868)" fill="#6c74d1"/>
              <rect id="Rectangle_1529" data-name="Rectangle 1529" width="38.941" height="4.287" transform="translate(51.023 33.958)" fill="#fff"/>
              <rect id="Rectangle_1530" data-name="Rectangle 1530" width="19.969" height="4.287" transform="translate(51.023 41.548)" fill="#fff"/>
              <path id="Path_3327" data-name="Path 3327" d="M430.731,388.035l-4.355-4.355a3.917,3.917,0,0,0-2.769-1.147H406.588a4.884,4.884,0,0,0-4.87,4.87v18.487a4.885,4.885,0,0,0,4.87,4.87h29.2a4.885,4.885,0,0,0,4.87-4.87V393.1a3.916,3.916,0,0,0-3.917-3.917H433.5A3.918,3.918,0,0,1,430.731,388.035Z" transform="translate(-350.693 -327.734)" fill="#020e51"/>
              <rect id="Rectangle_1531" data-name="Rectangle 1531" width="38.941" height="4.287" transform="translate(51.023 88.757)" fill="#fff"/>
              <rect id="Rectangle_1532" data-name="Rectangle 1532" width="19.969" height="4.287" transform="translate(51.023 96.343)" fill="#fff"/>
              <path id="Path_3328" data-name="Path 3328" d="M430.731,437.7l-4.355-4.355a3.917,3.917,0,0,0-2.769-1.147H406.588a4.885,4.885,0,0,0-4.87,4.87v18.487a4.884,4.884,0,0,0,4.87,4.87h29.2a4.884,4.884,0,0,0,4.87-4.87V442.764a3.917,3.917,0,0,0-3.917-3.918H433.5A3.918,3.918,0,0,1,430.731,437.7Z" transform="translate(-350.693 -322.6)" fill="#6c74d1"/>
              <rect id="Rectangle_1533" data-name="Rectangle 1533" width="38.941" height="4.287" transform="translate(51.023 143.556)" fill="#fff"/>
              <rect id="Rectangle_1534" data-name="Rectangle 1534" width="19.969" height="4.287" transform="translate(51.023 151.142)" fill="#fff"/>
            </g>
            <g id="Group_7531" data-name="Group 7531" transform="translate(225.548 7.257)">
              <circle id="Ellipse_63" data-name="Ellipse 63" cx="7.355" cy="7.355" r="7.355" fill="#6c74d1"/>
              <circle id="Ellipse_64" data-name="Ellipse 64" cx="7.355" cy="7.355" r="7.355" transform="translate(22.316)" fill="#6c74d1"/>
              <circle id="Ellipse_65" data-name="Ellipse 65" cx="7.355" cy="7.355" r="7.355" transform="translate(44.632)" fill="#fff"/>
            </g>
          </g>
          <g id="Group_7536" data-name="Group 7536" transform="translate(238.817 249.412)">
            <g id="Group_7533" data-name="Group 7533">
              <rect id="Rectangle_1535" data-name="Rectangle 1535" width="286.814" height="170.674" rx="11.681" transform="translate(0 10.904)" fill="#a8aeff" opacity="0.3" style="mix-blend-mode: multiply;isolation: isolate"/>
              <path id="Path_5454" data-name="Path 5454" d="M12.048,0H274.766a12.048,12.048,0,0,1,12.048,12.048V169.529a12.048,12.048,0,0,1-12.048,12.048H12.048A12.048,12.048,0,0,1,0,169.529V12.048A12.048,12.048,0,0,1,12.048,0Z" transform="translate(15.113)" fill="#6d6d6d"/>
              <path id="Path_5455" data-name="Path 5455" d="M4.641,0H140.159A4.641,4.641,0,0,1,144.8,4.641V265.828a4.641,4.641,0,0,1-4.641,4.641H4.641A4.641,4.641,0,0,1,0,265.828V4.641A4.641,4.641,0,0,1,4.641,0Z" transform="translate(293.754 28.605) rotate(90)" fill="#fff"/>
            </g>
            <g id="Group_7534" data-name="Group 7534" transform="translate(43.682 30.468)">
              <circle id="Ellipse_66" data-name="Ellipse 66" cx="22.321" cy="22.321" r="22.321" transform="translate(0 31.566) rotate(-45)" fill="#d2ccff"/>
              <path id="Path_3329" data-name="Path 3329" d="M626.454,423.933v22.321H604.133a22.321,22.321,0,1,0,22.321-22.321Z" transform="translate(-594.888 -414.688)" fill="#a8aeff"/>
              <circle id="Ellipse_67" data-name="Ellipse 67" cx="22.321" cy="22.321" r="22.321" transform="translate(58.284 14.971) rotate(-13.283)" fill="#f2f0ff"/>
              <circle id="Ellipse_68" data-name="Ellipse 68" cx="22.321" cy="22.321" r="22.321" transform="translate(111.854 14.971) rotate(-13.283)" fill="#d2ccff"/>
              <path id="Path_3330" data-name="Path 3330" d="M743.785,446.254a22.321,22.321,0,0,0-22.32-22.321v44.641A22.32,22.32,0,0,0,743.785,446.254Z" transform="translate(-582.758 -414.688)" fill="#a8aeff"/>
              <rect id="Rectangle_1538" data-name="Rectangle 1538" width="56.887" height="3.546" transform="translate(161.84 115.234)" fill="#d2ccff"/>
              <rect id="Rectangle_1539" data-name="Rectangle 1539" width="56.887" height="3.546" transform="translate(161.84 122.131)" fill="#d2ccff"/>
              <rect id="Rectangle_1540" data-name="Rectangle 1540" width="38.453" height="3.546" transform="translate(161.84 129.031)" fill="#d2ccff"/>
              <path id="Path_3331" data-name="Path 3331" d="M753.613,480.916a5.386,5.386,0,1,1-5.385-5.384A5.385,5.385,0,0,1,753.613,480.916Z" transform="translate(-580.548 -409.354)" fill="#d2ccff"/>
              <path id="Path_3332" data-name="Path 3332" d="M768.705,480.916a5.386,5.386,0,1,1-5.386-5.384A5.385,5.385,0,0,1,768.705,480.916Z" transform="translate(-578.988 -409.354)" fill="#d2ccff"/>
              <path id="Path_3333" data-name="Path 3333" d="M783.959,480.916a5.386,5.386,0,1,1-5.386-5.384A5.386,5.386,0,0,1,783.959,480.916Z" transform="translate(-577.411 -409.354)" fill="#d2ccff"/>
              <rect id="Rectangle_1541" data-name="Rectangle 1541" width="56.887" height="3.546" transform="translate(85.206 115.234)" fill="#f2f0ff"/>
              <rect id="Rectangle_1542" data-name="Rectangle 1542" width="56.887" height="3.546" transform="translate(85.206 122.131)" fill="#f2f0ff"/>
              <rect id="Rectangle_1543" data-name="Rectangle 1543" width="38.453" height="3.546" transform="translate(85.206 129.031)" fill="#f2f0ff"/>
              <path id="Path_3334" data-name="Path 3334" d="M684.16,480.916a5.386,5.386,0,1,1-5.386-5.384A5.385,5.385,0,0,1,684.16,480.916Z" transform="translate(-587.728 -409.354)" fill="#f2f0ff"/>
              <path id="Path_3335" data-name="Path 3335" d="M699.252,480.916a5.386,5.386,0,1,1-5.386-5.384A5.385,5.385,0,0,1,699.252,480.916Z" transform="translate(-586.168 -409.354)" fill="#f2f0ff"/>
              <path id="Path_3336" data-name="Path 3336" d="M714.506,480.916a5.386,5.386,0,1,1-5.386-5.384A5.386,5.386,0,0,1,714.506,480.916Z" transform="translate(-584.591 -409.354)" fill="#d2ccff"/>
              <rect id="Rectangle_1544" data-name="Rectangle 1544" width="56.891" height="3.546" transform="translate(8.573 115.234)" fill="#d2ccff"/>
              <rect id="Rectangle_1545" data-name="Rectangle 1545" width="56.891" height="3.546" transform="translate(8.573 122.131)" fill="#d2ccff"/>
              <rect id="Rectangle_1546" data-name="Rectangle 1546" width="38.453" height="3.546" transform="translate(8.573 129.031)" fill="#d2ccff"/>
              <path id="Path_3337" data-name="Path 3337" d="M614.707,480.916a5.386,5.386,0,1,1-5.386-5.384A5.385,5.385,0,0,1,614.707,480.916Z" transform="translate(-594.908 -409.354)" fill="#d2ccff"/>
              <path id="Path_3338" data-name="Path 3338" d="M629.8,480.916a5.385,5.385,0,1,1-5.385-5.384A5.385,5.385,0,0,1,629.8,480.916Z" transform="translate(-593.348 -409.354)" fill="#d2ccff"/>
              <path id="Path_3339" data-name="Path 3339" d="M645.053,480.916a5.386,5.386,0,1,1-5.386-5.384A5.386,5.386,0,0,1,645.053,480.916Z" transform="translate(-591.771 -409.354)" fill="#d2ccff"/>
              <rect id="Rectangle_1547" data-name="Rectangle 1547" width="56.891" height="25.812" transform="translate(8.573 83.663)" fill="#d2ccff"/>
              <rect id="Rectangle_1548" data-name="Rectangle 1548" width="56.891" height="25.812" transform="translate(85.205 83.663)" fill="#f2f0ff"/>
              <rect id="Rectangle_1549" data-name="Rectangle 1549" width="56.891" height="25.812" transform="translate(161.836 83.663)" fill="#a8aeff"/>
            </g>
            <g id="Group_7535" data-name="Group 7535" transform="translate(227.533 7.28)">
              <circle id="Ellipse_69" data-name="Ellipse 69" cx="7.355" cy="7.355" r="7.355" fill="#fff"/>
              <circle id="Ellipse_70" data-name="Ellipse 70" cx="7.355" cy="7.355" r="7.355" transform="translate(22.316)" fill="#0089ff"/>
              <circle id="Ellipse_71" data-name="Ellipse 71" cx="7.355" cy="7.355" r="7.355" transform="translate(44.632 0)" fill="#fff"/>
            </g>
          </g>
        </g>
        <g id="Group_7538" data-name="Group 7538" transform="translate(168.139 366.956)">
          <rect id="Rectangle_1550" data-name="Rectangle 1550" width="48.61" height="48.61" rx="7.695" transform="translate(25.649 32.576)" fill="#fff"/>
          <path id="Path_3340" data-name="Path 3340" d="M540.647,495.346h-3.874a1.564,1.564,0,0,1-1.506-1.15l-.544-1.994c-.334-.12-.665-.258-.99-.41l-1.8,1.026a1.568,1.568,0,0,1-1.879-.254l-2.739-2.737a1.567,1.567,0,0,1-.252-1.878l1.024-1.8c-.152-.322-.29-.654-.411-.991l-1.993-.546a1.566,1.566,0,0,1-1.15-1.506v-3.871a1.567,1.567,0,0,1,1.15-1.507l1.992-.544q.182-.5.411-.992l-1.023-1.8a1.568,1.568,0,0,1,.25-1.878l2.74-2.74a1.563,1.563,0,0,1,1.879-.252l1.8,1.025c.321-.151.653-.289.989-.41l.544-1.994a1.565,1.565,0,0,1,1.506-1.15h3.874a1.566,1.566,0,0,1,1.506,1.15l.547,1.994c.334.121.664.259.985.41l1.8-1.025a1.567,1.567,0,0,1,1.879.252l2.739,2.74a1.566,1.566,0,0,1,.252,1.878l-1.024,1.8c.152.324.29.657.412.99l1.994.546a1.567,1.567,0,0,1,1.149,1.507v3.871a1.565,1.565,0,0,1-1.149,1.506l-1.995.547c-.121.336-.259.668-.411.99l1.024,1.8a1.566,1.566,0,0,1-.252,1.878l-2.739,2.737a1.566,1.566,0,0,1-1.879.253l-1.8-1.025c-.324.152-.654.29-.987.41l-.547,1.995A1.565,1.565,0,0,1,540.647,495.346Zm-6.948-4.709.244.121a10.719,10.719,0,0,0,1.364.567l.258.086.687,2.516a.542.542,0,0,0,.521.4h3.874a.538.538,0,0,0,.52-.4l.691-2.517.258-.086a10.657,10.657,0,0,0,1.363-.567l.245-.121,2.266,1.293a.539.539,0,0,0,.649-.087l2.74-2.739a.539.539,0,0,0,.086-.649l-1.291-2.267.121-.244a10.823,10.823,0,0,0,.567-1.366l.087-.257,2.516-.691a.541.541,0,0,0,.4-.521v-3.871a.541.541,0,0,0-.4-.521l-2.517-.69-.086-.258a10.776,10.776,0,0,0-.567-1.366l-.121-.244,1.291-2.266a.541.541,0,0,0-.086-.65l-2.739-2.739a.542.542,0,0,0-.651-.087l-2.266,1.294-.244-.122a10.689,10.689,0,0,0-1.364-.567l-.257-.087-.691-2.515a.539.539,0,0,0-.52-.4h-3.874a.542.542,0,0,0-.521.4l-.687,2.515-.258.087a10.855,10.855,0,0,0-1.364.567l-.244.121-2.269-1.294a.543.543,0,0,0-.65.088l-2.739,2.739a.543.543,0,0,0-.087.65l1.291,2.266-.121.244a10.786,10.786,0,0,0-.567,1.368l-.086.258-2.515.687a.541.541,0,0,0-.4.521v3.871a.542.542,0,0,0,.4.521l2.516.69.085.258a10.777,10.777,0,0,0,.568,1.365l.121.244-1.292,2.269a.539.539,0,0,0,.087.649l2.74,2.739a.541.541,0,0,0,.649.087Z" transform="translate(-488.757 -424.294)" fill="#6c74d1"/>
          <path id="Path_3341" data-name="Path 3341" d="M537.817,484.913a4.632,4.632,0,1,1,4.632-4.632A4.638,4.638,0,0,1,537.817,484.913Zm0-8.242a3.611,3.611,0,1,0,3.611,3.61A3.615,3.615,0,0,0,537.817,476.671Z" transform="translate(-487.863 -423.4)" fill="#6c74d1"/>
          <path id="Path_3342" data-name="Path 3342" d="M514.4,494.838c.034,4.307.156,8.6.289,12.9.052,2.149.16,4.291.241,6.436l.26,6.434.022.531a.653.653,0,0,1,0,.095l-1.017,7.689c-.333,2.563-.7,5.125-1,7.69-.639,5.129-1.264,10.258-1.8,15.394a1.565,1.565,0,0,1-3.12-.217c.179-5.16.27-10.328.349-15.5.055-2.582.052-5.169.077-7.755l.059-7.756.016.627-1.332-6.3c-.45-2.1-.873-4.2-1.353-6.3-.927-4.194-1.868-8.387-2.9-12.57a5.687,5.687,0,0,1,11.045-2.714A5.907,5.907,0,0,1,514.4,494.838Z" transform="translate(-490.981 -422)" fill="#f38ca0"/>
          <path id="Path_3343" data-name="Path 3343" d="M505.967,495.81c-.669,4.766-1.225,9.538-1.774,14.313-.461,4.775-1.159,9.553-1.267,14.338-.228,4.784-.491,9.571-.663,14.358q-.3,7.181-.49,14.365a1.565,1.565,0,0,1-3.128.029c-.2-4.793-.461-9.585-.748-14.379-.259-4.793-.609-9.588-.922-14.385l-1.014-14.4c-.388-4.805-.781-9.614-1.289-14.428a5.691,5.691,0,1,1,11.318-1.2A5.969,5.969,0,0,1,505.967,495.81Z" transform="translate(-491.847 -421.986)" fill="#f38ca0"/>
          <path id="Path_3344" data-name="Path 3344" d="M516.449,516.473h-21.59c-3.3-14.877-2.54-26.445,2.485-35.518h15.02C515.4,489.625,517.316,501.229,516.449,516.473Z" transform="translate(-492.031 -422.852)" fill="#c04c85"/>
          <path id="Path_3345" data-name="Path 3345" d="M507.88,553.464h1.142l.334-4.976,2.239,4.976h6.992l.066-1.138c.127-2.184-3.2-2.612-5.441-2.612l-5.316-6.479C505.774,545.842,507.88,548.885,507.88,553.464Z" transform="translate(-490.575 -416.414)" fill="#0abce2"/>
          <path id="Path_3346" data-name="Path 3346" d="M498.024,553.464h5.7a6.436,6.436,0,0,0,.1-3.687c-1.579-.181-1.422-4.245-2.245-6.541h-3.448A24.938,24.938,0,0,0,498.024,553.464Z" transform="translate(-491.546 -416.414)" fill="#0abce2"/>
          <path id="Path_3347" data-name="Path 3347" d="M507.808,543.34l2.085-1.11,3.232,7.59Z" transform="translate(-490.486 -416.518)" fill="#f38ca0"/>
          <path id="Path_3348" data-name="Path 3348" d="M498.2,543.262c.052,0,.487,6.651.487,6.651h3.21l-.381-6.651C501.519,542.887,498.2,542.887,498.2,543.262Z" transform="translate(-491.479 -416.44)" fill="#f38ca0"/>
          <path id="Path_3349" data-name="Path 3349" d="M522.638,449.249c-3.492,1.21-6.982,2.423-10.438,3.728l-5.375,2.032c-1.774.722-3.565,1.4-5.325,2.163a2.825,2.825,0,0,0,1.978,5.284c1.827-.583,3.623-1.246,5.436-1.866l5.387-2c3.591-1.333,7.146-2.764,10.7-4.2l.132-.053c.035-.014.068-.034.1-.052Z" transform="translate(-491.314 -426.13)" fill="#6c74d1"/>
          <path id="Path_3350" data-name="Path 3350" d="M541.978,433.779a1.526,1.526,0,0,0-1.958-.045c-1.794,1.431-3.529,2.925-5.3,4.386l-5.2,4.486c-3.39,2.928-10.222,9.108-10.222,9.108l3.734,4.22c.046-.04.1-.077.137-.118,3.222-3.246,6.444-6.492,9.594-9.813l4.724-4.985c1.54-1.7,3.113-3.36,4.626-5.085A1.527,1.527,0,0,0,541.978,433.779Z" transform="translate(-489.298 -427.768)" fill="#6c74d1"/>
          <path id="Path_3351" data-name="Path 3351" d="M536.609,431.861l1.994-2.618a1.557,1.557,0,0,1,1.028-.6l2.477-.334a1.554,1.554,0,0,1,1.653,2.112l-1.775,4.476a3.117,3.117,0,0,1-4.786,1.331h0A3.116,3.116,0,0,1,536.609,431.861Z" transform="translate(-487.575 -428.296)" fill="#f38ca0"/>
          <path id="Path_3352" data-name="Path 3352" d="M512.387,483.85l2.433-27.625a3.5,3.5,0,0,0-3.7-3.274H496.34a3.5,3.5,0,0,0-3.7,3.274l4.722,27.625Z" transform="translate(-492.054 -425.747)" fill="#6c74d1"/>
          <path id="Path_3353" data-name="Path 3353" d="M502.886,457.792h6.145a1.4,1.4,0,0,0,1.566-1.24l-.028-3.248a1.9,1.9,0,0,0-.035-.316H497.716a3.739,3.739,0,0,0,.206.316l2.451,3.248A3.476,3.476,0,0,0,502.886,457.792Z" transform="translate(-491.529 -425.743)" fill="#fff"/>
          <path id="Path_3354" data-name="Path 3354" d="M497.642,456.176l6.107,21.29-2.881-2.039,16.48.311a1.525,1.525,0,0,1,.183,3.035l-16.325,2.286a2.567,2.567,0,0,1-2.824-1.834l-.058-.2-6.106-21.29a2.821,2.821,0,1,1,5.423-1.556Z" transform="translate(-492.109 -425.625)" fill="#6c74d1"/>
          <path id="Path_3355" data-name="Path 3355" d="M504.746,435.943v17.3h10.627c-6.1-6.336,1.043-15.825-6.154-21.479Z" transform="translate(-490.803 -427.937)" fill="#6a3a14"/>
          <path id="Path_3356" data-name="Path 3356" d="M516.735,476.892l2.707-1.708a1.512,1.512,0,0,0,.668-.945l.536-2.371a1.511,1.511,0,0,0-1.9-1.782l-4.489,1.336a3.03,3.03,0,0,0-1.7,4.523h0A3.03,3.03,0,0,0,516.735,476.892Z" transform="translate(-490.044 -423.982)" fill="#f38ca0"/>
          <path id="Path_3357" data-name="Path 3357" d="M501.73,453.614H505.7v-6.12l-4.834-.632Z" transform="translate(-491.204 -426.376)" fill="#f38ca0"/>
          <path id="Path_3358" data-name="Path 3358" d="M510.508,437.09c0-2.708-1.885-4.3-5.9-4.3s-5.9,1.592-5.9,4.3c0,2.139-.428,6.1-.291,8.231a6.955,6.955,0,0,0,2.673,5.379,5.154,5.154,0,0,0,7.035,0,6.954,6.954,0,0,0,2.672-5.379C510.937,443.187,510.508,439.229,510.508,437.09Z" transform="translate(-491.46 -427.831)" fill="#f38ca0"/>
          <path id="Path_3359" data-name="Path 3359" d="M501.893,429.913h5.922c4.111,0,4.661,7.354-5.8,7.354-1.149,1.082-1.993,4.321-1.993,6.974h-1.545a26.587,26.587,0,0,1-.623-11.055A4.087,4.087,0,0,1,501.893,429.913Z" transform="translate(-491.549 -428.128)" fill="#6a3a14"/>
          <path id="Path_3360" data-name="Path 3360" d="M495.282,453.425h8.892c-8.449-7.935,4.465-23.46-3.091-23.46C494.557,429.965,491.7,443.428,495.282,453.425Z" transform="translate(-491.942 -428.123)" fill="#6a3a14"/>
          <path id="Path_3361" data-name="Path 3361" d="M497.338,440.3c-.58,0-.812.981-.517,2.191a4.645,4.645,0,0,0,.6,1.422l.789-3A1.258,1.258,0,0,0,497.338,440.3Z" transform="translate(-491.635 -427.055)" fill="#f38ca0"/>
          <path id="Path_3362" data-name="Path 3362" d="M503.476,440.67h-2.152a.335.335,0,1,1,0-.671h2.152a.335.335,0,0,1,0,.671Z" transform="translate(-491.191 -427.086)" fill="#49341f"/>
          <path id="Path_3363" data-name="Path 3363" d="M508.982,440.67h-2.151a.335.335,0,1,1,0-.671h2.151a.335.335,0,0,1,0,.671Z" transform="translate(-490.622 -427.086)" fill="#49341f"/>
          <path id="Path_3364" data-name="Path 3364" d="M502.445,441.059c-.3,0-.544.472-.544,1.054s.244,1.054.544,1.054.542-.471.542-1.054S502.744,441.059,502.445,441.059Z" transform="translate(-491.097 -426.976)" fill="#49341f"/>
          <path id="Path_3365" data-name="Path 3365" d="M507.7,441.059c-.3,0-.542.472-.542,1.054s.243,1.054.542,1.054.543-.471.543-1.054S508,441.059,507.7,441.059Z" transform="translate(-490.553 -426.976)" fill="#49341f"/>
          <path id="Path_3366" data-name="Path 3366" d="M505.919,442.167a5.506,5.506,0,0,0,.722,2.405.354.354,0,0,1-.232.556l-.124.019-1.107.167a.571.571,0,1,1-.171-1.129.637.637,0,0,1,.171,0l1.107.168-.356.574A5.849,5.849,0,0,1,505.919,442.167Z" transform="translate(-490.826 -426.862)" fill="#d96c81"/>
          <path id="Path_3367" data-name="Path 3367" d="M507.387,446.3a2.63,2.63,0,0,1-4.455,0Z" transform="translate(-490.99 -426.434)" fill="#fff"/>
          <path id="Path_3368" data-name="Path 3368" d="M502.394,438.794c3.078-1.163,5.446-2.711,6.382-5.031l1.066.844C508.876,437.239,506.01,438.322,502.394,438.794Z" transform="translate(-491.046 -427.73)" fill="#6a3a14"/>
        </g>
        <g id="Group_7544" data-name="Group 7544" transform="translate(360.977)">
          <path id="Path_3369" data-name="Path 3369" d="M737.51,162.277h-14a2.833,2.833,0,0,1-2.756-2.883l-.024-8.863h19.487l.024,8.863A2.8,2.8,0,0,1,737.51,162.277Z" transform="translate(-661.313 -90.054)" fill="#8ed1fe"/>
          <path id="Path_3370" data-name="Path 3370" d="M703.454,186.775a4.012,4.012,0,0,1-1.086,1.114c-1.821.876-4.333.875-4.661,2.359l-.193,1.026h10.748l-.211-3.644Z" transform="translate(-663.713 -86.307)" fill="#8ed1fe"/>
          <path id="Path_3371" data-name="Path 3371" d="M707.392,185.417h-3.459s-.467.782-1,1.5q3.011,3.323,4.6.855Z" transform="translate(-663.153 -86.448)" fill="#f38ca0"/>
          <path id="Path_3372" data-name="Path 3372" d="M724.5,187.118l-.335.62c-1.3.63-2.414,1.395-2.414,2.474l.033,1.027h7.389l-.137-4.121Z" transform="translate(-661.207 -86.272)" fill="#8ed1fe"/>
          <path id="Path_3373" data-name="Path 3373" d="M727.4,152.223l-18.494,4.492-.434.106a3.275,3.275,0,0,0-2.485,2.879l-2.708,29.6,4.283.588,5.371-29.236-2.918,2.985,18.971-1.518Z" transform="translate(-663.117 -89.879)" fill="#8ed1fe"/>
          <path id="Path_3374" data-name="Path 3374" d="M728.718,185.572h-3.459l-1.015,1.877c3.844-.708,3.869,3.187,4.536,0Z" transform="translate(-660.95 -86.431)" fill="#f38ca0"/>
          <path id="Path_3375" data-name="Path 3375" d="M732.666,152.487l-6.739,4.4-.77.5a3.105,3.105,0,0,0-1.4,2.7l1.014,29.435,4.323.049,1.675-29.4-2.172,3.2,7.884-1.612Z" transform="translate(-661.001 -89.852)" fill="#8ed1fe"/>
          <path id="Path_3376" data-name="Path 3376" d="M721.758,190.13l.026.8h7.389l-.026-.8Z" transform="translate(-661.207 -85.96)" fill="#fff"/>
          <path id="Path_3377" data-name="Path 3377" d="M697.664,190.13l-.15.8h10.748l-.046-.8Z" transform="translate(-663.713 -85.96)" fill="#fff"/>
          <g id="Group_7539" data-name="Group 7539" transform="translate(30.679 25.317)">
            <path id="Path_3378" data-name="Path 3378" d="M695.5,144.854l15.136-7.4c2.829-1.2,5.494,3.405,2.639,4.661l-16.67,5.45a1.466,1.466,0,0,1-1.106-2.708Z" transform="translate(-694.684 -116.743)" fill="#29427b"/>
            <path id="Path_3379" data-name="Path 3379" d="M708.559,139.456l13.093-19.585a2.714,2.714,0,1,1,4.512,3.017l-13.929,20.835C710.679,145.529,706.1,143.622,708.559,139.456Z" transform="translate(-693.324 -118.665)" fill="#ffbc00"/>
          </g>
          <path id="Path_3772" data-name="Path 3772" d="M7.7,0H40.914a7.7,7.7,0,0,1,7.7,7.7V40.914a7.7,7.7,0,0,1-7.7,7.7H7.7a7.7,7.7,0,0,1-7.7-7.7V7.7A7.7,7.7,0,0,1,7.7,0Z" transform="translate(0 5.384)" fill="#7b85bf"/>
          <path id="Path_3380" data-name="Path 3380" d="M695.44,147.337l-2.879-.384a1.432,1.432,0,0,1-.94-.576l-1.464-1.944a1.536,1.536,0,0,1,.712-2.472l4.113-.737c1.764-.316,3.419,1.384,3.326,3.413h0A2.632,2.632,0,0,1,695.44,147.337Z" transform="translate(-664.51 -91.02)" fill="#f38ca0"/>
          <g id="Group_7540" data-name="Group 7540" transform="translate(58.619 24.37)">
            <path id="Path_3381" data-name="Path 3381" d="M720.37,151.13l-.3-29.182a4.271,4.271,0,0,1,4.247-4.141H740.88a4.015,4.015,0,0,1,4.034,4.141l-4.94,28.929.631,5.475-20.6-1.849Z" transform="translate(-720.007 -117.807)" fill="#ffbc00"/>
            <path id="Path_3382" data-name="Path 3382" d="M727.8,117.807h8.57c-3.6,7.973-3.79,21.287-3.012,37.925l-9.99-.9C725.434,136.3,720.259,122.048,727.8,117.807Z" transform="translate(-719.66 -117.807)" fill="#fff"/>
            <path id="Path_3383" data-name="Path 3383" d="M735.133,117.807a3.994,3.994,0,0,1-3.971,3.872,3.754,3.754,0,0,1-3.772-3.872Z" transform="translate(-719.244 -117.807)" fill="#f38ca0"/>
          </g>
          <g id="Group_7541" data-name="Group 7541" transform="translate(45.374 25.136)">
            <path id="Path_3384" data-name="Path 3384" d="M740.561,120.018l-11.144,22.669,2.677-1.506-17.537-.312a1.466,1.466,0,0,0-.26,2.913l17.313,2.8a2.457,2.457,0,0,0,2.6-1.337l.083-.168,11.144-22.669a2.714,2.714,0,1,0-4.87-2.394Z" transform="translate(-707.48 -118.501)" fill="#ffbc00"/>
            <path id="Path_3385" data-name="Path 3385" d="M713.6,143.884l-2.873-.412a1.434,1.434,0,0,1-.935-.585l-1.447-1.958a1.535,1.535,0,0,1,.736-2.464l4.12-.7c1.766-.3,3.406,1.416,3.292,3.445h0A2.633,2.633,0,0,1,713.6,143.884Z" transform="translate(-708.003 -116.513)" fill="#f38ca0"/>
          </g>
          <path id="Path_3386" data-name="Path 3386" d="M734.044,118.315H729.1l.121-4.823,4.494-.6Z" transform="translate(-660.448 -93.945)" fill="#f38ca0"/>
          <g id="Group_7542" data-name="Group 7542" transform="translate(61.86)">
            <path id="Path_3387" data-name="Path 3387" d="M726.072,102.1c-.22.748,0,8.188,0,8.188h-1.56c-.851-2.966-2.313-8.223-1.114-10.466.931-1.743,4.626-1.96,4.626-1.96Z" transform="translate(-722.944 -95.498)" fill="#fff"/>
            <path id="Path_3388" data-name="Path 3388" d="M723.951,103.258c0-2.734,1.9-4.342,5.957-4.342s5.958,1.608,5.958,4.342c0,2.16.433,6.157.294,8.312a7.021,7.021,0,0,1-2.7,5.433,5.2,5.2,0,0,1-7.1,0,7.025,7.025,0,0,1-2.7-5.433C723.519,109.415,723.951,105.418,723.951,103.258Z" transform="translate(-722.873 -95.39)" fill="#f38ca0"/>
            <path id="Path_3389" data-name="Path 3389" d="M733.86,101.782c0,.014.019.02.023.035.22.748,0,8.093,0,8.093h1.56a27.18,27.18,0,0,0,.862-9.311Z" transform="translate(-721.816 -95.216)" fill="#fff"/>
            <path id="Path_3390" data-name="Path 3390" d="M730.661,111.6a1.951,1.951,0,0,1-3.9,0A9.259,9.259,0,0,0,730.661,111.6Z" transform="translate(-722.55 -94.079)" fill="#fff"/>
            <path id="Path_3391" data-name="Path 3391" d="M737.1,108.71c-.3,1.221-1.013,2.212-1.6,2.212s-.82-.991-.522-2.212,1.013-2.213,1.6-2.213S737.4,107.488,737.1,108.71Z" transform="translate(-721.713 -94.606)" fill="#f38ca0"/>
            <path id="Path_3392" data-name="Path 3392" d="M730.757,107.561c0,.588.246,1.065.548,1.065s.548-.477.548-1.065-.246-1.064-.548-1.064S730.757,106.973,730.757,107.561Z" transform="translate(-722.137 -94.606)" fill="#49341f"/>
            <path id="Path_3393" data-name="Path 3393" d="M725.449,107.561c0,.588.246,1.065.548,1.065s.547-.477.547-1.065S726.3,106.5,726,106.5,725.449,106.973,725.449,107.561Z" transform="translate(-722.685 -94.606)" fill="#49341f"/>
            <path id="Path_3394" data-name="Path 3394" d="M728.215,106.966l-.9,3.632a.345.345,0,0,0,.253.418.3.3,0,0,0,.045.009l.079.008,1.579.161a.545.545,0,1,0,.111-1.085.536.536,0,0,0-.111,0l-1.579.161.377.435Z" transform="translate(-722.493 -94.557)" fill="#d96c81"/>
            <path id="Path_3395" data-name="Path 3395" d="M734.924,102.322h-11.1c-.769-6.963,13.161-9.958,13.523-1.218Z" transform="translate(-722.857 -95.72)" fill="#fff"/>
            <path id="Path_3396" data-name="Path 3396" d="M730.469,106.392a.447.447,0,0,0,.539-.008,2.016,2.016,0,0,1,2.251,0,.447.447,0,0,0,.54.008c.137-.127.078-.408-.161-.57a2.7,2.7,0,0,0-3.008,0C730.39,105.984,730.332,106.265,730.469,106.392Zm-6.136,0a.447.447,0,0,0,.54-.008,2.016,2.016,0,0,1,2.251,0,.445.445,0,0,0,.539.008c.138-.127.079-.408-.16-.57a2.7,2.7,0,0,0-3.008,0C724.253,105.984,724.2,106.265,724.333,106.392Z" transform="translate(-722.808 -94.723)" fill="#d96c81"/>
          </g>
          <g id="Group_7543" data-name="Group 7543" transform="translate(11.123 12.988)">
            <path id="Path_3397" data-name="Path 3397" d="M700.836,136.172h-6.843a13.728,13.728,0,0,1-5.27-1.048c-.343-.142-.805-.3-1.31-.468a21.953,21.953,0,0,1-2.474-.944,1.5,1.5,0,0,1-1.493,1.367h-4.987a1.5,1.5,0,0,1-1.5-1.5V120.161a1.5,1.5,0,0,1,1.5-1.5h5.677a46.628,46.628,0,0,0,6.741-10.34,1.5,1.5,0,0,1,2.1-.626,5.89,5.89,0,0,1,2.9,3.719c.489,1.983.01,4.3-1.506,7.254h8.44a1.476,1.476,0,0,1,.444.067,2.958,2.958,0,0,1,1.831,1.07h0a3.072,3.072,0,0,1,.632,2.384,3.554,3.554,0,0,1-.8,1.776,3.13,3.13,0,0,1,.288,1.851,3.54,3.54,0,0,1-.8,1.773,3.133,3.133,0,0,1,.29,1.851,3.568,3.568,0,0,1-.8,1.781,3.144,3.144,0,0,1,.287,1.844,3.661,3.661,0,0,1-2.913,3.031A1.175,1.175,0,0,1,700.836,136.172Zm-16.913-4.409.828.651a12.377,12.377,0,0,0,2.99,1.273c.527.179,1.013.343,1.374.492a12.688,12.688,0,0,0,4.878.971h6.843a.445.445,0,0,0,.154-.029,2.673,2.673,0,0,0,2.177-2.195,2.089,2.089,0,0,0-.328-1.482l-.245-.357.313-.3a2.583,2.583,0,0,0,.773-1.486,2.094,2.094,0,0,0-.331-1.488l-.248-.357.314-.3a2.572,2.572,0,0,0,.778-1.477,2.092,2.092,0,0,0-.33-1.487l-.247-.357.313-.3a2.567,2.567,0,0,0,.778-1.481,2.058,2.058,0,0,0-.417-1.6h0a1.989,1.989,0,0,0-1.263-.721.828.828,0,0,0-.214-.039H692.656l.419-.758c1.677-3.034,2.271-5.413,1.813-7.272a4.9,4.9,0,0,0-2.429-3.083.475.475,0,0,0-.667.2,47.283,47.283,0,0,1-7.048,10.738l-.152.17h-6.133a.477.477,0,0,0-.477.477V133.58a.477.477,0,0,0,.477.477h4.987a.477.477,0,0,0,.477-.477Z" transform="translate(-676.961 -107.491)" fill="#fff"/>
            <rect id="Rectangle_1552" data-name="Rectangle 1552" width="1.022" height="13.642" transform="translate(6.963 11.682)" fill="#fff"/>
          </g>
        </g>
        <g id="Group_7553" data-name="Group 7553" transform="translate(305.354 264.406)">
          <g id="Group_7549" data-name="Group 7549" transform="translate(51.187 126.267)">
            <g id="Group_7546" data-name="Group 7546">
              <path id="Path_3398" data-name="Path 3398" d="M663.37,563.071a.51.51,0,0,1-.511-.511V450.813a.511.511,0,1,1,1.022,0V562.561A.51.51,0,0,1,663.37,563.071Z" transform="translate(-662.859 -449.738)" fill="#fff"/>
              <g id="Group_7545" data-name="Group 7545" transform="translate(0.197 0)">
                <path id="Path_3399" data-name="Path 3399" d="M707.776,563.124a.511.511,0,0,1-.5-.414L685.444,450.4a.51.51,0,0,1,.4-.6.515.515,0,0,1,.6.4l21.831,112.312a.512.512,0,0,1-.4.6A.607.607,0,0,1,707.776,563.124Z" transform="translate(-660.722 -449.791)" fill="#fff"/>
                <path id="Path_3400" data-name="Path 3400" d="M685.379,563.124a.511.511,0,0,1-.5-.414L663.047,450.4a.511.511,0,0,1,1-.194l21.832,112.312a.512.512,0,0,1-.4.6A.594.594,0,0,1,685.379,563.124Z" transform="translate(-663.037 -449.791)" fill="#fff"/>
              </g>
              <path id="Path_3401" data-name="Path 3401" d="M688.261,450.813H663.549a.511.511,0,1,1,0-1.022h24.712a.511.511,0,1,1,0,1.022Z" transform="translate(-662.841 -449.791)" fill="#fff"/>
              <path id="Path_3402" data-name="Path 3402" d="M691.088,465.354H666.376a.51.51,0,1,1,0-1.021h24.712a.51.51,0,0,1,0,1.021Z" transform="translate(-662.548 -448.288)" fill="#fff"/>
              <path id="Path_3403" data-name="Path 3403" d="M693.914,479.9H669.2a.511.511,0,1,1,0-1.022h24.712a.511.511,0,1,1,0,1.022Z" transform="translate(-662.256 -446.785)" fill="#fff"/>
              <path id="Path_3404" data-name="Path 3404" d="M696.74,494.437H672.029a.511.511,0,0,1,0-1.022H696.74a.511.511,0,0,1,0,1.022Z" transform="translate(-661.964 -445.281)" fill="#fff"/>
              <path id="Path_3405" data-name="Path 3405" d="M699.568,508.978H674.855a.51.51,0,1,1,0-1.021h24.713a.51.51,0,1,1,0,1.021Z" transform="translate(-661.672 -443.778)" fill="#fff"/>
            </g>
            <g id="Group_7548" data-name="Group 7548">
              <path id="Path_3406" data-name="Path 3406" d="M663.37,563.071a.51.51,0,0,1-.511-.511V450.813a.511.511,0,1,1,1.022,0V562.561A.51.51,0,0,1,663.37,563.071Z" transform="translate(-662.859 -449.738)" fill="none" stroke="#6b84fb" stroke-linecap="round" stroke-linejoin="round" stroke-width="1"/>
              <g id="Group_7547" data-name="Group 7547" transform="translate(0.197 0)">
                <path id="Path_3407" data-name="Path 3407" d="M707.776,563.124a.511.511,0,0,1-.5-.414L685.444,450.4a.51.51,0,0,1,.4-.6.515.515,0,0,1,.6.4l21.831,112.312a.512.512,0,0,1-.4.6A.607.607,0,0,1,707.776,563.124Z" transform="translate(-660.722 -449.791)" fill="none" stroke="#6b84fb" stroke-linecap="round" stroke-linejoin="round" stroke-width="1"/>
                <path id="Path_3408" data-name="Path 3408" d="M685.379,563.124a.511.511,0,0,1-.5-.414L663.047,450.4a.511.511,0,0,1,1-.194l21.832,112.312a.512.512,0,0,1-.4.6A.594.594,0,0,1,685.379,563.124Z" transform="translate(-663.037 -449.791)" fill="none" stroke="#6b84fb" stroke-linecap="round" stroke-linejoin="round" stroke-width="1"/>
              </g>
              <path id="Path_3409" data-name="Path 3409" d="M688.261,450.813H663.549a.511.511,0,1,1,0-1.022h24.712a.511.511,0,1,1,0,1.022Z" transform="translate(-662.841 -449.791)" fill="none" stroke="#6b84fb" stroke-linecap="round" stroke-linejoin="round" stroke-width="1"/>
              <path id="Path_3410" data-name="Path 3410" d="M691.088,465.354H666.376a.51.51,0,1,1,0-1.021h24.712a.51.51,0,0,1,0,1.021Z" transform="translate(-662.548 -448.288)" fill="none" stroke="#6b84fb" stroke-linecap="round" stroke-linejoin="round" stroke-width="1"/>
              <path id="Path_3411" data-name="Path 3411" d="M693.914,479.9H669.2a.511.511,0,1,1,0-1.022h24.712a.511.511,0,1,1,0,1.022Z" transform="translate(-662.256 -446.785)" fill="none" stroke="#6b84fb" stroke-linecap="round" stroke-linejoin="round" stroke-width="1"/>
              <path id="Path_3412" data-name="Path 3412" d="M696.74,494.437H672.029a.511.511,0,0,1,0-1.022H696.74a.511.511,0,0,1,0,1.022Z" transform="translate(-661.964 -445.281)" fill="none" stroke="#6b84fb" stroke-linecap="round" stroke-linejoin="round" stroke-width="1"/>
              <path id="Path_3413" data-name="Path 3413" d="M699.568,508.978H674.855a.51.51,0,1,1,0-1.021h24.713a.51.51,0,1,1,0,1.021Z" transform="translate(-661.672 -443.778)" fill="none" stroke="#6b84fb" stroke-linecap="round" stroke-linejoin="round" stroke-width="1"/>
            </g>
          </g>
          <g id="Group_7552" data-name="Group 7552">
            <g id="Group_7550" data-name="Group 7550" transform="translate(42.352 30.7)">
              <path id="Path_3414" data-name="Path 3414" d="M675.073,374.351,660.1,366.645a1.512,1.512,0,0,0-1.545,2.594l17.3,11.8C678.646,382.69,679.64,376.853,675.073,374.351Z" transform="translate(-654.537 -362.837)" fill="#ffbc00"/>
              <path id="Path_3415" data-name="Path 3415" d="M696.97,364.435a2.8,2.8,0,0,0-3.881-.792L677.3,374.079c-5.082,3.141-4.744,5.974-2.932,7.063a2.679,2.679,0,0,0,2.656-.166l.141-.093,19.013-12.567A2.8,2.8,0,0,0,696.97,364.435Z" transform="translate(-652.961 -363.178)" fill="#a1a7ff"/>
              <path id="Path_3416" data-name="Path 3416" d="M676.916,373.99l-.017-.063-.042.1Z" transform="translate(-652.578 -362.067)" fill="#b4b9ff"/>
              <path id="Path_3417" data-name="Path 3417" d="M662.4,365.493l-2.672-1.879a1.537,1.537,0,0,0-1.152-.258l-2.445.425a1.543,1.543,0,0,0-.931,2.495l3.021,3.705a3.1,3.1,0,0,0,4.93-.175h0A3.1,3.1,0,0,0,662.4,365.493Z" transform="translate(-654.852 -363.162)" fill="#f38ca0"/>
            </g>
            <path id="Path_3418" data-name="Path 3418" d="M640.927,384.271h0a24.459,24.459,0,0,1-24.458-24.459h0a24.459,24.459,0,0,1,24.458-24.459h0a24.459,24.459,0,0,1,24.459,24.459h0A24.458,24.458,0,0,1,640.927,384.271Z" transform="translate(-616.468 -335.354)" fill="#3f4b8c"/>
            <path id="Path_3419" data-name="Path 3419" d="M648.79,371.336l-8.817-4.635-8.819,4.635,1.685-9.818-7.133-6.955,9.859-1.432,4.409-8.933,4.408,8.933,9.858,1.432-7.133,6.955ZM627.9,355.277l6.036,5.884-1.424,8.307,7.462-3.923,7.46,3.923-1.424-8.307,6.035-5.884-8.341-1.213-3.729-7.558-3.73,7.558Z" transform="translate(-615.513 -334.44)" fill="#fff"/>
            <path id="Path_3420" data-name="Path 3420" d="M673.483,445.512a4.289,4.289,0,0,1-1.163,1.186c-1.946.929-4.629.919-4.983,2.5l-.21,1.1,11.473.036-.213-3.892Z" transform="translate(-611.231 -323.966)" fill="#29427b"/>
            <path id="Path_3421" data-name="Path 3421" d="M677.692,444.077,674,444.066s-.5.833-1.074,1.6q3.2,3.558,4.9.928Z" transform="translate(-610.632 -324.116)" fill="#f38ca0"/>
            <path id="Path_3422" data-name="Path 3422" d="M689.172,458.759h-3.693l-1.085,2c-.771,1.589,4.844,2.081,4.844,0Z" transform="translate(-609.454 -322.597)" fill="#f38ca0"/>
            <path id="Path_3423" data-name="Path 3423" d="M684.762,460.428l-.457.662c-1.391.673-2.578,1.49-2.578,2.642l.036,1.1h7.887l-.145-4.4C689.507,459.667,685.914,461.367,684.762,460.428Z" transform="translate(-609.722 -322.445)" fill="#29427b"/>
            <path id="Path_3424" data-name="Path 3424" d="M667.291,449.075l-.162.852,11.473.036-.047-.852Z" transform="translate(-611.231 -323.598)" fill="#b4b9ff"/>
            <path id="Path_3425" data-name="Path 3425" d="M681.736,463.624l.028.852h7.887l-.028-.852Z" transform="translate(-609.721 -322.094)" fill="#b4b9ff"/>
            <path id="Path_3426" data-name="Path 3426" d="M664.336,422.152l12.322-21.409a4.144,4.144,0,0,1,5.852-1.449l2.036,1.311a4.144,4.144,0,0,1,1.1,5.933l-9.1,13.971s-3.153,3.767-5.564,6.653a4.142,4.142,0,0,1-5.89.476h0A4.328,4.328,0,0,1,664.336,422.152Z" transform="translate(-611.587 -328.812)" fill="#c04c85"/>
            <path id="Path_3427" data-name="Path 3427" d="M666.692,418.3a3.755,3.755,0,0,1,4.4,2.5l8.067,26.752h-5.332l-9.765-24.127A3.754,3.754,0,0,1,666.692,418.3Z" transform="translate(-611.578 -326.789)" fill="#c04c85"/>
            <path id="Path_3428" data-name="Path 3428" d="M692.958,401.522l-.5,15.918c-.243,5.3-.408,10.606-.715,15.9l-1.657,31.768-4.837-.049-1.026-31.707-.142-3.96-.3-3.959-.6-7.913-1.23-15.817Z" transform="translate(-609.698 -328.514)" fill="#c04c85"/>
            <path id="Path_3429" data-name="Path 3429" d="M691.067,406.468H676.256a3.01,3.01,0,0,1-2.914-3.077l-.026-5.467h20.61l.027,5.467A2.976,2.976,0,0,1,691.067,406.468Z" transform="translate(-610.591 -328.886)" fill="#c04c85"/>
            <path id="Path_3430" data-name="Path 3430" d="M665.817,381.887l-12.166-11.641a1.512,1.512,0,0,0-2.217,2.048l13.233,16.233C666.873,390.9,669.485,385.585,665.817,381.887Z" transform="translate(-612.888 -331.79)" fill="#ffbc00"/>
            <path id="Path_3431" data-name="Path 3431" d="M676.506,364.149a2.8,2.8,0,0,0-3.735,1.32l-8.159,17.079c-2.737,5.311-.989,7.564,1.127,7.564a2.677,2.677,0,0,0,2.19-1.509l.073-.152,9.824-20.566A2.8,2.8,0,0,0,676.506,364.149Z" transform="translate(-611.636 -332.406)" fill="#ffbc00"/>
            <path id="Path_3432" data-name="Path 3432" d="M664.485,380.8l-.047-.045.017.108Z" transform="translate(-611.509 -330.66)" fill="#b4b9ff"/>
            <path id="Path_3433" data-name="Path 3433" d="M656.424,370.663l-.6-3.211a1.539,1.539,0,0,0-.645-.989l-2.047-1.4a1.543,1.543,0,0,0-2.409,1.136l-.423,4.761a3.1,3.1,0,0,0,3.652,3.316h0A3.094,3.094,0,0,0,656.424,370.663Z" transform="translate(-612.972 -332.311)" fill="#f38ca0"/>
            <path id="Path_3434" data-name="Path 3434" d="M673.428,408.254l-1.12-42.2a4.42,4.42,0,0,1,4.42-4.42h17.68a4.42,4.42,0,0,1,4.42,4.42l-4.482,42.2Z" transform="translate(-610.695 -332.638)" fill="#ffbc00"/>
            <g id="Group_7551" data-name="Group 7551" transform="translate(61.703 3.548)">
              <path id="Rectangle_1553" data-name="Rectangle 1553" d="M6.934,0H8.368A6.934,6.934,0,0,1,15.3,6.934v6.339a6.934,6.934,0,0,1-6.934,6.934H6.935A6.935,6.935,0,0,1,0,13.273V6.934A6.934,6.934,0,0,1,6.934,0Z" transform="translate(3.665 2.492)" fill="#f38ca0"/>
              <rect id="Rectangle_1554" data-name="Rectangle 1554" width="6.686" height="6.233" transform="translate(15.895 25.446) rotate(180)" fill="#f38ca0"/>
              <path id="Path_3435" data-name="Path 3435" d="M683.2,340.828h0a7.652,7.652,0,0,1,7.652,7.652v4.9a7.638,7.638,0,0,1-3.14,6.179,3.508,3.508,0,0,1-4.879-.8l-2.809-3.836-2.729-11.309A7.633,7.633,0,0,1,683.2,340.828Z" transform="translate(-671.883 -338.336)" fill="#6a3a14"/>
              <path id="Path_3436" data-name="Path 3436" d="M676.507,344.943a7.65,7.65,0,0,1,6.786-4.115h0a7.652,7.652,0,0,1,7.652,7.652v3.792H679.379C677.416,352.272,675.954,346,676.507,344.943Z" transform="translate(-671.977 -338.336)" fill="#6a3a14"/>
              <path id="Path_3437" data-name="Path 3437" d="M684.769,340.963c2.317-1.91,7.982.253,8.866,2.628a8.716,8.716,0,0,1-2.293,0c1.658.414,2.564,2.77,1.156,4.668a4.5,4.5,0,0,0-1.908-2.152,3.763,3.763,0,0,1,.461,4.668,6.2,6.2,0,0,1-1.376-2.273,2.21,2.21,0,0,1-.641,2.452C687.411,347.744,685.011,343.559,684.769,340.963Z" transform="translate(-671.11 -338.398)" fill="#6a3a14"/>
              <path id="Path_3438" data-name="Path 3438" d="M686.328,342.735c.145-4.994-7.377-5.509-13.125-1.485a16.092,16.092,0,0,1,4.546-.814,7.179,7.179,0,0,0-5.359,3.593,3.812,3.812,0,0,0,3.018,0,4.046,4.046,0,0,0-2.3,2.73,3.568,3.568,0,0,0,3.736-1.437,7.675,7.675,0,0,0-1.725,4.023c1.365-1.545,4.47-2.554,6.322-2.73a9.648,9.648,0,0,0-3.693,2.3c2.9.287,5.741-.036,7.429-1.868a4.812,4.812,0,0,0,2.013,2.3C688.161,347.98,688.987,344.28,686.328,342.735Z" transform="translate(-672.39 -338.569)" fill="#6a3a14"/>
              <path id="Path_3439" data-name="Path 3439" d="M679.1,350.92v2.288a.622.622,0,1,0,1.245,0V350.92a.622.622,0,1,0-1.245,0Z" transform="translate(-671.696 -337.357)" fill="#f38ca0"/>
            </g>
          </g>
        </g>
        <g id="Group_7556" data-name="Group 7556" transform="translate(422.55 220.107)">
          <path id="Path_3440" data-name="Path 3440" d="M781.579,302.225H731.415a8.731,8.731,0,0,0-8.731,8.731v23.418a8.731,8.731,0,0,0,8.731,8.731h6.713v9.73l9.731-9.73h33.72a8.731,8.731,0,0,0,8.731-8.731V310.956A8.731,8.731,0,0,0,781.579,302.225Z" transform="translate(-722.684 -294.479)" fill="#fff"/>
          <g id="Group_7554" data-name="Group 7554" transform="translate(39.436 96.091)">
            <path id="Path_3441" data-name="Path 3441" d="M769.655,388.525H758.49l-.062-1.067c-.119-2.049,3.212-1.54,5.1-2.451a5.808,5.808,0,0,0,1.5-1.672,2.407,2.407,0,0,1,1.986-1.043h0a2.414,2.414,0,0,1,2.41,2.275Z" transform="translate(-758.425 -382.293)" fill="#29427b"/>
            <path id="Path_3442" data-name="Path 3442" d="M766.614,386.7h2.933l.108,1.37H758.489l-.06-.56h5.993Z" transform="translate(-758.425 -381.838)" fill="#8ed1fe"/>
          </g>
          <path id="Path_3443" data-name="Path 3443" d="M788.115,360.02l-1.335-10.834-27.424,5.031-.421.077a3.756,3.756,0,0,0-.416.1,3.651,3.651,0,0,0-2.388,4.578l8.775,27.91h4.951l-5.387-25.358Z" transform="translate(-719.244 -289.625)" fill="#8ed1fe"/>
          <g id="Group_7555" data-name="Group 7555" transform="translate(96.495 94.216)">
            <path id="Path_3444" data-name="Path 3444" d="M813.384,380.594l7.9,7.895-.711.8c-1.365,1.533-3.36-1.183-5.342-1.877a5.8,5.8,0,0,0-2.242.122,2.4,2.4,0,0,1-2.141-.666h0a2.415,2.415,0,0,1-.1-3.313Z" transform="translate(-810.138 -380.594)" fill="#29427b"/>
            <path id="Path_3445" data-name="Path 3445" d="M814.345,383.713l-2.074-2.074.892-1.045,7.9,7.9-.354.438-4.238-4.238Z" transform="translate(-809.917 -380.594)" fill="#8ed1fe"/>
          </g>
          <path id="Path_3446" data-name="Path 3446" d="M791.106,381.76l3.015-31.709-10.9-.525-.052,35.142v.387a3.6,3.6,0,0,0,3.288,3.578l28.472,2.486-1.163-5.019Z" transform="translate(-716.432 -289.59)" fill="#8ed1fe"/>
          <path id="Path_3447" data-name="Path 3447" d="M792.19,355.067H778.012a2.867,2.867,0,0,1-2.79-2.92l-.025-5.186h19.731l.025,5.186A2.834,2.834,0,0,1,792.19,355.067Z" transform="translate(-717.256 -289.855)" fill="#8ed1fe"/>
          <path id="Path_3448" data-name="Path 3448" d="M795.123,351.01l4.251-31.017a4.192,4.192,0,0,0-4.193-4.193h-16.77a4.192,4.192,0,0,0-4.193,4.193l1.063,31.017-.026,1.418,20.189,1.136Z" transform="translate(-717.357 -293.076)" fill="#c04c85"/>
          <path id="Path_3449" data-name="Path 3449" d="M775.158,349l.062,1.967,16.734,2.469a2.965,2.965,0,0,0,3.393-3.3h0Z" transform="translate(-717.259 -289.644)" fill="#fff"/>
          <path id="Path_3450" data-name="Path 3450" d="M777.3,302.5c0-2.416,1.682-3.836,5.263-3.836s5.262,1.42,5.262,3.836c0,1.908-.146,5.439-.268,7.342-.136,2.115-1.745,6.035-7.123,6.035-2.362,0-3.257-3.92-3.393-6.035C776.922,307.934,777.3,304.4,777.3,302.5Z" transform="translate(-717.067 -294.848)" fill="#f38ca0"/>
          <path id="Path_3451" data-name="Path 3451" d="M782.653,316.472h5.666L787.8,311.2a2.1,2.1,0,0,0-2.059-1.9h0a2.1,2.1,0,0,0-1.812.99l-1.548,2.488a2.1,2.1,0,0,0-.254,1.622Z" transform="translate(-716.545 -293.748)" fill="#f38ca0"/>
          <path id="Path_3452" data-name="Path 3452" d="M782.5,314.038h5.573l4.192-9.681a4.9,4.9,0,0,0,.252-1.55h0a4.908,4.908,0,0,0-3.07-4.55l-2.8-1.13-5.734,4.142Z" transform="translate(-716.664 -295.006)" fill="#29427b"/>
          <path id="Path_3453" data-name="Path 3453" d="M780.985,295.2c-6.008,0-5.682,5.547-1.8,6.449,11.428,2.655,12.949-1.41,12.949-1.41C792.738,298.07,787.124,295.2,780.985,295.2Z" transform="translate(-717.136 -295.205)" fill="#29427b"/>
          <path id="Path_3454" data-name="Path 3454" d="M777.862,305.009h1.919a.3.3,0,0,0,0-.6h-1.919a.3.3,0,0,0,0,.6Z" transform="translate(-717.011 -294.253)" fill="#49341f"/>
          <ellipse id="Ellipse_72" data-name="Ellipse 72" cx="0.484" cy="0.94" rx="0.484" ry="0.94" transform="translate(61.45 11.2)" fill="#49341f"/>
          <path id="Path_3455" data-name="Path 3455" d="M777.339,304.953,775.5,309.11h2.374Z" transform="translate(-717.224 -294.197)" fill="#f38ca0"/>
          <path id="Path_3456" data-name="Path 3456" d="M772.89,337.642l-.032-.007.031.036Z" transform="translate(-717.497 -290.819)" fill="#f38ca0"/>
          <path id="Path_3457" data-name="Path 3457" d="M778.177,343.174l1.226-22.435a2.726,2.726,0,0,0-5.444-.3l-1.275,20.3c-.15,2.91,2.773,6.342,4.741,4.275a2.573,2.573,0,0,0,.744-1.664Z" transform="translate(-717.516 -292.863)" fill="#f38ca0"/>
          <path id="Path_3458" data-name="Path 3458" d="M774.006,338.154l-15.325-.1a1.472,1.472,0,0,0-.211,2.929l18.523,2.6a2.71,2.71,0,0,0,.761-.007,2.575,2.575,0,0,0,1.776-1.177C780.038,339.829,777.188,338.18,774.006,338.154Z" transform="translate(-719.116 -290.775)" fill="#f38ca0"/>
          <path id="Path_3459" data-name="Path 3459" d="M780.525,320.9a3.816,3.816,0,1,0-7.621-.416l-.557,10.2,7.548,1.769Z" transform="translate(-717.55 -292.965)" fill="#c04c85"/>
          <path id="Path_3460" data-name="Path 3460" d="M754.567,341.249l-2.487-1.85a1.463,1.463,0,0,1-.574-.961l-.342-2.329a1.464,1.464,0,0,1,1.972-1.579l4.234,1.623a2.936,2.936,0,0,1,1.3,4.494h0A2.936,2.936,0,0,1,754.567,341.249Z" transform="translate(-719.742 -291.15)" fill="#f38ca0"/>
        </g>
        <g id="Group_7562" data-name="Group 7562" transform="translate(120.751 125.647)">
          <path id="Path_3461" data-name="Path 3461" d="M477.514,299.966a4.154,4.154,0,1,0-8.275.594l3.979,31.713h4.895Z" transform="translate(-447.088 -200.675)" fill="#c04c85"/>
          <path id="Path_3462" data-name="Path 3462" d="M472.842,328.864l.139,1.1a2.394,2.394,0,0,0,4.769-.342l-.013-.757Z" transform="translate(-446.712 -197.266)" fill="#f38ca0"/>
          <path id="Path_3463" data-name="Path 3463" d="M472.9,271.921l-2.832.2a4.13,4.13,0,0,0-3.8,4.633l3.324,26.5a4.13,4.13,0,0,0,4.394,3.6h0a4.129,4.129,0,0,0,3.833-4.2l-.493-26.7A4.13,4.13,0,0,0,472.9,271.921Z" transform="translate(-447.396 -203.153)" fill="#c04c85"/>
          <path id="Rectangle_1555" data-name="Rectangle 1555" d="M4.045,0H16.812a4.045,4.045,0,0,1,4.045,4.045v4.8a0,0,0,0,1,0,0H0a0,0,0,0,1,0,0v-4.8A4.045,4.045,0,0,1,4.045,0Z" transform="translate(29.93 76.894) rotate(180)" fill="#c04c85"/>
          <path id="Path_3464" data-name="Path 3464" d="M464.727,271.857h-2.839a5.094,5.094,0,0,0-4.867,4.35l-3.135,26.67a3.376,3.376,0,0,0,3.456,3.91h0a5.113,5.113,0,0,0,4.792-3.91l5.974-26.67A3.407,3.407,0,0,0,464.727,271.857Z" transform="translate(-448.675 -203.159)" fill="#c04c85"/>
          <path id="Path_3465" data-name="Path 3465" d="M450.446,329.177l-.067.576a1.957,1.957,0,0,0,2,2.266h0a2.964,2.964,0,0,0,2.778-2.266l.128-.576Z" transform="translate(-449.036 -197.233)" fill="#f38ca0"/>
          <path id="Path_3466" data-name="Path 3466" d="M462.55,300.179a3.427,3.427,0,0,0-3.4-4.375h0a5.123,5.123,0,0,0-4.9,4.375l-3.815,32.448h4.843Z" transform="translate(-449.028 -200.683)" fill="#c04c85"/>
          <g id="Group_7557" data-name="Group 7557" transform="translate(25.371 29.703)">
            <path id="Path_3467" data-name="Path 3467" d="M473.772,252.425l6.494-.115.553,9.777a2.9,2.9,0,0,1-2.562,3.205,3.129,3.129,0,0,1-3.138-2.842Z" transform="translate(-471.987 -234.883)" fill="#f38ca0"/>
            <path id="Path_3468" data-name="Path 3468" d="M479.68,240.608a4.149,4.149,0,0,0-4.155-4.086,3.85,3.85,0,0,0-3.329,4.564l1.789,13.308,6.469-.1Z" transform="translate(-472.154 -236.516)" fill="#fff"/>
          </g>
          <g id="Group_7558" data-name="Group 7558" transform="translate(29.292 39.085)">
            <path id="Path_3469" data-name="Path 3469" d="M480.355,265.732l19.952-15.394a1.8,1.8,0,0,0,.372-2.47h0a1.8,1.8,0,0,0-2.452-.478l-21.2,13.632a2.885,2.885,0,0,0-.8,4.089h0A2.885,2.885,0,0,0,480.355,265.732Z" transform="translate(-475.708 -244.803)" fill="#f38ca0"/>
            <path id="Path_3470" data-name="Path 3470" d="M500.1,251.932l2.878-1.6a1.558,1.558,0,0,0,.74-.931l.688-2.4a1.554,1.554,0,0,0-1.853-1.94l-4.685,1.11a3.117,3.117,0,0,0-2.007,4.545h0A3.117,3.117,0,0,0,500.1,251.932Z" transform="translate(-473.665 -245.019)" fill="#f38ca0"/>
          </g>
          <path id="Path_3471" data-name="Path 3471" d="M480.5,240.279a5.767,5.767,0,0,0-4.02-5.268,37.2,37.2,0,0,0-20.844,0,5.069,5.069,0,0,0-3.464,5.268c1.812,11.2,3.745,23.113,5.733,35.541h20.879C479.369,263.416,479.955,251.514,480.5,240.279Z" transform="translate(-448.854 -207.122)" fill="#6b84fb"/>
          <path id="Path_3472" data-name="Path 3472" d="M452.171,240.231c.845,5.229,2.151,13.825,3.3,21.509,1.316,8.782.094,20.455.094,20.455h9.156l2.651-20.015-7.432-28.189a35.586,35.586,0,0,0-4.306.972A5.068,5.068,0,0,0,452.171,240.231Zm23.738-5.41-3.894,27.186,2.294,20.188h4.474c.586-16.49,1.172-30.73,1.715-41.965a5.767,5.767,0,0,0-4.02-5.268C476.29,234.909,476.1,234.872,475.909,234.821Z" transform="translate(-448.854 -207.073)" fill="#29427b"/>
          <path id="Path_3656" data-name="Path 3656" d="M7.7,0H40.914a7.7,7.7,0,0,1,7.7,7.7V40.914a7.7,7.7,0,0,1-7.7,7.7H7.7a7.7,7.7,0,0,1-7.7-7.7V7.7A7.7,7.7,0,0,1,7.7,0Z" transform="translate(28.584 22.137)" fill="#53d86a"/>
          <path id="Path_3473" data-name="Path 3473" d="M471.46,234.067a37.36,37.36,0,0,0-11.187-.214l8.186,10.276S471.867,234.137,471.46,234.067Z" transform="translate(-448.011 -207.121)" fill="#f38ca0"/>
          <g id="Group_7559" data-name="Group 7559" transform="translate(0 28.892)">
            <path id="Path_3474" data-name="Path 3474" d="M450.106,250.989l6.357,1.342-1.65,9.652a2.9,2.9,0,0,1-3.214,2.551,3.13,3.13,0,0,1-2.423-3.472Z" transform="translate(-449.16 -234.208)" fill="#f38ca0"/>
            <path id="Path_3475" data-name="Path 3475" d="M458.625,240.739a4.148,4.148,0,0,0-3.134-4.913,3.851,3.851,0,0,0-4.267,3.7L449.989,252.9l6.328,1.352Z" transform="translate(-449.075 -235.78)" fill="#6b84fb"/>
          </g>
          <path id="Path_3476" data-name="Path 3476" d="M450.375,329.942h4.974a1.153,1.153,0,0,0,1.092-.932l.248-1.451a.766.766,0,0,0-.773-.932h-4.974a1.153,1.153,0,0,0-1.092.932l-.248,1.451A.766.766,0,0,0,450.375,329.942Z" transform="translate(-449.116 -197.497)" fill="#c04c85"/>
          <rect id="Rectangle_1557" data-name="Rectangle 1557" width="6.84" height="3.316" rx="0.845" transform="translate(32.13 132.202) rotate(176.002)" fill="#c04c85"/>
          <g id="Group_7560" data-name="Group 7560" transform="translate(10.186)">
            <path id="Path_3477" data-name="Path 3477" d="M463.571,234.941h4.081v-5.186l-4.971-.65Z" transform="translate(-457.949 -207.578)" fill="#f38ca0"/>
            <path id="Path_3478" data-name="Path 3478" d="M469.828,217.759c.224.76,0,8.337,0,8.337h1.589a27.356,27.356,0,0,0,.641-11.367Z" transform="translate(-457.21 -209.065)" fill="#29427b"/>
            <path id="Path_3479" data-name="Path 3479" d="M472.6,219.057c0-2.784-1.939-4.421-6.066-4.421s-6.066,1.637-6.066,4.421c0,2.2-.44,6.269-.3,8.464a7.15,7.15,0,0,0,2.749,5.531,5.3,5.3,0,0,0,7.234,0,7.15,7.15,0,0,0,2.749-5.531C473.039,225.327,472.6,221.257,472.6,219.057Z" transform="translate(-458.212 -209.074)" fill="#f38ca0"/>
            <path id="Path_3480" data-name="Path 3480" d="M461.728,227.526l6.315-1.167,4.727,1.167a7,7,0,0,1-2.621,4.452,5.3,5.3,0,0,1-7.234,0,7.15,7.15,0,0,1-2.749-5.531c-.026-.41-.028-.9-.02-1.416h1.581Z" transform="translate(-458.211 -208)" fill="#29427b"/>
            <path id="Path_3481" data-name="Path 3481" d="M463.739,211.678h6.09c1.913,0,5.217-.209,5.217,2,0,1.911-1.775,4.305-5.707,4.305-4.406,0-7.127-1.246-7.52.092-.224.76,0,8.337,0,8.337h-1.589a27.356,27.356,0,0,1-.641-11.367A4.2,4.2,0,0,1,463.739,211.678Z" transform="translate(-458.303 -209.381)" fill="#29427b"/>
            <path id="Path_3482" data-name="Path 3482" d="M465.229,227.547a1.986,1.986,0,0,0,3.971,0A9.411,9.411,0,0,1,465.229,227.547Z" transform="translate(-457.685 -207.74)" fill="#fff"/>
            <path id="Path_3483" data-name="Path 3483" d="M458.523,224.609c.3,1.245,1.032,2.253,1.628,2.253s.834-1.008.532-2.253-1.032-2.254-1.627-2.254S458.221,223.365,458.523,224.609Z" transform="translate(-458.392 -208.276)" fill="#f38ca0"/>
            <path id="Path_3484" data-name="Path 3484" d="M465.367,221.956h-2.212a.345.345,0,0,1,0-.69h2.212a.345.345,0,1,1,0,.69Z" transform="translate(-457.935 -208.389)" fill="#49341f"/>
            <path id="Path_3485" data-name="Path 3485" d="M471.029,221.956h-2.211a.345.345,0,1,1,0-.69h2.211a.345.345,0,1,1,0,.69Z" transform="translate(-457.35 -208.389)" fill="#49341f"/>
            <path id="Path_3486" data-name="Path 3486" d="M464.865,223.439c0,.6-.25,1.085-.558,1.085s-.558-.485-.558-1.085.249-1.083.558-1.083S464.865,222.84,464.865,223.439Z" transform="translate(-457.839 -208.276)" fill="#49341f"/>
            <path id="Path_3487" data-name="Path 3487" d="M470.269,223.439c0,.6-.249,1.085-.558,1.085s-.557-.485-.557-1.085.249-1.083.557-1.083S470.269,222.84,470.269,223.439Z" transform="translate(-457.28 -208.276)" fill="#49341f"/>
            <path id="Path_3488" data-name="Path 3488" d="M467.589,222.833l.09,3.311-1.167-.122a.565.565,0,1,0,0,1.129l2.1-.22-.1-.4Z" transform="translate(-457.613 -208.227)" fill="#d96c81"/>
            <path id="Path_3489" data-name="Path 3489" d="M472.492,210.233h0a1.252,1.252,0,0,1-.943,1.867c-2.991.338-8.506.959-8.574.959s5.572-2.371,7.942-3.365A1.253,1.253,0,0,1,472.492,210.233Z" transform="translate(-457.919 -209.595)" fill="#29427b"/>
          </g>
          <g id="Group_7561" data-name="Group 7561" transform="translate(0.402 53.842)">
            <path id="Path_3490" data-name="Path 3490" d="M451.906,264.12l24.812,4.409a1.8,1.8,0,0,0,2.079-1.386h0a1.806,1.806,0,0,0-1.3-2.136l-24.344-6.514a2.885,2.885,0,0,0-3.563,2.16h0A2.886,2.886,0,0,0,451.906,264.12Z" transform="translate(-449.524 -258.393)" fill="#f38ca0"/>
            <path id="Path_3491" data-name="Path 3491" d="M474.563,270.22l3.117,1.056a1.548,1.548,0,0,0,1.186-.078l2.242-1.107a1.554,1.554,0,0,0,.19-2.675l-3.973-2.721a3.118,3.118,0,0,0-4.714,1.572h0A3.119,3.119,0,0,0,474.563,270.22Z" transform="translate(-447.155 -257.798)" fill="#f38ca0"/>
          </g>
          <path id="Path_3492" data-name="Path 3492" d="M478.2,332.429a4.29,4.29,0,0,0,1.167,1.2c1.957.942,4.658.941,5.012,2.536l.207,1.1H473.034l.227-3.919Z" transform="translate(-446.692 -196.897)" fill="#29427b"/>
          <path id="Path_3493" data-name="Path 3493" d="M473.35,331.08c0-1.606,3.135-1.557,3.721,0,0,0,.5.841,1.076,1.611q-3.237,3.575-4.943.919Z" transform="translate(-446.675 -197.159)" fill="#f38ca0"/>
          <path id="Path_3494" data-name="Path 3494" d="M454.748,332.8c.4,0,.545.287.679.666,1.285.677,2.339,1.5,2.141,2.66l-.224,1.1H449.4l.9-4.431Z" transform="translate(-449.136 -196.859)" fill="#29427b"/>
          <path id="Path_3495" data-name="Path 3495" d="M450.6,331.281c.345-1.8,3.354-2.325,3.719,0l.747,2.017c-4-.761-4.746,3.427-4.878,0Z" transform="translate(-449.054 -197.176)" fill="#f38ca0"/>
          <path id="Path_3496" data-name="Path 3496" d="M457.518,336.036l-.175.859H449.4l.175-.859Z" transform="translate(-449.136 -196.524)" fill="#6b84fb"/>
          <path id="Path_3497" data-name="Path 3497" d="M484.429,336.036l.161.859H473.034l.05-.859Z" transform="translate(-446.692 -196.524)" fill="#6b84fb"/>
          <path id="Path_3498" data-name="Path 3498" d="M489.477,266.776V239.182l21.326,13.8Zm1.022-25.717V264.9l18.423-11.92Z" transform="translate(-444.992 -206.537)" fill="#fff"/>
        </g>
        <g id="Group_7563" data-name="Group 7563" transform="translate(116.668 265.947)">
          <path id="Path_3499" data-name="Path 3499" d="M448.313,574.8a.51.51,0,0,1-.511-.511V337.352a.511.511,0,0,1,1.022,0V574.29A.51.51,0,0,1,448.313,574.8Z" transform="translate(-445.218 -336.741)" fill="#6b84fb"/>
          <path id="Path_3500" data-name="Path 3500" d="M487.2,418.728H448.313a.51.51,0,1,1,0-1.021H487.2a.51.51,0,0,1,0,1.021Z" transform="translate(-445.218 -328.381)" fill="#6b84fb"/>
          <path id="Path_3501" data-name="Path 3501" d="M487.2,450.439H448.313a.511.511,0,0,1,0-1.022H487.2a.511.511,0,0,1,0,1.022Z" transform="translate(-445.218 -325.103)" fill="#6b84fb"/>
          <path id="Path_3502" data-name="Path 3502" d="M487.2,482.149H448.313a.511.511,0,0,1,0-1.022H487.2a.511.511,0,0,1,0,1.022Z" transform="translate(-445.218 -321.825)" fill="#6b84fb"/>
          <path id="Path_3503" data-name="Path 3503" d="M487.2,513.86H448.313a.511.511,0,1,1,0-1.022H487.2a.511.511,0,0,1,0,1.022Z" transform="translate(-445.218 -318.547)" fill="#6b84fb"/>
          <path id="Path_3504" data-name="Path 3504" d="M487.2,433.777H448.313a.511.511,0,0,1,0-1.022H487.2a.511.511,0,0,1,0,1.022Z" transform="translate(-445.218 -326.825)" fill="#6b84fb"/>
          <path id="Path_3505" data-name="Path 3505" d="M487.2,465.488H448.313a.511.511,0,0,1,0-1.022H487.2a.511.511,0,0,1,0,1.022Z" transform="translate(-445.218 -323.547)" fill="#6b84fb"/>
          <path id="Path_3506" data-name="Path 3506" d="M487.2,355.308H448.313a.511.511,0,0,1,0-1.022H487.2a.511.511,0,0,1,0,1.022Z" transform="translate(-445.218 -334.937)" fill="#6b84fb"/>
          <path id="Path_3507" data-name="Path 3507" d="M487.2,387.018H448.313a.511.511,0,0,1,0-1.022H487.2a.511.511,0,0,1,0,1.022Z" transform="translate(-445.218 -331.659)" fill="#6b84fb"/>
          <path id="Path_3508" data-name="Path 3508" d="M487.2,370.357H448.313a.511.511,0,1,1,0-1.022H487.2a.511.511,0,0,1,0,1.022Z" transform="translate(-445.218 -333.382)" fill="#6b84fb"/>
          <path id="Path_3509" data-name="Path 3509" d="M487.2,402.067H448.313a.511.511,0,0,1,0-1.022H487.2a.511.511,0,0,1,0,1.022Z" transform="translate(-445.218 -330.103)" fill="#6b84fb"/>
          <path id="Path_3510" data-name="Path 3510" d="M487.2,497.2H448.313a.511.511,0,1,1,0-1.022H487.2a.511.511,0,0,1,0,1.022Z" transform="translate(-445.218 -320.269)" fill="#6b84fb"/>
          <path id="Path_3511" data-name="Path 3511" d="M483.557,574.8a.51.51,0,0,1-.511-.511V337.352a.51.51,0,1,1,1.021,0V574.29A.51.51,0,0,1,483.557,574.8Z" transform="translate(-441.575 -336.741)" fill="#6b84fb"/>
          <path id="Path_3512" data-name="Path 3512" d="M490.026,337.772H445.971a.511.511,0,1,1,0-1.022h44.056a.511.511,0,0,1,0,1.022Z" transform="translate(-445.46 -336.75)" fill="#6b84fb"/>
        </g>
      </g>
      <g id="Group_7565" data-name="Group 7565" transform="translate(66.086 17.58)">
        <path id="Path_3513" data-name="Path 3513" d="M429.667,72.276,424.851,82.49l1.28,8.65a.5.5,0,0,0,1.006-.036V82.49l5.691-10.214Zm22.553,0h-3.161L454.75,82.49V91.1a.5.5,0,0,0,1.006.036l1.279-8.65Z" transform="translate(-397.008 -60.555)" fill="#a6b3fa"/>
        <circle id="Ellipse_73" data-name="Ellipse 73" cx="7.767" cy="7.767" r="7.767" transform="translate(36.168)" fill="#a6b3fa"/>
        <path id="Path_3514" data-name="Path 3514" d="M440.015,63.944a8.751,8.751,0,0,1,6.179,2.423,6.85,6.85,0,0,0-12.358,0A8.751,8.751,0,0,1,440.015,63.944Z" transform="translate(-397.183 -61.568)" fill="#3b59ff"/>
        <rect id="Rectangle_1558" data-name="Rectangle 1558" width="23.515" height="10.652" rx="1.101" transform="translate(32.178 7.767)" fill="#ffbc00"/>
        <path id="Path_3515" data-name="Path 3515" d="M460.81,178.943l-24.463-101.2a1.96,1.96,0,0,1,1.906-2.421h0a1.964,1.964,0,0,1,1.244.444L565.4,178.943Z" transform="translate(-395.826 -60.24)" fill="url(#linear-gradient)" style="mix-blend-mode: multiply;isolation: isolate"/>
        <path id="Path_3516" data-name="Path 3516" d="M412.369,70.972h18.107v3.964l-16.4-2.034a1.946,1.946,0,0,1-1.706-1.931Z" transform="translate(-398.299 -60.689)" fill="#a6b3fa"/>
        <path id="Path_3517" data-name="Path 3517" d="M415.165,66.1h-1.629a.781.781,0,0,0-.778.716l-.389,4.663h3.964l-.389-4.663A.782.782,0,0,0,415.165,66.1Z" transform="translate(-398.299 -61.193)" fill="#ffbc00"/>
        <path id="Path_3518" data-name="Path 3518" d="M413.448,66.267h1.582a5.936,5.936,0,0,0-.138-1.288.668.668,0,0,0-1.305,0A5.867,5.867,0,0,0,413.448,66.267Z" transform="translate(-398.187 -61.363)" fill="#0a2b39"/>
        <path id="Path_3519" data-name="Path 3519" d="M415.086,65.674l-15.469.568h0a1.4,1.4,0,0,1,1.257-1.545l14.213.522Z" transform="translate(-399.617 -61.338)" fill="#ffbc00"/>
        <path id="Path_3520" data-name="Path 3520" d="M414.694,65.265l15.468-.569h0a1.4,1.4,0,0,1-1.256,1.545l-14.213-.522Z" transform="translate(-398.058 -61.338)" fill="#ffbc00"/>
        <path id="Path_3521" data-name="Path 3521" d="M468.2,70.972H450.092v3.964l16.4-2.034a1.946,1.946,0,0,0,1.706-1.931Z" transform="translate(-394.399 -60.689)" fill="#a6b3fa"/>
        <path id="Path_3522" data-name="Path 3522" d="M464.077,66.1h1.629a.781.781,0,0,1,.779.716l.389,4.663H462.91l.389-4.663A.781.781,0,0,1,464.077,66.1Z" transform="translate(-393.074 -61.193)" fill="#ffbc00"/>
        <path id="Path_3523" data-name="Path 3523" d="M465.571,66.267H463.99a5.869,5.869,0,0,1,.138-1.288.668.668,0,0,1,1.305,0A5.936,5.936,0,0,1,465.571,66.267Z" transform="translate(-392.962 -61.363)" fill="#0a2b39"/>
        <path id="Path_3524" data-name="Path 3524" d="M465.235,65.674l15.468.568h0a1.4,1.4,0,0,0-1.256-1.545l-14.213.522Z" transform="translate(-392.834 -61.338)" fill="#ffbc00"/>
        <path id="Path_3525" data-name="Path 3525" d="M465.627,65.265,450.158,64.7h0a1.4,1.4,0,0,0,1.257,1.545l14.213-.522Z" transform="translate(-394.392 -61.338)" fill="#ffbc00"/>
        <path id="Path_3526" data-name="Path 3526" d="M443.706,78.528a3.9,3.9,0,1,1-3.9-3.9A3.9,3.9,0,0,1,443.706,78.528Z" transform="translate(-395.866 -60.312)" fill="#0a2b39"/>
        <path id="Path_3527" data-name="Path 3527" d="M441.541,78.342a1.925,1.925,0,1,1-1.924-1.924A1.925,1.925,0,0,1,441.541,78.342Z" transform="translate(-395.681 -60.126)" fill="#e4a9f1"/>
      </g>
    </g>
  </g>
</svg>
