<svg xmlns="http://www.w3.org/2000/svg" width="123.094" height="94.663" viewBox="0 0 123.094 94.663">
  <g id="Cloud_Solutions" data-name="Cloud Solutions" transform="translate(-3782 -1599)">
    <path id="Path_250" data-name="Path 250" d="M116.115,117.465A24.808,24.808,0,0,0,84.9,113.888a12.247,12.247,0,0,1-9.308,1.665A32.184,32.184,0,0,0,53.3,118.689a13.656,13.656,0,0,1-14.324-.921,24.8,24.8,0,1,0-8.815,44.574A13.676,13.676,0,0,1,43.705,167.1a32.111,32.111,0,0,0,51.8-2.681l.031-.047a12.1,12.1,0,0,1,7.722-5.318,24.8,24.8,0,0,0,12.855-41.586Z" transform="translate(3782 1501.797)" fill="rgba(2,14,81,0.06)"/>
    <g id="cloud-computing" transform="translate(3796.185 1599)">
      <g id="Group_569" data-name="Group 569" transform="translate(34.24 73.011)">
        <circle id="Ellipse_26" data-name="Ellipse 26" cx="5.035" cy="5.035" r="5.035" transform="translate(0 10.07)" fill="#fff"/>
        <circle id="Ellipse_27" data-name="Ellipse 27" cx="5.035" cy="5.035" r="5.035" transform="translate(16.113 10.07)" fill="#fff"/>
        <circle id="Ellipse_28" data-name="Ellipse 28" cx="5.035" cy="5.035" r="5.035" transform="translate(43.303)" fill="#fff"/>
      </g>
      <path id="Path_242" data-name="Path 242" d="M320.285,35.006A27.083,27.083,0,0,0,293.2,8.17c-.171,0-.342,0-.514,0L312.847,64.2h4.093a14.787,14.787,0,0,0,3.345-29.19Z" transform="translate(-238.575 -6.659)" fill="#0089ff"/>
      <path id="Path_243" data-name="Path 243" d="M83.836,35.024C83.723,20.353,73.481,8.466,60.774,8.192a27.083,27.083,0,0,0-23.206,14,11.546,11.546,0,0,0-16.02,9.086A16.631,16.631,0,0,0,24.8,64.214H80.932c7.09,0,12.838-6.62,12.838-14.788C93.769,42.412,89.526,36.541,83.836,35.024Z" transform="translate(-6.659 -6.677)" fill="#fff"/>
      <circle id="Ellipse_29" data-name="Ellipse 29" cx="5.035" cy="5.035" r="5.035" transform="translate(7.049 73.011)" fill="#fff"/>
      <path id="Path_244" data-name="Path 244" d="M162.88,328.755V304.544a1.51,1.51,0,0,0-1.511-1.511H151.3a1.511,1.511,0,0,0,0,3.021h8.56v22.7a6.546,6.546,0,1,0,3.021,0Zm-1.511,9.893a3.525,3.525,0,1,1,3.525-3.525A3.529,3.529,0,0,1,161.369,338.647Z" transform="translate(-122.094 -247.006)" fill="#0089ff"/>
      <path id="Path_245" data-name="Path 245" d="M250.029,328.755V304.544a1.51,1.51,0,0,0-1.511-1.511h-10.07a1.511,1.511,0,1,0,0,3.021h8.56v22.7a6.546,6.546,0,1,0,3.021,0Zm-1.511,9.893a3.525,3.525,0,1,1,3.525-3.525A3.529,3.529,0,0,1,248.519,338.647Z" transform="translate(-193.131 -247.006)" fill="#0089ff"/>
      <path id="Path_246" data-name="Path 246" d="M346.744,318.506a6.556,6.556,0,0,0-6.368,5.035h-3.2v-19a1.51,1.51,0,0,0-1.511-1.511H325.6a1.511,1.511,0,0,0,0,3.021h8.56v19a1.51,1.51,0,0,0,1.511,1.511h4.71a6.545,6.545,0,1,0,6.368-8.056Zm0,10.07a3.525,3.525,0,1,1,3.525-3.525A3.529,3.529,0,0,1,346.744,328.577Z" transform="translate(-264.166 -247.006)" fill="#0089ff"/>
      <path id="Path_247" data-name="Path 247" d="M91.066,32.539a16.4,16.4,0,0,0-7.878-5.356,28.6,28.6,0,0,0-52.944-13.53,13.058,13.058,0,0,0-16.671,9.694,18.143,18.143,0,0,0,4.569,35.7h3.51V76.536h-3.2a6.546,6.546,0,1,0,0,3.021h4.71a1.51,1.51,0,0,0,1.511-1.511V57.538a1.51,1.51,0,0,0-1.511-1.511H18.142a15.121,15.121,0,0,1-2.959-29.95,1.51,1.51,0,0,0,1.2-1.286A10.032,10.032,0,0,1,30.308,16.9a1.511,1.511,0,0,0,1.922-.655A25.576,25.576,0,0,1,80.2,28.361a1.51,1.51,0,0,0,1.17,1.458,13.276,13.276,0,0,1-3.005,26.208h-.822a1.511,1.511,0,0,0,0,3.021h.822a16.3,16.3,0,0,0,12.7-26.509ZM12.085,81.571a3.525,3.525,0,1,1,3.525-3.525A3.529,3.529,0,0,1,12.085,81.571Z"/>
      <path id="Path_248" data-name="Path 248" d="M386.012,119.021h.014a1.511,1.511,0,0,0,1.5-1.524,20.327,20.327,0,0,0-1.4-7.237,1.511,1.511,0,1,0-2.814,1.1,17.312,17.312,0,0,1,1.189,6.165A1.51,1.51,0,0,0,386.012,119.021Z" transform="translate(-312.358 -89.09)" fill="#0089ff"/>
      <path id="Path_249" data-name="Path 249" d="M302.309,52.99a1.511,1.511,0,0,0,2.329-1.924A20.491,20.491,0,0,0,288.8,43.573a1.511,1.511,0,0,0,0,3.021A17.481,17.481,0,0,1,302.309,52.99Z" transform="translate(-234.177 -35.517)" fill="#0089ff"/>
    </g>
  </g>
</svg>
