<svg xmlns="http://www.w3.org/2000/svg" width="113.512" height="92.965" viewBox="0 0 113.512 92.965">
  <g id="Creative_Web_Design" data-name="Creative Web Design" transform="translate(0 -46.34)">
    <path id="Path_45" data-name="Path 45" d="M112.1,111.948A26.113,26.113,0,0,0,96.613,95.941,9.481,9.481,0,0,1,90.5,87.2q0-.128,0-.256A26.171,26.171,0,0,0,43.273,72.022a21.355,21.355,0,0,1-17.089,8.857q-.3,0-.6.006C11.858,81.186.186,92.964,0,106.693a26.174,26.174,0,0,0,50.752,9.346,5.356,5.356,0,0,1,6.492-3.275l.1.028a5.342,5.342,0,0,1,3.891,5.569,26.173,26.173,0,1,0,50.861-6.413Z" transform="translate(0 -11.717)" fill="rgba(2,14,81,0.05)"/>
    <path id="Path_46" data-name="Path 46" d="M182.6,145.581l-5.737-1.634a22.862,22.862,0,0,0-2.656-6.41l2.9-5.214a1.138,1.138,0,0,0-.19-1.356L173,127.047a1.138,1.138,0,0,0-1.356-.19l-5.214,2.9a22.87,22.87,0,0,0-5.03-2.268V116.65a4.465,4.465,0,0,0-.413-1.871l-4.454-9.578a2.218,2.218,0,0,0-4.023,0l-4.456,9.578a4.43,4.43,0,0,0-.413,1.871v10.842a22.859,22.859,0,0,0-5.03,2.268l-5.214-2.9a1.138,1.138,0,0,0-1.356.19l-3.921,3.921a1.138,1.138,0,0,0-.19,1.356l2.9,5.214a22.859,22.859,0,0,0-2.656,6.41l-5.737,1.634a1.137,1.137,0,0,0-.826,1.094v5.544a1.137,1.137,0,0,0,.826,1.094l5.737,1.634a22.862,22.862,0,0,0,2.656,6.41l-2.9,5.214a1.138,1.138,0,0,0,.19,1.356l3.921,3.921a1.138,1.138,0,0,0,1.356.19l5.214-2.9a22.859,22.859,0,0,0,6.41,2.656l1.634,5.737a1.137,1.137,0,0,0,1.094.826h5.544a1.137,1.137,0,0,0,1.094-.826l1.634-5.737a22.861,22.861,0,0,0,6.41-2.656l5.214,2.9a1.138,1.138,0,0,0,1.356-.19l3.921-3.921a1.138,1.138,0,0,0,.19-1.356l-2.9-5.214a22.859,22.859,0,0,0,2.656-6.41l5.737-1.634a1.136,1.136,0,0,0,.826-1.094v-5.544A1.135,1.135,0,0,0,182.6,145.581Zm-39.969,3.866a11.871,11.871,0,0,1,5.01-9.693v19.387A11.871,11.871,0,0,1,142.633,149.447Zm18.768,9.693V139.754a11.883,11.883,0,0,1,0,19.386Z" transform="translate(-97.766 -44.813)" fill="#590bb2" opacity="0.1"/>
    <g id="Group_560" data-name="Group 560" transform="translate(10.199 50.996)">
      <path id="Path_47" data-name="Path 47" d="M426.419,269.113H422.6a1.365,1.365,0,0,1-1.365-1.365v-3.823a1.365,1.365,0,0,1,1.365-1.365h3.823a1.365,1.365,0,0,1,1.365,1.365v3.823A1.365,1.365,0,0,1,426.419,269.113Z" transform="translate(-338.041 -219.278)" fill="#fff"/>
      <path id="Path_48" data-name="Path 48" d="M66.4,269.113H62.574a1.365,1.365,0,0,1-1.365-1.365v-3.823a1.365,1.365,0,0,1,1.365-1.365H66.4a1.365,1.365,0,0,1,1.365,1.365v3.823A1.365,1.365,0,0,1,66.4,269.113Z" transform="translate(-57.837 -219.278)" fill="#fff"/>
      <path id="Path_49" data-name="Path 49" d="M246.408,74.321h-3.823a1.365,1.365,0,0,1-1.365-1.365V69.132a1.365,1.365,0,0,1,1.365-1.365h3.823a1.365,1.365,0,0,1,1.365,1.365v3.823A1.365,1.365,0,0,1,246.408,74.321Z" transform="translate(-197.939 -67.672)" fill="#fff"/>
      <path id="Path_50" data-name="Path 50" d="M246.408,74.321h-3.823a1.365,1.365,0,0,1-1.365-1.365V69.132a1.365,1.365,0,0,1,1.365-1.365h3.823a1.365,1.365,0,0,1,1.365,1.365v3.823A1.365,1.365,0,0,1,246.408,74.321Z" transform="translate(-197.939 -67.672)" fill="#fff"/>
      <circle id="Ellipse_16" data-name="Ellipse 16" cx="3.372" cy="3.372" r="3.372" transform="translate(86.372)" fill="#fff"/>
      <circle id="Ellipse_17" data-name="Ellipse 17" cx="3.372" cy="3.372" r="3.372" fill="#fff"/>
    </g>
    <path id="Path_51" data-name="Path 51" d="M182.6,224.936l-5.737-1.634a22.862,22.862,0,0,0-2.656-6.41l2.9-5.214a1.138,1.138,0,0,0-.19-1.356L173,206.4a1.138,1.138,0,0,0-1.356-.19l-5.214,2.9a22.858,22.858,0,0,0-6.41-2.656l-1.634-5.737a1.137,1.137,0,0,0-1.094-.826h-5.544a1.137,1.137,0,0,0-1.094.826l-1.634,5.737a22.861,22.861,0,0,0-6.41,2.656l-5.214-2.9a1.138,1.138,0,0,0-1.356.19l-3.921,3.921a1.138,1.138,0,0,0-.19,1.356l2.9,5.214a22.859,22.859,0,0,0-2.656,6.41l-5.737,1.634a1.137,1.137,0,0,0-.826,1.094v5.544a1.137,1.137,0,0,0,.826,1.094l5.737,1.634a22.862,22.862,0,0,0,2.656,6.41l-2.9,5.214a1.138,1.138,0,0,0,.19,1.356l3.921,3.921a1.138,1.138,0,0,0,1.356.19l5.214-2.9a22.859,22.859,0,0,0,6.41,2.656l1.634,5.737a1.137,1.137,0,0,0,1.094.826H157.3a1.137,1.137,0,0,0,1.094-.826l1.634-5.737a22.862,22.862,0,0,0,6.41-2.656l5.214,2.9A1.138,1.138,0,0,0,173,251.2l3.921-3.921a1.138,1.138,0,0,0,.19-1.356l-2.9-5.214a22.859,22.859,0,0,0,2.656-6.41l5.737-1.634a1.137,1.137,0,0,0,.826-1.094V226.03A1.137,1.137,0,0,0,182.6,224.936Zm-28.081,15.755A11.889,11.889,0,1,1,166.413,228.8,11.889,11.889,0,0,1,154.524,240.691Z" transform="translate(-97.768 -119.512)" fill="#fff"/>
    <path id="Path_52" data-name="Path 52" d="M238.729,137.65v42.5a11.889,11.889,0,0,1-13.758,0V137.65a4.431,4.431,0,0,1,.413-1.871l4.456-9.578a2.218,2.218,0,0,1,4.023,0l4.454,9.578A4.468,4.468,0,0,1,238.729,137.65Z" transform="translate(-175.094 -61.157)" fill="#fff"/>
    <path id="Path_53" data-name="Path 53" d="M231.85,188.1v43.41a11.814,11.814,0,0,1-6.879-2.195V188.1Z" transform="translate(-175.094 -110.331)" fill="#fff"/>
    <path id="Path_54" data-name="Path 54" d="M229.836,126.2l-4.455,9.576a4.437,4.437,0,0,0-.414,1.872v2.828a5.628,5.628,0,0,0,5.684-.214,2.261,2.261,0,0,1,2.421.019,5.626,5.626,0,0,0,5.654.2v-2.829a4.439,4.439,0,0,0-.414-1.872l-4.453-9.576a2.218,2.218,0,0,0-4.023,0Z" transform="translate(-175.091 -61.159)" fill="#fff"/>
    <path id="Path_55" data-name="Path 55" d="M238.375,126.2l-2.437,5.242a7.018,7.018,0,0,0,8.9,0L242.4,126.2a2.218,2.218,0,0,0-4.023,0Z" transform="translate(-183.629 -61.159)" fill="#0089ff"/>
    <path id="Path_56" data-name="Path 56" d="M131.852,71.3a4.48,4.48,0,1,0-4.336-5.589H93.052v-.8a2.477,2.477,0,0,0-2.474-2.474H86.755a2.477,2.477,0,0,0-2.474,2.474v.8H49.816a4.48,4.48,0,1,0,0,2.217H75.337A41.043,41.043,0,0,0,47.665,105.62h-.819a2.477,2.477,0,0,0-2.474,2.474v3.823a2.477,2.477,0,0,0,2.474,2.474h3.823a2.477,2.477,0,0,0,2.474-2.474v-3.823a2.477,2.477,0,0,0-2.474-2.474h-.785a38.8,38.8,0,0,1,34.4-37.446v.556A2.477,2.477,0,0,0,86.755,71.2h3.823a2.477,2.477,0,0,0,2.474-2.474v-.556a38.8,38.8,0,0,1,34.4,37.446h-.785a2.477,2.477,0,0,0-2.474,2.474v3.823a2.477,2.477,0,0,0,2.474,2.474h3.823a2.477,2.477,0,0,0,2.474-2.474v-3.823a2.477,2.477,0,0,0-2.474-2.474h-.819A41.043,41.043,0,0,0,102,67.928h25.521A4.485,4.485,0,0,0,131.852,71.3ZM50.926,108.094v3.823a.257.257,0,0,1-.257.257H46.846a.257.257,0,0,1-.257-.257v-3.823a.257.257,0,0,1,.257-.257h3.823A.257.257,0,0,1,50.926,108.094Zm79.818,0v3.823a.257.257,0,0,1-.257.257h-3.823a.257.257,0,0,1-.257-.257v-3.823a.257.257,0,0,1,.257-.257h3.823A.257.257,0,0,1,130.744,108.094Zm1.109-43.538a2.263,2.263,0,1,1-2.263,2.263A2.266,2.266,0,0,1,131.852,64.556ZM45.48,69.083a2.263,2.263,0,1,1,2.263-2.263A2.266,2.266,0,0,1,45.48,69.083Zm45.354-.352a.257.257,0,0,1-.257.257H86.755a.257.257,0,0,1-.257-.257V64.908a.257.257,0,0,1,.257-.257h3.823a.257.257,0,0,1,.257.257Z" transform="translate(-31.91 -12.452)"/>
    <path id="Path_57" data-name="Path 57" d="M179.015,161.622l-5.127-1.46a23.934,23.934,0,0,0-2.293-5.532l2.595-4.661a2.256,2.256,0,0,0-.375-2.678l-3.921-3.921a2.255,2.255,0,0,0-2.679-.374l-4.66,2.594a24.026,24.026,0,0,0-3.936-1.793V133.757a5.588,5.588,0,0,0-.517-2.339l-4.454-9.578a3.328,3.328,0,0,0-6.035,0l-4.454,9.578a5.586,5.586,0,0,0-.517,2.339V143.8a23.992,23.992,0,0,0-3.937,1.794L134.046,143a2.255,2.255,0,0,0-2.678.375l-3.921,3.921a2.257,2.257,0,0,0-.374,2.679l2.594,4.659a23.944,23.944,0,0,0-2.293,5.532l-5.127,1.46a2.255,2.255,0,0,0-1.631,2.16v5.544a2.254,2.254,0,0,0,1.631,2.16l5.127,1.46a23.932,23.932,0,0,0,2.293,5.532l-2.595,4.661a2.256,2.256,0,0,0,.375,2.678l3.921,3.921a2.254,2.254,0,0,0,2.679.374l4.66-2.594a23.944,23.944,0,0,0,5.532,2.293l1.46,5.127a2.255,2.255,0,0,0,2.16,1.631H153.4a2.254,2.254,0,0,0,2.16-1.631l1.46-5.127a23.935,23.935,0,0,0,5.532-2.293l4.66,2.594a2.255,2.255,0,0,0,2.678-.375l3.921-3.921a2.256,2.256,0,0,0,.374-2.679l-2.594-4.66a23.947,23.947,0,0,0,2.293-5.532l5.127-1.46a2.255,2.255,0,0,0,1.631-2.16v-5.544A2.255,2.255,0,0,0,179.015,161.622ZM150.631,141.44a1.108,1.108,0,0,0-1.109,1.109v34.729a10.772,10.772,0,0,1-6.879-17.952v10.816a1.109,1.109,0,1,0,2.217,0V138.178a6.708,6.708,0,0,0,5.173-.873,1.154,1.154,0,0,1,1.232.023,6.708,6.708,0,0,0,5.138.85v37.307a1.1,1.1,0,0,0,.016.156,10.706,10.706,0,0,1-4.679,1.636V142.548a1.109,1.109,0,0,0-1.109-1.109Zm7.989,17.874a10.771,10.771,0,0,1,0,14.47Zm-9-36.539a1.111,1.111,0,0,1,2.014,0l2.046,4.4a5.919,5.919,0,0,1-3.054.856,5.837,5.837,0,0,1-3.053-.854Zm-4.454,9.578,1.467-3.155a8.118,8.118,0,0,0,7.987,0l1.467,3.155a3.353,3.353,0,0,1,.31,1.4v2.113a4.517,4.517,0,0,1-3.955-.417,3.379,3.379,0,0,0-3.61-.015,4.487,4.487,0,0,1-2.424.707,4.544,4.544,0,0,1-1.554-.276v-2.112A3.355,3.355,0,0,1,145.171,132.353Zm33.258,36.973a.028.028,0,0,1-.021.028l-5.737,1.634a1.109,1.109,0,0,0-.773.8,21.73,21.73,0,0,1-2.527,6.1A1.108,1.108,0,0,0,169.35,179l2.9,5.212a.031.031,0,0,1,0,.035l-3.921,3.921a.03.03,0,0,1-.033,0l-5.214-2.9a1.107,1.107,0,0,0-1.114.021,21.721,21.721,0,0,1-6.1,2.527,1.109,1.109,0,0,0-.8.773l-1.634,5.737a.028.028,0,0,1-.028.021h-5.544a.028.028,0,0,1-.028-.021l-1.634-5.737a1.109,1.109,0,0,0-.8-.773,21.734,21.734,0,0,1-6.1-2.527,1.108,1.108,0,0,0-1.114-.021l-5.212,2.9a.03.03,0,0,1-.034,0l-3.921-3.921a.031.031,0,0,1-.005-.034l2.9-5.214a1.108,1.108,0,0,0-.021-1.114,21.717,21.717,0,0,1-2.527-6.1,1.109,1.109,0,0,0-.773-.8l-5.737-1.634a.028.028,0,0,1-.021-.027v-5.544a.028.028,0,0,1,.021-.028l5.737-1.634a1.109,1.109,0,0,0,.773-.8,21.734,21.734,0,0,1,2.527-6.1,1.108,1.108,0,0,0,.021-1.114l-2.9-5.212a.031.031,0,0,1,0-.035l3.921-3.921a.031.031,0,0,1,.033-.005l5.214,2.9a1.109,1.109,0,0,0,1.114-.021,21.776,21.776,0,0,1,3.347-1.655v10.148a13,13,0,1,0,20.985,10.246,12.9,12.9,0,0,0-5.009-10.248V146.16a21.775,21.775,0,0,1,3.346,1.655,1.108,1.108,0,0,0,1.114.021l5.212-2.9a.029.029,0,0,1,.035,0l3.921,3.92a.031.031,0,0,1,.005.034l-2.9,5.214a1.108,1.108,0,0,0,.021,1.114,21.721,21.721,0,0,1,2.527,6.1,1.109,1.109,0,0,0,.773.8l5.737,1.634a.028.028,0,0,1,.021.028Z" transform="translate(-93.875 -57.264)"/>
    <path id="Path_58" data-name="Path 58" d="M135.744,53.083a3.372,3.372,0,1,0-3.181-4.48H95.834v-.8a1.365,1.365,0,0,0-1.365-1.365H90.646A1.365,1.365,0,0,0,89.28,47.8v.8H52.553a3.372,3.372,0,1,0,0,2.217H80.961a41.091,41.091,0,0,0-29.415,38.8h-.809a1.365,1.365,0,0,0-1.365,1.365v3.823a1.365,1.365,0,0,0,1.365,1.365H54.56a1.365,1.365,0,0,0,1.365-1.365V90.986a1.365,1.365,0,0,0-1.365-1.365h-.8A38.852,38.852,0,0,1,89.281,51.5v.118a1.365,1.365,0,0,0,1.365,1.365h3.823a1.365,1.365,0,0,0,1.365-1.365V51.5a38.851,38.851,0,0,1,35.517,38.116h-.8a1.365,1.365,0,0,0-1.365,1.365v3.823a1.365,1.365,0,0,0,1.365,1.365h3.823a1.365,1.365,0,0,0,1.365-1.365V90.986a1.365,1.365,0,0,0-1.365-1.365h-.809a41.092,41.092,0,0,0-29.415-38.8h28.408a3.369,3.369,0,0,0,3.181,2.264Z" transform="translate(-35.801)" fill="#590bb2" opacity="0.1"/>
    <path id="Path_59" data-name="Path 59" d="M45.843,134.318a1.108,1.108,0,0,1-1.109-1.109,1.331,1.331,0,0,0-1.329-1.329,1.109,1.109,0,0,1,0-2.217,1.331,1.331,0,0,0,1.329-1.329,1.109,1.109,0,1,1,2.217,0,1.331,1.331,0,0,0,1.329,1.329,1.109,1.109,0,0,1,0,2.217,1.331,1.331,0,0,0-1.329,1.329A1.108,1.108,0,0,1,45.843,134.318Z" transform="translate(-32.919 -62.953)" fill="#0089ff"/>
    <path id="Path_60" data-name="Path 60" d="M333.069,162.2a1.108,1.108,0,0,1-1.109-1.109,1.331,1.331,0,0,0-1.329-1.329,1.109,1.109,0,0,1,0-2.217,1.331,1.331,0,0,0,1.329-1.329,1.109,1.109,0,0,1,2.217,0,1.331,1.331,0,0,0,1.329,1.329,1.109,1.109,0,0,1,0,2.217,1.331,1.331,0,0,0-1.329,1.329A1.109,1.109,0,0,1,333.069,162.2Z" transform="translate(-256.466 -84.657)" fill="#0089ff"/>
    <path id="Path_61" data-name="Path 61" d="M89.316,413.092a1.1,1.1,0,0,1-.784-.325l-2.437-2.437a1.108,1.108,0,0,1,0-1.567l2.437-2.437a1.108,1.108,0,0,1,1.567,0l2.437,2.437a1.108,1.108,0,0,1,0,1.567L90.1,412.767A1.1,1.1,0,0,1,89.316,413.092Zm-.87-3.546.87.87.87-.87-.87-.87Z" transform="translate(-66.754 -279.922)" fill="#0089ff"/>
    <path id="Path_62" data-name="Path 62" d="M420.132,333.584a1.1,1.1,0,0,1-.784-.325l-2.437-2.437a1.108,1.108,0,0,1,0-1.567l2.437-2.437a1.108,1.108,0,0,1,1.567,0l2.437,2.437a1.108,1.108,0,0,1,0,1.567l-2.437,2.437A1.1,1.1,0,0,1,420.132,333.584Zm-.87-3.546.87.87.87-.87-.87-.87Z" transform="translate(-324.227 -218.042)" fill="#0089ff"/>
  </g>
</svg>
