<svg id="Critical_Response_Time" data-name="Critical Response Time" xmlns="http://www.w3.org/2000/svg" width="85" height="85" viewBox="0 0 85 85">
  <path id="Path_3776" data-name="Path 3776" d="M42.5,0A42.5,42.5,0,1,1,0,42.5,42.5,42.5,0,0,1,42.5,0Z" transform="translate(0)" fill="#fff"/>
  <g id="agile" transform="translate(15.713 23.966)">
    <path id="Path_3623" data-name="Path 3623" d="M1,38.526l9.54-7.632v4.6h6.823a15.081,15.081,0,0,1-2.616-5.531l-2.693-.7V23.552l2.689-.681a15,15,0,0,1,1.813-4.359l-1.425-2.39,4.046-4.045,2.39,1.424a15,15,0,0,1,4.358-1.813L26.606,9h5.721l.681,2.689A14.983,14.983,0,0,1,37.367,13.5l2.39-1.424L43.8,16.123l-1.425,2.39a15.008,15.008,0,0,1,1.813,4.359l2.688.68v5.72l-2.691.687A14.992,14.992,0,0,1,41.562,35.5h6.831v6.057H10.54v4.6ZM46.879,40.04V37.011H40.246a15.3,15.3,0,0,1-4.228,3.028Zm-17.413,0A13.672,13.672,0,0,0,42.81,29.187l.1-.463,2.459-.628V24.73l-2.457-.622-.1-.465a13.5,13.5,0,0,0-1.956-4.7l-.26-.4,1.3-2.185-2.379-2.379-2.185,1.3-.4-.26a13.5,13.5,0,0,0-4.7-1.956l-.465-.1-.622-2.458H27.785l-.622,2.457-.465.1A13.5,13.5,0,0,0,22,15.023l-.4.26-2.185-1.3-2.379,2.379,1.3,2.185-.26.4a13.5,13.5,0,0,0-1.956,4.7l-.1.465-2.458.622V28.1l2.461.637.1.461a13.586,13.586,0,0,0,3.195,6.3h4.715a10.577,10.577,0,1,1,5.432,1.515H9.026V34.045l-5.6,4.481,5.6,4.481V40.04Zm0-4.542a9.085,9.085,0,1,0-9.085-9.085A9.095,9.095,0,0,0,29.466,35.5Z" transform="translate(-1 -9)" fill="#0089ff"/>
    <path id="Path_3624" data-name="Path 3624" d="M16.124,28.843l1.406-.562a7.61,7.61,0,0,1,.447,1.618l-1.5.238A6.031,6.031,0,0,0,16.124,28.843Z" transform="translate(17.967 -13.684)" fill="#0089ff"/>
    <path id="Path_3625" data-name="Path 3625" d="M16.252,32.507l1.511.093a7.516,7.516,0,0,1-.29,1.655L16.02,33.83A6.061,6.061,0,0,0,16.252,32.507Z" transform="translate(18.259 -14.711)" fill="#0089ff"/>
    <path id="Path_3626" data-name="Path 3626" d="M19.362,36.625a7.622,7.622,0,0,1-.974,1.367l-1.128-1.01a6.046,6.046,0,0,0,.78-1.094Z" transform="translate(15.721 -15.532)" fill="#0089ff"/>
    <path id="Path_3627" data-name="Path 3627" d="M25.049,29.571a2.268,2.268,0,0,1,1.514-2.132V22h1.514v5.439a2.266,2.266,0,0,1-.757,4.4,2.234,2.234,0,0,1-.973-.228L24.07,33.891,23,32.821l2.277-2.277A2.234,2.234,0,0,1,25.049,29.571Zm2.271.757a.757.757,0,1,0-.757-.757A.758.758,0,0,0,27.321,30.328Z" transform="translate(1.146 -12.158)" fill="#0089ff"/>
  </g>
</svg>
