<svg xmlns="http://www.w3.org/2000/svg" width="112.939" height="91.147" viewBox="0 0 112.939 91.147">
  <g id="Digital_Marketing" data-name="Digital Marketing" transform="translate(-1427.291 -1791.397)">
    <g id="web-development" transform="translate(1669.291 1722.277)">
      <path id="Path_63" data-name="Path 63" d="M84.4,98.894h-.127a24.438,24.438,0,0,1-18.406-8.379A37.464,37.464,0,0,0,37.382,77.634a37.552,37.552,0,0,0,.171,75.1,37.389,37.389,0,0,0,16.223-3.678,12.524,12.524,0,0,1,13.007,1.359A28.715,28.715,0,1,0,84.4,98.894Z" transform="translate(-242 -4.384)" fill="rgba(2,14,81,0.08)"/>
    </g>
    <circle id="Ellipse_18" data-name="Ellipse 18" cx="20.5" cy="20.5" r="20.5" transform="translate(1464 1817)" fill="#fff"/>
    <g id="Group_563" data-name="Group 563" transform="translate(1983.617 1856.81)">
      <path id="Path_186" data-name="Path 186" d="M-513.725,9.728l6.821-6.808a21.454,21.454,0,0,1-5.053-12.267h-4.72c-.088.225-.178.458-.271.69a6.067,6.067,0,0,1-7.264,3.672,6.025,6.025,0,0,1-4.482-6.7,1.516,1.516,0,0,1,1.686-1.526,1.428,1.428,0,0,1,1.336,1.729,3.1,3.1,0,0,0,3.657,3.561,3.063,3.063,0,0,0,2.412-3.107,3.075,3.075,0,0,0-2.88-2.89c-.188-.013-.379,0-.569.008-1.155.034-1.814-.461-1.865-1.4s.563-1.531,1.693-1.653a6.074,6.074,0,0,1,6.146,3.712,1.144,1.144,0,0,0,1.323.84c1.228-.06,2.462-.017,3.787-.017A21.511,21.511,0,0,1-506.927-24.7l-6.867-6.849a11.953,11.953,0,0,1-10.523,1.965,11.76,11.76,0,0,1-6.856-4.931,12.134,12.134,0,0,1,1.938-15.8,12.165,12.165,0,0,1,15.844-.387,12.232,12.232,0,0,1,2.035,16.769l6.845,6.806a21.52,21.52,0,0,1,12.285-5.022c0-1.5.034-2.944-.035-4.388-.011-.229-.452-.513-.751-.642a6.113,6.113,0,0,1-3.768-5.852,6.079,6.079,0,0,1,4-5.492,6.071,6.071,0,0,1,7.733,3.487,6.071,6.071,0,0,1-3.22,7.774c-.287.127-.58.243-.888.371v4.743a22.089,22.089,0,0,1,12.237,5.081l6.889-6.87a12.567,12.567,0,0,1-2.332-5.718,12.224,12.224,0,0,1,3.286-10.121,1.731,1.731,0,0,1,1.923-.712,1.53,1.53,0,0,1,.467,2.67,9.436,9.436,0,0,0-2.643,5.141,9.132,9.132,0,0,0,4.754,9.452A9.035,9.035,0,0,0-454.118-34.7a9,9,0,0,0,1.947-10.613,9.141,9.141,0,0,0-9.5-5.006,1.574,1.574,0,0,1-1.983-1.264c-.121-.864.463-1.527,1.5-1.708a12.154,12.154,0,0,1,13.79,9.868,12.157,12.157,0,0,1-9.9,14.106,12.139,12.139,0,0,1-8.944-1.967c-.18-.12-.367-.229-.485-.3l-6.857,6.87a21.456,21.456,0,0,1,5.063,12.255h4.715a6.228,6.228,0,0,1,7.435-4.342,6.076,6.076,0,0,1,4.614,5.89,6.081,6.081,0,0,1-4.612,5.894c-3.185.767-5.544-.607-7.433-4.335h-4.436a60.468,60.468,0,0,1-1.921,6.6,56.973,56.973,0,0,1-3.214,5.877l6.62,6.622a12.287,12.287,0,0,1,17.257,2.608,12.185,12.185,0,0,1-1.482,15.925,12.128,12.128,0,0,1-16.046.622,12.2,12.2,0,0,1-2.068-16.755l-6.876-6.758c-.19.063-.655.389-1,.289a2.638,2.638,0,0,1-1.38-.939c-.43-.636-.022-1.23.45-1.77a36.074,36.074,0,0,0,3.641-4.343,18.161,18.161,0,0,0-4.2-23.74,18.22,18.22,0,0,0-24.155,1.354A18.218,18.218,0,0,0-504.988.615,16.888,16.888,0,0,0-490.8,7.324c.474-.014.949.006,1.423,0,1.014-.009,1.6.394,1.763,1.213.17.866-.252,1.474-1.256,1.81l-.311.1c0,1.385-.04,2.777.035,4.164.014.264.437.6.745.739a5.941,5.941,0,0,1,3.745,5.187,5.783,5.783,0,0,1-2.865,5.614,6.024,6.024,0,0,1-8.509-2.249,6.06,6.06,0,0,1,2.8-8.424c.315-.145.639-.268.982-.411V10.343A21.567,21.567,0,0,1-504.5,5.306l-6.86,6.847a12.113,12.113,0,0,1,2.026,10.394,11.836,11.836,0,0,1-4.839,6.928,12.172,12.172,0,0,1-15.766-1.661,12.213,12.213,0,0,1-.722-15.84A12.274,12.274,0,0,1-513.725,9.728Zm53.462.642a9.115,9.115,0,0,0-9.165,8.957,9.1,9.1,0,0,0,9.054,9.258,9.113,9.113,0,0,0,9.164-8.953A9.114,9.114,0,0,0-460.263,10.37Zm-60.8-60.775a9.122,9.122,0,0,0-9.139,8.887,9.114,9.114,0,0,0,8.983,9.328,9.112,9.112,0,0,0,9.236-8.979A9.113,9.113,0,0,0-521.065-50.405Zm-.017,79a9.141,9.141,0,0,0,9.1-9.03,9.137,9.137,0,0,0-9.128-9.2,9.134,9.134,0,0,0-9.1,9.126A9.133,9.133,0,0,0-521.081,28.592Zm33.41-71.4a3.056,3.056,0,0,0-3-3.038,3.032,3.032,0,0,0-3.06,2.976,3.041,3.041,0,0,0,3.047,3.086A3.048,3.048,0,0,0-487.671-42.807Zm31.9,31.888a3.051,3.051,0,0,0-3.016-3.024,3.047,3.047,0,0,0-3.047,2.993,3.039,3.039,0,0,0,3.063,3.069A3.041,3.041,0,0,0-455.77-10.919Zm-31.907,31.9a3.051,3.051,0,0,0-3.019-3.021,3.047,3.047,0,0,0-3.044,3,3.039,3.039,0,0,0,3.066,3.066A3.041,3.041,0,0,0-487.676,20.984Z" transform="translate(-8.941 -8.931)"/>
      <path id="Path_187" data-name="Path 187" d="M-404.955,83.207l1.806,4.565c.116.293.242.584.343.883a1.512,1.512,0,0,1-.83,2.034,1.493,1.493,0,0,1-1.988-.941q-1.2-2.887-2.323-5.8a1.513,1.513,0,0,0-1.07-1.036,6.038,6.038,0,0,1-4.226-6.6,6.066,6.066,0,0,1,6.029-5.247c1.328-.018,2.658-.039,3.985,0a7.051,7.051,0,0,0,6.409-3.16,3.172,3.172,0,0,1,3.5-1.331,3.365,3.365,0,0,1,2.715,2.607,4.235,4.235,0,0,1,.1,1.032q.012,6.88.007,13.759a3.539,3.539,0,0,1-2.371,3.61A3.383,3.383,0,0,1-397,86.137a6.785,6.785,0,0,0-5.851-2.931C-403.513,83.212-404.173,83.207-404.955,83.207Zm2.347-3.081a9.979,9.979,0,0,1,7.949,4,3.114,3.114,0,0,0,.786.541,2.987,2.987,0,0,0,.317-.905q.029-6.639,0-13.278a3.086,3.086,0,0,0-.306-.911,3.1,3.1,0,0,0-.786.538,9.8,9.8,0,0,1-6.6,3.89c-.455.066-.915.1-1.357.15Zm-3.132-5.989c-1.718-.159-3.255-.083-4.142,1.566a2.834,2.834,0,0,0,.287,3.287c1.011,1.3,2.4,1.291,3.855,1.107Z" transform="translate(-98.509 -98.487)"/>
      <path id="Path_188" data-name="Path 188" d="M-254.248-21.789c0,.932.008,1.81,0,2.688-.013,1.122-.582,1.8-1.5,1.818s-1.536-.675-1.542-1.772c-.011-1.96-.023-3.921.009-5.882a4.563,4.563,0,0,1,3.906-4.455c1.134-.171,1.957.3,2.137,1.215s-.421,1.6-1.6,1.794a1.486,1.486,0,0,0-1.385,1.457c1.219.166,2.849-.371,2.982,1.609C-251.164-22.26-251.865-21.926-254.248-21.789Z" transform="translate(-215.011 -26.874)" fill="#0089ff"/>
      <path id="Path_189" data-name="Path 189" d="M-369.743-62.389a1.527,1.527,0,0,1-1.478-1.545,1.523,1.523,0,0,1,1.544-1.478,1.527,1.527,0,0,1,1.479,1.544A1.531,1.531,0,0,1-369.743-62.389Z" transform="translate(-129.938 0)"/>
      <path id="Path_190" data-name="Path 190" d="M-195.677,111.611a1.527,1.527,0,0,1-1.543-1.48,1.522,1.522,0,0,1,1.478-1.544,1.527,1.527,0,0,1,1.545,1.478A1.531,1.531,0,0,1-195.677,111.611Z" transform="translate(-259.877 -129.938)"/>
      <path id="Path_191" data-name="Path 191" d="M-542.2,110.132a1.53,1.53,0,0,1-1.545,1.479,1.527,1.527,0,0,1-1.478-1.546,1.523,1.523,0,0,1,1.544-1.478A1.527,1.527,0,0,1-542.2,110.132Z" transform="translate(0 -129.938)"/>
      <path id="Path_192" data-name="Path 192" d="M-368.2,284.1a1.529,1.529,0,0,1-1.509,1.515,1.526,1.526,0,0,1-1.513-1.509,1.521,1.521,0,0,1,1.508-1.514A1.525,1.525,0,0,1-368.2,284.1Z" transform="translate(-129.939 -259.878)"/>
      <path id="Path_193" data-name="Path 193" d="M-529.5,177.477a1.474,1.474,0,0,1,1.533,1.464,1.523,1.523,0,0,1-1.466,1.554,1.516,1.516,0,0,1-1.585-1.525A1.51,1.51,0,0,1-529.5,177.477Z" transform="translate(-10.608 -181.383)"/>
      <path id="Path_194" data-name="Path 194" d="M-540.664,133.317a1.5,1.5,0,0,1-1.525,1.488,1.533,1.533,0,0,1-1.5-1.528,1.521,1.521,0,0,1,1.537-1.483A1.5,1.5,0,0,1-540.664,133.317Z" transform="translate(-1.146 -147.268)"/>
      <path id="Path_195" data-name="Path 195" d="M-438.572-51.2a1.512,1.512,0,0,1,1.5,1.593,1.481,1.481,0,0,1-1.537,1.454,1.567,1.567,0,0,1-1.478-1.55A1.515,1.515,0,0,1-438.572-51.2Z" transform="translate(-78.514 -10.61)"/>
      <path id="Path_196" data-name="Path 196" d="M-299.2,269.944a1.492,1.492,0,0,1-1.476,1.521,1.4,1.4,0,0,1-1.552-1.407,1.554,1.554,0,0,1,1.506-1.613A1.55,1.55,0,0,1-299.2,269.944Z" transform="translate(-181.457 -249.316)"/>
      <path id="Path_197" data-name="Path 197" d="M-209.886,180.425a1.562,1.562,0,0,1-1.484-1.556,1.518,1.518,0,0,1,1.563-1.458,1.466,1.466,0,0,1,1.459,1.537A1.5,1.5,0,0,1-209.886,180.425Z" transform="translate(-249.309 -181.334)"/>
      <path id="Path_198" data-name="Path 198" d="M-530.912,41.186a1.56,1.56,0,0,1,1.623-1.4A1.526,1.526,0,0,1-527.9,41.4a1.474,1.474,0,0,1-1.6,1.386A1.534,1.534,0,0,1-530.912,41.186Z" transform="translate(-10.682 -78.553)"/>
      <path id="Path_199" data-name="Path 199" d="M-416.259-59.081a1.485,1.485,0,0,1,1.546,1.459,1.453,1.453,0,0,1-1.4,1.5,1.5,1.5,0,0,1-1.661-1.438A1.535,1.535,0,0,1-416.259-59.081Z" transform="translate(-95.176 -4.728)"/>
      <path id="Path_200" data-name="Path 200" d="M-197.256,135.053a1.511,1.511,0,0,1-1.5-1.5,1.532,1.532,0,0,1,1.572-1.529,1.567,1.567,0,0,1,1.455,1.563A1.509,1.509,0,0,1-197.256,135.053Z" transform="translate(-258.733 -147.439)"/>
      <path id="Path_201" data-name="Path 201" d="M-208.257,41.227a1.51,1.51,0,0,1-1.587,1.514,1.445,1.445,0,0,1-1.409-1.479,1.561,1.561,0,0,1,1.5-1.535A1.487,1.487,0,0,1-208.257,41.227Z" transform="translate(-249.397 -78.515)"/>
      <path id="Path_202" data-name="Path 202" d="M-346.155,281.056A1.484,1.484,0,0,1-344.7,282.6a1.494,1.494,0,0,1-1.529,1.475,1.534,1.534,0,0,1-1.478-1.547A1.528,1.528,0,0,1-346.155,281.056Z" transform="translate(-147.499 -258.732)"/>
      <path id="Path_203" data-name="Path 203" d="M-393.2-60.864a1.5,1.5,0,0,1-1.473-1.531,1.5,1.5,0,0,1,1.515-1.491,1.543,1.543,0,0,1,1.489,1.537A1.525,1.525,0,0,1-393.2-60.864Z" transform="translate(-112.421 -1.14)"/>
      <path id="Path_204" data-name="Path 204" d="M-201.931,155.083a1.557,1.557,0,0,1,1.508,1.506,1.529,1.529,0,0,1-1.476,1.527,1.5,1.5,0,0,1-1.537-1.547A1.5,1.5,0,0,1-201.931,155.083Z" transform="translate(-255.236 -164.66)"/>
      <path id="Path_205" data-name="Path 205" d="M-197.233,88.2a1.548,1.548,0,0,1-1.525-1.5,1.469,1.469,0,0,1,1.491-1.5,1.5,1.5,0,0,1,1.532,1.476A1.55,1.55,0,0,1-197.233,88.2Z" transform="translate(-258.729 -112.473)"/>
      <path id="Path_206" data-name="Path 206" d="M-201.771,64.985a1.472,1.472,0,0,1-1.583-1.493,1.477,1.477,0,0,1,1.52-1.463,1.522,1.522,0,0,1,1.5,1.509A1.455,1.455,0,0,1-201.771,64.985Z" transform="translate(-255.295 -95.17)"/>
      <path id="Path_207" data-name="Path 207" d="M-299.323-49.594a1.516,1.516,0,0,1-1.362,1.537,1.578,1.578,0,0,1-1.628-1.488,1.474,1.474,0,0,1,1.45-1.532A1.569,1.569,0,0,1-299.323-49.594Z" transform="translate(-181.396 -10.705)"/>
      <path id="Path_208" data-name="Path 208" d="M-339.946,180.757a1.525,1.525,0,0,1,1.512,1.494,1.473,1.473,0,0,1-1.471,1.511,1.461,1.461,0,0,1-1.5-1.473A1.5,1.5,0,0,1-339.946,180.757Z" transform="translate(-152.2 -183.833)"/>
      <path id="Path_209" data-name="Path 209" d="M-393.271,281.05a1.506,1.506,0,0,1,1.536,1.474,1.531,1.531,0,0,1-1.467,1.552,1.513,1.513,0,0,1-1.523-1.487A1.475,1.475,0,0,1-393.271,281.05Z" transform="translate(-112.385 -258.729)"/>
      <path id="Path_210" data-name="Path 210" d="M-321.71-57.606a1.5,1.5,0,0,1-1.52,1.477,1.535,1.535,0,0,1-1.49-1.521,1.524,1.524,0,0,1,1.521-1.484A1.549,1.549,0,0,1-321.71-57.606Z" transform="translate(-164.664 -4.689)"/>
      <path id="Path_211" data-name="Path 211" d="M-538.871,156.541a1.5,1.5,0,0,1,1.513-1.483A1.512,1.512,0,0,1-535.9,156.6a1.429,1.429,0,0,1-1.39,1.476A1.548,1.548,0,0,1-538.871,156.541Z" transform="translate(-4.741 -164.64)"/>
      <path id="Path_212" data-name="Path 212" d="M-542.086,88.405a1.726,1.726,0,0,1-1.584-1.582,1.554,1.554,0,0,1,1.569-1.441,1.532,1.532,0,0,1,1.448,1.56A1.5,1.5,0,0,1-542.086,88.405Z" transform="translate(-1.158 -112.608)"/>
      <path id="Path_213" data-name="Path 213" d="M-416.06,276.487a1.5,1.5,0,0,1,1.423,1.577,1.554,1.554,0,0,1-1.5,1.431,1.651,1.651,0,0,1-1.49-1.569A1.5,1.5,0,0,1-416.06,276.487Z" transform="translate(-95.285 -255.32)"/>
      <path id="Path_214" data-name="Path 214" d="M-346.245-60.836a1.542,1.542,0,0,1-1.537-1.48,1.566,1.566,0,0,1,1.491-1.536,1.554,1.554,0,0,1,1.478,1.446A1.515,1.515,0,0,1-346.245-60.836Z" transform="translate(-147.442 -1.165)"/>
      <path id="Path_215" data-name="Path 215" d="M-537.379,65.145a1.586,1.586,0,0,1-1.5-1.533,1.521,1.521,0,0,1,1.538-1.474,1.511,1.511,0,0,1,1.436,1.571A1.5,1.5,0,0,1-537.379,65.145Z" transform="translate(-4.733 -95.251)"/>
      <path id="Path_216" data-name="Path 216" d="M-323.205,276.372a1.508,1.508,0,0,1,1.476,1.523,1.422,1.422,0,0,1-1.539,1.416,1.491,1.491,0,0,1-1.489-1.5A1.494,1.494,0,0,1-323.205,276.372Z" transform="translate(-164.635 -255.234)"/>
      <path id="Path_217" data-name="Path 217" d="M-438.233,268.434a1.471,1.471,0,0,1,1.424,1.479,1.5,1.5,0,0,1-1.5,1.51,1.428,1.428,0,0,1-1.416-1.465A1.509,1.509,0,0,1-438.233,268.434Z" transform="translate(-78.78 -249.307)"/>
      <path id="Path_218" data-name="Path 218" d="M-258.58,213.553c2.331.184,2.925.482,2.955,1.5a1.376,1.376,0,0,1-1.065,1.494,11.5,11.5,0,0,1-1.909.153v2.986c.44,0,.9-.015,1.354,0a1.53,1.53,0,0,1,1.631,1.487,1.541,1.541,0,0,1-1.669,1.548c-.442.015-.885.014-1.327,0a3.055,3.055,0,0,1-3.076-3.163c-.014-.946,0-1.892,0-2.844-.827-.225-1.465-.616-1.5-1.518-.043-1,.636-1.429,1.459-1.661.146-2.341.486-2.976,1.565-2.968C-259.129,210.58-258.824,211.142-258.58,213.553Z" transform="translate(-210.609 -206.097)" fill="#0089ff"/>
      <path id="Path_219" data-name="Path 219" d="M-498.689-15.938c0,.625.029,1.1-.006,1.569a1.509,1.509,0,0,1-1.548,1.471,1.473,1.473,0,0,1-1.459-1.458c-.041-1.548-.062-3.1.017-4.647a4.682,4.682,0,0,1,.632-1.448c-.189-.011-.483-.014-.773-.048a1.515,1.515,0,0,1-1.411-1.512,1.458,1.458,0,0,1,1.414-1.5,39.326,39.326,0,0,1,4.361.027,3.735,3.735,0,0,1,3.334,3.848,3.809,3.809,0,0,1-3.524,3.691C-497.96-15.918-498.272-15.938-498.689-15.938Zm-.87-2.911a3.856,3.856,0,0,0,2.249-.528c.4-.4.133-.931,0-1.173-.333-.621-1.235-.506-2.253-.1C-499.559-19.774-499.606-19.844-499.559-18.849Z" transform="translate(-31.351 -31.259)" fill="#0089ff"/>
      <path id="Path_220" data-name="Path 220" d="M-503.309,222.669c-4.2.385-6.444-1.915-6.073-6.036a21,21,0,0,1,.195-2.728A4.4,4.4,0,0,1-505,210.526c1.106-.036,2.214-.032,3.321,0a4.52,4.52,0,0,1,4.447,4.415c.033,1.074.028,2.151,0,3.226a4.549,4.549,0,0,1-4.466,4.5C-502.233,222.681-502.771,222.667-503.309,222.669Zm3.047-6.033c0-2.971-.112-3.082-3.1-3.082-2.849,0-2.983.134-2.982,2.994,0,2.975.108,3.083,3.094,3.084C-500.4,219.632-500.261,219.492-500.262,216.636Z" transform="translate(-26.733 -206.044)" fill="#0089ff"/>
      <path id="Path_221" data-name="Path 221" d="M-488.2,230.092a1.545,1.545,0,0,1-1.5,1.515,1.526,1.526,0,0,1-1.533-1.471,1.534,1.534,0,0,1,1.544-1.56A1.525,1.525,0,0,1-488.2,230.092Z" transform="translate(-40.315 -219.542)" fill="#0089ff"/>
    </g>
  </g>
</svg>
