<svg xmlns="http://www.w3.org/2000/svg" width="113.512" height="108.819" viewBox="0 0 113.512 108.819">
  <g id="Ecommerce_Solution" data-name="Ecommerce Solution" transform="translate(0)">
    <path id="Path_146" data-name="Path 146" d="M113.485,80.493c.313-6.123-2.164-12-6.752-17.195a45.883,45.883,0,0,1-7.715-12.115c-6.14-14.137-17.346-23.815-30.594-24.492-9.414-.481-18.266,3.665-25.31,10.926A42.522,42.522,0,0,1,26.358,48.175C11.016,53.443.617,63.131.026,74.691s8.765,22.259,23.49,29.065a42.522,42.522,0,0,1,15.592,12.211c6.267,7.942,14.649,12.97,24.063,13.451,13.248.678,25.383-7.807,32.933-21.244a45.878,45.878,0,0,1,8.911-11.265c5.093-4.695,8.157-10.293,8.471-16.416Z" transform="translate(0 -20.744)" fill="#f2f2f6"/>
    <path id="Path_147" data-name="Path 147" d="M165.221,188.189l1.854-8.012h1.618a2.217,2.217,0,0,0,2.217-2.217v-9.607a2.217,2.217,0,0,0-2.217-2.217h-9.451V137.523q.138.007.278.008a5.182,5.182,0,0,0,5.181-5.181v-3.681H112.887v3.681a5.182,5.182,0,0,0,5.181,5.181q.14,0,.278-.008v28.615H107.61a2.217,2.217,0,0,0-2.217,2.217v9.607a2.217,2.217,0,0,0,2.217,2.217h1.618l1.854,8.012-5.488,5.488a3.455,3.455,0,0,0,4.887,4.887l2.438-2.438,2.573,11.118a2.218,2.218,0,0,0,2.162,1.716h41a2.218,2.218,0,0,0,2.162-1.716l2.573-11.118,2.438,2.438a3.455,3.455,0,0,0,4.887-4.887Z" transform="translate(-81.396 -100.142)" fill="#00c" opacity="0.1"/>
    <path id="Path_148" data-name="Path 148" d="M182.374,332.141l-6.667,28.81a2.218,2.218,0,0,1-2.162,1.716h-41a2.218,2.218,0,0,1-2.162-1.716l-6.667-28.81Z" transform="translate(-96.291 -258.504)" fill="#fff"/>
    <path id="Path_149" data-name="Path 149" d="M182.374,332.141H123.72l1.122,4.846h10.932l-8.879,8.879,1.745,7.531,16.41-16.41h15.994l16.41,16.41,1.745-7.531-8.879-8.879h10.932Z" transform="translate(-96.291 -258.504)" fill="#f5f5f5"/>
    <path id="Path_150" data-name="Path 150" d="M207.562,83.4V30a3.831,3.831,0,0,0-3.831-3.831H170.5A3.831,3.831,0,0,0,166.666,30V83.4h40.9Z" transform="translate(-129.716 -20.367)" fill="#fff"/>
    <path id="Path_151" data-name="Path 151" d="M166.67,66.911h40.9v48.2h-40.9Z" transform="translate(-129.719 -52.077)" fill="#fff"/>
    <path id="Path_152" data-name="Path 152" d="M207.565,66.911v21a8.226,8.226,0,0,1-4.9-1.82,8.261,8.261,0,0,1-10.362,0,8.261,8.261,0,0,1-10.362,0,8.264,8.264,0,0,1-10.365,0,8.229,8.229,0,0,1-4.9,1.82v-21Z" transform="translate(-129.719 -52.077)" fill="#ebebff"/>
    <path id="Path_153" data-name="Path 153" transform="translate(0)" fill="none" stroke="#00c" stroke-linecap="round" stroke-linejoin="round" stroke-miterlimit="10" stroke-width="10"/>
    <path id="Path_154" data-name="Path 154" d="M152.406,75.518H142.043l5.459-8.6h8.179Z" transform="translate(-110.552 -52.08)" fill="#fff"/>
    <path id="Path_155" data-name="Path 155" d="M199.148,75.518H188.785l3.275-8.6h8.179Z" transform="translate(-146.931 -52.08)" fill="#fff"/>
    <path id="Path_156" data-name="Path 156" d="M245.89,75.518H235.527l1.092-8.6H244.8Z" transform="translate(-183.31 -52.08)" fill="#fff"/>
    <path id="Path_157" data-name="Path 157" d="M288.8,75.518H278.436l-1.092-8.6h8.179Z" transform="translate(-215.856 -52.08)" fill="#fff"/>
    <path id="Path_158" data-name="Path 158" d="M327.875,75.518H317.512l-3.275-8.6h8.179Z" transform="translate(-244.57 -52.08)" fill="#fff"/>
    <path id="Path_159" data-name="Path 159" d="M147.224,115.012a5.182,5.182,0,0,1-5.181-5.181v-4.113h10.363v4.113A5.181,5.181,0,0,1,147.224,115.012Z" transform="translate(-110.552 -82.279)" fill="#fff"/>
    <path id="Path_160" data-name="Path 160" d="M193.966,115.012a5.182,5.182,0,0,1-5.181-5.181v-4.113h10.363v4.113A5.181,5.181,0,0,1,193.966,115.012Z" transform="translate(-146.931 -82.279)" fill="#fff"/>
    <path id="Path_161" data-name="Path 161" d="M240.708,115.012a5.182,5.182,0,0,1-5.181-5.181v-4.113H245.89v4.113A5.181,5.181,0,0,1,240.708,115.012Z" transform="translate(-183.31 -82.279)" fill="#fff"/>
    <path id="Path_162" data-name="Path 162" d="M287.45,115.012a5.181,5.181,0,0,1-5.181-5.181v-4.113h10.363v4.113A5.181,5.181,0,0,1,287.45,115.012Z" transform="translate(-219.689 -82.279)" fill="#fff"/>
    <path id="Path_163" data-name="Path 163" d="M334.192,115.012a5.182,5.182,0,0,1-5.181-5.181v-4.113h10.363v4.113A5.181,5.181,0,0,1,334.192,115.012Z" transform="translate(-256.069 -82.279)" fill="#fff"/>
    <path id="Path_164" data-name="Path 164" d="M171.541,290.715H110.458a2.217,2.217,0,0,1-2.217-2.217v-9.607a2.217,2.217,0,0,1,2.217-2.217h61.083a2.217,2.217,0,0,1,2.217,2.217V288.5A2.217,2.217,0,0,1,171.541,290.715Z" transform="translate(-84.244 -215.335)" fill="#fff"/>
    <path id="Path_165" data-name="Path 165" d="M179.377,371.6v11.307a1.109,1.109,0,0,1-2.217,0V371.6a1.109,1.109,0,1,1,2.217,0Z" transform="translate(-137.883 -288.353)"/>
    <path id="Path_166" data-name="Path 166" d="M179.377,371.6v2.5l-2.217,2.217V371.6a1.109,1.109,0,1,1,2.217,0Z" transform="translate(-137.883 -288.353)" fill="#ffd9d9"/>
    <g id="Group_562" data-name="Group 562" transform="translate(47.462 82.139)">
      <path id="Path_167" data-name="Path 167" d="M215.191,370.489A1.108,1.108,0,0,1,216.3,371.6V382.9a1.109,1.109,0,1,1-2.217,0V371.6a1.108,1.108,0,0,1,1.109-1.108" transform="translate(-214.082 -370.489)"/>
      <path id="Path_168" data-name="Path 168" d="M252.109,370.489a1.109,1.109,0,0,1,1.109,1.108V382.9a1.109,1.109,0,0,1-2.217,0V371.6a1.109,1.109,0,0,1,1.109-1.108" transform="translate(-242.815 -370.489)"/>
      <path id="Path_169" data-name="Path 169" d="M289.026,370.489a1.108,1.108,0,0,1,1.109,1.108V382.9a1.109,1.109,0,1,1-2.217,0V371.6a1.108,1.108,0,0,1,1.108-1.108" transform="translate(-271.548 -370.489)"/>
      <path id="Path_170" data-name="Path 170" d="M327.057,371.6v11.307a1.109,1.109,0,0,1-2.217,0V371.6a1.109,1.109,0,1,1,2.217,0Z" transform="translate(-300.285 -370.491)"/>
    </g>
    <path id="Path_171" data-name="Path 171" d="M327.057,371.6v4.718L324.84,374.1v-2.5a1.109,1.109,0,1,1,2.217,0Z" transform="translate(-252.822 -288.353)" fill="#ffd9d9"/>
    <path id="Path_172" data-name="Path 172" d="M303.52,323.607a3.455,3.455,0,0,1-4.887,0l-22.4-22.4a3.455,3.455,0,1,1,4.887-4.887l22.4,22.4A3.455,3.455,0,0,1,303.52,323.607Z" transform="translate(-214.207 -229.84)" fill="#fff"/>
    <path id="Path_173" data-name="Path 173" d="M132.878,296.323a3.455,3.455,0,0,0-4.887,0l-22.4,22.4a3.455,3.455,0,0,0,4.887,4.887l22.4-22.4A3.456,3.456,0,0,0,132.878,296.323Z" transform="translate(-81.397 -229.839)" fill="#fff"/>
    <path id="Path_174" data-name="Path 174" d="M167.611,104.572l-5.054-5.054,1.517-6.554h.737a3.329,3.329,0,0,0,3.326-3.326V80.032a3.329,3.329,0,0,0-3.326-3.326h-8.343V50.26a6.3,6.3,0,0,0,5.459-6.233V39.914a1.148,1.148,0,0,0-.172-.594l-5.287-8.33V26.108a4.945,4.945,0,0,0-4.939-4.939H118.294a4.945,4.945,0,0,0-4.939,4.939v4.881l-5.287,8.331a1.135,1.135,0,0,0-.172.594v4.113a6.287,6.287,0,0,0,11.471,3.56,6.283,6.283,0,0,0,10.363,0,6.283,6.283,0,0,0,10.363,0,6.283,6.283,0,0,0,10.363,0,6.306,6.306,0,0,0,3.8,2.574V77.815a1.109,1.109,0,0,0,1.109,1.109h9.451a1.11,1.11,0,0,1,1.109,1.109v9.607a1.11,1.11,0,0,1-1.109,1.109H153.786l-8.572-8.572a4.564,4.564,0,0,0-6.455,6.454l2.117,2.117H127.662l2.117-2.117a4.564,4.564,0,0,0-6.455-6.454l-8.572,8.572H103.728a1.11,1.11,0,0,1-1.109-1.109V80.032a1.11,1.11,0,0,1,1.109-1.109h44.094a1.109,1.109,0,0,0,0-2.217h-32.25V56.746a1.109,1.109,0,0,0-2.217,0v19.96h-9.627a3.329,3.329,0,0,0-3.326,3.326v9.607a3.329,3.329,0,0,0,3.326,3.326h.737l1.517,6.554-5.054,5.054a4.564,4.564,0,0,0,6.455,6.454L108.408,110l2.122,9.171a3.31,3.31,0,0,0,3.24,2.576h41a3.311,3.311,0,0,0,3.24-2.576L160.131,110l1.025,1.025a4.564,4.564,0,1,0,6.454-6.454ZM129.564,32.42l-.811,6.386h-7.778l2.431-6.386Zm2.235,0h6.226l.81,6.386h-7.847Zm9.271,6.386-.81-6.386h6.157l2.431,6.386Zm10.15,0-2.431-6.386h5.962l4.052,6.386ZM118.294,23.386h33.235a2.725,2.725,0,0,1,2.722,2.722V30.2H115.572V26.108A2.725,2.725,0,0,1,118.294,23.386Zm-3.221,9.034h5.962L118.6,38.805h-7.582Zm-.887,15.68a4.077,4.077,0,0,1-4.073-4.073v-3h8.146v3A4.078,4.078,0,0,1,114.186,48.1Zm10.363,0a4.077,4.077,0,0,1-4.073-4.073v-3h8.146v3A4.078,4.078,0,0,1,124.549,48.1Zm10.363,0a4.077,4.077,0,0,1-4.073-4.073v-3h8.146v3A4.077,4.077,0,0,1,134.912,48.1Zm10.363,0a4.077,4.077,0,0,1-4.073-4.073v-3h8.146v3A4.077,4.077,0,0,1,145.275,48.1Zm6.29-4.073v-3h8.146v3a4.073,4.073,0,1,1-8.146,0ZM161.8,92.964l-1.089,4.706L156,92.964Zm-55.057,0h5.795L107.83,97.67Zm-.926,16.494a2.347,2.347,0,1,1-3.319-3.32l22.4-22.4a2.349,2.349,0,0,1,3.319,0h0a2.347,2.347,0,0,1,0,3.319Zm50.034,9.214a1.1,1.1,0,0,1-1.08.858h-41a1.1,1.1,0,0,1-1.08-.858l-2.434-10.519,15.189-15.189h17.65l15.189,15.189Zm10.194-9.214a2.35,2.35,0,0,1-3.319,0l-22.4-22.4a2.347,2.347,0,0,1,3.319-3.319l22.4,22.4a2.35,2.35,0,0,1,0,3.319Z" transform="translate(-77.514 -16.476)"/>
    <path id="Path_175" data-name="Path 175" d="M288.67,307.618a1.109,1.109,0,0,0-1.109,1.109v.026a1.109,1.109,0,0,0,2.217,0v-.026A1.108,1.108,0,0,0,288.67,307.618Z" transform="translate(-223.808 -239.418)" fill="#0089ff"/>
    <path id="Path_176" data-name="Path 176" d="M215.548,307.618a1.109,1.109,0,0,0-1.109,1.109v.026a1.109,1.109,0,0,0,2.217,0v-.026A1.108,1.108,0,0,0,215.548,307.618Z" transform="translate(-166.897 -239.418)" fill="#0089ff"/>
    <path id="Path_177" data-name="Path 177" d="M218.246,181.7a1.109,1.109,0,0,1-1.055-.768l-3.16-9.775h-2.369a1.109,1.109,0,1,1,0-2.217h3.176a1.109,1.109,0,0,1,1.055.768l3.408,10.543a1.109,1.109,0,0,1-1.055,1.45Z" transform="translate(-163.874 -131.482)" fill="#0089ff"/>
    <path id="Path_178" data-name="Path 178" d="M245.342,192.148H233.629a1.109,1.109,0,0,1,0-2.217h10.785l.955-5.348h-11.74a1.109,1.109,0,1,1,0-2.217h13.064a1.109,1.109,0,0,1,1.091,1.3l-1.351,7.565A1.108,1.108,0,0,1,245.342,192.148Z" transform="translate(-180.97 -141.935)" fill="#0089ff"/>
    <path id="Path_179" data-name="Path 179" d="M238.1,236.943a2.885,2.885,0,1,1,2.885-2.885A2.888,2.888,0,0,1,238.1,236.943Zm0-3.552a.668.668,0,1,0,.668.668A.668.668,0,0,0,238.1,233.39Z" transform="translate(-183.067 -179.921)" fill="#0089ff"/>
    <path id="Path_180" data-name="Path 180" d="M275.436,236.943a2.885,2.885,0,1,1,2.885-2.885A2.888,2.888,0,0,1,275.436,236.943Zm0-3.552a.668.668,0,1,0,.668.668A.668.668,0,0,0,275.436,233.39Z" transform="translate(-212.126 -179.921)" fill="#0089ff"/>
    <path id="Path_181" data-name="Path 181" d="M116.994,200.864a1.109,1.109,0,0,1-.784-1.892l2.217-2.217a1.108,1.108,0,1,1,1.568,1.567l-2.217,2.217A1.1,1.1,0,0,1,116.994,200.864Z" transform="translate(-90.193 -152.881)" fill="#0089ff"/>
    <path id="Path_182" data-name="Path 182" d="M390.941,164.611a1.105,1.105,0,0,1-.784-.325l-1.433-1.433-1.433,1.433a1.108,1.108,0,0,1-1.568-1.567l2.217-2.217a1.108,1.108,0,0,1,1.568,0l2.217,2.217a1.109,1.109,0,0,1-.784,1.892Z" transform="translate(-299.955 -124.665)" fill="#0089ff"/>
    <path id="Path_183" data-name="Path 183" d="M109.712,53.142a1.1,1.1,0,0,1-.784-.325l-1.433-1.433-1.433,1.433a1.108,1.108,0,1,1-1.568-1.567l2.217-2.217a1.108,1.108,0,0,1,1.568,0L110.5,51.25a1.109,1.109,0,0,1-.784,1.892Z" transform="translate(-81.075 -37.909)" fill="#0089ff"/>
    <path id="Path_184" data-name="Path 184" d="M431.089,347.623a1.109,1.109,0,0,1-.784-1.892l2.217-2.217a1.108,1.108,0,0,1,1.568,1.567l-2.217,2.217A1.1,1.1,0,0,1,431.089,347.623Z" transform="translate(-334.653 -267.103)" fill="#020e51"/>
    <path id="Path_185" data-name="Path 185" d="M67.562,369.505a1.1,1.1,0,0,1-.784-.325l-1.433-1.433-1.433,1.433a1.108,1.108,0,0,1-1.568-1.567l2.217-2.217a1.108,1.108,0,0,1,1.568,0l2.217,2.217a1.109,1.109,0,0,1-.784,1.892Z" transform="translate(-48.27 -284.134)" fill="#0089ff"/>
  </g>
</svg>
