<svg xmlns="http://www.w3.org/2000/svg" xmlns:xlink="http://www.w3.org/1999/xlink" width="347.979" height="277.73" viewBox="0 0 347.979 277.73">
  <defs>
    <linearGradient id="linear-gradient" x1="0.501" y1="0.939" x2="0.472" y2="-0.914" gradientUnits="objectBoundingBox">
      <stop offset="0" stop-color="#fff"/>
      <stop offset="1" stop-color="#92a0f0"/>
    </linearGradient>
    <linearGradient id="linear-gradient-2" x1="0.585" y1="1.157" x2="0.331" y2="-0.806" gradientUnits="objectBoundingBox">
      <stop offset="0" stop-color="#fff"/>
      <stop offset="0.506" stop-color="#00a1ed"/>
      <stop offset="1" stop-color="#29135d"/>
    </linearGradient>
    <linearGradient id="linear-gradient-3" x1="0.059" y1="-4.775" x2="2.848" y2="27.497" xlink:href="#linear-gradient-2"/>
    <linearGradient id="linear-gradient-4" x1="0.143" y1="-5.069" x2="1.871" y2="22.543" xlink:href="#linear-gradient-2"/>
    <linearGradient id="linear-gradient-5" x1="0.212" y1="-4.667" x2="1.368" y2="16.061" xlink:href="#linear-gradient-2"/>
    <linearGradient id="linear-gradient-6" x1="0.052" y1="-1.263" x2="1.82" y2="5.692" xlink:href="#linear-gradient-2"/>
    <linearGradient id="linear-gradient-7" x1="0.014" y1="-4.342" x2="1.41" y2="9.563" xlink:href="#linear-gradient-2"/>
    <linearGradient id="linear-gradient-8" x1="0.029" y1="-1.494" x2="1.401" y2="4.314" xlink:href="#linear-gradient-2"/>
    <linearGradient id="linear-gradient-9" x1="-0.988" y1="-10.191" x2="1.97" y2="11.057" xlink:href="#linear-gradient-2"/>
    <linearGradient id="linear-gradient-10" x1="-0.655" y1="-6.689" x2="1.431" y2="6.297" xlink:href="#linear-gradient-2"/>
    <linearGradient id="linear-gradient-11" x1="-0.345" y1="-12.598" x2="1.252" y2="12.155" xlink:href="#linear-gradient-2"/>
    <linearGradient id="linear-gradient-12" x1="-0.624" y1="-6.293" x2="1.315" y2="5.428" xlink:href="#linear-gradient-2"/>
  </defs>
  <g id="Our_Expertise" data-name="Our Expertise" transform="translate(-75.555 -70.865)">
    <path id="Path_3878" data-name="Path 3878" d="M224.387,400.912c7.724,7.878-27.568,19.144-53.827,19.04-23.04-.091-46.733-7.667-46.733-20.071,0-3.726,20.483-20.94,67.339-4.8C206.946,400.519,218.457,394.865,224.387,400.912Z" transform="translate(-10.852 -71.359)" fill="#e5ece4"/>
    <path id="Path_3879" data-name="Path 3879" d="M447.675,366.077c26.5,2.264,81.855,18.729,5.129,20.032C374.861,387.432,383.912,360.628,447.675,366.077Z" transform="translate(-72.282 -66.2)" fill="#e5ece4"/>
    <path id="Path_3880" data-name="Path 3880" d="M389.769,421.184c33.338-.878,41.24-2.177,45.941-8.373s-14.133-.561-29.7-4.773-32.051-3.771-37.607-2.6S360.082,421.966,389.769,421.184Z" transform="translate(-65.038 -75.032)" fill="#e5ece4"/>
    <path id="Path_3881" data-name="Path 3881" d="M105.085,264.287H425.954s14.922-73.461-16.485-58.165c-43.347,21.11,17.115-72.7-28.168-88.092-30.892-10.5-80.6,20.34-91.959-15.661s-63.6-39.026-88.645-19.793.058,38.114-43.71,48.3c-44.19,10.29-39.9,49.945-27.49,84.432C134.81,230.089,90.356,212.842,105.085,264.287Z" transform="translate(-5.963 0)" fill="url(#linear-gradient)"/>
    <g id="Group_7730" data-name="Group 7730" transform="translate(341.157 215.976)">
      <path id="Path_3882" data-name="Path 3882" d="M479.669,286.079H425.5l-7.32,70.365,58.06,5.2Z" transform="translate(-418.181 -264.357)" fill="#c3e9fc"/>
      <g id="Group_7729" data-name="Group 7729" transform="translate(19.889)">
        <path id="Path_3883" data-name="Path 3883" d="M472.868,283.605h-1.54V272.574a12.975,12.975,0,1,0-25.95,0v11.032h-1.54V272.574a14.515,14.515,0,1,1,29.03,0Z" transform="translate(-443.838 -258.058)" fill="#6f6e86"/>
      </g>
      <path id="Path_3884" data-name="Path 3884" d="M496.506,286.079l-3.428,75.562,10.748-5.2Z" transform="translate(-435.018 -264.357)" fill="#9ebdcd"/>
    </g>
    <g id="Group_7732" data-name="Group 7732" transform="translate(340.531 243.852)">
      <path id="Path_3885" data-name="Path 3885" d="M463.28,314.938H422.838l-5.465,52.536,43.349,3.88Z" transform="translate(-417.372 -298.72)" fill="#020e51"/>
      <g id="Group_7731" data-name="Group 7731" transform="translate(14.849)">
        <path id="Path_3886" data-name="Path 3886" d="M458.2,313.091h-1.15v-8.237a9.687,9.687,0,1,0-19.374,0v8.237h-1.15v-8.237a10.837,10.837,0,1,1,21.674,0Z" transform="translate(-436.528 -294.017)" fill="#6f6e86"/>
      </g>
      <path id="Path_3887" data-name="Path 3887" d="M475.851,314.938l-2.559,56.415,8.024-3.88Z" transform="translate(-429.943 -298.72)" fill="#92a0f0"/>
    </g>
    <path id="Path_3888" data-name="Path 3888" d="M354.105,306.552a7.8,7.8,0,0,1-8.025,7.552H237.6a7.8,7.8,0,0,1-8.023-7.552V108.006a7.8,7.8,0,0,1,8.023-7.551H346.08a7.8,7.8,0,0,1,8.025,7.551Z" transform="translate(-34.624 -6.652)" fill="url(#linear-gradient-2)"/>
    <rect id="Rectangle_1586" data-name="Rectangle 1586" width="110.543" height="171.18" transform="translate(201.943 108.994)" fill="#fff"/>
    <g id="Group_7768" data-name="Group 7768" transform="translate(96.903 146.115)">
      <path id="Path_3889" data-name="Path 3889" d="M197.808,214.183l2.574-.129-1.64,1.479-2.244.962Z" transform="translate(-124.092 -178.304)" fill="#88004c"/>
      <path id="Path_3890" data-name="Path 3890" d="M219.58,210.656l-3.391.441.481,1.87h2.764Z" transform="translate(-128.518 -177.541)" fill="#88004c"/>
      <path id="Path_3891" data-name="Path 3891" d="M215.373,208.9l-4.145,9.136-12.877,3.489-.864-2.167-2.383-5.971,1.277-2.041L200.051,210a.028.028,0,0,1,.018-.009s1.286-5.575,1.043-7.976c4.973-.962,11.016-6.052,11.016-6.052s-.072,1.367-.144,3.147c-.117,3.139-.53,8.687-.53,8.687A9.506,9.506,0,0,0,215.373,208.9Z" transform="translate(-123.779 -174.236)" fill="#f4d8c2"/>
      <g id="Group_7733" data-name="Group 7733" transform="translate(37.355 156.931)">
        <path id="Path_3892" data-name="Path 3892" d="M154.391,379.252l-1.5-.167c.219-1.969-1.085-6.619-1.606-8.246l1.441-.462C152.8,370.628,154.692,376.559,154.391,379.252Z" transform="translate(-151.282 -370.377)" fill="#c7c9cb"/>
      </g>
      <g id="Group_7734" data-name="Group 7734" transform="translate(7.865 97.56)">
        <rect id="Rectangle_1587" data-name="Rectangle 1587" width="55.271" height="0.504" transform="translate(0 40.217) rotate(-46.687)" fill="#c7c9cb"/>
      </g>
      <g id="Group_7735" data-name="Group 7735" transform="translate(9.876 98.089)">
        <rect id="Rectangle_1588" data-name="Rectangle 1588" width="62.176" height="0.504" transform="matrix(0.683, -0.73, 0.73, 0.683, 0, 45.404)" fill="#c7c9cb"/>
      </g>
      <g id="Group_7736" data-name="Group 7736" transform="translate(11.949 118.236)">
        <rect id="Rectangle_1589" data-name="Rectangle 1589" width="43.935" height="0.504" transform="translate(0 31.258) rotate(-45.355)" fill="#c7c9cb"/>
      </g>
      <path id="Path_3893" data-name="Path 3893" d="M146.149,290.238c.574.206,1.116.162,1.208-.1l5.27-14.743c.093-.258-.3-.634-.871-.84h0c-.574-.205-1.115-.162-1.208.1L145.277,289.4c-.092.26.3.636.872.841Z" transform="translate(-112.574 -191.877)" fill="#c7c9cb"/>
      <path id="Path_3894" data-name="Path 3894" d="M204.612,404.51a12.2,12.2,0,0,1-4.175,2.214,4.544,4.544,0,0,1-1.372.135l-2.52-.978v-1.876a38.627,38.627,0,0,1-18.154,2.865s-4.205-1.185-4.876-3.2c0,0,21.108-8.723,21-10.145l3.343-.948a13.166,13.166,0,0,1,2.258.272c1.473.307,3.193.969,3.651,2.37C203.769,395.217,203.769,403.164,204.612,404.51Z" transform="translate(-118.925 -218.436)" fill="#002581"/>
      <path id="Path_3895" data-name="Path 3895" d="M207.5,406.8c1.553-6.217-2.577-12.722-2.577-12.722l2.258-1.155c1.473.307,3.193.969,3.651,2.37,0,0,0,7.947.843,9.293A12.2,12.2,0,0,1,207.5,406.8Z" transform="translate(-125.985 -218.515)" fill="#121a50"/>
      <path id="Path_3896" data-name="Path 3896" d="M239.034,230.805s-6.7,7.271-14.847,9.581l-1.723-6.15S230.769,222.317,239.034,230.805Z" transform="translate(-129.929 -181.384)" fill="#88004c"/>
      <path id="Path_3897" data-name="Path 3897" d="M236.306,389.149a21,21,0,0,1-.423,3.917,56.3,56.3,0,0,1-3.722,11.209c-4.654,3.027-5.774-.978-5.774-.978a55.284,55.284,0,0,0-.837-7.76A37.549,37.549,0,0,1,227.229,384l2.606-1.543,2.326-1.376C234.314,382.109,236.306,389.149,236.306,389.149Z" transform="translate(-130.62 -215.853)" fill="#002581"/>
      <path id="Path_3898" data-name="Path 3898" d="M236.981,247.8c-2.874,5.6-10.488,1.982-10.488,1.982a16.242,16.242,0,0,0,.267-2.486c0-.06,0-.116,0-.177.011-.358.005-.711,0-1.053a17.454,17.454,0,0,0-1.912-7.25,13.822,13.822,0,0,0-1.574-2.482l.787-.791,2.844-2.865,3.616-3.635.142-.146,2.192-2.209C235.065,223.221,236.981,247.8,236.981,247.8Z" transform="translate(-130.111 -181.069)" fill="#f4d8c2"/>
      <path id="Path_3899" data-name="Path 3899" d="M231.64,376.763c-.031,0-.036-.01-.02-.016S231.634,376.747,231.64,376.763Z" transform="translate(-131.985 -214.878)" fill="#121a50"/>
      <path id="Path_3900" data-name="Path 3900" d="M237.43,389.149a21,21,0,0,1-.423,3.917c-2.526-7.2-6.465-7.351-6.465-7.351s.206-1.533.418-3.258l2.326-1.376C235.438,382.109,237.43,389.149,237.43,389.149Z" transform="translate(-131.745 -215.853)" fill="#121a50"/>
      <path id="Path_3901" data-name="Path 3901" d="M232.108,388.5l-.036.035c-3.337,3.313-4.5,1.14-4.5,1.14l-1.022-4.089-.994-3.979,5.885-2.687a20.466,20.466,0,0,1,.409,2.173A43.406,43.406,0,0,1,232.108,388.5Z" transform="translate(-130.623 -215.366)" fill="#f4d8c2"/>
      <path id="Path_3902" data-name="Path 3902" d="M207.644,391.786a10.373,10.373,0,0,1-1.281,1.24c-3.419,2.754-5.793.217-5.793.217l-.6-8.4h6.888l.04.368Z" transform="translate(-124.872 -216.699)" fill="#f4d8c2"/>
      <path id="Path_3903" data-name="Path 3903" d="M204.241,220.945a13.882,13.882,0,0,1-6.754,2.481l-2.383-5.971,1.277-2.041,3.669-1.349c-.207.135-1.852,1.187-2.113,2.428C197.668,217.816,199.548,220.783,204.241,220.945Z" transform="translate(-123.779 -178.307)" fill="#ebafa4"/>
      <path id="Path_3904" data-name="Path 3904" d="M228.394,246.558a17.166,17.166,0,0,0-.882-6.05s-1.24-3.969-.4-7.121a4.671,4.671,0,0,1,3.616-3.635c.13-.036.267-.061.408-.085a2.16,2.16,0,0,0-.266-.06c-1.141-.217-5.619-.585-6.6,6.646-.035.242-.065.5-.09.761l.877,2.512a17.8,17.8,0,0,1,1.913,8.41A18.545,18.545,0,0,0,228.394,246.558Z" transform="translate(-130.313 -181.781)" fill="#ebafa4"/>
      <path id="Path_3905" data-name="Path 3905" d="M175.9,234.312s11.007,7.008,14.538,8.336C190.438,242.649,182.035,228.429,175.9,234.312Z" transform="translate(-119.461 -182.538)" fill="#88004c"/>
      <path id="Path_3906" data-name="Path 3906" d="M208.277,391.893a10.373,10.373,0,0,1-1.281,1.24,9.076,9.076,0,0,0-4.21-7.049l4.745-.761Z" transform="translate(-125.505 -216.806)" fill="#ebafa4"/>
      <path id="Path_3907" data-name="Path 3907" d="M232.781,389.126l-.036.035a9.141,9.141,0,0,0-4.2-6.812l3.974-.63A43.407,43.407,0,0,1,232.781,389.126Z" transform="translate(-131.296 -215.996)" fill="#ebafa4"/>
      <path id="Path_3908" data-name="Path 3908" d="M172.082,270.652l-19.666-1.958s-4.16,1.422-.756,5.015l19.288,2.07Z" transform="translate(-113.711 -190.588)" fill="url(#linear-gradient-3)"/>
      <path id="Path_3909" data-name="Path 3909" d="M225.393,355.811c-6.809,8.572-12.419,4.6-12.419,4.6-.459-4.2-6.279-15.693-6.279-15.693-.55,3.531-1.745,17.085-1.745,17.085-.388.12-.763.236-1.128.322-7.086,1.674-10.271-.419-10.271-.419,1.685-17.9-5.725-44.3-5.725-44.3a131.4,131.4,0,0,1-2.184-26.846,63.56,63.56,0,0,1,1.191-10.8,22.611,22.611,0,0,1,.993-3.616l26.724,1.22c.172.3.334.6.49.909,4.447,8.7,3.8,21.486,2.264,31.4-.112.7-.222,1.386-.338,2.057-.01.061-.021.116-.03.176l-.005.011a115.344,115.344,0,0,1-2.884,12.545C218.585,329.413,225.393,355.811,225.393,355.811Z" transform="translate(-121.639 -192.261)" fill="#5f5346"/>
      <path id="Path_3910" data-name="Path 3910" d="M209.287,349.464c-.707,3.516-1.745,17.085-1.745,17.085-.394.1-2.243.517-2.612.6-.248-3.578.064-13.6.064-13.6.667-5.63-3.744-22.543-3.744-22.543-.69-9.236-.592-15.058-.592-15.058.929-7.307-1.384-15.934-1.384-15.934.385-.353-2.014-2.617-2.155-2.75l3.14,1.78c2.46,8.721,1.422,31.054,1.422,31.054C201.2,334.461,209.287,349.464,209.287,349.464Z" transform="translate(-124.231 -197.009)" fill="#4e443a"/>
      <path id="Path_3911" data-name="Path 3911" d="M223.426,310.289c1.724-14.629-10.61-27.9-10.61-27.9l8.346-3.5C225.609,287.583,224.959,300.371,223.426,310.289Z" transform="translate(-127.76 -192.879)" fill="#4e443a"/>
      <path id="Path_3912" data-name="Path 3912" d="M192.214,280.8a23.178,23.178,0,0,0-6.555,10.8,63.56,63.56,0,0,1,1.191-10.8Z" transform="translate(-121.655 -193.31)" fill="#4e443a"/>
      <path id="Path_3913" data-name="Path 3913" d="M185.277,237.643c.045,5.773-4.406,13.893-4.406,13.893a13.285,13.285,0,0,1-4.064,5.575c-3.012,2.571-8.731,4.838-8.731,4.838-2.347,1.69-.936,4.847-.936,4.847.486.387.657.323.657.323.252,1.925-2.248,2.365-2.248,2.365-.98.045-3.426.045-3.426.045a1.27,1.27,0,0,1,.2-1.241,7.74,7.74,0,0,1-1.061-.4l-.926.422a2.3,2.3,0,0,1-2.176-.674,1.974,1.974,0,0,1-1.771-1.681l.171-4.766c.252-1.169,2.275-.926,2.275-.926.423-1.1,2.428-.881,2.428-.881a1.936,1.936,0,0,1,2.608-1.16c1.1-1.239,2.2-2.477,3.336-3.687a57.166,57.166,0,0,1,6.24-6.15c.422-1.376.98-4.064,1.5-6.843.845-4.478,1.609-9.2,1.609-9.2s5.467,1.636,7.743,3.65A2.376,2.376,0,0,1,185.277,237.643Z" transform="translate(-115.074 -182.417)" fill="#f4d8c2"/>
      <path id="Path_3914" data-name="Path 3914" d="M191.2,238.6c.045,5.773-4.406,13.893-4.406,13.893a13.257,13.257,0,0,1-4.055,5.566c.827-1.214,2.733-4.127,2.9-5.53,2.032-3.767,3.12-15.934,3.12-15.934l1.457.36A2.376,2.376,0,0,1,191.2,238.6Z" transform="translate(-120.999 -183.371)" fill="#ebafa4"/>
      <path id="Path_3915" data-name="Path 3915" d="M228.566,226.934s-9.636-5.042-14.845,9.581l-.9-1.381s-3.306,6.591-3.639,11.8l5.6,16.812-.005,0a36.076,36.076,0,0,1-7.347,3.136,35.538,35.538,0,0,1-25.645-1.3s-.04-.966,3.364-9.409c0,0,4.127-7.641,3.119-13.692,0,0-2.953-4.632-3.119-8.666,0,0-4.335-4.779-9.243-4.538,0,0,3.7-5.118,7.9-12.476,0,0,2.741-3.547,9.378-3.419,0,0-2.46,5.139,3.172,6.989,0,0,7.791-.338,14.174-9.752,0,0,3.467-.921,9.753,2.86Z" transform="translate(-119.462 -177.512)" fill="#e0007a"/>
      <path id="Path_3916" data-name="Path 3916" d="M190.821,221.743s-.5,8.278-3.466,14.6l-1.622-1.495S188.931,230.883,190.821,221.743Z" transform="translate(-121.672 -180.033)" fill="#b70065"/>
      <path id="Path_3917" data-name="Path 3917" d="M223.773,267.314l-.005,0-7.347,3.136c4.045-6.778-.513-22.555-.513-22.555,2.687-4.286,2.351-10.507,2.351-10.507-.065-8.3,1.429-10.621,1.526-10.989-1.15,4.629,2.03,12.3,2.03,12.3a49.553,49.553,0,0,0-2.657,11.533Z" transform="translate(-128.455 -181.081)" fill="#b70065"/>
      <path id="Path_3918" data-name="Path 3918" d="M193.722,256.571s3.687,11.2,12.874,12.774c0,0-10.1,4.1-16.088.315,0,0,7.669,1.66,11.283-.19A15.033,15.033,0,0,1,193.722,256.571Z" transform="translate(-122.745 -187.862)" fill="#b70065"/>
      <path id="Path_3919" data-name="Path 3919" d="M158.618,271.79a7.82,7.82,0,0,0-.678,4.556l.543.162A17.346,17.346,0,0,1,158.618,271.79Z" transform="translate(-115.404 -191.284)" fill="#ebafa4"/>
      <path id="Path_3920" data-name="Path 3920" d="M161.448,277.008a19.434,19.434,0,0,1,.318-5.991s.243,5.372.608,5.569Z" transform="translate(-116.189 -191.11)" fill="#ebafa4"/>
      <path id="Path_3921" data-name="Path 3921" d="M209.542,297.724c.7.253,1.364.2,1.478-.118l6.448-18.04c.113-.316-.364-.778-1.067-1.029h0c-.7-.25-1.364-.2-1.477.119L208.475,296.7c-.113.318.364.778,1.067,1.029Z" transform="translate(-126.78 -192.765)" fill="#c7c9cb"/>
      <path id="Path_3922" data-name="Path 3922" d="M207.8,279.346l-31.685-3.064.121-5.2,32.185,3.112a2.81,2.81,0,0,1,2.792,2.874A2.976,2.976,0,0,1,207.8,279.346Z" transform="translate(-119.51 -191.125)" fill="url(#linear-gradient-4)"/>
      <path id="Path_3923" data-name="Path 3923" d="M216.326,269.147c.108,1.519-.207,1.816-.207,1.816-3.621-2.2-4.181,3.985-4.181,3.985-1.285,1.422-2.212.412-2.212.412-1.6.341-2.041-.585-2.041-.585-.27.251-1.493.161-1.493.161v.009a3.1,3.1,0,0,1,.036.467c.026,1.358-.828.872-.828.872-.36-.5-3.8-.585-3.8-.585-1.34-1.088-.819-2.014-.342-2.5a2.269,2.269,0,0,1,.44-.36,2.477,2.477,0,0,1,0-1.349c.5-2.392,4.091-5.216,4.091-5.216.225-.369,4.064.18,4.064.18a3.483,3.483,0,0,0,.819-.414,16.619,16.619,0,0,0,2.41-2.095c.6-.612,1.007-1.079,1.007-1.079a55.7,55.7,0,0,0,7.652-9.891c.216-.117.342-.414.4-.854a10.106,10.106,0,0,0,2.617.09c2.473.081,5.089.126,7.157,1.375C231.918,258.185,216.326,269.147,216.326,269.147Z" transform="translate(-125.046 -186.863)" fill="#f4d8c2"/>
      <path id="Path_3924" data-name="Path 3924" d="M209.163,280.222a8.606,8.606,0,0,1,.527-4.489,14.957,14.957,0,0,0,0,4.489Z" transform="translate(-126.918 -192.17)" fill="#ebafa4"/>
      <path id="Path_3925" data-name="Path 3925" d="M212.294,280.881s-.491-2.595.577-4.213a12.321,12.321,0,0,0-.2,4.452Z" transform="translate(-127.617 -192.38)" fill="#ebafa4"/>
      <g id="Group_7737" data-name="Group 7737" transform="translate(7.371 97.567)">
        <rect id="Rectangle_1590" data-name="Rectangle 1590" width="44.982" height="0.504" transform="matrix(0.723, -0.69, 0.69, 0.723, 0, 31.053)" fill="#c7c9cb"/>
      </g>
      <g id="Group_7738" data-name="Group 7738" transform="translate(31.48 99.463)">
        <rect id="Rectangle_1591" data-name="Rectangle 1591" width="0.505" height="53.205" transform="matrix(0.181, -0.983, 0.983, 0.181, 0, 0.497)" fill="#c7c9cb"/>
      </g>
      <g id="Group_7739" data-name="Group 7739" transform="translate(27.31 103.044)">
        <rect id="Rectangle_1592" data-name="Rectangle 1592" width="0.505" height="57.643" transform="matrix(0.199, -0.98, 0.98, 0.199, 0, 0.494)" fill="#c7c9cb"/>
      </g>
      <g id="Group_7740" data-name="Group 7740" transform="translate(27.57 107.623)">
        <rect id="Rectangle_1593" data-name="Rectangle 1593" width="0.504" height="57.344" transform="translate(0 0.489) rotate(-76.037)" fill="#c7c9cb"/>
      </g>
      <g id="Group_7741" data-name="Group 7741" transform="translate(25.898 111.561)">
        <rect id="Rectangle_1594" data-name="Rectangle 1594" width="0.504" height="59.518" transform="translate(0 0.486) rotate(-74.484)" fill="#c7c9cb"/>
      </g>
      <g id="Group_7742" data-name="Group 7742" transform="translate(20.34 115.844)">
        <rect id="Rectangle_1595" data-name="Rectangle 1595" width="0.504" height="65.182" transform="translate(0 0.486) rotate(-74.925)" fill="#c7c9cb"/>
      </g>
      <g id="Group_7743" data-name="Group 7743" transform="translate(75.447 102.013)">
        <rect id="Rectangle_1596" data-name="Rectangle 1596" width="0.504" height="29.379" transform="translate(0 0.016) rotate(-1.857)" fill="#c7c9cb"/>
      </g>
      <g id="Group_7744" data-name="Group 7744" transform="translate(7.331 121.623)">
        <line id="Line_25" data-name="Line 25" x2="8.299" y2="24.196" transform="translate(0.238 0.081)" fill="#c7c9cb"/>
        <rect id="Rectangle_1597" data-name="Rectangle 1597" width="0.504" height="25.579" transform="translate(0 0.164) rotate(-18.931)" fill="#c7c9cb"/>
      </g>
      <g id="Group_7745" data-name="Group 7745" transform="translate(12.031 116.624)">
        <line id="Line_26" data-name="Line 26" x2="8.135" y2="24.597" transform="translate(0.239 0.079)" fill="#c7c9cb"/>
        <rect id="Rectangle_1598" data-name="Rectangle 1598" width="0.504" height="25.908" transform="translate(0 0.158) rotate(-18.301)" fill="#c7c9cb"/>
      </g>
      <g id="Group_7746" data-name="Group 7746" transform="translate(16.099 113.042)">
        <line id="Line_27" data-name="Line 27" x2="8.249" y2="23.937" transform="translate(0.238 0.082)" fill="#c7c9cb"/>
        <rect id="Rectangle_1599" data-name="Rectangle 1599" width="0.504" height="25.319" transform="matrix(0.945, -0.326, 0.326, 0.945, 0, 0.164)" fill="#c7c9cb"/>
      </g>
      <g id="Group_7747" data-name="Group 7747" transform="translate(20.691 108.951)">
        <line id="Line_28" data-name="Line 28" x2="7.623" y2="24.012" transform="translate(0.241 0.076)" fill="#c7c9cb"/>
        <rect id="Rectangle_1600" data-name="Rectangle 1600" width="0.504" height="25.193" transform="translate(0 0.153) rotate(-17.614)" fill="#c7c9cb"/>
      </g>
      <path id="Path_3926" data-name="Path 3926" d="M197.673,299.142a1.591,1.591,0,0,0-1.32-1.82l-49.31-7.85a1.586,1.586,0,0,0-1.819,1.316h0a1.589,1.589,0,0,0,1.319,1.821l49.309,7.852a1.589,1.589,0,0,0,1.821-1.319Z" transform="translate(-112.561 -195.254)" fill="url(#linear-gradient-5)"/>
      <path id="Path_3927" data-name="Path 3927" d="M103.55,323.4a1.387,1.387,0,0,0,1.961.045l31.537-30.1a1.387,1.387,0,0,0,.047-1.961h0a1.387,1.387,0,0,0-1.961-.046l-31.537,30.1a1.388,1.388,0,0,0-.047,1.962Z" transform="translate(-103.11 -195.593)" fill="url(#linear-gradient-6)"/>
      <path id="Path_3928" data-name="Path 3928" d="M187.324,287.769a6.827,6.827,0,0,0,3.851,1.07s7.688,41,11.827,42.261l-12.688,10.475Z" transform="translate(-122.029 -194.876)" fill="#3d3e91"/>
      <path id="Path_3929" data-name="Path 3929" d="M176.066,287.769s2.585,32.678,3.855,53.007H139.812s-2.689-36.309-2.564-47.606C137.248,293.171,172.819,288.885,176.066,287.769Z" transform="translate(-110.771 -194.876)" fill="#484c9b"/>
      <path id="Path_3930" data-name="Path 3930" d="M127.733,313.866l6.723,1.345L140,357.9l-14.624-5.379Z" transform="translate(-108.104 -200.742)" fill="#92a0f0"/>
      <path id="Path_3931" data-name="Path 3931" d="M145.66,313.866l-.733.115-7.839,1.23,5.547,42.692,6.387-3.362,1.345-32.944Z" transform="translate(-110.736 -200.742)" fill="#068cd8"/>
      <path id="Path_3932" data-name="Path 3932" d="M156.388,313.172,164.42,360.3l19.8-14.286-9.066-34.961Z" transform="translate(-115.075 -200.109)" fill="#020e51"/>
      <path id="Path_3933" data-name="Path 3933" d="M146.629,358.719l.443-44.932h7.122l8.032,47.125Z" transform="translate(-112.881 -200.725)" fill="#92a0f0"/>
      <g id="Group_7749" data-name="Group 7749" transform="translate(41.051 141.051)">
        <g id="Group_7748" data-name="Group 7748">
          <path id="Path_3934" data-name="Path 3934" d="M160.437,373.273l-4.388-23.2.991-.183,4.388,23.2Z" transform="translate(-156.05 -349.892)" fill="#c7c9cb"/>
        </g>
      </g>
      <g id="Group_7750" data-name="Group 7750" transform="translate(6.726 110.749)">
        <path id="Path_3935" data-name="Path 3935" d="M147.285,347.583l-.14-.051-35.375-12.859.173-.473,35.235,12.808,41.552-36.2.332.38Z" transform="translate(-111.771 -310.803)" fill="#c7c9cb"/>
      </g>
      <g id="Group_7751" data-name="Group 7751" transform="translate(8.14 115.901)">
        <path id="Path_3936" data-name="Path 3936" d="M149.083,354.579l-35.489-12.943.173-.474L148.969,354l40.168-36.553.339.373Z" transform="translate(-113.594 -317.448)" fill="#c7c9cb"/>
      </g>
      <g id="Group_7752" data-name="Group 7752" transform="translate(10.173 123.022)">
        <path id="Path_3937" data-name="Path 3937" d="M150.752,362.534l-.143-.053L116.217,349.75l.175-.474,34.248,12.679,39.086-35.32.339.374Z" transform="translate(-116.217 -326.635)" fill="#c7c9cb"/>
      </g>
      <g id="Group_7753" data-name="Group 7753" transform="translate(11.472 130.467)">
        <path id="Path_3938" data-name="Path 3938" d="M122.767,358.421l-4.874-22.075.492-.107,4.874,22.074Z" transform="translate(-117.893 -336.239)" fill="#c7c9cb"/>
      </g>
      <g id="Group_7754" data-name="Group 7754" transform="translate(18.168 132.996)">
        <rect id="Rectangle_1601" data-name="Rectangle 1601" width="0.505" height="22.192" transform="translate(0 0.087) rotate(-9.922)" fill="#c7c9cb"/>
      </g>
      <g id="Group_7755" data-name="Group 7755" transform="translate(24.494 135.099)">
        <line id="Line_29" data-name="Line 29" x2="3.811" y2="22.018" transform="translate(0.249 0.044)" fill="#e82727"/>
        <rect id="Rectangle_1602" data-name="Rectangle 1602" width="0.504" height="22.346" transform="matrix(0.985, -0.171, 0.171, 0.985, 0, 0.086)" fill="#c7c9cb"/>
      </g>
      <g id="Group_7756" data-name="Group 7756" transform="translate(48.707 133.903)">
        <rect id="Rectangle_1603" data-name="Rectangle 1603" width="0.899" height="24.988" transform="translate(0 0.146) rotate(-9.334)" fill="#c7c9cb"/>
      </g>
      <g id="Group_7757" data-name="Group 7757" transform="translate(55.858 127.655)">
        <rect id="Rectangle_1604" data-name="Rectangle 1604" width="0.899" height="24.929" transform="matrix(0.988, -0.157, 0.157, 0.988, 0, 0.141)" fill="#c7c9cb"/>
      </g>
      <g id="Group_7758" data-name="Group 7758" transform="translate(61.839 122.365)">
        <rect id="Rectangle_1605" data-name="Rectangle 1605" width="0.899" height="25.437" transform="translate(0 0.177) rotate(-11.341)" fill="#c7c9cb"/>
      </g>
      <g id="Group_7759" data-name="Group 7759" transform="translate(67.888 117.081)">
        <rect id="Rectangle_1606" data-name="Rectangle 1606" width="0.899" height="26.07" transform="translate(0 0.157) rotate(-10.068)" fill="#c7c9cb"/>
      </g>
      <g id="Group_7760" data-name="Group 7760" transform="translate(74.848 111.343)">
        <rect id="Rectangle_1607" data-name="Rectangle 1607" width="0.504" height="25.966" transform="translate(0 0.075) rotate(-8.498)" fill="#c7c9cb"/>
      </g>
      <g id="Group_7762" data-name="Group 7762" transform="translate(4.695 103.968)">
        <g id="Group_7761" data-name="Group 7761">
          <path id="Path_3939" data-name="Path 3939" d="M150.667,362.886l-.277-.112L116.04,348.79l-6.89-21.2.959-.313,6.745,20.75,33.637,13.695,37.31-30.6-.167-29.065,1.008-.006.17,29.548-.186.154Z" transform="translate(-109.15 -302.055)" fill="#c7c9cb"/>
        </g>
      </g>
      <g id="Group_7763" data-name="Group 7763" transform="translate(31.651 137.014)">
        <rect id="Rectangle_1608" data-name="Rectangle 1608" width="0.504" height="23.999" transform="matrix(0.982, -0.187, 0.187, 0.982, 0, 0.094)" fill="#c7c9cb"/>
      </g>
      <path id="Path_3940" data-name="Path 3940" d="M146.489,345.263a1.462,1.462,0,0,0-.813-1.893L104.96,329.985a1.463,1.463,0,0,0-1.778,1.04h0a1.464,1.464,0,0,0,.812,1.9l40.716,13.384a1.462,1.462,0,0,0,1.778-1.043Z" transform="translate(-103.094 -204.352)" fill="url(#linear-gradient-7)"/>
      <path id="Path_3941" data-name="Path 3941" d="M199.374,300.129a1.729,1.729,0,0,0-2.44-.153l-40.749,35.909a1.728,1.728,0,0,0-.156,2.439h0a1.729,1.729,0,0,0,2.44.154l40.75-35.909a1.729,1.729,0,0,0,.155-2.44Z" transform="translate(-114.897 -197.523)" fill="url(#linear-gradient-8)"/>
      <path id="Path_3942" data-name="Path 3942" d="M136.073,400.124c0,3.067-2.148,5.554-4.8,5.554s-4.8-2.486-4.8-5.554,2.148-5.553,4.8-5.553S136.073,397.057,136.073,400.124Z" transform="translate(-108.351 -218.885)" fill="#464749"/>
      <path id="Path_3943" data-name="Path 3943" d="M136.573,400.271c0,2.974-1.762,5.385-3.936,5.385s-3.936-2.411-3.936-5.385,1.762-5.386,3.936-5.386S136.573,397.3,136.573,400.271Z" transform="translate(-108.851 -218.956)" fill="#6d6f72"/>
      <path id="Path_3944" data-name="Path 3944" d="M156.583,388.774c0,3.019-2.116,5.468-4.726,5.468s-4.726-2.449-4.726-5.468,2.116-5.469,4.726-5.469S156.583,385.753,156.583,388.774Z" transform="translate(-112.994 -216.353)" fill="#464749"/>
      <path id="Path_3945" data-name="Path 3945" d="M157.076,388.918c0,2.929-1.736,5.3-3.876,5.3s-3.878-2.375-3.878-5.3,1.736-5.3,3.878-5.3S157.076,385.988,157.076,388.918Z" transform="translate(-113.486 -216.422)" fill="#6d6f72"/>
      <path id="Path_3946" data-name="Path 3946" d="M174.272,415.781c0,3.5-2.454,6.344-5.482,6.344s-5.481-2.842-5.481-6.344,2.454-6.345,5.481-6.345S174.272,412.278,174.272,415.781Z" transform="translate(-116.63 -222.227)" fill="#464749"/>
      <path id="Path_3947" data-name="Path 3947" d="M174.843,415.949c0,3.4-2.013,6.153-4.5,6.153s-4.5-2.756-4.5-6.153,2.013-6.154,4.5-6.154S174.843,412.551,174.843,415.949Z" transform="translate(-117.202 -222.308)" fill="#6d6f72"/>
      <path id="Path_3948" data-name="Path 3948" d="M196.932,403.295c0,3.024-2.119,5.476-4.733,5.476s-4.732-2.452-4.732-5.476,2.119-5.477,4.732-5.477S196.932,400.27,196.932,403.295Z" transform="translate(-122.062 -219.615)" fill="#464749"/>
      <path id="Path_3949" data-name="Path 3949" d="M197.426,403.44c0,2.933-1.738,5.312-3.882,5.312s-3.881-2.378-3.881-5.312,1.738-5.314,3.881-5.314S197.426,400.506,197.426,403.44Z" transform="translate(-122.555 -219.684)" fill="#6d6f72"/>
      <path id="Path_3950" data-name="Path 3950" d="M171.092,406.875a11.417,11.417,0,0,1,0,7.144s-1.386,2.6,1.387,2.857c0,0,3.509,1.008,1.712-11.515Z" transform="translate(-118.302 -221.311)" fill="#c7c9cb"/>
      <path id="Path_3951" data-name="Path 3951" d="M194.026,393.044a11.539,11.539,0,0,1,0,7.181s-1.386,2.619,1.387,2.874c0,0,3.508,1.014,1.712-11.578Z" transform="translate(-123.458 -218.2)" fill="#c7c9cb"/>
      <path id="Path_3952" data-name="Path 3952" d="M153.313,383.124a6.093,6.093,0,0,1,0,5.15s-1.388,1.878,1.386,2.06c0,0,3.509.726,1.712-8.3Z" transform="translate(-114.306 -216.067)" fill="#c7c9cb"/>
      <path id="Path_3953" data-name="Path 3953" d="M133.9,389.1a15.056,15.056,0,0,1,0,7.978s-1.3,2.91,1.3,3.192c0,0,3.29,1.126,1.605-12.861Z" transform="translate(-109.946 -217.276)" fill="#c7c9cb"/>
      <path id="Path_3954" data-name="Path 3954" d="M130.39,388.964c.3.7.819,1.159,1.151,1.015l18.885-8.161c.333-.144.354-.829.051-1.533h0c-.3-.7-.819-1.157-1.152-1.013l-18.885,8.16c-.332.143-.355.831-.051,1.532Z" transform="translate(-109.182 -215.44)" fill="url(#linear-gradient-9)"/>
      <path id="Path_3955" data-name="Path 3955" d="M158.217,406.132c.412-.747.363-1.564-.109-1.824L131.292,389.57c-.471-.258-1.186.135-1.6.883h0c-.412.75-.364,1.567.108,1.826l26.817,14.739c.472.259,1.188-.136,1.6-.885Z" transform="translate(-109.011 -217.743)" fill="url(#linear-gradient-10)"/>
      <g id="Group_7764" data-name="Group 7764" transform="translate(75.418 132.225)">
        <path id="Path_3956" data-name="Path 3956" d="M202.053,378.082l-.947-1.166c1.169-1.216.2-13.909-.259-20.007-.253-3.332-.473-6.212-.464-7.6.029-4.974,7.75-10.564,8.077-10.8l.835,1.255c-2.064,1.481-7.423,6.083-7.443,9.554-.008,1.325.209,4.174.459,7.472C203.328,370.171,203.548,376.771,202.053,378.082Z" transform="translate(-200.383 -338.507)" fill="#c7c9cb"/>
      </g>
      <path id="Path_3957" data-name="Path 3957" d="M191.625,387.061c.147-.865-.242-1.654-.868-1.76l-35.671-6.08c-.626-.108-1.254.508-1.4,1.373h0c-.147.866.241,1.654.868,1.76l35.67,6.079c.628.109,1.255-.508,1.4-1.371Z" transform="translate(-114.46 -215.432)" fill="url(#linear-gradient-11)"/>
      <path id="Path_3958" data-name="Path 3958" d="M193.962,388.241c-.471-.831-1.264-1.27-1.77-.984l-28.8,16.325c-.507.286-.535,1.19-.065,2.021h0c.471.831,1.264,1.273,1.77.984l28.8-16.323c.506-.288.535-1.193.065-2.024Z" transform="translate(-116.56 -217.221)" fill="url(#linear-gradient-12)"/>
      <path id="Path_3959" data-name="Path 3959" d="M234.14,252.1c-3.7-.8-5.678.261-6.367.73,0-.06.048-.156.048-.216.01-.358.005-.712,0-1.054A11.1,11.1,0,0,1,234.14,252.1Z" transform="translate(-131.122 -186.675)" fill="#ebafa4"/>
      <path id="Path_3960" data-name="Path 3960" d="M128.415,313.866l14.562.115-7.839,1.23Z" transform="translate(-108.786 -200.742)" fill="#6f0011"/>
      <path id="Path_3961" data-name="Path 3961" d="M213.567,195.958s-.072,1.367-.144,3.147a20.306,20.306,0,0,1-7.1,7.913,4.729,4.729,0,0,1-3.066-.485c-.459,1.088-1.745,3.453-1.745,3.453s1.286-5.575,1.043-7.976C207.524,201.048,213.567,195.958,213.567,195.958Z" transform="translate(-125.218 -174.236)" fill="#ebafa4"/>
      <g id="Group_7765" data-name="Group 7765" transform="translate(61.12)">
        <path id="Path_3962" data-name="Path 3962" d="M190.781,182.574s2.922,10.245,3.534,12.7c0,0,4.585,4,8.415,4.921,0,0,6.128-4.75,7.2-6.588l3.983-6.74-5.055-11.182-8.885-2.911Z" transform="translate(-183.927 -169.024)" fill="#f4d8c2"/>
        <path id="Path_3963" data-name="Path 3963" d="M200.969,193.278a1.16,1.16,0,1,1-1.555-1.024A1.346,1.346,0,0,1,200.969,193.278Z" transform="translate(-185.721 -173.392)" fill="#483932"/>
        <path id="Path_3964" data-name="Path 3964" d="M210.254,190a1.346,1.346,0,0,1-.593,1.764c-.584.19-1.264-.291-1.519-1.076a1.346,1.346,0,0,1,.593-1.764C209.319,188.733,210,189.215,210.254,190Z" transform="translate(-187.808 -172.646)" fill="#483932"/>
        <path id="Path_3965" data-name="Path 3965" d="M204.975,187.011l1.021.308a2.485,2.485,0,0,1,3.8-1.285S207,182.574,204.975,187.011Z" transform="translate(-187.118 -171.717)" fill="#483932"/>
        <path id="Path_3966" data-name="Path 3966" d="M200.213,188.322l-.736.644s-1.835-1.575-3.348,1.311C196.128,190.277,196.93,185.768,200.213,188.322Z" transform="translate(-185.129 -172.344)" fill="#483932"/>
        <path id="Path_3967" data-name="Path 3967" d="M203.358,194.458a11.506,11.506,0,0,1-.864,3.16,6.466,6.466,0,0,0,1.5.6l-.785-.73A8.5,8.5,0,0,0,203.358,194.458Z" transform="translate(-186.56 -173.899)" fill="#483932"/>
        <path id="Path_3968" data-name="Path 3968" d="M217.273,184.719a22.05,22.05,0,0,1-4.047,11.424.007.007,0,0,1-.007.007,26.037,26.037,0,0,1-7.426,6.94s4.032-9.45,3.012-17.691v-.007a17.666,17.666,0,0,0-.805-2.519c-5.06-1.478-8.717-6.712-8.939-7.038l-.007-.007-.007-.007a43.877,43.877,0,0,1-8.544,10.495c2.651,6.857,3.172,8.675,3.172,8.675a7.518,7.518,0,0,0,2.012,1.7,20.263,20.263,0,0,1-5.733,4.247c-.576.312-1.194.618-1.86.916-.7.312-1.444.618-2.242.916-1.194.444-2.5.86-3.915,1.235,4.31-6.482,1.478-18.024,3.346-23.965,1.617-5.157,4.74-10.661,10.417-11.257a10.523,10.523,0,0,1,2.783.076c8-2.547,13.964.285,17.24,7.135A18.033,18.033,0,0,1,217.273,184.719Z" transform="translate(-181.939 -167.937)" fill="#623a1d"/>
        <path id="Path_3969" data-name="Path 3969" d="M203.758,201.113a4.123,4.123,0,0,0,2.591-.261,2.58,2.58,0,0,0,1.258-2.137,2.363,2.363,0,0,1-.864,2.7C205.453,202.245,203.758,201.113,203.758,201.113Z" transform="translate(-186.844 -174.856)" fill="#483932"/>
        <path id="Path_3970" data-name="Path 3970" d="M186.989,208.1c4.171-6.205,3.977-14.916,3.977-14.916s-.326.077-1.722.347a25.1,25.1,0,0,0,2.395-1.888c2.651,6.857,3.172,8.675,3.172,8.675a7.519,7.519,0,0,0,2.012,1.7,20.263,20.263,0,0,1-5.733,4.247,15.54,15.54,0,0,0,.971-5.115,12.385,12.385,0,0,1-2.831,6.031Z" transform="translate(-183.074 -173.267)" fill="#4e2a0e"/>
        <path id="Path_3971" data-name="Path 3971" d="M212.966,185.164c-5.06-1.478-8.717-6.712-8.939-7.038a25.521,25.521,0,0,0,6.586,4.54,30.684,30.684,0,0,0-1.547-3.367A14.739,14.739,0,0,1,212.966,185.164Z" transform="translate(-186.904 -170.228)" fill="#4e2a0e"/>
        <path id="Path_3972" data-name="Path 3972" d="M220.381,184.719a22.05,22.05,0,0,1-4.047,11.424c4.705-10.022,3.036-21.926-3.864-25.481-8.562-4.412-16.707,1.947-16.707,1.947a21.8,21.8,0,0,1,4.948-3.366,10.682,10.682,0,0,0-1.9-.458,10.523,10.523,0,0,1,2.783.076c8-2.547,13.964.285,17.24,7.135A18.033,18.033,0,0,1,220.381,184.719Z" transform="translate(-185.047 -167.937)" fill="#4e2a0e"/>
      </g>
      <path id="Path_3973" data-name="Path 3973" d="M206.377,281.422a4,4,0,0,1-2.222-1.295c-1.7.233-2.329.108-2.751-.917a2.27,2.27,0,0,1,.44-.36,2.145,2.145,0,0,0,2.572.755,2.822,2.822,0,0,0,1.924,1.349A3.1,3.1,0,0,1,206.377,281.422Z" transform="translate(-125.195 -192.871)" fill="#ebafa4"/>
      <path id="Path_3974" data-name="Path 3974" d="M205.35,279.262a9.54,9.54,0,0,1,.771-3.738,5.627,5.627,0,0,0-1.3,3.578A1.976,1.976,0,0,0,205.35,279.262Z" transform="translate(-125.962 -192.123)" fill="#ebafa4"/>
      <path id="Path_3975" data-name="Path 3975" d="M214.22,269.446l1.5.441a16.367,16.367,0,0,1-3.229,0,3.482,3.482,0,0,0,.819-.414,16.616,16.616,0,0,0,2.41-2.095Z" transform="translate(-127.687 -190.292)" fill="#ebafa4"/>
      <path id="Path_3976" data-name="Path 3976" d="M181.385,250.157a5.114,5.114,0,0,0-2.995.9c.422-1.376.98-4.064,1.5-6.843a44,44,0,0,1-.27,5.494A4.8,4.8,0,0,1,181.385,250.157Z" transform="translate(-120.021 -185.084)" fill="#ebafa4"/>
      <path id="Path_3977" data-name="Path 3977" d="M165.136,271.547s-.4,3.145.16,4.006,3.256.055,3.256.055a3.642,3.642,0,0,1-1.974,1.167c-1.181.2-2.845.326-2.845.326l-1.062-.4a3.732,3.732,0,0,0,1.724-.252S164.014,272.889,165.136,271.547Z" transform="translate(-116.487 -191.229)" fill="#ebafa4"/>
      <path id="Path_3978" data-name="Path 3978" d="M167.178,266.3a2.581,2.581,0,0,0-1.142-.774q.323-.364.62-.7A8.685,8.685,0,0,1,167.178,266.3Z" transform="translate(-117.244 -189.718)" fill="#ebafa4"/>
      <g id="Group_7766" data-name="Group 7766" transform="translate(39.436 98.038)">
        <path id="Path_3979" data-name="Path 3979" d="M161.886,306.6a7.321,7.321,0,0,1-7.131-5.737l-.788-4.03.882-.173.786,4.021a6.39,6.39,0,0,0,12.63-1.456l-.064-4.809.9-.012.064,4.81a7.289,7.289,0,0,1-7.279,7.387Z" transform="translate(-153.967 -294.406)" fill="#302f72"/>
      </g>
      <path id="Path_3980" data-name="Path 3980" d="M173.7,294.021a1.11,1.11,0,1,1-1.178-1.036A1.11,1.11,0,0,1,173.7,294.021Z" transform="translate(-118.467 -196.048)" fill="#302f72"/>
      <path id="Path_3981" data-name="Path 3981" d="M155.321,297.035A1.11,1.11,0,1,1,154.143,296,1.11,1.11,0,0,1,155.321,297.035Z" transform="translate(-114.337 -196.725)" fill="#302f72"/>
      <path id="Path_3982" data-name="Path 3982" d="M165.622,316.676a1.11,1.11,0,1,1-1.179-1.036A1.11,1.11,0,0,1,165.622,316.676Z" transform="translate(-116.652 -201.14)" fill="#483932"/>
      <path id="Path_3983" data-name="Path 3983" d="M177.565,314.756a1.11,1.11,0,1,1-1.179-1.036A1.109,1.109,0,0,1,177.565,314.756Z" transform="translate(-119.337 -200.709)" fill="#483932"/>
      <g id="Group_7767" data-name="Group 7767" transform="translate(47.42 113.993)">
        <path id="Path_3984" data-name="Path 3984" d="M171.16,324.107l-.131,0a7.044,7.044,0,0,1-6.425-5.581l-.338-1.843.884-.161.338,1.842a6.1,6.1,0,0,0,5.561,4.844,3.468,3.468,0,0,0,2.906-1.276,3.882,3.882,0,0,0,.505-3.481l-.927-3.212.864-.25.926,3.212a4.763,4.763,0,0,1-.657,4.279A4.294,4.294,0,0,1,171.16,324.107Z" transform="translate(-164.266 -314.988)" fill="#fff"/>
      </g>
    </g>
    <path id="Path_3985" data-name="Path 3985" d="M354.105,126.163l-.007-.042H229.578l-.006.043v27.065a8.137,8.137,0,0,0,4.994,1.711h0a8.181,8.181,0,0,0,8.181-8.181,8.182,8.182,0,0,0,8.182,8.181h0a8.181,8.181,0,0,0,8.181-8.181,8.182,8.182,0,0,0,8.182,8.181h0a8.181,8.181,0,0,0,8.181-8.181h0a8.182,8.182,0,0,0,8.182,8.181h0a8.181,8.181,0,0,0,8.181-8.181,8.182,8.182,0,0,0,8.182,8.181h0a8.181,8.181,0,0,0,8.181-8.181,8.182,8.182,0,0,0,8.182,8.181h0a8.181,8.181,0,0,0,8.181-8.181,8.182,8.182,0,0,0,8.182,8.181h0a8.181,8.181,0,0,0,8.181-8.181,8.182,8.182,0,0,0,8.182,8.181h0a8.14,8.14,0,0,0,4.994-1.711Z" transform="translate(-34.624 -12.422)" fill="#e0e1e3" style="mix-blend-mode: multiply;isolation: isolate"/>
    <circle id="Ellipse_91" data-name="Ellipse 91" cx="7.154" cy="7.154" r="7.154" transform="translate(250.061 286.364)" fill="#fff"/>
    <rect id="Rectangle_1609" data-name="Rectangle 1609" width="16.364" height="20.637" transform="translate(208.124 108.994)" fill="#92a0f0"/>
    <rect id="Rectangle_1610" data-name="Rectangle 1610" width="16.364" height="20.637" transform="translate(224.488 108.994)" fill="#020e51"/>
    <path id="Path_3986" data-name="Path 3986" d="M241.823,140.688H225.459l3.195-20.637h13.169Z" transform="translate(-33.699 -11.057)" fill="#020e51"/>
    <rect id="Rectangle_1611" data-name="Rectangle 1611" width="16.364" height="20.637" transform="translate(240.851 108.994)" fill="#92a0f0"/>
    <rect id="Rectangle_1612" data-name="Rectangle 1612" width="16.364" height="20.637" transform="translate(257.215 108.994)" fill="#020e51"/>
    <rect id="Rectangle_1613" data-name="Rectangle 1613" width="16.364" height="20.637" transform="translate(273.578 108.994)" fill="#92a0f0"/>
    <path id="Path_3987" data-name="Path 3987" d="M389.586,140.688H373.222V120.051h13.169Z" transform="translate(-66.917 -11.057)" fill="#92a0f0"/>
    <rect id="Rectangle_1614" data-name="Rectangle 1614" width="16.364" height="20.637" transform="translate(289.942 108.994)" fill="#020e51"/>
    <path id="Path_3988" data-name="Path 3988" d="M225.459,146.673a8.182,8.182,0,0,0,8.182,8.181h0a8.181,8.181,0,0,0,8.181-8.181Z" transform="translate(-33.699 -17.042)" fill="#92a0f0"/>
    <path id="Path_3989" data-name="Path 3989" d="M246.568,146.673a8.182,8.182,0,0,0,8.182,8.181h0a8.181,8.181,0,0,0,8.181-8.181Z" transform="translate(-38.444 -17.042)" fill="#92a0f0"/>
    <path id="Path_3990" data-name="Path 3990" d="M267.677,146.673a8.182,8.182,0,0,0,8.182,8.181h0a8.181,8.181,0,0,0,8.181-8.181Z" transform="translate(-43.19 -17.042)" fill="#92a0f0"/>
    <path id="Path_3991" data-name="Path 3991" d="M288.786,146.673a8.182,8.182,0,0,0,8.182,8.181h0a8.181,8.181,0,0,0,8.181-8.181Z" transform="translate(-47.935 -17.042)" fill="#92a0f0"/>
    <path id="Path_3992" data-name="Path 3992" d="M309.895,146.673a8.182,8.182,0,0,0,8.182,8.181h0a8.181,8.181,0,0,0,8.181-8.181Z" transform="translate(-52.681 -17.042)" fill="#92a0f0"/>
    <rect id="Rectangle_1615" data-name="Rectangle 1615" width="92.089" height="55.248" rx="8.723" transform="translate(211.17 218.522)" fill="#92a0f0"/>
    <path id="Path_3993" data-name="Path 3993" d="M342.586,268.1v38.117a6.768,6.768,0,0,1-6.762,6.771H257.259a6.768,6.768,0,0,1-6.762-6.771V268.1a6.767,6.767,0,0,1,6.762-6.763h78.565A6.766,6.766,0,0,1,342.586,268.1Z" transform="translate(-39.328 -42.82)" fill="#020e51"/>
    <path id="Path_3994" data-name="Path 3994" d="M331,146.673a8.182,8.182,0,0,0,8.182,8.181h0a8.181,8.181,0,0,0,8.181-8.181Z" transform="translate(-57.426 -17.042)" fill="#92a0f0"/>
    <path id="Path_3995" data-name="Path 3995" d="M352.113,146.673a8.182,8.182,0,0,0,8.182,8.181h0a8.181,8.181,0,0,0,8.181-8.181Z" transform="translate(-62.171 -17.042)" fill="#92a0f0"/>
    <path id="Path_3996" data-name="Path 3996" d="M373.222,146.673a8.182,8.182,0,0,0,8.182,8.181h0a8.181,8.181,0,0,0,8.181-8.181Z" transform="translate(-66.917 -17.042)" fill="#92a0f0"/>
    <rect id="Rectangle_1616" data-name="Rectangle 1616" width="92.091" height="24.788" rx="6.02" transform="translate(211.169 151.178)" fill="#dde1e8" style="mix-blend-mode: multiply;isolation: isolate"/>
    <rect id="Rectangle_1617" data-name="Rectangle 1617" width="19.696" height="17.098" rx="2.436" transform="translate(279.63 155.393)" fill="#fff"/>
    <g id="Group_7769" data-name="Group 7769" transform="translate(292.537 137.748)">
      <path id="Path_3997" data-name="Path 3997" d="M438.5,261.491l-5.35-2.553,1.915-16.384,3.436-29.278a99.406,99.406,0,0,1,9.846,18.237.009.009,0,0,1,.009.009,34.248,34.248,0,0,1,1.906,6.816C450.734,243.219,438.5,261.491,438.5,261.491Z" transform="translate(-372.924 -169.762)" fill="#be1339"/>
      <path id="Path_3998" data-name="Path 3998" d="M429.433,175.03l-1.851,14.7-.291,2.319a18.612,18.612,0,0,0-.465,5.633,21.336,21.336,0,0,0,.465,3.443l-14.75-1.008c.722-.887,1.2-3.1,1.509-5.285.046-.322.086-.651.126-.968.288-2.425.383-4.589.383-4.589-.071-.559-.878-.69-1.578-.7-.222,0-.433.011-.605.02h-.011c-.272.026-.453.051-.453.051-3.026-4.034-2.27-7.186-2.27-7.186l-1.26-3.025a23.73,23.73,0,0,0,3.026-2.522,12.671,12.671,0,0,1,2.016-7.059h10.086Z" transform="translate(-367.357 -159.776)" fill="#ecba9f"/>
      <path id="Path_3999" data-name="Path 3999" d="M403.677,407.531l-10.416,1.911-1.908-.262-3.641-.5v-1.654l-1.849,1.654-7.4-1.821c-1.008-1.513,3.2-5.717,3.2-5.717l5.042-.837,3.3-3.026.66.106,10.993,1.739Z" transform="translate(-360.597 -211.127)" fill="#2d241e"/>
      <path id="Path_4000" data-name="Path 4000" d="M407.261,407.562l-10.416,1.911-1.908-.262c1.353-2.414,2.452-4.791,2.452-4.791-2.684-3.8-3.081-6.454-3.137-7l10.993,1.739Z" transform="translate(-364.181 -211.158)" fill="#1b1411"/>
      <path id="Path_4001" data-name="Path 4001" d="M424.893,280.194s-.432,7.212-1.278,16.285c-1.034,11.267-2.706,25.412-4.936,32.12,0,0-3.363,20.673-3.363,24.036,0,0-.809,2.9-2.1,6.825-2.122,6.474-5.539,15.754-8.731,19.477l-14.037-7.8a.026.026,0,0,0-.018-.009s3.04-10.664,5.908-22.759c.432-1.816.864-3.669,1.277-5.521l.009-.019c.54-2.428,1.052-4.856,1.519-7.22l10.116-54.232,12.05-.909Z" transform="translate(-363.323 -184.806)" fill="#5f5346"/>
      <path id="Path_4002" data-name="Path 4002" d="M405.007,400.19c.517-6.428-.762-13.837-2.58-20.63,0,.029.575,9.388.333,16.347-3.966.54-11.852-2.275-12.3-2.436l14.037,7.8c.241-.281.484-.6.727-.945Z" transform="translate(-363.328 -207.144)" fill="#483932"/>
      <path id="Path_4003" data-name="Path 4003" d="M371.144,206.845l-4.443,4.721c.027-.432-.692-1.358-1.474-2.221-.917-1.016-1.924-1.951-1.924-1.951a8.362,8.362,0,0,1-4.361-3.229,2.493,2.493,0,0,1-.557-.683,16.436,16.436,0,0,1-1.169-2.662.154.154,0,0,1-.009-.045l-.117-.036-1.241-.36a4.3,4.3,0,0,1-.36-2.158V198.2a2.22,2.22,0,0,1,1.026-1.664,2.015,2.015,0,0,1,.612-.288,2.195,2.195,0,0,1,1.915-1.438,2.993,2.993,0,0,1,.351-.027,2.462,2.462,0,0,1,1.771-1.466,1.344,1.344,0,0,1,.414-.018A21.986,21.986,0,0,1,360,190.012a12.945,12.945,0,0,1-3.112-2.626c-.575-.845.252-2.005.378-2.113.414.2,4.838,3.183,4.838,3.183a25.384,25.384,0,0,1,2.239,4.181l.018.027a4.925,4.925,0,0,1,.072-1.142V191.5c.279-1.412,1.1-1.781,1.709-1.843a2.009,2.009,0,0,1,.729.036c-.189,1.241,1.034,6.2,1.034,6.2A47.883,47.883,0,0,0,371.144,206.845Z" transform="translate(-355.461 -163.467)" fill="#ecba9f"/>
      <path id="Path_4004" data-name="Path 4004" d="M431.443,197.775a18.612,18.612,0,0,0-.465,5.633l-.165.252s-.439-7.312-3.959-9.329l4.881,1.124Z" transform="translate(-371.51 -165.504)" fill="#dea68b"/>
      <path id="Path_4005" data-name="Path 4005" d="M368.55,212.481l-2.476,2.144c-.913-1.013-1.922-1.951-1.922-1.951a8.374,8.374,0,0,1-4.366-3.227,2.5,2.5,0,0,1-.555-.681A21.15,21.15,0,0,0,368.55,212.481Z" transform="translate(-356.308 -168.749)" fill="#dea68b"/>
      <path id="Path_4006" data-name="Path 4006" d="M448.9,231.511c-.18-.207-2.077-2.4-3.453-2.707,0,8.65-.387,15.385-7.491,24.935a49.431,49.431,0,0,1-2.338-11.186l3.436-29.278A99.406,99.406,0,0,1,448.9,231.511Z" transform="translate(-373.48 -169.762)" fill="#900b2a"/>
      <path id="Path_4007" data-name="Path 4007" d="M421.427,417.908H410.3l-.86-2.626-1.922,2.626s-3.927-.423-7.266-.977c-2.152-.357-4.064-.766-4.512-1.155,0,0,.66-6.077,2.456-6.73l4.745-.657,5.522-3.817,4.911.741.212.03,2.032.307,5.813.884S425.022,414.627,421.427,417.908Z" transform="translate(-364.515 -212.767)" fill="#1b1411"/>
      <path id="Path_4008" data-name="Path 4008" d="M421.192,185.225a38.185,38.185,0,0,1-1.129,6.132s-1.277,4.7-4.729,6.187c.288-2.425.383-4.589.383-4.589-.071-.559-.878-.69-1.578-.7-.222,0-.433.011-.605.02,1.04-.186,3.519-1.069,4.115-5.285C417.648,186.989,418.933,188,421.192,185.225Z" transform="translate(-368.515 -163.457)" fill="#dea68b"/>
      <path id="Path_4009" data-name="Path 4009" d="M427.813,188.728c-.5-.449-.819-.432-3.294-.9-3.1-.59-6.375-1.06-6.375-1.06l-.378-4.412c4.034-5.672,1.574-8.572,1.574-8.572-2.708-.252-4.22,3.782-4.22,3.782l-1.388-1.134,2.018-4.286c-11.6-6.177-1.008-15-1.008-15,2.393,2.84,7.058,3.529,7.058,3.529a9.516,9.516,0,0,1,5.567.03,20.363,20.363,0,0,1,7.292,4.129C439.323,173.153,427.813,188.728,427.813,188.728Z" transform="translate(-367.793 -157.144)" fill="#623a1d"/>
      <path id="Path_4010" data-name="Path 4010" d="M431.931,189.76c-.5-.449-.819-.432-3.294-.9l1.316-7.574a57.038,57.038,0,0,0,.842-7.034c6.844-1.538.8-11.789.8-11.789l-.105-.726a20.362,20.362,0,0,1,7.292,4.129C443.441,174.186,431.931,189.76,431.931,189.76Z" transform="translate(-371.911 -158.176)" fill="#4e2a0e"/>
      <path id="Path_4011" data-name="Path 4011" d="M413.582,405.343c-1.619,1.216-3.681,3.237-3.758,5.738,0,0-8.536.667-9.575,5.85-2.152-.357-4.064-.766-4.512-1.155,0,0,.66-6.077,2.456-6.73l4.745-.657,5.522-3.817,4.911.741Z" transform="translate(-364.515 -212.767)" fill="#2d241e"/>
      <path id="Path_4012" data-name="Path 4012" d="M423.67,376.009a24.953,24.953,0,0,1-7.185,5.8c-3.53.378-10.817-4.493-10.817-4.493,1.4-17.4-10.362-42.025-10.362-42.025-.755-1.512,0-9.579,0-9.579-2.55-6.909-2.067-22.575-1.256-34.117.323-4.594.7-8.536.953-11.014.181-1.754.3-2.773.3-2.773h26.054c4.366,12.269-4.172,25.2-4.172,25.2-3.364,5.043-6.856,23.469-6.856,23.469,4.034,4.537,6.823,20.072,6.823,20.072C418.246,356.908,423.67,376.009,423.67,376.009Z" transform="translate(-363.99 -184.269)" fill="#5f5346"/>
      <path id="Path_4013" data-name="Path 4013" d="M430.544,280.194s-.432,7.212-1.278,16.285a36.5,36.5,0,0,0-7.05,10.772c-2.886,7.266-3.579,17.679-3.579,17.679l-3.066.773c.872-4.289,3.777-17.93,6.6-22.157,0,0,7.589-11.483,4.793-23.083Z" transform="translate(-368.974 -184.806)" fill="#483932"/>
      <path id="Path_4014" data-name="Path 4014" d="M409.557,281.384s-11.672,1.615-15.006,7.8c.323-4.594.46-5.323.712-7.8Z" transform="translate(-364.248 -185.074)" fill="#483932"/>
      <path id="Path_4015" data-name="Path 4015" d="M428,234.39c-.629,8.857-3.588,11.519-6.312,19.558a16.607,16.607,0,0,0-.989,4.9c-.045,1.609.774,2.985.891,4.478v.045a3.519,3.519,0,0,0,.081.441c-2.707,2.229-11.645,7.58-29.423.4a6.138,6.138,0,0,0-3.507,2.275s-3.264-5.3-4.019-8.327a51.053,51.053,0,0,0,3.381-4.964l.009-.009c.791-1.3,1.655-2.805,2.518-4.505v-.009a56.34,56.34,0,0,0,5.629-16.735l-.009.009a31.536,31.536,0,0,1-7.509,4.784,161.178,161.178,0,0,1-12.184-11.366s-6.619-7.005-9.622-8.012c0,0,.989-8.857,6.25-10.116a69.36,69.36,0,0,0,6.915,8.137,23.339,23.339,0,0,0,4.478,3.561,6.117,6.117,0,0,0,2.653.9s10.16-17.193,17.723-15.7c0,0,13.641-.243,18.659,7.067C423.557,211.981,429.123,218.725,428,234.39Z" transform="translate(-358.04 -167.686)" fill="#e61844"/>
      <path id="Path_4016" data-name="Path 4016" d="M428.259,273.5a41.1,41.1,0,0,1-22.86,2.836s11.156,4.212,20.506,1.067c0,0-.695-.008-4.489.279A78.346,78.346,0,0,0,428.259,273.5Z" transform="translate(-366.687 -183.301)" fill="#be1339"/>
      <path id="Path_4017" data-name="Path 4017" d="M409.466,232.044c-.243.4-2.257,3.713-4.891,7.464-2.967,9.765-6.16,15.026-10.323,19.971.791-1.3,1.655-2.805,2.518-4.505v-.009A56.34,56.34,0,0,0,402.4,238.23C406.625,234.7,409.16,232.322,409.466,232.044Z" transform="translate(-364.181 -173.982)" fill="#be1339"/>
      <path id="Path_4018" data-name="Path 4018" d="M391.047,223.117a21.219,21.219,0,0,0-1.619,3.633,5.7,5.7,0,0,1,.036-2.616,18.544,18.544,0,0,1-5.548-5.477,23.339,23.339,0,0,0,4.478,3.561A6.117,6.117,0,0,0,391.047,223.117Z" transform="translate(-361.857 -170.972)" fill="#be1339"/>
      <path id="Path_4019" data-name="Path 4019" d="M393.017,277.509,397.4,279.9a6.138,6.138,0,0,0-3.507,2.275s-3.264-5.3-4.019-8.327c0,0,1.655,2.617,9.145,2.464A19.665,19.665,0,0,1,393.017,277.509Z" transform="translate(-363.198 -183.38)" fill="#be1339"/>
      <path id="Path_4020" data-name="Path 4020" d="M403.847,374.323l-5.791-7.8c.432-1.816.864-3.669,1.277-5.521l.009-.019Z" transform="translate(-365.036 -202.969)" fill="#483932"/>
      <path id="Path_4021" data-name="Path 4021" d="M420,358.248s-.052-11.912-3.15-20.352a11.116,11.116,0,0,0-9.215,3.819c4.915-1.843,5.9-1.736,5.9-1.736S417.478,344.211,420,358.248Z" transform="translate(-367.19 -197.77)" fill="#483932"/>
      <path id="Path_4022" data-name="Path 4022" d="M420.8,180.224c.619.138-.019,2.309-.278,3s-1.274,1.433-1.91.936,1.128-.617,1.29-1.154-.561-.716-.17-1.632S420.441,180.145,420.8,180.224Z" transform="translate(-369.626 -162.33)" fill="#dea68b"/>
      <path id="Path_4023" data-name="Path 4023" d="M357.378,204.806a2.945,2.945,0,0,0-1.142-1.611,2.616,2.616,0,0,1,.619,1.458Z" transform="translate(-355.635 -167.496)" fill="#dea68b"/>
      <path id="Path_4024" data-name="Path 4024" d="M363.39,196.916a1.81,1.81,0,0,0-2.859.2,2.462,2.462,0,0,1,1.771-1.466,1.344,1.344,0,0,1,.414-.018Z" transform="translate(-356.6 -165.794)" fill="#dea68b"/>
      <path id="Path_4025" data-name="Path 4025" d="M360.486,198.427c-.18-.171-1.421-1.232-2.878.584a2.195,2.195,0,0,1,1.915-1.438,2.993,2.993,0,0,1,.351-.027Z" transform="translate(-355.943 -166.226)" fill="#dea68b"/>
      <path id="Path_4026" data-name="Path 4026" d="M358.122,200.075c-1.349-.252-2.248.027-2.626,1.313a2.22,2.22,0,0,1,1.026-1.664,2.015,2.015,0,0,1,.612-.288A2.227,2.227,0,0,1,358.122,200.075Z" transform="translate(-355.469 -166.651)" fill="#dea68b"/>
      <path id="Path_4027" data-name="Path 4027" d="M368.122,195.574l-1.178-1.636a4.927,4.927,0,0,1,.072-1.142v-.018c.279-1.412,1.1-1.781,1.709-1.843C367.016,192.58,368.032,195.331,368.122,195.574Z" transform="translate(-358.041 -164.74)" fill="#dea68b"/>
    </g>
    <line id="Line_30" data-name="Line 30" x2="53.205" transform="translate(218.396 156.34)" fill="none" stroke="#fff" stroke-miterlimit="10" stroke-width="2.5"/>
    <line id="Line_31" data-name="Line 31" x2="53.205" transform="translate(218.396 163.541)" fill="none" stroke="#fff" stroke-miterlimit="10" stroke-width="2.5"/>
    <line id="Line_32" data-name="Line 32" x2="29.594" transform="translate(242.007 170.742)" fill="none" stroke="#fff" stroke-miterlimit="10" stroke-width="2.5"/>
    <rect id="Rectangle_1618" data-name="Rectangle 1618" width="92.091" height="24.788" rx="6.02" transform="translate(211.169 184.728)" fill="#dde1e8" style="mix-blend-mode: multiply;isolation: isolate"/>
    <rect id="Rectangle_1619" data-name="Rectangle 1619" width="19.696" height="17.098" rx="2.436" transform="translate(279.63 188.943)" fill="#fff"/>
    <line id="Line_33" data-name="Line 33" x2="53.205" transform="translate(218.396 189.89)" fill="none" stroke="#fff" stroke-miterlimit="10" stroke-width="2.5"/>
    <line id="Line_34" data-name="Line 34" x2="53.205" transform="translate(218.396 197.091)" fill="none" stroke="#fff" stroke-miterlimit="10" stroke-width="2.5"/>
    <line id="Line_35" data-name="Line 35" x2="29.594" transform="translate(242.007 204.292)" fill="none" stroke="#fff" stroke-miterlimit="10" stroke-width="2.5"/>
    <g id="Group_7783" data-name="Group 7783" transform="translate(229.71 224.883)">
      <g id="Group_7770" data-name="Group 7770" transform="translate(6.871 6.823)">
        <path id="Path_4028" data-name="Path 4028" d="M315.5,301.938H288.679l-5.4-23.589h36.487Zm-25.852-1.219h24.832l3.822-21.15h-33.5Z" transform="translate(-283.278 -278.349)" fill="#fff"/>
      </g>
      <g id="Group_7771" data-name="Group 7771">
        <path id="Path_4029" data-name="Path 4029" d="M281.457,277.116l-1.161-5.074a1.634,1.634,0,0,0-1.6-1.275h-4.28v-1.219h4.28a2.845,2.845,0,0,1,2.789,2.222l1.162,5.074Z" transform="translate(-274.415 -269.548)" fill="#fff"/>
      </g>
      <g id="Group_7772" data-name="Group 7772" transform="translate(12.147 29.192)">
        <path id="Path_4030" data-name="Path 4030" d="M316.3,312.908H293.617a2.973,2.973,0,0,1-2.913-2.322l-.6-2.635a.61.61,0,0,1,1.188-.272l.6,2.636a1.759,1.759,0,0,0,1.724,1.373H316.3a.61.61,0,1,1,0,1.22Z" transform="translate(-290.085 -307.205)" fill="#fff"/>
      </g>
      <g id="Group_7773" data-name="Group 7773" transform="translate(24.522 7.432)">
        <rect id="Rectangle_1620" data-name="Rectangle 1620" width="1.22" height="22.37" fill="#fff"/>
      </g>
      <g id="Group_7774" data-name="Group 7774" transform="translate(19.514 7.432)">
        <rect id="Rectangle_1621" data-name="Rectangle 1621" width="1.22" height="22.37" fill="#fff"/>
      </g>
      <g id="Group_7775" data-name="Group 7775" transform="translate(12.994 7.391)">
        <rect id="Rectangle_1622" data-name="Rectangle 1622" width="1.22" height="22.421" transform="matrix(0.998, -0.067, 0.067, 0.998, 0, 0.082)" fill="#fff"/>
      </g>
      <g id="Group_7776" data-name="Group 7776" transform="translate(34.53 7.391)">
        <rect id="Rectangle_1623" data-name="Rectangle 1623" width="22.421" height="1.22" transform="matrix(0.068, -0.998, 0.998, 0.068, 0, 22.369)" fill="#fff"/>
      </g>
      <g id="Group_7777" data-name="Group 7777" transform="translate(29.53 7.432)">
        <rect id="Rectangle_1624" data-name="Rectangle 1624" width="1.22" height="22.37" fill="#fff"/>
      </g>
      <g id="Group_7778" data-name="Group 7778" transform="translate(9.003 12.794)">
        <rect id="Rectangle_1625" data-name="Rectangle 1625" width="32.546" height="1.22" fill="#fff"/>
      </g>
      <g id="Group_7779" data-name="Group 7779" transform="translate(10.208 18.006)">
        <rect id="Rectangle_1626" data-name="Rectangle 1626" width="30.411" height="1.22" fill="#fff"/>
      </g>
      <g id="Group_7780" data-name="Group 7780" transform="translate(11.402 23.224)">
        <rect id="Rectangle_1627" data-name="Rectangle 1627" width="28.264" height="1.22" fill="#fff"/>
      </g>
      <g id="Group_7781" data-name="Group 7781" transform="translate(17.302 37.318)">
        <path id="Path_4031" data-name="Path 4031" d="M299.556,323.332a2.822,2.822,0,1,1,2.822-2.822A2.826,2.826,0,0,1,299.556,323.332Zm0-4.424a1.6,1.6,0,1,0,1.6,1.6A1.6,1.6,0,0,0,299.556,318.908Z" transform="translate(-296.734 -317.688)" fill="#fff"/>
      </g>
      <g id="Group_7782" data-name="Group 7782" transform="translate(30.114 37.318)">
        <path id="Path_4032" data-name="Path 4032" d="M316.085,323.332a2.822,2.822,0,1,1,2.822-2.822A2.826,2.826,0,0,1,316.085,323.332Zm0-4.424a1.6,1.6,0,1,0,1.6,1.6A1.6,1.6,0,0,0,316.085,318.908Z" transform="translate(-313.262 -317.688)" fill="#fff"/>
      </g>
    </g>
    <g id="Group_7787" data-name="Group 7787" transform="translate(274.194 232.824)">
      <g id="Group_7784" data-name="Group 7784" transform="translate(5.438)">
        <path id="Path_4033" data-name="Path 4033" d="M346.109,299.614h0a.63.63,0,0,1-.488-.233c-.279-.343-6.809-8.43-6.809-12.292a7.3,7.3,0,1,1,14.594,0c0,3.862-6.531,11.949-6.809,12.292A.63.63,0,0,1,346.109,299.614Zm0-18.562a6.044,6.044,0,0,0-6.037,6.038c0,2.609,3.985,8.254,6.037,10.883,2.053-2.629,6.038-8.274,6.038-10.883A6.044,6.044,0,0,0,346.109,281.052Z" transform="translate(-338.813 -279.792)" fill="#fff"/>
      </g>
      <g id="Group_7785" data-name="Group 7785" transform="translate(8.695 3.257)">
        <path id="Path_4034" data-name="Path 4034" d="M347.054,292.075a4.04,4.04,0,1,1,4.04-4.04A4.045,4.045,0,0,1,347.054,292.075Zm0-6.822a2.781,2.781,0,1,0,2.781,2.781A2.784,2.784,0,0,0,347.054,285.253Z" transform="translate(-343.014 -283.994)" fill="#fff"/>
      </g>
      <g id="Group_7786" data-name="Group 7786" transform="translate(0 18.562)">
        <path id="Path_4035" data-name="Path 4035" d="M345.367,319.1H339.8v-1.26h5.567a3.017,3.017,0,0,0,0-6.035h-9.534a4.035,4.035,0,0,1,0-8.071h21.435V305H335.833a2.776,2.776,0,0,0,0,5.551h9.534a4.277,4.277,0,0,1,0,8.554Z" transform="translate(-331.798 -303.737)" fill="#fff"/>
      </g>
    </g>
    <g id="Group_7790" data-name="Group 7790" transform="translate(214.457 239.944)">
      <g id="Group_7788" data-name="Group 7788" transform="translate(0 3.836)">
        <path id="Path_4036" data-name="Path 4036" d="M262.813,310.085a8.08,8.08,0,1,1,6.31-13.116l-.985.784a6.809,6.809,0,1,0,1.5,4.257,6.56,6.56,0,0,0-.2-1.615l1.219-.311a7.8,7.8,0,0,1,.236,1.926A8.089,8.089,0,0,1,262.813,310.085Z" transform="translate(-254.738 -293.925)" fill="#fff"/>
      </g>
      <g id="Group_7789" data-name="Group 7789" transform="translate(3.477)">
        <path id="Path_4037" data-name="Path 4037" d="M262.939,303.574a.625.625,0,0,1-.445-.185l-3.271-3.27.891-.891,2.825,2.825,13.078-13.078.891.89-13.524,13.523A.625.625,0,0,1,262.939,303.574Z" transform="translate(-259.223 -288.976)" fill="#fff"/>
      </g>
    </g>
    <g id="Group_7794" data-name="Group 7794" transform="translate(374.676 146.529)">
      <path id="Path_4038" data-name="Path 4038" d="M498.908,191.342l-25.065-10.214-3.424,14.056,20.487,7.8Z" transform="translate(-463.443 -171.317)" fill="#020e51"/>
      <circle id="Ellipse_92" data-name="Ellipse 92" cx="3.302" cy="3.302" r="3.302" transform="matrix(0.231, -0.973, 0.973, 0.231, 16.09, 42.734)" fill="#484c9b"/>
      <path id="Path_4039" data-name="Path 4039" d="M463.593,211.031a3.3,3.3,0,1,0,2.817-3.723A3.3,3.3,0,0,0,463.593,211.031Z" transform="translate(-461.901 -177.195)" fill="#484c9b"/>
      <g id="Group_7793" data-name="Group 7793">
        <g id="Group_7792" data-name="Group 7792">
          <g id="Group_7791" data-name="Group 7791">
            <path id="Path_4040" data-name="Path 4040" d="M487.043,205.839l1.024-2.519-23.346-9.495,6.449-21.89-4.65-3.464L464.9,170.65l3.133,2.335-6.608,22.432Z" transform="translate(-461.42 -168.471)" fill="#484c9b"/>
          </g>
        </g>
      </g>
    </g>
    <g id="Group_7796" data-name="Group 7796" transform="translate(143.74 100.75)">
      <path id="Path_4041" data-name="Path 4041" d="M172.7,129.064l-8.188,14.151,17.557,8.705,6.648-14.567Z" transform="translate(-163.739 -113.833)" fill="#464749" opacity="0.14" style="mix-blend-mode: multiply;isolation: isolate"/>
      <path id="Path_4042" data-name="Path 4042" d="M174.281,122.636l19.828,9.8-2.467,6.1-21.222-10.5Z" transform="translate(-165.066 -112.388)" fill="#464749" opacity="0.14" style="mix-blend-mode: multiply;isolation: isolate"/>
      <g id="Group_7795" data-name="Group 7795" transform="translate(12.805)">
        <path id="Path_4043" data-name="Path 4043" d="M183.216,122.325c-2.919-5.042-3.837-8.771-2.728-11.085a3.357,3.357,0,0,1,1.564-1.636,3.735,3.735,0,0,1,3.253.593,5.981,5.981,0,0,1,2.716,3.058,8.268,8.268,0,0,1-.013,5,12.239,12.239,0,0,1,5.469-3.625,5.564,5.564,0,0,1,4.36.636l.067.041.055.057a2.887,2.887,0,0,1,.609,2.75c-.742,2.422-4.618,4.4-11.52,5.874l-.249-1.165c8.455-1.807,10.289-3.945,10.63-5.059a1.694,1.694,0,0,0-.287-1.524,4.342,4.342,0,0,0-3.373-.454c-3.574.9-6.785,5.467-7.682,6.843-.146.24-.243.385-.266.419l-1.005-.638c.022-.036.109-.181.256-.409.75-1.25,2.951-5.315,1.832-8.339a4.45,4.45,0,0,0-1.467-1.961,5.651,5.651,0,0,0-2.21-1.143c-.756-.121-1.387.6-1.676,1.22-.625,1.336-.664,4.146,2.7,9.947Z" transform="translate(-180.032 -109.416)" fill="#f7ab24"/>
      </g>
      <path id="Path_4044" data-name="Path 4044" d="M171.7,126.446,163.513,140.6,181.07,149.3l6.648-14.567Z" transform="translate(-163.513 -113.244)" fill="#020e51"/>
      <path id="Path_4045" data-name="Path 4045" d="M171.107,130.237l16.488,8.32,2.042-5.073-15.591-7.872Z" transform="translate(-165.22 -113.057)" fill="#02092c"/>
      <path id="Path_4046" data-name="Path 4046" d="M173.28,120.017l19.828,9.8-2.467,6.1-21.222-10.5Z" transform="translate(-164.841 -111.799)" fill="#020e51"/>
      <rect id="Rectangle_1628" data-name="Rectangle 1628" width="21.643" height="3.102" transform="translate(7.724 31.06) rotate(-63.838)" fill="#f7ab24"/>
      <path id="Path_4047" data-name="Path 4047" d="M181.235,132.99l2.78,1.376-1.19,2.428-2.77-1.4Z" transform="translate(-167.232 -114.715)" fill="#ec9224"/>
    </g>
    <g id="Group_7811" data-name="Group 7811" transform="translate(104.609 176.525)">
      <g id="Group_7798" data-name="Group 7798" opacity="0.14" style="mix-blend-mode: multiply;isolation: isolate">
        <g id="Group_7797" data-name="Group 7797">
          <rect id="Rectangle_1629" data-name="Rectangle 1629" width="30.638" height="19.23" rx="1.797" transform="translate(0 13.514) rotate(-26.173)" fill="#464749"/>
        </g>
      </g>
      <g id="Group_7800" data-name="Group 7800" transform="translate(2.428 1.15)">
        <g id="Group_7799" data-name="Group 7799">
          <rect id="Rectangle_1630" data-name="Rectangle 1630" width="30.638" height="19.23" rx="1.797" transform="matrix(0.897, -0.441, 0.441, 0.897, 0, 13.514)" fill="#484c9b"/>
        </g>
      </g>
      <g id="Group_7802" data-name="Group 7802" transform="translate(5.965 8.345)">
        <g id="Group_7801" data-name="Group 7801">
          <rect id="Rectangle_1631" data-name="Rectangle 1631" width="30.638" height="1.418" transform="translate(0 13.514) rotate(-26.173)" fill="#fff"/>
        </g>
      </g>
      <g id="Group_7806" data-name="Group 7806" transform="translate(28.181 13.429)">
        <g id="Group_7803" data-name="Group 7803" transform="translate(0 1.135)">
          <path id="Path_4048" data-name="Path 4048" d="M151.9,227.86a2.1,2.1,0,0,1,.01-1.864,2.112,2.112,0,1,0,1.472,3A2.1,2.1,0,0,1,151.9,227.86Z" transform="translate(-149.389 -225.952)" fill="#f7ab24"/>
        </g>
        <g id="Group_7804" data-name="Group 7804" transform="translate(2.524)">
          <path id="Path_4049" data-name="Path 4049" d="M153.6,224.705a2.089,2.089,0,0,0-.953.961,2.091,2.091,0,0,1,1.472,3,2.108,2.108,0,1,0-.519-3.957Z" transform="translate(-152.645 -224.488)" fill="#f7ab24"/>
        </g>
        <g id="Group_7805" data-name="Group 7805" transform="translate(2.3 1.178)">
          <path id="Path_4050" data-name="Path 4050" d="M154.062,227.139a2.1,2.1,0,0,0-1.482-1.131,2.091,2.091,0,0,0,1.472,3A2.1,2.1,0,0,0,154.062,227.139Z" transform="translate(-152.357 -226.008)" fill="#ee8525"/>
        </g>
      </g>
      <g id="Group_7810" data-name="Group 7810" transform="translate(10.898 19.77)">
        <g id="Group_7807" data-name="Group 7807" transform="translate(0 5.369)">
          <rect id="Rectangle_1632" data-name="Rectangle 1632" width="1.065" height="1.065" transform="translate(0 0.47) rotate(-26.173)" fill="#fff"/>
        </g>
        <g id="Group_7808" data-name="Group 7808" transform="translate(2.949 1.45)">
          <path id="Path_4051" data-name="Path 4051" d="M137.348,235.493l-1.993.98-.47-.956,1.993-.979Zm-3.987,1.96-1.994.98-.47-.956,1.994-.979Z" transform="translate(-130.898 -234.538)" fill="#fff"/>
        </g>
        <g id="Group_7809" data-name="Group 7809" transform="translate(10.924)">
          <rect id="Rectangle_1633" data-name="Rectangle 1633" width="1.065" height="1.065" transform="translate(0 0.47) rotate(-26.173)" fill="#fff"/>
        </g>
      </g>
    </g>
    <g id="Group_7815" data-name="Group 7815" transform="translate(313.997 78.077)">
      <path id="Path_4052" data-name="Path 4052" d="M400.933,104.025l17.434,23.868a2.927,2.927,0,0,0,3.947.736l17-10.933a2.927,2.927,0,0,0,.833-4.116L423.24,88.88a2.929,2.929,0,0,0-2.271-1.271L406.3,86.881a2.928,2.928,0,0,0-3,2.271l-2.86,12.494A2.929,2.929,0,0,0,400.933,104.025Z" transform="translate(-387.017 -81.676)" fill="#464749" opacity="0.14" style="mix-blend-mode: multiply;isolation: isolate"/>
      <g id="Group_7813" data-name="Group 7813" transform="translate(17.068 5.198)">
        <path id="Path_4053" data-name="Path 4053" d="M444.945,113.577,428.034,88.882a2.917,2.917,0,0,0-2.272-1.274l-14.669-.731a2.928,2.928,0,0,0-2.933,2.054,7.891,7.891,0,0,1,3.685,2.42,2.1,2.1,0,0,1,.741-.484,2.3,2.3,0,1,1-1.274,2.993,2.157,2.157,0,0,1-.158-1.018,6.611,6.611,0,0,0-.869-.988,6.43,6.43,0,0,0-2.47-1.481l-2.578,11.271a2.919,2.919,0,0,0,.494,2.381l17.435,23.865a2.915,2.915,0,0,0,3.941.741l17-10.935A2.93,2.93,0,0,0,444.945,113.577Z" transform="translate(-405.163 -86.873)" fill="#020e51"/>
        <g id="Group_7812" data-name="Group 7812" transform="translate(8.929 12.058)">
          <path id="Path_4054" data-name="Path 4054" d="M430.958,103.867l-3.528,18.077a1.107,1.107,0,0,1-.578.928,1.022,1.022,0,0,1-.606.045.6.6,0,0,1-.467-.359,1.039,1.039,0,0,1,0-.629l3.536-18.216a4.249,4.249,0,0,1,.192-.767.792.792,0,0,1,.462-.426.9.9,0,0,1,.633-.06.662.662,0,0,1,.421.393A2.224,2.224,0,0,1,430.958,103.867Zm-6.511,5.927a4.386,4.386,0,0,1,.31,3.367,3.874,3.874,0,0,1-2.219,2.1,4.449,4.449,0,0,1-2.029.388,3.144,3.144,0,0,1-1.832-.733,4.954,4.954,0,0,1-1.378-1.933,6.738,6.738,0,0,1-.616-2.409,2.908,2.908,0,0,1,.56-1.869,4.333,4.333,0,0,1,1.833-1.344,4.92,4.92,0,0,1,1.677-.429,3.129,3.129,0,0,1,1.477.271,3.577,3.577,0,0,1,1.24.95A6.4,6.4,0,0,1,424.447,109.795Zm-2.188.821a4.956,4.956,0,0,0-1.175-1.842,1.272,1.272,0,0,0-1.4-.128,1.361,1.361,0,0,0-.748.674,1.706,1.706,0,0,0-.071,1.066,8.17,8.17,0,0,0,.513,1.522,8.45,8.45,0,0,0,.771,1.455,1.732,1.732,0,0,0,.82.687,1.36,1.36,0,0,0,1.011-.084,1.252,1.252,0,0,0,.87-1.151A5.669,5.669,0,0,0,422.259,110.615Zm17.168,1.63a4.38,4.38,0,0,1,.309,3.367,3.863,3.863,0,0,1-2.219,2.1,4.417,4.417,0,0,1-2.042.388,3.223,3.223,0,0,1-1.835-.725,4.843,4.843,0,0,1-1.383-1.93,5.066,5.066,0,0,1-.461-3.418,3.635,3.635,0,0,1,2.268-2.195,4.882,4.882,0,0,1,1.673-.424,3.275,3.275,0,0,1,1.469.253,3.36,3.36,0,0,1,1.241.939A6.477,6.477,0,0,1,439.426,112.246Zm-2.189.821a4.845,4.845,0,0,0-1.166-1.819,1.27,1.27,0,0,0-1.4-.131,1.411,1.411,0,0,0-.769.677,1.776,1.776,0,0,0-.082,1.053,7.3,7.3,0,0,0,.5,1.528,5.164,5.164,0,0,0,1.205,1.9,1.283,1.283,0,0,0,1.429.147,1.248,1.248,0,0,0,.86-1.154A5.569,5.569,0,0,0,437.237,113.067Z" transform="translate(-416.681 -102.427)" fill="#fff"/>
        </g>
      </g>
      <g id="Group_7814" data-name="Group 7814" transform="translate(0 0)">
        <path id="Path_4055" data-name="Path 4055" d="M407.632,90.63a.74.74,0,0,1-.633-.354h0a6.76,6.76,0,0,0-3.857-2.761,7.336,7.336,0,0,0-5.61,1.344,9.741,9.741,0,0,1-9.872.312,8.958,8.958,0,0,1-4.513-8.271.741.741,0,0,1,.74-.732h.009a.742.742,0,0,1,.732.75,7.425,7.425,0,0,0,3.75,6.957,8.355,8.355,0,0,0,8.354-.263,8.725,8.725,0,0,1,6.76-1.537,8.17,8.17,0,0,1,4.774,3.431.74.74,0,0,1-.25,1.017A.732.732,0,0,1,407.632,90.63Z" transform="translate(-383.145 -80.168)" fill="#020e51"/>
      </g>
    </g>
    <path id="Path_4070" data-name="Path 4070" d="M5.223,0H28.4a5.223,5.223,0,0,1,5.223,5.223V20.282A5.223,5.223,0,0,1,28.4,25.506H5.223A5.223,5.223,0,0,1,0,20.282V5.223A5.223,5.223,0,0,1,5.223,0Z" transform="translate(75.554 215.976)" fill="#92a0f0"/>
    <path id="Path_4056" data-name="Path 4056" d="M110.439,290.62v4.345l-8.361-5.515Z" transform="translate(-5.963 -49.139)" fill="#92a0f0"/>
    <path id="Path_4057" data-name="Path 4057" d="M101.8,265.892a5.405,5.405,0,0,0-7.078-.495,5.406,5.406,0,0,0-7.6,7.533,5.8,5.8,0,0,0,.522.607l6.24,6.24a1.186,1.186,0,0,0,1.677,0l6.24-6.24a5.859,5.859,0,0,0,.528-.607A5.409,5.409,0,0,0,101.8,265.892Z" transform="translate(-2.363 -43.486)" fill="#fff"/>
    <path id="Path_4058" data-name="Path 4058" d="M112.2,203.8a1.819,1.819,0,1,1-1.819-1.819A1.82,1.82,0,0,1,112.2,203.8Z" transform="translate(-7.419 -29.474)" fill="#fdc66f"/>
    <path id="Path_4059" data-name="Path 4059" d="M147.518,252.929a1.195,1.195,0,1,1-1.2-1.195A1.195,1.195,0,0,1,147.518,252.929Z" transform="translate(-15.64 -40.66)" fill="#fdc66f"/>
    <circle id="Ellipse_93" data-name="Ellipse 93" cx="2.03" cy="2.03" r="2.03" transform="translate(122.998 122.832)" fill="#fdc66f"/>
    <path id="Path_4060" data-name="Path 4060" d="M503.739,260.415a1.522,1.522,0,1,1-1.522-1.522A1.523,1.523,0,0,1,503.739,260.415Z" transform="translate(-95.573 -42.269)" fill="#fdc66f"/>
    <circle id="Ellipse_94" data-name="Ellipse 94" cx="1.628" cy="1.628" r="1.628" transform="translate(364.589 170.844)" fill="#fdc66f"/>
    <path id="Path_4061" data-name="Path 4061" d="M506.466,162.544a2.6,2.6,0,1,1-2.6-2.6A2.6,2.6,0,0,1,506.466,162.544Z" transform="translate(-95.703 -20.026)" fill="#fdc66f"/>
    <circle id="Ellipse_95" data-name="Ellipse 95" cx="2.13" cy="2.13" r="2.13" transform="translate(358.385 131.591)" fill="#fdc66f"/>
    <path id="Path_4062" data-name="Path 4062" d="M459.118,93.142a1.8,1.8,0,1,1-1.8-1.8A1.8,1.8,0,0,1,459.118,93.142Z" transform="translate(-85.418 -4.604)" fill="#fdc66f"/>
    <path id="Path_4063" data-name="Path 4063" d="M199.022,80.4a1.646,1.646,0,1,1-1.646-1.646A1.645,1.645,0,0,1,199.022,80.4Z" transform="translate(-27.016 -1.773)" fill="#fdc66f"/>
    <circle id="Ellipse_96" data-name="Ellipse 96" cx="2.195" cy="2.195" r="2.195" transform="translate(255.02 82.351)" fill="#fdc66f"/>
    <circle id="Ellipse_97" data-name="Ellipse 97" cx="1.799" cy="1.799" r="1.799" transform="translate(289.353 84.941)" fill="#fdc66f"/>
    <path id="Path_4064" data-name="Path 4064" d="M166.163,185.457a2.321,2.321,0,1,1-2.321-2.321A2.321,2.321,0,0,1,166.163,185.457Z" transform="translate(-19.326 -25.239)" fill="#f3969f"/>
    <circle id="Ellipse_98" data-name="Ellipse 98" cx="1.458" cy="1.458" r="1.458" transform="translate(95.501 204.537)" fill="#f3969f"/>
    <path id="Path_4065" data-name="Path 4065" d="M135.28,158.167a1.314,1.314,0,1,1-1.315-1.314A1.314,1.314,0,0,1,135.28,158.167Z" transform="translate(-12.835 -19.33)" fill="#f3969f"/>
    <path id="Path_4066" data-name="Path 4066" d="M223.878,97.307a1.992,1.992,0,1,1-1.992-1.992A1.992,1.992,0,0,1,223.878,97.307Z" transform="translate(-32.448 -5.496)" fill="#f3969f"/>
    <circle id="Ellipse_99" data-name="Ellipse 99" cx="1.401" cy="1.401" r="1.401" transform="translate(236.54 72.791)" fill="#f3969f"/>
    <path id="Path_4067" data-name="Path 4067" d="M363.521,79.819a1.2,1.2,0,1,1-1.2-1.2A1.2,1.2,0,0,1,363.521,79.819Z" transform="translate(-64.195 -1.743)" fill="#f3969f"/>
    <path id="Path_4068" data-name="Path 4068" d="M478.857,138.538a2.388,2.388,0,1,1-2.388-2.388A2.388,2.388,0,0,1,478.857,138.538Z" transform="translate(-89.59 -14.676)" fill="#f3969f"/>
    <path id="Path_4069" data-name="Path 4069" d="M479.344,243.925a1.548,1.548,0,1,1-1.548-1.548A1.548,1.548,0,0,1,479.344,243.925Z" transform="translate(-90.077 -38.556)" fill="#f3969f"/>
  </g>
</svg>
