<svg id="OUR_PROCESS" data-name="OUR PROCESS" xmlns="http://www.w3.org/2000/svg" width="1240.288" height="198.153" viewBox="0 0 1240.288 198.153">
  <path id="Path_3777" data-name="Path 3777" d="M878.513-1609.467a70.085,70.085,0,0,0-67.548,51.425l19.614,18.633-19.747,18.141a70.084,70.084,0,0,0,67.681,51.916,70.058,70.058,0,0,0,70.058-70.058A70.058,70.058,0,0,0,878.513-1609.467Z" transform="translate(-606.873 1638.486)" fill="#252525"/>
  <path id="Path_3778" data-name="Path 3778" d="M1584.036-1609.467a70.087,70.087,0,0,0-67.448,51.053l20,19-20.141,18.5a70.084,70.084,0,0,0,67.583,51.555,70.057,70.057,0,0,0,70.057-70.058A70.058,70.058,0,0,0,1584.036-1609.467Z" transform="translate(-1139.341 1638.486)" fill="#252525"/>
  <path id="Path_3874" data-name="Path 3874" d="M1584.036-1609.467a70.087,70.087,0,0,0-67.448,51.053l20,19-20.141,18.5a70.084,70.084,0,0,0,67.583,51.555,70.057,70.057,0,0,0,70.057-70.058A70.058,70.058,0,0,0,1584.036-1609.467Z" transform="translate(-794.389 1638.486)" fill="#252525"/>
  <path id="Path_3779" data-name="Path 3779" d="M2287.36-1609.467a70.085,70.085,0,0,0-67.749,52.168l18.832,17.89-18.958,17.416a70.086,70.086,0,0,0,67.875,52.642,70.057,70.057,0,0,0,70.058-70.058A70.057,70.057,0,0,0,2287.36-1609.467Z" transform="translate(-1669.856 1638.486)" fill="#252525"/>
  <path id="Path_3872" data-name="Path 3872" d="M2287.36-1609.467a70.085,70.085,0,0,0-67.749,52.168l18.832,17.89-18.958,17.416a70.086,70.086,0,0,0,67.875,52.642,70.057,70.057,0,0,0,70.058-70.058A70.057,70.057,0,0,0,2287.36-1609.467Z" transform="translate(-1324.904 1638.486)" fill="#252525"/>
  <path id="Path_3875" data-name="Path 3875" d="M2287.36-1609.467a70.085,70.085,0,0,0-67.749,52.168l18.832,17.89-18.958,17.416a70.086,70.086,0,0,0,67.875,52.642,70.057,70.057,0,0,0,70.058-70.058A70.057,70.057,0,0,0,2287.36-1609.467Z" transform="translate(-1152.986 1638.486)" fill="#252525"/>
  <path id="Path_5452" data-name="Path 5452" d="M70.058,0A70.058,70.058,0,1,1,0,70.058,70.058,70.058,0,0,1,70.058,0Z" transform="translate(0 99.077) rotate(-45)" fill="#252525"/>
  <path id="Path_3781" data-name="Path 3781" d="M780.334-1325.8" transform="translate(-583.859 1424.43)" fill="none" stroke="#01355d" stroke-miterlimit="10" stroke-width="12"/>
  <path id="Path_3782" data-name="Path 3782" d="M1508.1-1325.389" transform="translate(-1133.036 1424.118)" fill="none" stroke="#01355d" stroke-miterlimit="10" stroke-width="12"/>
  <path id="Path_3783" data-name="Path 3783" d="M2927.7-1325.389" transform="translate(-2204.282 1424.118)" fill="none" stroke="#01355d" stroke-miterlimit="10" stroke-width="12"/>
  <path id="Path_3870" data-name="Path 3870" d="M2927.7-1325.389" transform="translate(-1859.33 1424.118)" fill="none" stroke="#01355d" stroke-miterlimit="10" stroke-width="12"/>
  <path id="Path_3876" data-name="Path 3876" d="M2927.7-1325.389" transform="translate(-1687.413 1424.118)" fill="none" stroke="#01355d" stroke-miterlimit="10" stroke-width="12"/>
  <path id="Path_3800" data-name="Path 3800" d="M2212.822-1324.974" transform="translate(-1664.828 1423.805)" fill="none" stroke="#01355d" stroke-miterlimit="10" stroke-width="12"/>
  <path id="Path_3873" data-name="Path 3873" d="M2212.822-1324.974" transform="translate(-1319.876 1423.805)" fill="none" stroke="#01355d" stroke-miterlimit="10" stroke-width="12"/>
  <path id="Path_3801" data-name="Path 3801" d="M2923.556-1324.56" transform="translate(-2201.154 1423.493)" fill="none" stroke="#01355d" stroke-miterlimit="10" stroke-width="12"/>
  <path id="Path_3871" data-name="Path 3871" d="M2923.556-1324.56" transform="translate(-1856.202 1423.493)" fill="none" stroke="#01355d" stroke-miterlimit="10" stroke-width="12"/>
  <path id="Path_3877" data-name="Path 3877" d="M2923.556-1324.56" transform="translate(-1684.285 1423.493)" fill="none" stroke="#01355d" stroke-miterlimit="10" stroke-width="12"/>
  <g id="Group_7708" data-name="Group 7708" transform="translate(17.588 17.246)">
    <path id="Path_3802" data-name="Path 3802" d="M701.645-1294.094a.984.984,0,0,0-1.083.872c-.13,1.2-.29,2.418-.475,3.611a.983.983,0,0,0,.821,1.122.98.98,0,0,0,.152.012.984.984,0,0,0,.971-.833c.19-1.223.354-2.468.487-3.7A.983.983,0,0,0,701.645-1294.094Z" transform="translate(-540.883 1383.261)" fill="#0089ff"/>
    <path id="Path_3803" data-name="Path 3803" d="M308.7-1013.082c-2.384-.366-4.778-.848-7.115-1.433a.984.984,0,0,0-1.192.715.983.983,0,0,0,.715,1.193c2.4.6,4.85,1.093,7.293,1.469a.988.988,0,0,0,.151.012.984.984,0,0,0,.971-.834A.983.983,0,0,0,308.7-1013.082Z" transform="translate(-239.258 1172.306)" fill="#0089ff"/>
    <path id="Path_3804" data-name="Path 3804" d="M252.034-1031.586c-2.273-.8-4.536-1.716-6.728-2.724a.983.983,0,0,0-1.3.483.983.983,0,0,0,.482,1.3c2.247,1.034,4.568,1.973,6.9,2.793a.986.986,0,0,0,.326.056.984.984,0,0,0,.928-.658A.983.983,0,0,0,252.034-1031.586Z" transform="translate(-196.658 1187.289)" fill="#0089ff"/>
    <path id="Path_3805" data-name="Path 3805" d="M367.8-1005.347c-2.4.073-4.859.037-7.258-.108a.979.979,0,0,0-1.041.922.983.983,0,0,0,.922,1.041c1.634.1,3.3.149,4.941.149.831,0,1.671-.013,2.5-.038a.983.983,0,0,0,.953-1.013A.993.993,0,0,0,367.8-1005.347Z" transform="translate(-283.881 1165.448)" fill="#0089ff"/>
    <path id="Path_3806" data-name="Path 3806" d="M199.755-1060.23c-2.087-1.205-4.143-2.523-6.112-3.917a.983.983,0,0,0-1.371.234.983.983,0,0,0,.235,1.371c2.018,1.429,4.126,2.78,6.265,4.015a.977.977,0,0,0,.491.132.983.983,0,0,0,.852-.492A.983.983,0,0,0,199.755-1060.23Z" transform="translate(-157.554 1209.872)" fill="#0089ff"/>
    <path id="Path_3807" data-name="Path 3807" d="M82.513-1201.839a.983.983,0,0,0-1.29-.52.984.984,0,0,0-.52,1.29c.967,2.272,2.052,4.527,3.227,6.7a.983.983,0,0,0,.866.516.979.979,0,0,0,.466-.118.984.984,0,0,0,.4-1.333C84.516-1197.423,83.457-1199.623,82.513-1201.839Z" transform="translate(-73.441 1314.091)" fill="#0089ff"/>
    <path id="Path_3808" data-name="Path 3808" d="M148.317-1102.94a.983.983,0,0,0-1.39-.02.983.983,0,0,0-.02,1.39c1.722,1.772,3.547,3.485,5.424,5.092a.979.979,0,0,0,.639.236.982.982,0,0,0,.747-.344.983.983,0,0,0-.108-1.386C151.778-1099.54,150-1101.212,148.317-1102.94Z" transform="translate(-123.248 1239.235)" fill="#0089ff"/>
    <path id="Path_3809" data-name="Path 3809" d="M110.842-1149.35a.983.983,0,0,0-1.363-.274.983.983,0,0,0-.274,1.363c1.369,2.056,2.85,4.074,4.4,6a.981.981,0,0,0,.766.366.979.979,0,0,0,.617-.218.983.983,0,0,0,.147-1.383C113.623-1145.375,112.178-1147.344,110.842-1149.35Z" transform="translate(-94.883 1274.362)" fill="#0089ff"/>
    <path id="Path_3810" data-name="Path 3810" d="M64.359-1258.651a.984.984,0,0,0-1.172-.75.984.984,0,0,0-.749,1.172c.531,2.414,1.181,4.83,1.932,7.183a.984.984,0,0,0,.936.684.99.99,0,0,0,.3-.047.984.984,0,0,0,.638-1.236C65.51-1253.939,64.876-1256.3,64.359-1258.651Z" transform="translate(-59.699 1357.094)" fill="#0089ff"/>
    <path id="Path_3811" data-name="Path 3811" d="M631.768-1141.458a.982.982,0,0,0-1.371.232c-1.4,1.965-2.9,3.889-4.472,5.718a.983.983,0,0,0,.1,1.386.979.979,0,0,0,.64.238.981.981,0,0,0,.746-.343c1.61-1.875,3.153-3.846,4.584-5.861A.983.983,0,0,0,631.768-1141.458Z" transform="translate(-484.749 1268.213)" fill="#0089ff"/>
    <path id="Path_3812" data-name="Path 3812" d="M665.13-1193.323a.983.983,0,0,0-1.305.48c-1.011,2.188-2.137,4.355-3.347,6.442a.983.983,0,0,0,.357,1.344.978.978,0,0,0,.492.133.983.983,0,0,0,.852-.49c1.241-2.139,2.395-4.361,3.432-6.6A.983.983,0,0,0,665.13-1193.323Z" transform="translate(-510.902 1307.282)" fill="#0089ff"/>
    <path id="Path_3813" data-name="Path 3813" d="M688.8-1249.81a.984.984,0,0,0-1.194.714c-.589,2.338-1.3,4.676-2.1,6.95a.984.984,0,0,0,.6,1.255.991.991,0,0,0,.328.056.983.983,0,0,0,.927-.655c.824-2.331,1.549-4.728,2.153-7.125A.983.983,0,0,0,688.8-1249.81Z" transform="translate(-529.844 1349.862)" fill="#0089ff"/>
    <path id="Path_3814" data-name="Path 3814" d="M427.315-1012.277c-2.354.513-4.761.922-7.155,1.215a.984.984,0,0,0-.856,1.1.984.984,0,0,0,.975.864,1.064,1.064,0,0,0,.121-.007c2.455-.3,4.922-.72,7.335-1.246a.984.984,0,0,0,.751-1.17A.984.984,0,0,0,427.315-1012.277Z" transform="translate(-329.005 1170.611)" fill="#0089ff"/>
    <path id="Path_3815" data-name="Path 3815" d="M588.51-1095.966c-1.732,1.678-3.563,3.295-5.441,4.805a.983.983,0,0,0-.15,1.383.981.981,0,0,0,.767.367.979.979,0,0,0,.616-.217c1.924-1.548,3.8-3.205,5.576-4.925a.983.983,0,0,0,.022-1.391A.983.983,0,0,0,588.51-1095.966Z" transform="translate(-452.313 1233.956)" fill="#0089ff"/>
    <path id="Path_3816" data-name="Path 3816" d="M485.247-1030.336c-2.219.94-4.51,1.787-6.808,2.517a.983.983,0,0,0-.639,1.235.984.984,0,0,0,.937.686.988.988,0,0,0,.3-.046c2.356-.749,4.7-1.616,6.979-2.58a.983.983,0,0,0,.522-1.289A.983.983,0,0,0,485.247-1030.336Z" transform="translate(-373.118 1184.281)" fill="#0089ff"/>
    <path id="Path_3817" data-name="Path 3817" d="M539.588-1058.572c-2.01,1.333-4.1,2.587-6.226,3.728a.984.984,0,0,0-.4,1.332.983.983,0,0,0,.867.518.981.981,0,0,0,.465-.118c2.175-1.169,4.322-2.455,6.382-3.821a.983.983,0,0,0,.276-1.363A.984.984,0,0,0,539.588-1058.572Z" transform="translate(-414.689 1205.653)" fill="#0089ff"/>
    <path id="Path_3818" data-name="Path 3818" d="M58.148-1299.6c-.148-1.2-.27-2.417-.363-3.624a.984.984,0,0,0-1.056-.9.984.984,0,0,0-.9,1.056c.1,1.237.221,2.487.372,3.714a.984.984,0,0,0,.975.863,1.058,1.058,0,0,0,.122-.007A.984.984,0,0,0,58.148-1299.6Z" transform="translate(-54.723 1390.832)" fill="#0089ff"/>
    <path id="Path_3819" data-name="Path 3819" d="M238.045-1575.734,219.608-1593.8v16h-5.316a80.917,80.917,0,0,0-23.845-55.773,80.949,80.949,0,0,0-57.617-23.866,80.948,80.948,0,0,0-57.617,23.866,80.949,80.949,0,0,0-23.866,57.617,1.844,1.844,0,0,0,1.844,1.844,1.844,1.844,0,0,0,1.844-1.844,77.884,77.884,0,0,1,77.8-77.8,77.884,77.884,0,0,1,77.8,77.8,1.844,1.844,0,0,0,1.844,1.844h7.14v16.449Z" transform="translate(-51.347 1657.442)" fill="#0089ff"/>
  </g>
  <g id="Group_7709" data-name="Group 7709" transform="translate(192.834 18.13)">
    <path id="Path_3820" data-name="Path 3820" d="M1210.541-1627.176c2.231.931,4.445,1.977,6.581,3.111a.981.981,0,0,0,.46.115.983.983,0,0,0,.869-.523.983.983,0,0,0-.407-1.329c-2.19-1.163-4.46-2.236-6.747-3.189a.983.983,0,0,0-1.286.529A.983.983,0,0,0,1210.541-1627.176Z" transform="translate(-1100.874 1635.146)" fill="#0089ff"/>
    <path id="Path_3821" data-name="Path 3821" d="M1094.009-1651.875c2.423.058,4.866.229,7.261.507a.962.962,0,0,0,.115.006.983.983,0,0,0,.975-.869.984.984,0,0,0-.863-1.091c-2.455-.285-4.959-.46-7.441-.52a.984.984,0,0,0-1.006.959A.983.983,0,0,0,1094.009-1651.875Z" transform="translate(-1012.671 1653.842)" fill="#0089ff"/>
    <path id="Path_3822" data-name="Path 3822" d="M1263.385-1599.122c2.02,1.325,4,2.762,5.9,4.271a.98.98,0,0,0,.612.214.982.982,0,0,0,.77-.37.984.984,0,0,0-.156-1.382c-1.94-1.546-3.973-3.019-6.043-4.378a.984.984,0,0,0-1.361.283A.983.983,0,0,0,1263.385-1599.122Z" transform="translate(-1140.872 1613.912)" fill="#0089ff"/>
    <path id="Path_3823" data-name="Path 3823" d="M1153.424-1644.956c2.365.5,4.734,1.119,7.042,1.837a.988.988,0,0,0,.292.045.983.983,0,0,0,.939-.691.983.983,0,0,0-.646-1.231c-2.366-.737-4.8-1.37-7.22-1.883a.982.982,0,0,0-1.166.758A.983.983,0,0,0,1153.424-1644.956Z" transform="translate(-1057.641 1648.605)" fill="#0089ff"/>
    <path id="Path_3824" data-name="Path 3824" d="M1353.294-1510.491a.983.983,0,0,0,.85.487.979.979,0,0,0,.5-.135.983.983,0,0,0,.353-1.345c-1.25-2.138-2.616-4.244-4.059-6.26a.984.984,0,0,0-1.372-.227.983.983,0,0,0-.227,1.372C1350.743-1514.632,1352.075-1512.577,1353.294-1510.491Z" transform="translate(-1205.926 1551.45)" fill="#0089ff"/>
    <path id="Path_3825" data-name="Path 3825" d="M1315.184-1556.549a.98.98,0,0,0,.744.339.978.978,0,0,0,.643-.24.983.983,0,0,0,.1-1.387c-1.622-1.873-3.351-3.693-5.139-5.41a.983.983,0,0,0-1.39.028.983.983,0,0,0,.028,1.39C1311.915-1560.152,1313.6-1558.377,1315.184-1556.549Z" transform="translate(-1176.284 1585.684)" fill="#0089ff"/>
    <path id="Path_3826" data-name="Path 3826" d="M1401.109-1401.491a.984.984,0,0,0,.97.83,1,1,0,0,0,.155-.012.983.983,0,0,0,.818-1.125c-.387-2.45-.893-4.909-1.505-7.308a.983.983,0,0,0-1.2-.71.983.983,0,0,0-.71,1.2C1400.237-1406.279,1400.731-1403.88,1401.109-1401.491Z" transform="translate(-1244.004 1469.72)" fill="#0089ff"/>
    <path id="Path_3827" data-name="Path 3827" d="M1382.287-1458.22a.983.983,0,0,0,.926.653.978.978,0,0,0,.331-.058.983.983,0,0,0,.6-1.256c-.833-2.332-1.786-4.654-2.834-6.9a.984.984,0,0,0-1.307-.476.983.983,0,0,0-.476,1.306C1380.544-1462.76,1381.475-1460.494,1382.287-1458.22Z" transform="translate(-1228.776 1512.36)" fill="#0089ff"/>
    <path id="Path_3828" data-name="Path 3828" d="M1034.16-1650.395a1,1,0,0,0,.157-.013c2.382-.383,4.815-.66,7.233-.822a.983.983,0,0,0,.915-1.047.985.985,0,0,0-1.047-.915c-2.478.166-4.973.45-7.413.843a.983.983,0,0,0-.815,1.127A.984.984,0,0,0,1034.16-1650.395Z" transform="translate(-967.491 1653.353)" fill="#0089ff"/>
    <path id="Path_3829" data-name="Path 3829" d="M873.082-1586.359a.981.981,0,0,0,.645-.242c1.823-1.588,3.742-3.109,5.7-4.523a.983.983,0,0,0,.223-1.372.983.983,0,0,0-1.373-.223c-2.01,1.448-3.977,3.007-5.846,4.635a.983.983,0,0,0-.1,1.387A.98.98,0,0,0,873.082-1586.359Z" transform="translate(-845.939 1607.858)" fill="#0089ff"/>
    <path id="Path_3830" data-name="Path 3830" d="M775.62-1444.51a.982.982,0,0,0,.29.044.984.984,0,0,0,.939-.694c.712-2.311,1.542-4.616,2.466-6.851a.983.983,0,0,0-.533-1.284.983.983,0,0,0-1.284.532c-.948,2.292-1.8,4.655-2.529,7.024A.983.983,0,0,0,775.62-1444.51Z" transform="translate(-772.612 1502.565)" fill="#0089ff"/>
    <path id="Path_3831" data-name="Path 3831" d="M831.026-1546.186a.979.979,0,0,0,.61.213.982.982,0,0,0,.771-.372c1.5-1.895,3.11-3.742,4.78-5.491a.983.983,0,0,0-.032-1.39.984.984,0,0,0-1.39.032c-1.712,1.793-3.361,3.686-4.9,5.628A.984.984,0,0,0,831.026-1546.186Z" transform="translate(-814.664 1578.122)" fill="#0089ff"/>
    <path id="Path_3832" data-name="Path 3832" d="M976.06-1639.521a.983.983,0,0,0,.333-.058c2.275-.82,4.615-1.542,6.956-2.146a.983.983,0,0,0,.706-1.2.983.983,0,0,0-1.2-.706c-2.4.619-4.8,1.359-7.131,2.2a.983.983,0,0,0-.592,1.258A.984.984,0,0,0,976.06-1639.521Z" transform="translate(-923.647 1646.159)" fill="#0089ff"/>
    <path id="Path_3833" data-name="Path 3833" d="M798.392-1498.259a.979.979,0,0,0,.458.114.983.983,0,0,0,.87-.525c1.127-2.137,2.369-4.249,3.691-6.276a.983.983,0,0,0-.287-1.361.983.983,0,0,0-1.361.286c-1.355,2.078-2.628,4.242-3.783,6.433A.983.983,0,0,0,798.392-1498.259Z" transform="translate(-789.923 1542.631)" fill="#0089ff"/>
    <path id="Path_3834" data-name="Path 3834" d="M921.766-1617.92a.978.978,0,0,0,.5-.136c2.085-1.226,4.25-2.368,6.436-3.4a.983.983,0,0,0,.472-1.308.983.983,0,0,0-1.308-.472c-2.241,1.052-4.461,2.224-6.6,3.481a.983.983,0,0,0-.349,1.346A.982.982,0,0,0,921.766-1617.92Z" transform="translate(-882.676 1630.814)" fill="#0089ff"/>
    <path id="Path_3835" data-name="Path 3835" d="M924.282-1380.309a1.84,1.84,0,0,0-2.031,1.634,78.4,78.4,0,0,1-2.372,12.44,1.853,1.853,0,0,0-.14.351,78.1,78.1,0,0,1-74.828,56.44,77.419,77.419,0,0,1-75.537-59.113l17.751-17.47a1.844,1.844,0,0,0,.55-1.314,1.845,1.845,0,0,0-.55-1.314l-18.452-18.168a1.843,1.843,0,0,0-2.607.021,1.844,1.844,0,0,0,.02,2.607l17.117,16.853-17.158,16.886a1.843,1.843,0,0,0-.5,1.731,81.821,81.821,0,0,0,28.34,45.014,81.172,81.172,0,0,0,23.508,13.188,81.221,81.221,0,0,0,26.9,4.758,1.837,1.837,0,0,0,.618.108,81.31,81.31,0,0,0,54.6-21,81.3,81.3,0,0,0,26.406-51.625A1.843,1.843,0,0,0,924.282-1380.309Z" transform="translate(-765.495 1467.838)" fill="#0089ff"/>
    <path id="Path_3836" data-name="Path 3836" d="M1435.018-1380.033l-18.436-18.068v16.962h-5.547c-.014-1.165-.053-2.338-.118-3.512l-.069-.879a.981.981,0,0,0-1.058-.9.983.983,0,0,0-.9,1.058l.068.855c.079,1.445.119,2.913.119,4.364v.983h7.508v17.207Z" transform="translate(-1251.002 1460.857)" fill="#0089ff"/>
  </g>
  <g id="Group_7710" data-name="Group 7710" transform="translate(365.766 17.348)">
    <path id="Path_3837" data-name="Path 3837" d="M1761.622-1006c-2.423-.048-4.867-.209-7.264-.478a.981.981,0,0,0-1.087.867.983.983,0,0,0,.867,1.087c2.456.276,4.961.44,7.444.49h.02a.983.983,0,0,0,.983-.964A.983.983,0,0,0,1761.622-1006Z" transform="translate(-1683.808 1166.12)" fill="#0089ff"/>
    <path id="Path_3838" data-name="Path 3838" d="M1821.4-1008.777c-2.382.393-4.815.68-7.23.852a.984.984,0,0,0-.911,1.051.983.983,0,0,0,.98.913l.071,0c2.476-.177,4.969-.47,7.41-.873a.983.983,0,0,0,.81-1.13A.981.981,0,0,0,1821.4-1008.777Z" transform="translate(-1729.079 1167.862)" fill="#0089ff"/>
    <path id="Path_3839" data-name="Path 3839" d="M1596.2-1069.818c-2.025-1.318-4.014-2.747-5.913-4.248a.984.984,0,0,0-1.381.161.984.984,0,0,0,.161,1.381c1.946,1.539,3.985,3,6.06,4.354a.978.978,0,0,0,.535.159.981.981,0,0,0,.825-.447A.983.983,0,0,0,1596.2-1069.818Z" transform="translate(-1559.621 1217.28)" fill="#0089ff"/>
    <path id="Path_3840" data-name="Path 3840" d="M1647.039-1038.353c-2.234-.921-4.453-1.959-6.6-3.086a.984.984,0,0,0-1.328.413.983.983,0,0,0,.413,1.328c2.2,1.155,4.47,2.219,6.761,3.163a.979.979,0,0,0,.374.075.984.984,0,0,0,.909-.609A.984.984,0,0,0,1647.039-1038.353Z" transform="translate(-1597.585 1192.584)" fill="#0089ff"/>
    <path id="Path_3841" data-name="Path 3841" d="M1486.472-1217.937a.984.984,0,0,0-1.259-.59.984.984,0,0,0-.59,1.259c.843,2.329,1.805,4.647,2.861,6.888a.984.984,0,0,0,.89.565.98.98,0,0,0,.418-.094.983.983,0,0,0,.471-1.308C1488.233-1213.4,1487.294-1215.665,1486.472-1217.937Z" transform="translate(-1481.044 1326.176)" fill="#0089ff"/>
    <path id="Path_3842" data-name="Path 3842" d="M1511.95-1163.834a.984.984,0,0,0-1.347-.347.983.983,0,0,0-.347,1.346c1.259,2.134,2.632,4.234,4.083,6.243a.982.982,0,0,0,.8.408.979.979,0,0,0,.575-.186.984.984,0,0,0,.222-1.373C1514.519-1159.7,1513.178-1161.752,1511.95-1163.834Z" transform="translate(-1500.328 1285.224)" fill="#0089ff"/>
    <path id="Path_3843" data-name="Path 3843" d="M1546.967-1115.338a.983.983,0,0,0-1.387-.094.983.983,0,0,0-.094,1.387c1.628,1.865,3.364,3.679,5.159,5.39a.979.979,0,0,0,.678.272.979.979,0,0,0,.712-.305.983.983,0,0,0-.033-1.39C1550.25-1111.748,1548.556-1113.518,1546.967-1115.338Z" transform="translate(-1526.833 1248.518)" fill="#0089ff"/>
    <path id="Path_3844" data-name="Path 3844" d="M1702.823-1016.822c-2.368-.491-4.741-1.1-7.053-1.809a.984.984,0,0,0-1.229.652.984.984,0,0,0,.651,1.229c2.37.727,4.8,1.352,7.231,1.855a.991.991,0,0,0,.2.021.984.984,0,0,0,.962-.784A.983.983,0,0,0,1702.823-1016.822Z" transform="translate(-1639.462 1175.32)" fill="#0089ff"/>
    <path id="Path_3845" data-name="Path 3845" d="M2094.224-1234.411a.984.984,0,0,0-1.226.656c-.7,2.313-1.518,4.623-2.431,6.863a.983.983,0,0,0,.539,1.281.974.974,0,0,0,.371.073.984.984,0,0,0,.911-.612c.936-2.3,1.775-4.664,2.492-7.035A.983.983,0,0,0,2094.224-1234.411Z" transform="translate(-1938.284 1338.149)" fill="#0089ff"/>
    <path id="Path_3846" data-name="Path 3846" d="M2067.769-1178.763a.983.983,0,0,0-1.326.418c-.355.682-.726,1.368-1.1,2.042l-.887,1.444c-.549.932-1.127,1.868-1.717,2.781a.983.983,0,0,0,.292,1.36.98.98,0,0,0,.533.157.982.982,0,0,0,.827-.45c.6-.936,1.2-1.9,1.75-2.834l.889-1.445.021-.035c.389-.7.773-1.406,1.14-2.111A.983.983,0,0,0,2067.769-1178.763Z" transform="translate(-1917.219 1296.208)" fill="#0089ff"/>
    <path id="Path_3847" data-name="Path 3847" d="M2110.095-1293.265a.986.986,0,0,0-1.083.872c-.26,2.407-.636,4.828-1.117,7.195a.984.984,0,0,0,.768,1.16.985.985,0,0,0,.2.02.984.984,0,0,0,.963-.788c.493-2.426.878-4.908,1.145-7.375A.983.983,0,0,0,2110.095-1293.265Z" transform="translate(-1951.4 1382.533)" fill="#0089ff"/>
    <path id="Path_3848" data-name="Path 3848" d="M1880.141-1023.959c-2.268.828-4.6,1.559-6.942,2.173a.984.984,0,0,0-.7,1.2.984.984,0,0,0,.95.734.994.994,0,0,0,.25-.033c2.4-.629,4.792-1.379,7.117-2.227a.984.984,0,0,0,.587-1.261A.984.984,0,0,0,1880.141-1023.959Z" transform="translate(-1773.757 1179.353)" fill="#0089ff"/>
    <path id="Path_3849" data-name="Path 3849" d="M2031.9-1128.351a.983.983,0,0,0-1.381.165c-1.494,1.9-3.1,3.754-4.759,5.51a.984.984,0,0,0,.038,1.39.979.979,0,0,0,.676.269.98.98,0,0,0,.714-.307c1.705-1.8,3.346-3.7,4.877-5.648A.983.983,0,0,0,2031.9-1128.351Z" transform="translate(-1889.229 1258.242)" fill="#0089ff"/>
    <path id="Path_3850" data-name="Path 3850" d="M1935.786-1049.591c-2.079,1.234-4.24,2.386-6.423,3.421a.984.984,0,0,0-.467,1.31.984.984,0,0,0,.889.562.983.983,0,0,0,.421-.1c2.238-1.062,4.453-2.242,6.584-3.507a.983.983,0,0,0,.343-1.347A.983.983,0,0,0,1935.786-1049.591Z" transform="translate(-1816.269 1198.755)" fill="#0089ff"/>
    <path id="Path_3851" data-name="Path 3851" d="M1986.479-1084.749c-1.817,1.595-3.73,3.124-5.686,4.545a.984.984,0,0,0-.218,1.374.983.983,0,0,0,.8.405.978.978,0,0,0,.577-.188c2-1.457,3.966-3.024,5.827-4.659a.983.983,0,0,0,.09-1.387A.983.983,0,0,0,1986.479-1084.749Z" transform="translate(-1855.197 1225.365)" fill="#0089ff"/>
    <path id="Path_3852" data-name="Path 3852" d="M1654.6-1575.421l-18.436-18.068v16.2h-5.07a80.92,80.92,0,0,0-10.682-38.592,1.864,1.864,0,0,0-.139-.3,81.939,81.939,0,0,0-29.27-29.575,81.408,81.408,0,0,0-41.371-11.269,81.269,81.269,0,0,0-27.479,4.75,81.169,81.169,0,0,0-23.482,13.149,81.829,81.829,0,0,0-28.366,44.893,1.843,1.843,0,0,0,.5,1.734l17.118,16.854-17.158,16.886a1.844,1.844,0,0,0-.021,2.607,1.839,1.839,0,0,0,1.314.55,1.837,1.837,0,0,0,1.293-.53l18.493-18.2a1.843,1.843,0,0,0,.55-1.314,1.843,1.843,0,0,0-.55-1.314L1474.14-1594.4a77.442,77.442,0,0,1,74.911-58.938,1.842,1.842,0,0,0,.583.1,77.884,77.884,0,0,1,77.8,77.8,1.844,1.844,0,0,0,1.844,1.844h6.893v16.245Z" transform="translate(-1470.218 1657.027)" fill="#0089ff"/>
  </g>
  <g id="Group_7714" data-name="Group 7714" transform="translate(710.718 17.348)">
    <path id="Path_3837-2" data-name="Path 3837" d="M1761.622-1006c-2.423-.048-4.867-.209-7.264-.478a.981.981,0,0,0-1.087.867.983.983,0,0,0,.867,1.087c2.456.276,4.961.44,7.444.49h.02a.983.983,0,0,0,.983-.964A.983.983,0,0,0,1761.622-1006Z" transform="translate(-1683.808 1166.12)" fill="#0089ff"/>
    <path id="Path_3838-2" data-name="Path 3838" d="M1821.4-1008.777c-2.382.393-4.815.68-7.23.852a.984.984,0,0,0-.911,1.051.983.983,0,0,0,.98.913l.071,0c2.476-.177,4.969-.47,7.41-.873a.983.983,0,0,0,.81-1.13A.981.981,0,0,0,1821.4-1008.777Z" transform="translate(-1729.079 1167.862)" fill="#0089ff"/>
    <path id="Path_3839-2" data-name="Path 3839" d="M1596.2-1069.818c-2.025-1.318-4.014-2.747-5.913-4.248a.984.984,0,0,0-1.381.161.984.984,0,0,0,.161,1.381c1.946,1.539,3.985,3,6.06,4.354a.978.978,0,0,0,.535.159.981.981,0,0,0,.825-.447A.983.983,0,0,0,1596.2-1069.818Z" transform="translate(-1559.621 1217.28)" fill="#0089ff"/>
    <path id="Path_3840-2" data-name="Path 3840" d="M1647.039-1038.353c-2.234-.921-4.453-1.959-6.6-3.086a.984.984,0,0,0-1.328.413.983.983,0,0,0,.413,1.328c2.2,1.155,4.47,2.219,6.761,3.163a.979.979,0,0,0,.374.075.984.984,0,0,0,.909-.609A.984.984,0,0,0,1647.039-1038.353Z" transform="translate(-1597.585 1192.584)" fill="#0089ff"/>
    <path id="Path_3841-2" data-name="Path 3841" d="M1486.472-1217.937a.984.984,0,0,0-1.259-.59.984.984,0,0,0-.59,1.259c.843,2.329,1.805,4.647,2.861,6.888a.984.984,0,0,0,.89.565.98.98,0,0,0,.418-.094.983.983,0,0,0,.471-1.308C1488.233-1213.4,1487.294-1215.665,1486.472-1217.937Z" transform="translate(-1481.044 1326.176)" fill="#0089ff"/>
    <path id="Path_3842-2" data-name="Path 3842" d="M1511.95-1163.834a.984.984,0,0,0-1.347-.347.983.983,0,0,0-.347,1.346c1.259,2.134,2.632,4.234,4.083,6.243a.982.982,0,0,0,.8.408.979.979,0,0,0,.575-.186.984.984,0,0,0,.222-1.373C1514.519-1159.7,1513.178-1161.752,1511.95-1163.834Z" transform="translate(-1500.328 1285.224)" fill="#0089ff"/>
    <path id="Path_3843-2" data-name="Path 3843" d="M1546.967-1115.338a.983.983,0,0,0-1.387-.094.983.983,0,0,0-.094,1.387c1.628,1.865,3.364,3.679,5.159,5.39a.979.979,0,0,0,.678.272.979.979,0,0,0,.712-.305.983.983,0,0,0-.033-1.39C1550.25-1111.748,1548.556-1113.518,1546.967-1115.338Z" transform="translate(-1526.833 1248.518)" fill="#0089ff"/>
    <path id="Path_3844-2" data-name="Path 3844" d="M1702.823-1016.822c-2.368-.491-4.741-1.1-7.053-1.809a.984.984,0,0,0-1.229.652.984.984,0,0,0,.651,1.229c2.37.727,4.8,1.352,7.231,1.855a.991.991,0,0,0,.2.021.984.984,0,0,0,.962-.784A.983.983,0,0,0,1702.823-1016.822Z" transform="translate(-1639.462 1175.32)" fill="#0089ff"/>
    <path id="Path_3845-2" data-name="Path 3845" d="M2094.224-1234.411a.984.984,0,0,0-1.226.656c-.7,2.313-1.518,4.623-2.431,6.863a.983.983,0,0,0,.539,1.281.974.974,0,0,0,.371.073.984.984,0,0,0,.911-.612c.936-2.3,1.775-4.664,2.492-7.035A.983.983,0,0,0,2094.224-1234.411Z" transform="translate(-1938.284 1338.149)" fill="#0089ff"/>
    <path id="Path_3846-2" data-name="Path 3846" d="M2067.769-1178.763a.983.983,0,0,0-1.326.418c-.355.682-.726,1.368-1.1,2.042l-.887,1.444c-.549.932-1.127,1.868-1.717,2.781a.983.983,0,0,0,.292,1.36.98.98,0,0,0,.533.157.982.982,0,0,0,.827-.45c.6-.936,1.2-1.9,1.75-2.834l.889-1.445.021-.035c.389-.7.773-1.406,1.14-2.111A.983.983,0,0,0,2067.769-1178.763Z" transform="translate(-1917.219 1296.208)" fill="#0089ff"/>
    <path id="Path_3847-2" data-name="Path 3847" d="M2110.095-1293.265a.986.986,0,0,0-1.083.872c-.26,2.407-.636,4.828-1.117,7.195a.984.984,0,0,0,.768,1.16.985.985,0,0,0,.2.02.984.984,0,0,0,.963-.788c.493-2.426.878-4.908,1.145-7.375A.983.983,0,0,0,2110.095-1293.265Z" transform="translate(-1951.4 1382.533)" fill="#0089ff"/>
    <path id="Path_3848-2" data-name="Path 3848" d="M1880.141-1023.959c-2.268.828-4.6,1.559-6.942,2.173a.984.984,0,0,0-.7,1.2.984.984,0,0,0,.95.734.994.994,0,0,0,.25-.033c2.4-.629,4.792-1.379,7.117-2.227a.984.984,0,0,0,.587-1.261A.984.984,0,0,0,1880.141-1023.959Z" transform="translate(-1773.757 1179.353)" fill="#0089ff"/>
    <path id="Path_3849-2" data-name="Path 3849" d="M2031.9-1128.351a.983.983,0,0,0-1.381.165c-1.494,1.9-3.1,3.754-4.759,5.51a.984.984,0,0,0,.038,1.39.979.979,0,0,0,.676.269.98.98,0,0,0,.714-.307c1.705-1.8,3.346-3.7,4.877-5.648A.983.983,0,0,0,2031.9-1128.351Z" transform="translate(-1889.229 1258.242)" fill="#0089ff"/>
    <path id="Path_3850-2" data-name="Path 3850" d="M1935.786-1049.591c-2.079,1.234-4.24,2.386-6.423,3.421a.984.984,0,0,0-.467,1.31.984.984,0,0,0,.889.562.983.983,0,0,0,.421-.1c2.238-1.062,4.453-2.242,6.584-3.507a.983.983,0,0,0,.343-1.347A.983.983,0,0,0,1935.786-1049.591Z" transform="translate(-1816.269 1198.755)" fill="#0089ff"/>
    <path id="Path_3851-2" data-name="Path 3851" d="M1986.479-1084.749c-1.817,1.595-3.73,3.124-5.686,4.545a.984.984,0,0,0-.218,1.374.983.983,0,0,0,.8.405.978.978,0,0,0,.577-.188c2-1.457,3.966-3.024,5.827-4.659a.983.983,0,0,0,.09-1.387A.983.983,0,0,0,1986.479-1084.749Z" transform="translate(-1855.197 1225.365)" fill="#0089ff"/>
    <path id="Path_3852-2" data-name="Path 3852" d="M1654.6-1575.421l-18.436-18.068v16.2h-5.07a80.92,80.92,0,0,0-10.682-38.592,1.864,1.864,0,0,0-.139-.3,81.939,81.939,0,0,0-29.27-29.575,81.408,81.408,0,0,0-41.371-11.269,81.269,81.269,0,0,0-27.479,4.75,81.169,81.169,0,0,0-23.482,13.149,81.829,81.829,0,0,0-28.366,44.893,1.843,1.843,0,0,0,.5,1.734l17.118,16.854-17.158,16.886a1.844,1.844,0,0,0-.021,2.607,1.839,1.839,0,0,0,1.314.55,1.837,1.837,0,0,0,1.293-.53l18.493-18.2a1.843,1.843,0,0,0,.55-1.314,1.843,1.843,0,0,0-.55-1.314L1474.14-1594.4a77.442,77.442,0,0,1,74.911-58.938,1.842,1.842,0,0,0,.583.1,77.884,77.884,0,0,1,77.8,77.8,1.844,1.844,0,0,0,1.844,1.844h6.893v16.245Z" transform="translate(-1470.218 1657.027)" fill="#0089ff"/>
  </g>
  <g id="Group_7711" data-name="Group 7711" transform="translate(538.672 18.125)">
    <path id="Path_3853" data-name="Path 3853" d="M2671.908-1599.654c2.024,1.32,4.012,2.751,5.909,4.254a.977.977,0,0,0,.609.213.982.982,0,0,0,.772-.373.984.984,0,0,0-.16-1.381c-1.944-1.54-3.981-3.006-6.056-4.359a.984.984,0,0,0-1.361.287A.983.983,0,0,0,2671.908-1599.654Z" transform="translate(-2549.593 1614.32)" fill="#0089ff"/>
    <path id="Path_3854" data-name="Path 3854" d="M2561.809-1645.157c2.367.494,4.738,1.1,7.048,1.816a.981.981,0,0,0,.29.044.984.984,0,0,0,.94-.694.983.983,0,0,0-.65-1.229c-2.368-.729-4.8-1.356-7.226-1.861a.983.983,0,0,0-1.163.762A.984.984,0,0,0,2561.809-1645.157Z" transform="translate(-2466.257 1648.762)" fill="#0089ff"/>
    <path id="Path_3855" data-name="Path 3855" d="M2502.375-1651.9c2.422.051,4.866.214,7.263.486a1,1,0,0,0,.112.006.984.984,0,0,0,.976-.873.983.983,0,0,0-.866-1.088c-2.457-.278-4.961-.446-7.443-.5h-.021a.983.983,0,0,0-.982.963A.983.983,0,0,0,2502.375-1651.9Z" transform="translate(-2421.273 1653.863)" fill="#0089ff"/>
    <path id="Path_3856" data-name="Path 3856" d="M2723.834-1557.236a.98.98,0,0,0,.742.338.979.979,0,0,0,.645-.242.983.983,0,0,0,.1-1.387c-1.628-1.868-3.362-3.683-5.155-5.394a.983.983,0,0,0-1.39.032.983.983,0,0,0,.033,1.39C2720.553-1560.829,2722.245-1559.058,2723.834-1557.236Z" transform="translate(-2585.088 1586.198)" fill="#0089ff"/>
    <path id="Path_3857" data-name="Path 3857" d="M2810.225-1402.435a.984.984,0,0,0,.97.827,1.016,1.016,0,0,0,.157-.012.983.983,0,0,0,.814-1.127c-.394-2.449-.908-4.907-1.527-7.3a.984.984,0,0,0-1.2-.706.983.983,0,0,0-.707,1.2C2809.338-1407.221,2809.84-1404.824,2810.225-1402.435Z" transform="translate(-2653.157 1470.437)" fill="#0089ff"/>
    <path id="Path_3858" data-name="Path 3858" d="M2442.535-1650.308a.98.98,0,0,0,.16-.013c2.382-.391,4.815-.675,7.23-.844a.983.983,0,0,0,.912-1.05.981.981,0,0,0-1.05-.912c-2.476.174-4.969.465-7.411.865a.983.983,0,0,0-.811,1.13A.983.983,0,0,0,2442.535-1650.308Z" transform="translate(-2376.103 1653.31)" fill="#0089ff"/>
    <path id="Path_3859" data-name="Path 3859" d="M2791.232-1459.109a.983.983,0,0,0,.925.65.988.988,0,0,0,.334-.058.984.984,0,0,0,.592-1.259c-.84-2.329-1.8-4.649-2.855-6.894a.983.983,0,0,0-1.308-.472.983.983,0,0,0-.472,1.308C2789.476-1463.644,2790.413-1461.382,2791.232-1459.109Z" transform="translate(-2637.801 1513.033)" fill="#0089ff"/>
    <path id="Path_3860" data-name="Path 3860" d="M2762.082-1511.292a.982.982,0,0,0,.848.485.979.979,0,0,0,.5-.136.984.984,0,0,0,.348-1.346c-1.257-2.135-2.629-4.236-4.079-6.248a.983.983,0,0,0-1.373-.223.983.983,0,0,0-.222,1.373C2759.517-1515.425,2760.856-1513.375,2762.082-1511.292Z" transform="translate(-2614.833 1552.053)" fill="#0089ff"/>
    <path id="Path_3861" data-name="Path 3861" d="M2618.98-1627.547c2.234.924,4.451,1.964,6.59,3.091a.976.976,0,0,0,.458.114.982.982,0,0,0,.87-.525.983.983,0,0,0-.411-1.328c-2.193-1.156-4.466-2.222-6.756-3.169a.983.983,0,0,0-1.284.533A.983.983,0,0,0,2618.98-1627.547Z" transform="translate(-2509.531 1635.433)" fill="#0089ff"/>
    <path id="Path_3862" data-name="Path 3862" d="M2184.674-1443.6a.991.991,0,0,0,.287.043.983.983,0,0,0,.94-.7c.705-2.312,1.528-4.619,2.446-6.858a.984.984,0,0,0-.537-1.283.983.983,0,0,0-1.283.537c-.942,2.3-1.785,4.661-2.508,7.031A.984.984,0,0,0,2184.674-1443.6Z" transform="translate(-2181.732 1501.889)" fill="#0089ff"/>
    <path id="Path_3863" data-name="Path 3863" d="M2207.278-1497.428a.98.98,0,0,0,.455.113.984.984,0,0,0,.872-.528c1.121-2.141,2.356-4.257,3.672-6.287a.983.983,0,0,0-.29-1.36.984.984,0,0,0-1.36.29c-1.349,2.081-2.615,4.25-3.764,6.445A.983.983,0,0,0,2207.278-1497.428Z" transform="translate(-2198.917 1542.019)" fill="#0089ff"/>
    <path id="Path_3864" data-name="Path 3864" d="M2330.263-1617.484a.981.981,0,0,0,.5-.137c2.08-1.232,4.242-2.381,6.426-3.415a.983.983,0,0,0,.468-1.309.983.983,0,0,0-1.309-.468c-2.239,1.06-4.455,2.237-6.587,3.5a.983.983,0,0,0-.345,1.347A.982.982,0,0,0,2330.263-1617.484Z" transform="translate(-2291.379 1630.505)" fill="#0089ff"/>
    <path id="Path_3865" data-name="Path 3865" d="M2384.48-1639.255a.984.984,0,0,0,.336-.06c2.272-.826,4.61-1.555,6.949-2.167a.984.984,0,0,0,.7-1.2.984.984,0,0,0-1.2-.7c-2.4.627-4.794,1.374-7.124,2.221a.983.983,0,0,0-.588,1.26A.983.983,0,0,0,2384.48-1639.255Z" transform="translate(-2332.292 1645.979)" fill="#0089ff"/>
    <path id="Path_3866" data-name="Path 3866" d="M2239.76-1545.464a.981.981,0,0,0,.608.211.981.981,0,0,0,.773-.375c1.5-1.9,3.1-3.751,4.764-5.506a.983.983,0,0,0-.036-1.39.984.984,0,0,0-1.39.036c-1.707,1.8-3.35,3.7-4.883,5.642A.984.984,0,0,0,2239.76-1545.464Z" transform="translate(-2223.544 1577.595)" fill="#0089ff"/>
    <path id="Path_3867" data-name="Path 3867" d="M2281.684-1585.77a.979.979,0,0,0,.648-.244c1.819-1.594,3.734-3.122,5.69-4.539a.984.984,0,0,0,.219-1.373.983.983,0,0,0-1.374-.219c-2,1.453-3.967,3.018-5.832,4.652a.983.983,0,0,0-.092,1.387A.98.98,0,0,0,2281.684-1585.77Z" transform="translate(-2254.721 1607.432)" fill="#0089ff"/>
    <path id="Path_3868" data-name="Path 3868" d="M2333.619-1380.309a1.84,1.84,0,0,0-2.031,1.634,78.311,78.311,0,0,1-2.372,12.44,1.862,1.862,0,0,0-.14.351,78.1,78.1,0,0,1-74.829,56.44,77.418,77.418,0,0,1-75.537-59.113l17.751-17.47a1.843,1.843,0,0,0,.55-1.314,1.843,1.843,0,0,0-.55-1.314l-18.452-18.168a1.844,1.844,0,0,0-2.608.021,1.844,1.844,0,0,0,.021,2.607l17.118,16.853-17.158,16.886a1.843,1.843,0,0,0-.5,1.731,81.821,81.821,0,0,0,28.34,45.014,81.172,81.172,0,0,0,23.508,13.188,81.226,81.226,0,0,0,26.9,4.758,1.837,1.837,0,0,0,.618.108,81.309,81.309,0,0,0,54.6-21,81.3,81.3,0,0,0,26.406-51.625A1.843,1.843,0,0,0,2333.619-1380.309Z" transform="translate(-2174.831 1467.843)" fill="#0089ff"/>
    <path id="Path_3869" data-name="Path 3869" d="M2844.568-1380.033l-18.437-18.068v16.962h-5.819c-.014-1.165-.053-2.338-.118-3.512l-.089-1.117a.982.982,0,0,0-1.058-.9.983.983,0,0,0-.9,1.058l.087,1.093c.079,1.445.119,2.913.119,4.364v.983h7.78v17.207Z" transform="translate(-2660.28 1460.863)" fill="#0089ff"/>
  </g>
  <g id="Group_7713" data-name="Group 7713" transform="translate(883.623 18.125)">
    <path id="Path_3853-2" data-name="Path 3853" d="M2671.908-1599.654c2.024,1.32,4.012,2.751,5.909,4.254a.977.977,0,0,0,.609.213.982.982,0,0,0,.772-.373.984.984,0,0,0-.16-1.381c-1.944-1.54-3.981-3.006-6.056-4.359a.984.984,0,0,0-1.361.287A.983.983,0,0,0,2671.908-1599.654Z" transform="translate(-2549.593 1614.32)" fill="#0089ff"/>
    <path id="Path_3854-2" data-name="Path 3854" d="M2561.809-1645.157c2.367.494,4.738,1.1,7.048,1.816a.981.981,0,0,0,.29.044.984.984,0,0,0,.94-.694.983.983,0,0,0-.65-1.229c-2.368-.729-4.8-1.356-7.226-1.861a.983.983,0,0,0-1.163.762A.984.984,0,0,0,2561.809-1645.157Z" transform="translate(-2466.257 1648.762)" fill="#0089ff"/>
    <path id="Path_3855-2" data-name="Path 3855" d="M2502.375-1651.9c2.422.051,4.866.214,7.263.486a1,1,0,0,0,.112.006.984.984,0,0,0,.976-.873.983.983,0,0,0-.866-1.088c-2.457-.278-4.961-.446-7.443-.5h-.021a.983.983,0,0,0-.982.963A.983.983,0,0,0,2502.375-1651.9Z" transform="translate(-2421.273 1653.863)" fill="#0089ff"/>
    <path id="Path_3856-2" data-name="Path 3856" d="M2723.834-1557.236a.98.98,0,0,0,.742.338.979.979,0,0,0,.645-.242.983.983,0,0,0,.1-1.387c-1.628-1.868-3.362-3.683-5.155-5.394a.983.983,0,0,0-1.39.032.983.983,0,0,0,.033,1.39C2720.553-1560.829,2722.245-1559.058,2723.834-1557.236Z" transform="translate(-2585.088 1586.198)" fill="#0089ff"/>
    <path id="Path_3857-2" data-name="Path 3857" d="M2810.225-1402.435a.984.984,0,0,0,.97.827,1.016,1.016,0,0,0,.157-.012.983.983,0,0,0,.814-1.127c-.394-2.449-.908-4.907-1.527-7.3a.984.984,0,0,0-1.2-.706.983.983,0,0,0-.707,1.2C2809.338-1407.221,2809.84-1404.824,2810.225-1402.435Z" transform="translate(-2653.157 1470.437)" fill="#0089ff"/>
    <path id="Path_3858-2" data-name="Path 3858" d="M2442.535-1650.308a.98.98,0,0,0,.16-.013c2.382-.391,4.815-.675,7.23-.844a.983.983,0,0,0,.912-1.05.981.981,0,0,0-1.05-.912c-2.476.174-4.969.465-7.411.865a.983.983,0,0,0-.811,1.13A.983.983,0,0,0,2442.535-1650.308Z" transform="translate(-2376.103 1653.31)" fill="#0089ff"/>
    <path id="Path_3859-2" data-name="Path 3859" d="M2791.232-1459.109a.983.983,0,0,0,.925.65.988.988,0,0,0,.334-.058.984.984,0,0,0,.592-1.259c-.84-2.329-1.8-4.649-2.855-6.894a.983.983,0,0,0-1.308-.472.983.983,0,0,0-.472,1.308C2789.476-1463.644,2790.413-1461.382,2791.232-1459.109Z" transform="translate(-2637.801 1513.033)" fill="#0089ff"/>
    <path id="Path_3860-2" data-name="Path 3860" d="M2762.082-1511.292a.982.982,0,0,0,.848.485.979.979,0,0,0,.5-.136.984.984,0,0,0,.348-1.346c-1.257-2.135-2.629-4.236-4.079-6.248a.983.983,0,0,0-1.373-.223.983.983,0,0,0-.222,1.373C2759.517-1515.425,2760.856-1513.375,2762.082-1511.292Z" transform="translate(-2614.833 1552.053)" fill="#0089ff"/>
    <path id="Path_3861-2" data-name="Path 3861" d="M2618.98-1627.547c2.234.924,4.451,1.964,6.59,3.091a.976.976,0,0,0,.458.114.982.982,0,0,0,.87-.525.983.983,0,0,0-.411-1.328c-2.193-1.156-4.466-2.222-6.756-3.169a.983.983,0,0,0-1.284.533A.983.983,0,0,0,2618.98-1627.547Z" transform="translate(-2509.531 1635.433)" fill="#0089ff"/>
    <path id="Path_3862-2" data-name="Path 3862" d="M2184.674-1443.6a.991.991,0,0,0,.287.043.983.983,0,0,0,.94-.7c.705-2.312,1.528-4.619,2.446-6.858a.984.984,0,0,0-.537-1.283.983.983,0,0,0-1.283.537c-.942,2.3-1.785,4.661-2.508,7.031A.984.984,0,0,0,2184.674-1443.6Z" transform="translate(-2181.732 1501.889)" fill="#0089ff"/>
    <path id="Path_3863-2" data-name="Path 3863" d="M2207.278-1497.428a.98.98,0,0,0,.455.113.984.984,0,0,0,.872-.528c1.121-2.141,2.356-4.257,3.672-6.287a.983.983,0,0,0-.29-1.36.984.984,0,0,0-1.36.29c-1.349,2.081-2.615,4.25-3.764,6.445A.983.983,0,0,0,2207.278-1497.428Z" transform="translate(-2198.917 1542.019)" fill="#0089ff"/>
    <path id="Path_3864-2" data-name="Path 3864" d="M2330.263-1617.484a.981.981,0,0,0,.5-.137c2.08-1.232,4.242-2.381,6.426-3.415a.983.983,0,0,0,.468-1.309.983.983,0,0,0-1.309-.468c-2.239,1.06-4.455,2.237-6.587,3.5a.983.983,0,0,0-.345,1.347A.982.982,0,0,0,2330.263-1617.484Z" transform="translate(-2291.379 1630.505)" fill="#0089ff"/>
    <path id="Path_3865-2" data-name="Path 3865" d="M2384.48-1639.255a.984.984,0,0,0,.336-.06c2.272-.826,4.61-1.555,6.949-2.167a.984.984,0,0,0,.7-1.2.984.984,0,0,0-1.2-.7c-2.4.627-4.794,1.374-7.124,2.221a.983.983,0,0,0-.588,1.26A.983.983,0,0,0,2384.48-1639.255Z" transform="translate(-2332.292 1645.979)" fill="#0089ff"/>
    <path id="Path_3866-2" data-name="Path 3866" d="M2239.76-1545.464a.981.981,0,0,0,.608.211.981.981,0,0,0,.773-.375c1.5-1.9,3.1-3.751,4.764-5.506a.983.983,0,0,0-.036-1.39.984.984,0,0,0-1.39.036c-1.707,1.8-3.35,3.7-4.883,5.642A.984.984,0,0,0,2239.76-1545.464Z" transform="translate(-2223.544 1577.595)" fill="#0089ff"/>
    <path id="Path_3867-2" data-name="Path 3867" d="M2281.684-1585.77a.979.979,0,0,0,.648-.244c1.819-1.594,3.734-3.122,5.69-4.539a.984.984,0,0,0,.219-1.373.983.983,0,0,0-1.374-.219c-2,1.453-3.967,3.018-5.832,4.652a.983.983,0,0,0-.092,1.387A.98.98,0,0,0,2281.684-1585.77Z" transform="translate(-2254.721 1607.432)" fill="#0089ff"/>
    <path id="Path_3868-2" data-name="Path 3868" d="M2333.619-1380.309a1.84,1.84,0,0,0-2.031,1.634,78.311,78.311,0,0,1-2.372,12.44,1.862,1.862,0,0,0-.14.351,78.1,78.1,0,0,1-74.829,56.44,77.418,77.418,0,0,1-75.537-59.113l17.751-17.47a1.843,1.843,0,0,0,.55-1.314,1.843,1.843,0,0,0-.55-1.314l-18.452-18.168a1.844,1.844,0,0,0-2.608.021,1.844,1.844,0,0,0,.021,2.607l17.118,16.853-17.158,16.886a1.843,1.843,0,0,0-.5,1.731,81.821,81.821,0,0,0,28.34,45.014,81.172,81.172,0,0,0,23.508,13.188,81.226,81.226,0,0,0,26.9,4.758,1.837,1.837,0,0,0,.618.108,81.309,81.309,0,0,0,54.6-21,81.3,81.3,0,0,0,26.406-51.625A1.843,1.843,0,0,0,2333.619-1380.309Z" transform="translate(-2174.831 1467.843)" fill="#0089ff"/>
    <path id="Path_3869-2" data-name="Path 3869" d="M2844.568-1380.033l-18.437-18.068v16.962h-5.819c-.014-1.165-.053-2.338-.118-3.512l-.089-1.117a.982.982,0,0,0-1.058-.9.983.983,0,0,0-.9,1.058l.087,1.093c.079,1.445.119,2.913.119,4.364v.983h7.78v17.207Z" transform="translate(-2660.28 1460.863)" fill="#0089ff"/>
  </g>
  <g id="Group_7715" data-name="Group 7715" transform="translate(1055.541 18.125)">
    <path id="Path_3853-3" data-name="Path 3853" d="M2671.908-1596.995c2.024-1.32,4.012-2.751,5.909-4.254a.977.977,0,0,1,.609-.213.982.982,0,0,1,.772.373.984.984,0,0,1-.16,1.381c-1.944,1.54-3.981,3.006-6.056,4.359a.984.984,0,0,1-1.361-.287A.983.983,0,0,1,2671.908-1596.995Z" transform="translate(-2549.593 1744.518)" fill="#0089ff"/>
    <path id="Path_3854-3" data-name="Path 3854" d="M2561.809-1645.243c2.367-.494,4.738-1.1,7.048-1.816a.981.981,0,0,1,.29-.044.984.984,0,0,1,.94.694.983.983,0,0,1-.65,1.229c-2.368.729-4.8,1.356-7.226,1.861a.983.983,0,0,1-1.163-.762A.984.984,0,0,1,2561.809-1645.243Z" transform="translate(-2466.257 1803.828)" fill="#0089ff"/>
    <path id="Path_3855-3" data-name="Path 3855" d="M2502.375-1653.371c2.422-.051,4.866-.214,7.263-.486a1,1,0,0,1,.112-.006.984.984,0,0,1,.976.873.983.983,0,0,1-.866,1.088c-2.457.278-4.961.446-7.443.5h-.021a.983.983,0,0,1-.982-.963A.983.983,0,0,1,2502.375-1653.371Z" transform="translate(-2421.273 1813.594)" fill="#0089ff"/>
    <path id="Path_3856-3" data-name="Path 3856" d="M2723.834-1563.856a.98.98,0,0,1,.742-.338.979.979,0,0,1,.645.242.983.983,0,0,1,.1,1.387c-1.628,1.868-3.362,3.683-5.155,5.394a.983.983,0,0,1-1.39-.032.983.983,0,0,1,.033-1.39C2720.553-1560.263,2722.245-1562.033,2723.834-1563.856Z" transform="translate(-2585.088 1697.083)" fill="#0089ff"/>
    <path id="Path_3857-3" data-name="Path 3857" d="M2810.225-1409.961a.984.984,0,0,1,.97-.827,1.016,1.016,0,0,1,.157.012.983.983,0,0,1,.814,1.127c-.394,2.449-.908,4.907-1.527,7.3a.984.984,0,0,1-1.2.706.983.983,0,0,1-.707-1.2C2809.338-1405.175,2809.84-1407.572,2810.225-1409.961Z" transform="translate(-2653.157 1504.148)" fill="#0089ff"/>
    <path id="Path_3858-3" data-name="Path 3858" d="M2442.535-1653.13a.98.98,0,0,1,.16.013c2.382.391,4.815.675,7.23.844a.983.983,0,0,1,.912,1.05.981.981,0,0,1-1.05.912c-2.476-.174-4.969-.465-7.411-.865a.983.983,0,0,1-.811-1.13A.983.983,0,0,1,2442.535-1653.13Z" transform="translate(-2376.103 1812.318)" fill="#0089ff"/>
    <path id="Path_3859-3" data-name="Path 3859" d="M2791.232-1466.586a.983.983,0,0,1,.925-.65.988.988,0,0,1,.334.058.984.984,0,0,1,.592,1.259c-.84,2.329-1.8,4.649-2.855,6.894a.983.983,0,0,1-1.308.472.983.983,0,0,1-.472-1.308C2789.476-1462.052,2790.413-1464.314,2791.232-1466.586Z" transform="translate(-2637.801 1574.852)" fill="#0089ff"/>
    <path id="Path_3860-3" data-name="Path 3860" d="M2762.082-1518.461a.982.982,0,0,1,.848-.485.979.979,0,0,1,.5.136.984.984,0,0,1,.348,1.346c-1.257,2.135-2.629,4.236-4.079,6.248a.983.983,0,0,1-1.373.223.983.983,0,0,1-.222-1.373C2759.517-1514.328,2760.856-1516.378,2762.082-1518.461Z" transform="translate(-2614.833 1639.889)" fill="#0089ff"/>
    <path id="Path_3861-3" data-name="Path 3861" d="M2618.98-1626.234c2.234-.924,4.451-1.964,6.59-3.091a.976.976,0,0,1,.458-.114.982.982,0,0,1,.87.525.983.983,0,0,1-.411,1.328c-2.193,1.156-4.466,2.222-6.756,3.169a.983.983,0,0,1-1.284-.533A.983.983,0,0,1,2618.98-1626.234Z" transform="translate(-2509.531 1780.538)" fill="#0089ff"/>
    <path id="Path_3862-3" data-name="Path 3862" d="M2184.674-1452.426a.991.991,0,0,1,.287-.043.983.983,0,0,1,.94.7c.705,2.312,1.528,4.619,2.446,6.858a.984.984,0,0,1-.537,1.283.983.983,0,0,1-1.283-.537c-.942-2.3-1.785-4.661-2.508-7.031A.984.984,0,0,1,2184.674-1452.426Z" transform="translate(-2181.732 1556.326)" fill="#0089ff"/>
    <path id="Path_3863-3" data-name="Path 3863" d="M2207.278-1505.536a.98.98,0,0,1,.455-.113.984.984,0,0,1,.872.528c1.121,2.141,2.356,4.257,3.672,6.287a.983.983,0,0,1-.29,1.36.984.984,0,0,1-1.36-.29c-1.349-2.081-2.615-4.25-3.764-6.445A.983.983,0,0,1,2207.278-1505.536Z" transform="translate(-2198.917 1623.134)" fill="#0089ff"/>
    <path id="Path_3864-3" data-name="Path 3864" d="M2330.263-1622.909a.981.981,0,0,1,.5.137c2.08,1.232,4.242,2.381,6.426,3.415a.983.983,0,0,1,.468,1.309.983.983,0,0,1-1.309.468c-2.239-1.06-4.455-2.237-6.587-3.5a.983.983,0,0,1-.345-1.347A.982.982,0,0,1,2330.263-1622.909Z" transform="translate(-2291.379 1772.077)" fill="#0089ff"/>
    <path id="Path_3865-3" data-name="Path 3865" d="M2384.48-1643.416a.984.984,0,0,1,.336.06c2.272.826,4.61,1.555,6.949,2.167a.984.984,0,0,1,.7,1.2.984.984,0,0,1-1.2.7c-2.4-.627-4.794-1.374-7.124-2.221a.983.983,0,0,1-.588-1.26A.983.983,0,0,1,2384.48-1643.416Z" transform="translate(-2332.292 1798.88)" fill="#0089ff"/>
    <path id="Path_3866-3" data-name="Path 3866" d="M2239.76-1552.583a.981.981,0,0,1,.608-.211.981.981,0,0,1,.773.375c1.5,1.9,3.1,3.751,4.764,5.506a.983.983,0,0,1-.036,1.39.984.984,0,0,1-1.39-.036c-1.707-1.8-3.35-3.7-4.883-5.642A.984.984,0,0,1,2239.76-1552.583Z" transform="translate(-2223.544 1682.641)" fill="#0089ff"/>
    <path id="Path_3867-3" data-name="Path 3867" d="M2281.684-1592.333a.979.979,0,0,1,.648.244c1.819,1.594,3.734,3.122,5.69,4.539a.984.984,0,0,1,.219,1.373.983.983,0,0,1-1.374.219c-2-1.453-3.967-3.018-5.832-4.652a.983.983,0,0,1-.092-1.387A.98.98,0,0,1,2281.684-1592.333Z" transform="translate(-2254.721 1732.86)" fill="#0089ff"/>
    <path id="Path_3868-3" data-name="Path 3868" d="M2333.619-1332.7a1.84,1.84,0,0,1-2.031-1.634,78.311,78.311,0,0,0-2.372-12.44,1.862,1.862,0,0,1-.14-.351,78.1,78.1,0,0,0-74.829-56.44,77.418,77.418,0,0,0-75.537,59.113l17.751,17.47a1.843,1.843,0,0,1,.55,1.314,1.843,1.843,0,0,1-.55,1.314l-18.452,18.168a1.844,1.844,0,0,1-2.608-.021,1.844,1.844,0,0,1,.021-2.607l17.118-16.853-17.158-16.886a1.843,1.843,0,0,1-.5-1.731,81.821,81.821,0,0,1,28.34-45.014,81.172,81.172,0,0,1,23.508-13.188,81.226,81.226,0,0,1,26.9-4.758,1.837,1.837,0,0,1,.618-.108,81.309,81.309,0,0,1,54.6,21,81.3,81.3,0,0,1,26.406,51.625A1.843,1.843,0,0,1,2333.619-1332.7Z" transform="translate(-2174.831 1407.352)" fill="#0089ff"/>
  </g>
</svg>
