<svg xmlns="http://www.w3.org/2000/svg" width="51.86" height="51.951" viewBox="0 0 51.86 51.951">
  <path id="phone-call" d="M31.625,10.124a11.405,11.405,0,0,1,9.01,9.01M31.625,1A20.53,20.53,0,0,1,49.759,19.112m-2.281,18.2v6.843a4.562,4.562,0,0,1-4.973,4.562,45.142,45.142,0,0,1-19.686-7A44.481,44.481,0,0,1,9.133,28.031a45.142,45.142,0,0,1-7-19.777A4.562,4.562,0,0,1,6.67,3.281h6.843A4.562,4.562,0,0,1,18.075,7.2a29.289,29.289,0,0,0,1.6,6.41,4.562,4.562,0,0,1-1.026,4.813l-2.9,2.9A36.5,36.5,0,0,0,29.435,35.011l2.9-2.9a4.562,4.562,0,0,1,4.813-1.026,29.289,29.289,0,0,0,6.41,1.6,4.562,4.562,0,0,1,3.923,4.631Z" transform="translate(-0.11 1.208)" fill="none" stroke="#0089ff" stroke-linecap="round" stroke-linejoin="round" stroke-width="4"/>
</svg>
