<svg id="Satisfaction_Guaranteed." data-name="Satisfaction Guaranteed." xmlns="http://www.w3.org/2000/svg" width="84.853" height="84.853" viewBox="0 0 84.853 84.853">
  <ellipse id="Ellipse_74" data-name="Ellipse 74" cx="42.426" cy="42.426" rx="42.426" ry="42.426" fill="#fff"/>
  <g id="feedback" transform="translate(17.754 19.582)">
    <path id="Path_3576" data-name="Path 3576" d="M42.373,39.622H38.516a.351.351,0,0,1-.28-.561,10.226,10.226,0,0,0,2.034-6.1V32.61A3.51,3.51,0,0,0,36.763,29.1a1.4,1.4,0,0,0-1.4,1.4v1.21a6.533,6.533,0,0,1-3.293,5.674l-3.906,2.232H26.244v-1.4H13.609a7,7,0,1,0-2.792,2.215V52.244H26.244v-1.4h1.969l3.506,1.4H42.373a2.095,2.095,0,0,0,1.557-3.506,2.072,2.072,0,0,0,0-2.8,2.072,2.072,0,0,0,0-2.8,2.095,2.095,0,0,0-1.557-3.506ZM2.4,34.012a5.61,5.61,0,1,1,9.98,3.509,5.607,5.607,0,0,0-2.055-1.6,3.506,3.506,0,1,0-4.63,0,5.622,5.622,0,0,0-2.055,1.6A5.577,5.577,0,0,1,2.4,34.012Zm3.506-.7a2.1,2.1,0,1,1,2.1,2.1A2.106,2.106,0,0,1,5.909,33.311ZM4.652,38.494a4.206,4.206,0,0,1,6.721,0,5.568,5.568,0,0,1-6.721,0Zm7.568,1.128h9.817v11.22H12.22Zm12.622,11.22h-1.4V39.622h1.4Zm17.531,0H31.989l-3.506-1.4H26.244V41.025h2.29l4.228-2.416a7.939,7.939,0,0,0,4-6.892v-1.21a2.106,2.106,0,0,1,2.1,2.1v.351a8.82,8.82,0,0,1-1.754,5.26,1.753,1.753,0,0,0,1.4,2.8h3.857a.7.7,0,1,1,0,1.4H38.867v1.4h3.506a.7.7,0,0,1,0,1.4H38.867v1.4h3.506a.7.7,0,1,1,0,1.4H38.867v1.4h3.506a.7.7,0,1,1,0,1.4Z" transform="translate(-1 -8.768)" fill="#0089ff"/>
    <path id="Path_3577" data-name="Path 3577" d="M50.012,22.025A7.012,7.012,0,1,0,43,15.012,7.02,7.02,0,0,0,50.012,22.025Zm-3.36-2.531a4.206,4.206,0,0,1,6.721,0,5.568,5.568,0,0,1-6.721,0Zm1.257-5.183a2.1,2.1,0,1,1,2.1,2.1A2.106,2.106,0,0,1,47.909,14.311Zm2.1-4.909a5.6,5.6,0,0,1,4.37,9.119,5.607,5.607,0,0,0-2.055-1.6,3.506,3.506,0,1,0-4.63,0,5.622,5.622,0,0,0-2.055,1.6A5.6,5.6,0,0,1,50.012,9.4Z" transform="translate(-13.548 -3.091)" fill="#0089ff"/>
    <path id="Path_3578" data-name="Path 3578" d="M22.817,20.635A9.817,9.817,0,1,0,13,10.817,9.828,9.828,0,0,0,22.817,20.635Zm0-1.4a8.387,8.387,0,0,1-6.029-2.557,6.273,6.273,0,0,1,1.7-2.745l1.1,4.393L22.817,15.9l3.229,2.422,1.1-4.393a6.286,6.286,0,0,1,1.7,2.745A8.389,8.389,0,0,1,22.817,19.232Zm-2.8-11.22a2.8,2.8,0,1,1,2.8,2.8A2.808,2.808,0,0,1,20.012,8.012Zm2.8,5.917L21.509,12.36a6.168,6.168,0,0,1,2.616,0Zm2.732-1.088c.127.06.252.123.374.192l-.725,2.9-1.37-1.027Zm-5.464,0,1.721,2.065-1.37,1.027-.725-2.9C19.834,12.964,19.958,12.9,20.085,12.842ZM22.817,2.4A8.4,8.4,0,0,1,29.867,15.4a7.677,7.677,0,0,0-4.408-4.115,4.207,4.207,0,1,0-5.284,0A7.675,7.675,0,0,0,15.767,15.4,8.4,8.4,0,0,1,22.817,2.4Z" transform="translate(-4.585 -1)" fill="#0089ff"/>
    <path id="Path_3579" data-name="Path 3579" d="M23,31h1.4v1.4H23Z" transform="translate(-7.573 -9.963)" fill="#0089ff"/>
    <path id="Path_3580" data-name="Path 3580" d="M27,31H38.22v1.4H27Z" transform="translate(-8.768 -9.963)" fill="#0089ff"/>
    <path id="Path_3581" data-name="Path 3581" d="M23,35H37.025v1.4H23Z" transform="translate(-7.573 -11.158)" fill="#0089ff"/>
    <path id="Path_3582" data-name="Path 3582" d="M23,39H35.622v1.4H23Z" transform="translate(-7.573 -12.353)" fill="#0089ff"/>
    <path id="Path_3583" data-name="Path 3583" d="M19,57h1.4v1.4H19Z" transform="translate(-6.378 -17.731)" fill="#0089ff"/>
    <path id="Path_3584" data-name="Path 3584" d="M23,57h1.4v1.4H23Z" transform="translate(-7.573 -17.731)" fill="#0089ff"/>
    <path id="Path_3585" data-name="Path 3585" d="M27,57h1.4v1.4H27Z" transform="translate(-8.768 -17.731)" fill="#0089ff"/>
  </g>
</svg>
