<svg xmlns="http://www.w3.org/2000/svg" width="85" height="85" viewBox="0 0 85 85">
  <g id="We_Make_It_Easy" data-name="We Make It Easy" transform="translate(-0.001)">
    <circle id="Ellipse_74" data-name="Ellipse 74" cx="42.5" cy="42.5" r="42.5" transform="translate(0.001)" fill="#fff"/>
    <g id="makeiteasy" transform="translate(21.213 21.213)">
      <path id="Path_3615" data-name="Path 3615" d="M39.1,5.047a15.287,15.287,0,0,1,2.525.608,10.138,10.138,0,0,1,6.873,8.789A10.37,10.37,0,0,1,42.555,25.01c-.608.281-.608.281-.514,1.029h.608a.65.65,0,0,1,.7.655v2.618c0,.421-.281.561-.655.7.234.748-.234,1.169-.7,1.636-1.216,1.169-.655.935-2.291.935h-.888v3.927H37.506V32.584h-1.73a1.105,1.105,0,0,1-.888-.374,3.737,3.737,0,0,0-.608-.608c-.468-.421-.935-.888-.655-1.636a.773.773,0,0,1-.7-.935v-2.1c0-.7.187-.888.888-.888h.374c.14-.748.14-.748-.468-1.029A10.495,10.495,0,0,1,36.851,5.094.665.665,0,0,0,37.132,5C37.74,5.047,38.394,5.047,39.1,5.047Zm1.636,20.992v-.795c0-.842,0-.842.795-1.169a9.2,9.2,0,1,0-12.156-5.7,9.008,9.008,0,0,0,5.423,5.7c.561.234.655.327.655.982v.935h1.964V22.719a7.38,7.38,0,0,1-4.675-2.338,6.99,6.99,0,0,1-1.87-4.815h1.309a5.823,5.823,0,0,0,1.5,3.88,5.992,5.992,0,0,0,3.74,1.964v-5.19h-1.87a.634.634,0,0,1-.7-.561c-.047-.655,0-1.356,0-2.057H36.15v1.262h3.927V13.6h1.309v1.777c0,.608-.234.842-.842.842h-1.73v9.818Zm-6.545,2.618h7.808V27.394H34.186Zm.561,1.356a6.262,6.262,0,0,0,.281.561,1.789,1.789,0,0,0,1.73.795,26.231,26.231,0,0,1,2.712,0,1.789,1.789,0,0,0,1.73-.795,3.392,3.392,0,0,0,.234-.561Z" transform="translate(-17.122 -5)" fill="#0089ff"/>
      <path id="Path_3616" data-name="Path 3616" d="M56.021,63.487a1.051,1.051,0,0,1-.421-.935V57.924c0-.795.187-.982.982-.982h.327v-1.4c0-.795-.047-1.59,0-2.338a1.22,1.22,0,0,1,.327-.795c.655-.748,1.4-1.4,2.057-2.1a.639.639,0,0,0,.187-.514,1.521,1.521,0,0,1,.608-1.449,1.873,1.873,0,0,0,.748-1.777c-.047-.561,0-1.169,0-1.777A2.265,2.265,0,0,1,63.127,42.5a2.3,2.3,0,0,1,2.291,2.291v2.852l.047.094h2.992c-.421-.421-.795-.748-1.122-1.075a1.984,1.984,0,0,1,0-3.086,2.569,2.569,0,0,1,.421-.327c-.795-1.5-.7-1.777.561-3.319a8.02,8.02,0,0,1-.374-1.309,2.11,2.11,0,0,1,.327-1.169,8.98,8.98,0,0,1,1.309-1.356c.281-.281.608-.234.888.094,1.169,1.122,2.291,2.291,3.413,3.46v9.023l-.561.561-5.751,5.751c-.093.093-.234.234-.234.374-.047.514,0,1.029,0,1.59h1.777c.655,0,.842.234.842.842v4.769a1,1,0,0,1-.421.935Zm10.052-6.545v-1.73a1.048,1.048,0,0,1,.374-.888l5.891-5.891a.854.854,0,0,0,.281-.7V42.168a5.753,5.753,0,0,0-.047-2.01c-.234-.561-.888-.982-1.356-1.449-.374-.374-.795-.795-1.216-1.262a2.7,2.7,0,0,0-.374.468c-.468.468-.468.795,0,1.262s.982.935,1.4,1.449a1.031,1.031,0,0,1,.281.7c.047,1.636.047,3.319,0,4.956a1.641,1.641,0,0,1-.281.748c-.514.561-1.122,1.122-1.636,1.683a1.1,1.1,0,0,1-.982.374H65.418V51H64.109V44.973a.991.991,0,1,0-1.964,0c0,.514-.047,1.075,0,1.59a2.875,2.875,0,0,1-1.075,2.758.808.808,0,0,0-.234.608v3.132H59.48V52.033a2.784,2.784,0,0,1-.608.655,1.69,1.69,0,0,0-.7,1.683c.047.888,0,1.777,0,2.665h5.236v1.309h-6.5v3.927H68.644V58.344h-3.88V57.035A6.4,6.4,0,0,1,66.073,56.942ZM69.392,46.89c.187-.234.421-.374.468-.608.093-.281.187-.748.047-.935a15.524,15.524,0,0,0-1.216-1.309c-.234.234-.374.421-.561.608a.71.71,0,0,0,0,.935C68.55,46,68.924,46.376,69.392,46.89Zm.561-3.413c.047,0,.047-.047.094-.047a12.227,12.227,0,0,1,0-1.309c.094-.608-.187-.982-.795-1.356-.094.14-.234.327-.374.514a.7.7,0,0,0,0,1.122Z" transform="translate(-31.99 -21.457)" fill="#0089ff"/>
      <path id="Path_3617" data-name="Path 3617" d="M5.1,39.68c1.122-1.169,2.291-2.291,3.413-3.46a.661.661,0,0,1,1.029,0A11.672,11.672,0,0,1,10.617,37.3a2.1,2.1,0,0,1,.047,2.665c1.029.888,1.59,1.917.655,3.273.187.187.327.374.514.561a1.926,1.926,0,0,1,0,2.852l-1.169,1.169h2.992V45.664a6.173,6.173,0,0,1,.094-1.309,2.271,2.271,0,0,1,4.488.421v2.478a1.146,1.146,0,0,0,.281.748c.14.14.234.281.374.421a1.654,1.654,0,0,1,.655,1.543.987.987,0,0,0,.187.468c.655.7,1.356,1.4,2.057,2.057a1.2,1.2,0,0,1,.374.888v3.553c0,.047,0,.047.047.14h.608a.639.639,0,0,1,.655.655v5.236c0,.234-.234.468-.374.655H9.495a1.051,1.051,0,0,1-.421-.935V57.914c0-.655.234-.842.842-.842h1.777V55.716a.863.863,0,0,0-.234-.561L9.214,52.911C7.858,51.555,6.5,50.153,5.147,48.8,5.1,45.711,5.1,42.672,5.1,39.68Zm9.163,18.607h-3.88v3.88H22.118V58.241h-6.5V56.932h5.19V53.379c0-.047-.047-.14-.047-.187-.374-.374-.748-.795-1.122-1.216a.163.163,0,0,0-.094.047v.888H18.237c0-.655-.047-1.356,0-1.964a2.594,2.594,0,0,0-1.029-2.571,1.52,1.52,0,0,1-.327-.795c-.047-.888,0-1.823,0-2.758a1.05,1.05,0,0,0-.561-.982,1,1,0,0,0-1.4.982v6.125H13.609V48.984H10.477a1.468,1.468,0,0,1-.748-.281c-.608-.561-1.216-1.169-1.777-1.777a1.062,1.062,0,0,1-.281-.748c0-1.636-.047-3.273,0-4.909A1.2,1.2,0,0,1,8,40.522c.374-.421.795-.795,1.169-1.216.795-.795.795-.935-.047-1.73a.645.645,0,0,0-.187-.14c-.795.795-1.543,1.59-2.338,2.338a.849.849,0,0,0-.281.655v7.2a.849.849,0,0,0,.281.655c2.01,1.964,3.974,3.927,5.938,5.891a1.375,1.375,0,0,1,.421,1.029c-.047.561,0,1.075,0,1.636h1.309C14.263,57.4,14.263,57.82,14.263,58.288ZM9.635,46.833A16.067,16.067,0,0,0,10.9,45.571a.74.74,0,0,0,.047-.7,4.683,4.683,0,0,0-.655-.748L9.121,45.29c-.094.094-.094.234-.14.374C8.887,46.225,9.308,46.506,9.635,46.833Zm-.608-3.226c.468-.514.888-.888,1.262-1.309a.538.538,0,0,0,0-.795,8.371,8.371,0,0,0-.655-.7c-.234.327-.561.561-.608.795C8.98,42.2,9.027,42.859,9.027,43.607Z" transform="translate(-5.1 -21.493)" fill="#0089ff"/>
      <path id="Path_3618" data-name="Path 3618" d="M16.3,17.518V16.209h1.309V14.9h1.309v1.262h1.309v1.309H18.918V18.78H17.609V17.471A12.694,12.694,0,0,1,16.3,17.518Z" transform="translate(-11.064 -10.272)" fill="#0089ff"/>
      <path id="Path_3619" data-name="Path 3619" d="M77.918,31.571V32.88H76.609V31.618H75.3V30.309h1.262V29h1.309v1.262H79.18v1.309Z" transform="translate(-42.48 -17.779)" fill="#0089ff"/>
      <path id="Path_3620" data-name="Path 3620" d="M48.6,75.3h1.262v1.262H48.6Z" transform="translate(-28.263 -42.433)" fill="#0089ff"/>
      <path id="Path_3621" data-name="Path 3621" d="M48.6,80.9h1.262v1.309H48.6Z" transform="translate(-28.263 -45.415)" fill="#0089ff"/>
      <path id="Path_3622" data-name="Path 3622" d="M57.153,19.34H55.891a6.08,6.08,0,0,0-1.73-4.161A5.909,5.909,0,0,0,50,13.449V12.187A7.118,7.118,0,0,1,57.153,19.34Z" transform="translate(-29.008 -8.821)" fill="#0089ff"/>
    </g>
  </g>
</svg>
