<svg xmlns="http://www.w3.org/2000/svg" width="112.939" height="94.19" viewBox="0 0 112.939 94.19">
  <g id="web-development" transform="translate(0 -42.499)">
    <path id="Path_63" data-name="Path 63" d="M84.4,98.894h-.127a24.438,24.438,0,0,1-18.406-8.379A37.464,37.464,0,0,0,37.382,77.634a37.552,37.552,0,0,0,.171,75.1,37.389,37.389,0,0,0,16.223-3.678,12.524,12.524,0,0,1,13.007,1.359A28.715,28.715,0,1,0,84.4,98.894Z" transform="translate(0 -27.384)" fill="rgba(2,14,81,0.08)"/>
    <path id="Path_64" data-name="Path 64" d="M152.588,49.518h-48.5a3.308,3.308,0,0,0-3.307,3.307V70.964H83.286a1.66,1.66,0,0,0-1.66,1.66V88.191a1.66,1.66,0,0,0,1.66,1.66h17.493v27.024H77.854a2.206,2.206,0,0,0-2.207,2.206v15.137a2.207,2.207,0,0,0,2.207,2.207H132.3a2.207,2.207,0,0,0,2.207-2.207v-8.81h18.082A3.308,3.308,0,0,0,155.9,122.1V52.825a3.308,3.308,0,0,0-3.307-3.307Z" transform="translate(-58.961 -5.471)" fill="#590bb2" opacity="0.1"/>
    <path id="Path_65" data-name="Path 65" d="M366.834,441.606a1.1,1.1,0,0,1-1.1-1.1,1.327,1.327,0,0,0-1.325-1.325,1.1,1.1,0,1,1,0-2.206,1.327,1.327,0,0,0,1.325-1.326,1.1,1.1,0,1,1,2.206,0,1.327,1.327,0,0,0,1.325,1.326,1.1,1.1,0,0,1,0,2.206,1.327,1.327,0,0,0-1.325,1.325A1.1,1.1,0,0,1,366.834,441.606Z" transform="translate(-283.164 -305.565)" fill="#020e51"/>
    <path id="Path_66" data-name="Path 66" d="M111.565,49.565a1.1,1.1,0,0,1-1.1-1.1,1.328,1.328,0,0,0-1.327-1.327,1.1,1.1,0,1,1,0-2.206,1.328,1.328,0,0,0,1.327-1.327,1.1,1.1,0,1,1,2.206,0,1.328,1.328,0,0,0,1.327,1.327,1.1,1.1,0,1,1,0,2.206,1.328,1.328,0,0,0-1.327,1.327A1.1,1.1,0,0,1,111.565,49.565Z" transform="translate(-84.202 0)"/>
    <path id="Path_67" data-name="Path 67" d="M90.27,126.023a1.1,1.1,0,0,1-.78-.323l-2.43-2.43a1.1,1.1,0,0,1,0-1.56l2.43-2.43a1.1,1.1,0,0,1,1.56,0l2.43,2.43a1.1,1.1,0,0,1,0,1.56l-2.43,2.43A1.1,1.1,0,0,1,90.27,126.023Zm-.87-3.533.87.87.87-.87-.87-.87Z" transform="translate(-67.604 -59.593)"/>
    <path id="Path_68" data-name="Path 68" d="M144.626,109.714a1.1,1.1,0,0,1-1.1-1.1,1.328,1.328,0,0,0-1.327-1.327,1.1,1.1,0,1,1,0-2.206,1.328,1.328,0,0,0,1.327-1.327,1.1,1.1,0,0,1,2.206,0,1.328,1.328,0,0,0,1.327,1.327,1.1,1.1,0,1,1,0,2.206,1.328,1.328,0,0,0-1.327,1.327A1.1,1.1,0,0,1,144.626,109.714Z" transform="translate(-109.97 -46.881)" fill="#0089ff"/>
    <path id="Path_69" data-name="Path 69" d="M244.7,73.825V143.1a3.308,3.308,0,0,1-3.307,3.307h-48.5a3.308,3.308,0,0,1-3.307-3.307V73.825a3.308,3.308,0,0,1,3.307-3.307h48.5A3.308,3.308,0,0,1,244.7,73.825Z" transform="translate(-147.762 -21.838)" fill="#fff"/>
    <path id="Path_70" data-name="Path 70" d="M189.58,375.87V381.1a3.308,3.308,0,0,0,3.307,3.307h48.5A3.308,3.308,0,0,0,244.7,381.1V375.87Z" transform="translate(-147.762 -259.835)" fill="#ddd9e4"/>
    <path id="Path_71" data-name="Path 71" d="M201.612,70.515v75.89h-8.727a3.309,3.309,0,0,1-3.307-3.307V73.822a3.31,3.31,0,0,1,3.307-3.307Z" transform="translate(-147.76 -21.836)" fill="#fff"/>
    <path id="Path_72" data-name="Path 72" d="M197.658,183.566v15.566A1.659,1.659,0,0,1,196,200.792h-6.421V181.9H196A1.659,1.659,0,0,1,197.658,183.566Z" transform="translate(-147.76 -108.655)" fill="#ddd9e4"/>
    <path id="Path_73" data-name="Path 73" d="M244.7,81.138V73.825a3.307,3.307,0,0,0-3.307-3.307h-48.5a3.307,3.307,0,0,0-3.307,3.307v7.313H244.7Z" transform="translate(-147.762 -21.838)" fill="#fff"/>
    <path id="Path_74" data-name="Path 74" d="M303.133,231.234h-3.471a1.137,1.137,0,0,0-1.147,1,1.105,1.105,0,0,0,1.1,1.213h3.519a1.1,1.1,0,0,0,0-2.21Z" transform="translate(-232.663 -147.103)" fill="#020e51"/>
    <path id="Path_75" data-name="Path 75" d="M346.84,231.234h-8.254a1.1,1.1,0,1,0,0,2.209h8.3a1.105,1.105,0,0,0,1.1-1.213,1.137,1.137,0,0,0-1.147-1Z" transform="translate(-263.038 -147.103)" fill="#0089ff"/>
    <path id="Path_76" data-name="Path 76" d="M311.077,252.2H299.663a1.137,1.137,0,0,0-1.147,1,1.105,1.105,0,0,0,1.1,1.213h11.462a1.1,1.1,0,0,0,0-2.21Z" transform="translate(-232.664 -163.447)" fill="#020e51"/>
    <path id="Path_77" data-name="Path 77" d="M381.525,252.2h-6.931a1.1,1.1,0,0,0,0,2.209h6.978a1.105,1.105,0,0,0,1.1-1.213A1.137,1.137,0,0,0,381.525,252.2Z" transform="translate(-291.104 -163.447)" fill="#0089ff"/>
    <path id="Path_78" data-name="Path 78" d="M307.766,273.174h-8.1a1.137,1.137,0,0,0-1.147,1,1.105,1.105,0,0,0,1.1,1.213h8.152a1.1,1.1,0,0,0,0-2.21Z" transform="translate(-232.663 -179.792)" fill="#020e51"/>
    <path id="Path_79" data-name="Path 79" d="M363.212,273.174h-3.621a1.1,1.1,0,1,0,0,2.209h3.668a1.105,1.105,0,0,0,1.1-1.213A1.137,1.137,0,0,0,363.212,273.174Z" transform="translate(-279.41 -179.792)" fill="#0089ff"/>
    <path id="Path_80" data-name="Path 80" d="M358.138,294.144h-13.55a1.1,1.1,0,1,0,0,2.209h13.6a1.105,1.105,0,0,0,1.1-1.213A1.137,1.137,0,0,0,358.138,294.144Z" transform="translate(-267.716 -196.136)" fill="#0089ff"/>
    <path id="Path_81" data-name="Path 81" d="M304.457,294.144h-4.795a1.137,1.137,0,0,0-1.147,1,1.105,1.105,0,0,0,1.1,1.213h4.842a1.1,1.1,0,0,0,0-2.21Z" transform="translate(-232.663 -196.136)" fill="#020e51"/>
    <path id="Path_82" data-name="Path 82" d="M273.345,196.373h-3.692a1.137,1.137,0,0,0-1.147,1,1.105,1.105,0,0,0,1.1,1.213h3.739a1.1,1.1,0,1,0,0-2.21Z" transform="translate(-209.274 -119.932)" fill="#020e51"/>
    <path id="Path_83" data-name="Path 83" d="M325.27,196.373H310.911a1.1,1.1,0,1,0,0,2.209h14.406a1.105,1.105,0,0,0,1.1-1.213,1.137,1.137,0,0,0-1.147-1Z" transform="translate(-241.468 -119.932)" fill="#020e51"/>
    <path id="Path_84" data-name="Path 84" d="M273.345,331.975h-3.692a1.137,1.137,0,0,0-1.147,1,1.105,1.105,0,0,0,1.1,1.213h3.739a1.1,1.1,0,1,0,0-2.21Z" transform="translate(-209.274 -225.622)" fill="#020e51"/>
    <path id="Path_85" data-name="Path 85" d="M325.27,331.975H310.911a1.1,1.1,0,1,0,0,2.21h14.406a1.105,1.105,0,0,0,1.1-1.213,1.137,1.137,0,0,0-1.147-1Z" transform="translate(-241.468 -225.622)" fill="#020e51"/>
    <path id="Path_86" data-name="Path 86" d="M128.325,186.628H104.412a1.66,1.66,0,0,1-1.66-1.66V169.4a1.66,1.66,0,0,1,1.66-1.66h23.914a1.66,1.66,0,0,1,1.66,1.66v15.566A1.66,1.66,0,0,1,128.325,186.628Z" transform="translate(-80.087 -97.616)" fill="#ebecf1"/>
    <path id="Path_87" data-name="Path 87" d="M127.806,201.027a1.1,1.1,0,0,1-.78-.323l-2.656-2.656a1.1,1.1,0,0,1,0-1.561l2.656-2.656a1.1,1.1,0,1,1,1.56,1.561l-1.876,1.876,1.876,1.876a1.1,1.1,0,0,1-.78,1.884Z" transform="translate(-96.684 -117.699)" fill="#0089ff"/>
    <path id="Path_88" data-name="Path 88" d="M183.974,193.509a1.1,1.1,0,0,1,.78.323l2.656,2.656a1.1,1.1,0,0,1,0,1.561l-2.656,2.656a1.1,1.1,0,0,1-1.56-1.561l1.876-1.876-1.876-1.876a1.1,1.1,0,0,1,.78-1.884Z" transform="translate(-142.532 -117.7)" fill="#0089ff"/>
    <path id="Path_89" data-name="Path 89" d="M153.783,201.028a1.1,1.1,0,0,1-.96-1.646l3-5.312a1.1,1.1,0,1,1,1.921,1.085l-3,5.312A1.1,1.1,0,0,1,153.783,201.028Z" transform="translate(-119.001 -117.7)" fill="#0089ff"/>
    <path id="Path_90" data-name="Path 90" d="M132.3,395.42H77.854a2.207,2.207,0,0,1-2.207-2.207V378.077a2.207,2.207,0,0,1,2.207-2.207H132.3a2.207,2.207,0,0,1,2.207,2.207v15.137A2.207,2.207,0,0,1,132.3,395.42Z" transform="translate(-58.961 -259.835)" fill="#f5f4f9"/>
    <g id="Group_561" data-name="Group 561" transform="translate(15.584 47.576)">
      <path id="Path_91" data-name="Path 91" d="M223.744,89.518a1.1,1.1,0,0,0-1.1,1.1v.032a1.1,1.1,0,0,0,2.206,0v-.032A1.1,1.1,0,0,0,223.744,89.518Z" transform="translate(-189.114 -84.224)"/>
      <path id="Path_92" data-name="Path 92" d="M243.059,89.518a1.1,1.1,0,0,0-1.1,1.1v.032a1.1,1.1,0,1,0,2.206,0v-.032A1.1,1.1,0,0,0,243.059,89.518Z" transform="translate(-204.168 -84.224)"/>
      <path id="Path_93" data-name="Path 93" d="M262.373,89.518a1.1,1.1,0,0,0-1.1,1.1v.032a1.1,1.1,0,1,0,2.206,0v-.032A1.1,1.1,0,0,0,262.373,89.518Z" transform="translate(-219.222 -84.224)"/>
      <path id="Path_94" data-name="Path 94" d="M148.691,65.517h-48.5a4.415,4.415,0,0,0-4.41,4.41V81.993a1.1,1.1,0,0,0,2.206,0v-3.65H150.9V139.2a2.206,2.206,0,0,1-2.2,2.2H131.712v-5.224a3.313,3.313,0,0,0-3.309-3.309H102.958a1.1,1.1,0,0,0,0,2.206H128.4a1.1,1.1,0,0,1,1.1,1.1v15.137a1.1,1.1,0,0,1-1.1,1.1H73.956a1.1,1.1,0,0,1-1.1-1.1V136.182a1.1,1.1,0,0,1,1.1-1.1H96.882a1.1,1.1,0,0,0,1.1-1.1v-25.92H103.3a2.766,2.766,0,0,0,2.763-2.763V89.726a2.766,2.766,0,0,0-2.763-2.763H79.389a2.766,2.766,0,0,0-2.763,2.763v6.68H75.5a4.859,4.859,0,0,0-4.854,4.854v7.186A4.859,4.859,0,0,0,75.5,113.3h8.815a2.661,2.661,0,0,1,0,5.322H75.5a4.854,4.854,0,1,0,0,9.708h8.413a2.651,2.651,0,0,1,2.648,2.648v1.895H73.956a3.313,3.313,0,0,0-3.309,3.309V151.32a3.313,3.313,0,0,0,3.309,3.309H128.4a3.313,3.313,0,0,0,3.309-3.309v-7.707h16.979a4.415,4.415,0,0,0,4.41-4.41V69.927a4.415,4.415,0,0,0-4.41-4.41ZM78.832,89.726a.558.558,0,0,1,.557-.557H103.3a.557.557,0,0,1,.557.557v15.566a.557.557,0,0,1-.557.557H79.389a.558.558,0,0,1-.557-.557Zm5.082,36.4H75.5a2.648,2.648,0,1,1,0-5.3h8.815a4.867,4.867,0,1,0,0-9.733H75.5a2.651,2.651,0,0,1-2.648-2.648V101.26A2.651,2.651,0,0,1,75.5,98.613h1.125v6.68a2.766,2.766,0,0,0,2.763,2.763h16.39v24.818H88.768v-1.895A4.859,4.859,0,0,0,83.914,126.124Zm14.07-49.987v-6.21a2.206,2.206,0,0,1,2.2-2.2h48.5a2.206,2.206,0,0,1,2.2,2.2v6.21Z" transform="translate(-70.647 -65.517)"/>
      <path id="Path_95" data-name="Path 95" d="M217.036,288.031a1.1,1.1,0,0,0-2.206,0v.032a1.1,1.1,0,1,0,2.206,0Z" transform="translate(-183.025 -238.088)"/>
      <path id="Path_96" data-name="Path 96" d="M215.933,332.273a1.1,1.1,0,0,0-1.1,1.1v.032a1.1,1.1,0,1,0,2.206,0v-.032A1.1,1.1,0,0,0,215.933,332.273Z" transform="translate(-183.025 -273.431)"/>
      <path id="Path_97" data-name="Path 97" d="M95.991,396.929a1.1,1.1,0,0,0-2.206,0v.025a1.1,1.1,0,0,0,2.206,0Z" transform="translate(-88.681 -322.965)"/>
      <path id="Path_98" data-name="Path 98" d="M120.5,396.929a1.1,1.1,0,0,0-2.206,0v.025a1.1,1.1,0,0,0,2.206,0Z" transform="translate(-107.781 -322.965)"/>
      <path id="Path_99" data-name="Path 99" d="M143.9,398.057a1.1,1.1,0,0,0,1.1-1.1v-.025a1.1,1.1,0,0,0-2.206,0v.025A1.1,1.1,0,0,0,143.9,398.057Z" transform="translate(-126.883 -322.965)"/>
      <path id="Path_100" data-name="Path 100" d="M169.511,396.954v-.025a1.1,1.1,0,0,0-2.206,0v.025a1.1,1.1,0,0,0,2.206,0Z" transform="translate(-145.984 -322.965)"/>
      <path id="Path_101" data-name="Path 101" d="M194.017,396.954v-.025a1.1,1.1,0,0,0-2.206,0v.025a1.1,1.1,0,0,0,2.206,0Z" transform="translate(-165.084 -322.965)"/>
      <path id="Path_102" data-name="Path 102" d="M218.524,396.954v-.025a1.1,1.1,0,0,0-2.206,0v.025a1.1,1.1,0,0,0,2.206,0Z" transform="translate(-184.185 -322.965)"/>
      <path id="Path_103" data-name="Path 103" d="M243.031,396.954v-.025a1.1,1.1,0,0,0-2.206,0v.025a1.1,1.1,0,0,0,2.206,0Z" transform="translate(-203.286 -322.965)"/>
      <path id="Path_104" data-name="Path 104" d="M266.434,398.057a1.1,1.1,0,0,0,1.1-1.1v-.025a1.1,1.1,0,1,0-2.206,0v.025A1.1,1.1,0,0,0,266.434,398.057Z" transform="translate(-222.387 -322.965)"/>
      <path id="Path_105" data-name="Path 105" d="M290.941,398.057a1.1,1.1,0,0,0,1.1-1.1v-.025a1.1,1.1,0,1,0-2.206,0v.025A1.1,1.1,0,0,0,290.941,398.057Z" transform="translate(-241.488 -322.965)"/>
      <path id="Path_106" data-name="Path 106" d="M315.448,398.057a1.1,1.1,0,0,0,1.1-1.1v-.025a1.1,1.1,0,0,0-2.206,0v.025A1.1,1.1,0,0,0,315.448,398.057Z" transform="translate(-260.589 -322.965)"/>
      <path id="Path_107" data-name="Path 107" d="M106.038,416.231v.025a1.1,1.1,0,0,0,2.206,0v-.025a1.1,1.1,0,0,0-2.206,0Z" transform="translate(-98.231 -338.009)"/>
      <path id="Path_108" data-name="Path 108" d="M130.545,416.231v.025a1.1,1.1,0,0,0,2.206,0v-.025a1.1,1.1,0,0,0-2.206,0Z" transform="translate(-117.332 -338.009)"/>
      <path id="Path_109" data-name="Path 109" d="M157.258,416.256v-.025a1.1,1.1,0,0,0-2.206,0v.025a1.1,1.1,0,1,0,2.206,0Z" transform="translate(-136.434 -338.009)"/>
      <path id="Path_110" data-name="Path 110" d="M181.764,416.256v-.025a1.1,1.1,0,0,0-2.206,0v.025a1.1,1.1,0,1,0,2.206,0Z" transform="translate(-155.534 -338.009)"/>
      <path id="Path_111" data-name="Path 111" d="M205.168,415.128a1.1,1.1,0,0,0-1.1,1.1v.025a1.1,1.1,0,0,0,2.206,0v-.025A1.1,1.1,0,0,0,205.168,415.128Z" transform="translate(-174.635 -338.009)"/>
      <path id="Path_112" data-name="Path 112" d="M230.778,416.256v-.025a1.1,1.1,0,0,0-2.206,0v.025a1.1,1.1,0,1,0,2.206,0Z" transform="translate(-193.736 -338.009)"/>
      <path id="Path_113" data-name="Path 113" d="M255.284,416.256v-.025a1.1,1.1,0,0,0-2.206,0v.025a1.1,1.1,0,1,0,2.206,0Z" transform="translate(-212.837 -338.009)"/>
      <path id="Path_114" data-name="Path 114" d="M279.791,416.256v-.025a1.1,1.1,0,0,0-2.206,0v.025a1.1,1.1,0,1,0,2.206,0Z" transform="translate(-231.938 -338.009)"/>
      <path id="Path_115" data-name="Path 115" d="M304.3,416.256v-.025a1.1,1.1,0,0,0-2.206,0v.025a1.1,1.1,0,0,0,2.206,0Z" transform="translate(-251.039 -338.009)"/>
      <path id="Path_116" data-name="Path 116" d="M94.888,434.429a1.1,1.1,0,0,0-1.1,1.1v.025a1.1,1.1,0,0,0,2.206,0v-.025A1.1,1.1,0,0,0,94.888,434.429Z" transform="translate(-88.681 -353.053)"/>
      <path id="Path_117" data-name="Path 117" d="M119.394,434.429a1.1,1.1,0,0,0-1.1,1.1v.025a1.1,1.1,0,0,0,2.206,0v-.025A1.1,1.1,0,0,0,119.394,434.429Z" transform="translate(-107.781 -353.053)"/>
      <path id="Path_118" data-name="Path 118" d="M142.8,435.647a1.1,1.1,0,0,0,1.1,1.1h21.623a1.1,1.1,0,1,0,0-2.206H143.9A1.1,1.1,0,0,0,142.8,435.647Z" transform="translate(-126.883 -353.143)"/>
      <path id="Path_119" data-name="Path 119" d="M265.331,435.557a1.1,1.1,0,1,0,2.206,0v-.025a1.1,1.1,0,1,0-2.206,0Z" transform="translate(-222.387 -353.053)"/>
      <path id="Path_120" data-name="Path 120" d="M289.838,435.557a1.1,1.1,0,1,0,2.206,0v-.025a1.1,1.1,0,1,0-2.206,0Z" transform="translate(-241.488 -353.053)"/>
      <path id="Path_121" data-name="Path 121" d="M314.345,435.557a1.1,1.1,0,1,0,2.206,0v-.025a1.1,1.1,0,1,0-2.206,0Z" transform="translate(-260.589 -353.053)"/>
    </g>
  </g>
</svg>
